<?xml version="1.0" encoding="iso-8859-1"?>
<!-- Generator: Adobe Illustrator 19.1.0, SVG Export Plug-In . SVG Version: 6.00 Build 0)  -->
<!DOCTYPE svg PUBLIC "-//W3C//DTD SVG 1.1//EN" "http://www.w3.org/Graphics/SVG/1.1/DTD/svg11.dtd">
<svg version="1.1" id="Layer_1" xmlns="http://www.w3.org/2000/svg" xmlns:xlink="http://www.w3.org/1999/xlink" x="0px" y="0px"
	 viewBox="0 0 700.915 255.587" style="enable-background:new 0 0 700.915 255.587;" xml:space="preserve">
<g>
	<g>
		<path style="fill:#EB2F2B;" d="M697.858,234.891c-13.679-22.745-49.229-38.997-90.819-38.997H134.071l-3-0.081H70.866
			C33.445,195.812,3,165.368,3,127.946V3.026h626.991c37.422,0,67.866,30.444,67.866,67.866V234.891z"/>
		<path style="fill:#FFFFFF;" d="M629.991,6.027c17.248,0,33.516,6.769,45.807,19.06c12.291,12.291,19.06,28.558,19.06,45.807
			v103.419v24.5v26.774c-4.805-5.553-10.994-10.665-18.456-15.174c-18.695-11.297-43.328-17.518-69.362-17.518H137.071v-0.081h-6
			H70.866c-17.248,0-33.516-6.769-45.807-19.059C12.769,161.462,6,145.194,6,127.946V6.027H629.991 M629.991,0.027H0v127.92
			c0,38.976,31.89,70.866,70.866,70.866h60.205v0.081h475.967c51.6,0,93.819,25.512,93.819,56.693v-56.774v-24.5V70.893
			C700.857,31.917,668.967,0.027,629.991,0.027L629.991,0.027z"/>
	</g>
	<g>
		<path style="fill:#FFFFFF;" d="M54.859,36.979v11.76l-3.71,6.51h-7.14l3.71-6.51h-4.55v-11.76H54.859z"/>
		<path style="fill:#FFFFFF;" d="M94.618,48.738h-11.83v40.32h-11.76v-40.32h-11.83v-11.76h35.42V48.738z"/>
		<path style="fill:#FFFFFF;" d="M167.348,48.738l-20.3,28.561h20.3v11.76h-33.95v-11.76l20.23-28.561h-20.23v-11.76h33.95V48.738z"
			/>
		<path style="fill:#FFFFFF;" d="M235.387,36.979l-12.67,52.08h-11.97l-6.86-28.28l-6.859,28.28h-11.971l-12.67-52.08h11.761
			l6.93,28.28l6.86-28.28h11.97l6.859,28.28l6.86-28.28H235.387z"/>
		<path style="fill:#FFFFFF;" d="M251.417,89.059h-11.76v-52.08h11.76V89.059z"/>
		<path style="fill:#FFFFFF;" d="M268.147,48.738v8.4h14.84v11.76h-14.84v8.4h20.16v11.76h-31.92v-52.08h31.92v11.76H268.147z"/>
		<path style="fill:#FFFFFF;" d="M331.356,36.979v52.08h-11.899l-14.7-29.12v29.12h-11.76v-52.08h11.97l14.63,29.05v-29.05H331.356z
			"/>
		<path style="fill:#FFFFFF;" d="M407.026,63.019c0,3.5-0.654,6.825-1.96,9.975c-1.308,3.15-3.221,5.985-5.74,8.505
			c-2.334,2.287-4.959,4.072-7.875,5.355c-2.917,1.284-5.985,2.019-9.205,2.205h-1.54h-10.5v-52.08h10.5
			c3.5,0,6.848,0.642,10.045,1.925c3.196,1.284,6.055,3.162,8.575,5.635c2.52,2.521,4.433,5.355,5.74,8.505
			C406.371,56.193,407.026,59.519,407.026,63.019z"/>
		<path style="fill:#FFFFFF;" d="M422.635,48.738v8.4h14.84v11.76h-14.84v8.4h20.16v11.76h-31.92v-52.08h31.92v11.76H422.635z"/>
		<path style="fill:#FFFFFF;" d="M487.874,68.269c-0.047,2.754-0.56,5.367-1.54,7.84c-0.979,2.474-2.404,4.69-4.27,6.65
			c-1.914,2.054-4.096,3.616-6.545,4.689c-2.45,1.074-5.053,1.61-7.806,1.61h-0.069c-2.707,0-5.285-0.536-7.735-1.61
			c-2.45-1.073-4.655-2.636-6.615-4.689c-1.82-1.96-3.231-4.177-4.235-6.65c-1.004-2.473-1.528-5.086-1.574-7.84v-31.36h11.76v31.15
			c0,1.26,0.221,2.45,0.665,3.569c0.442,1.12,1.05,2.101,1.82,2.94c0.77,0.84,1.668,1.505,2.694,1.995s2.123,0.735,3.29,0.735
			c1.166,0,2.251-0.245,3.255-0.735c1.003-0.49,1.891-1.155,2.66-1.995c0.771-0.84,1.376-1.82,1.82-2.94
			c0.442-1.119,0.665-2.31,0.665-3.569v-31.15h11.76V68.269z"/>
		<path style="fill:#FFFFFF;" d="M513.004,89.059l-9.1-19.74h-0.141v19.74h-11.76v-52.08h15.82h0.069c2.24,0,4.352,0.42,6.335,1.26
			s3.71,1.995,5.181,3.465c1.47,1.471,2.625,3.186,3.465,5.146s1.26,4.06,1.26,6.3c0,3.174-0.817,6.032-2.45,8.575
			c-1.634,2.544-3.779,4.492-6.439,5.845l9.87,21.49H513.004z"/>
		<path style="fill:#FFFFFF;" d="M600.363,63.019c0,3.5-0.654,6.825-1.96,9.975c-1.308,3.15-3.221,5.985-5.74,8.505
			c-2.334,2.287-4.959,4.072-7.875,5.355c-2.917,1.284-5.985,2.019-9.205,2.205h-1.54h-10.5v-52.08h10.5
			c3.5,0,6.848,0.642,10.045,1.925c3.196,1.284,6.055,3.162,8.575,5.635c2.52,2.521,4.433,5.355,5.74,8.505
			C599.709,56.193,600.363,59.519,600.363,63.019z"/>
		<path style="fill:#FFFFFF;" d="M615.973,48.738v8.4h14.84v11.76h-14.84v8.4h20.16v11.76h-31.92v-52.08h31.92v11.76H615.973z"/>
		<path style="fill:#FFFFFF;" d="M65.919,128.088c2.24,1.168,4.036,2.836,5.39,5.006c1.353,2.17,2.03,4.585,2.03,7.244
			c0,1.914-0.362,3.711-1.085,5.391c-0.724,1.68-1.704,3.139-2.94,4.375c-1.237,1.237-2.695,2.217-4.375,2.939
			c-1.68,0.725-3.477,1.085-5.39,1.085h-0.35h-15.96v-52.079h15.96h0.35c1.913,0,3.71,0.361,5.39,1.085
			c1.68,0.724,3.138,1.704,4.375,2.939c1.236,1.237,2.216,2.695,2.94,4.375c0.723,1.68,1.085,3.478,1.085,5.39
			c0,2.66-0.677,5.075-2.03,7.245C69.954,125.253,68.158,126.923,65.919,128.088z"/>
		<path style="fill:#FFFFFF;" d="M110.158,138.168c-0.047,2.194-0.502,4.26-1.365,6.195c-0.864,1.938-2.019,3.617-3.465,5.04
			c-1.447,1.424-3.15,2.555-5.11,3.396c-1.96,0.84-4.037,1.26-6.23,1.26c-2.24,0-4.329-0.42-6.265-1.26
			c-1.937-0.841-3.64-1.995-5.11-3.466c-1.47-1.47-2.625-3.185-3.465-5.145c-0.84-1.96-1.26-4.061-1.26-6.3h11.76
			c0,1.214,0.42,2.252,1.26,3.114c0.84,0.864,1.866,1.296,3.08,1.296c1.213,0,2.251-0.432,3.115-1.296
			c0.863-0.862,1.295-1.9,1.295-3.114v-35.91h11.76V138.168z"/>
		<path style="fill:#FFFFFF;" d="M126.748,154.059h-11.76v-52.08h11.76V154.059z"/>
		<path style="fill:#FFFFFF;" d="M166.508,113.738h-11.83v40.32h-11.76v-40.32h-11.83v-11.76h35.42V113.738z"/>
		<path style="fill:#FFFFFF;" d="M182.047,113.738v8.4h14.84v11.76h-14.84v8.4h20.16v11.76h-31.919v-52.08h31.919v11.76H182.047z"/>
		<path style="fill:#FFFFFF;" d="M245.257,101.979v52.08h-11.899l-14.7-29.12v29.12h-11.76v-52.08h11.97l14.63,29.05v-29.05H245.257
			z"/>
		<path style="fill:#FFFFFF;" d="M316.376,138.168c-0.047,2.194-0.502,4.26-1.364,6.195c-0.864,1.938-2.02,3.617-3.465,5.04
			c-1.447,1.424-3.15,2.555-5.11,3.396c-1.96,0.84-4.037,1.26-6.23,1.26c-2.239,0-4.329-0.42-6.265-1.26
			c-1.937-0.841-3.64-1.995-5.11-3.466c-1.47-1.47-2.625-3.185-3.465-5.145s-1.26-4.061-1.26-6.3h11.76
			c0,1.214,0.42,2.252,1.26,3.114c0.841,0.864,1.866,1.296,3.08,1.296c1.213,0,2.251-0.432,3.115-1.296
			c0.863-0.862,1.295-1.9,1.295-3.114v-35.91h11.76V138.168z"/>
		<path style="fill:#FFFFFF;" d="M359.986,141.179c-0.98,2.474-2.404,4.689-4.271,6.649c-1.914,2.055-4.095,3.617-6.545,4.69
			c-2.45,1.074-5.052,1.609-7.805,1.609h-0.07c-2.707,0-5.285-0.535-7.734-1.609c-2.45-1.073-4.655-2.613-6.615-4.62
			c-1.82-1.96-3.232-4.176-4.235-6.65c-1.004-2.473-1.528-5.109-1.575-7.91v-12.18c0.233-2.473,0.852-4.806,1.855-7
			c1.003-2.192,2.32-4.176,3.955-5.95c1.96-2.006,4.152-3.546,6.58-4.62c2.426-1.072,5.016-1.609,7.77-1.609h0.07
			c2.753,0,5.354,0.537,7.805,1.609c2.45,1.074,4.631,2.614,6.545,4.62c1.681,1.774,3.01,3.758,3.99,5.95
			c0.98,2.194,1.586,4.527,1.82,7v1.54v6.44v4.199C361.48,136.093,360.966,138.705,359.986,141.179z"/>
		<path style="fill:#FFFFFF;" d="M393.235,133.898h-9.66l-7,20.16h-12.67l18.061-52.08h12.88l18.06,52.08h-12.67L393.235,133.898z"
			/>
		<path style="fill:#FFFFFF;" d="M456.305,133.128c0,0.234,0,0.468,0,0.7c0,0.234-0.024,0.467-0.07,0.7v19.53h-10.85v-2.66
			c-1.4,0.84-2.882,1.505-4.445,1.995s-3.162,0.734-4.795,0.734h-0.07c-2.754,0-5.354-0.535-7.805-1.609
			c-2.45-1.073-4.632-2.613-6.545-4.62c-1.82-1.96-3.232-4.165-4.235-6.615c-1.004-2.45-1.527-5.027-1.574-7.734v-10.78
			c0-2.8,0.502-5.437,1.505-7.91c1.003-2.473,2.438-4.69,4.305-6.65c1.913-2.006,4.095-3.546,6.545-4.62
			c2.45-1.072,5.051-1.609,7.805-1.609h0.07c2.706,0,5.285,0.537,7.735,1.609c2.45,1.074,4.654,2.614,6.614,4.62
			c1.866,2.008,3.302,4.271,4.306,6.79c1.003,2.521,1.505,5.181,1.505,7.98h-11.76c0-1.26-0.223-2.45-0.665-3.57
			c-0.444-1.12-1.05-2.1-1.82-2.939c-0.77-0.841-1.669-1.506-2.695-1.995c-1.026-0.49-2.124-0.735-3.29-0.735
			c-1.167,0-2.252,0.245-3.255,0.735c-1.004,0.489-1.89,1.154-2.66,1.995c-0.77,0.84-1.377,1.819-1.819,2.939
			c-0.444,1.12-0.665,2.311-0.665,3.57v10.149c0,1.261,0.221,2.45,0.665,3.57c0.442,1.12,1.05,2.101,1.819,2.94
			c0.771,0.84,1.656,1.505,2.66,1.995c1.003,0.489,2.088,0.734,3.255,0.734c1.354,0,2.578-0.303,3.676-0.91
			c1.096-0.605,2.041-1.423,2.835-2.449h-6.58v-10.851h20.3V133.128z"/>
		<path style="fill:#FFFFFF;" d="M473.734,113.738v8.4h14.84v11.76h-14.84v8.4h20.16v11.76h-31.92v-52.08h31.92v11.76H473.734z"/>
		<path style="fill:#FFFFFF;" d="M536.943,101.979v52.08h-11.899l-14.7-29.12v29.12h-11.76v-52.08h11.97l14.63,29.05v-29.05H536.943
			z"/>
	</g>
</g>
</svg>
