<?xml version="1.0" encoding="iso-8859-1"?>
<!-- Generator: Adobe Illustrator 19.1.0, SVG Export Plug-In . SVG Version: 6.00 Build 0)  -->
<!DOCTYPE svg PUBLIC "-//W3C//DTD SVG 1.1//EN" "http://www.w3.org/Graphics/SVG/1.1/DTD/svg11.dtd">
<svg version="1.1" id="Layer_1" xmlns="http://www.w3.org/2000/svg" xmlns:xlink="http://www.w3.org/1999/xlink" x="0px" y="0px"
	 viewBox="0 0 569.071 255.587" style="enable-background:new 0 0 569.071 255.587;" xml:space="preserve">
<g>
	<g>
		<path style="fill:#FFFFFF;" d="M3,70.893C3,33.471,33.444,3.027,70.866,3.027h494.991v124.92
			c0,37.422-30.444,67.866-67.866,67.866h-63.206v0.081H93.819c-41.591,0-77.14,16.252-90.818,38.996V70.893z"/>
		<path d="M562.857,6.027v121.919c0,17.248-6.769,33.516-19.06,45.807s-28.558,19.06-45.806,19.06h-60.205h-6v0.081H93.819
			c-26.034,0-50.668,6.222-69.362,17.519c-7.462,4.509-13.651,9.622-18.456,15.174v-26.774v-24.5V70.893
			c0-17.248,6.769-33.516,19.06-45.807C37.35,12.796,53.618,6.027,70.866,6.027H562.857 M568.857,0.027H70.866
			C31.89,0.027,0,31.917,0,70.893v103.419v24.5v56.774c0-31.181,42.218-56.693,93.818-56.693h343.967v-0.081h60.205
			c38.976,0,70.866-31.89,70.866-70.866V0.027L568.857,0.027z"/>
	</g>
	<g>
		<path style="fill:#231F20;" d="M54.997,91.058h-11.76v-52.08h11.76V91.058z"/>
		<path style="fill:#231F20;" d="M82.157,40.239c1.96,0.84,3.676,1.994,5.146,3.465c1.47,1.47,2.625,3.185,3.465,5.145
			s1.26,4.061,1.26,6.3c0,2.24-0.42,4.341-1.26,6.3c-0.84,1.961-1.995,3.676-3.465,5.146s-3.186,2.625-5.146,3.465
			s-4.06,1.26-6.3,1.26h-0.07h-4.06v19.74h-11.76v-52.08h15.819h0.07C78.098,38.978,80.197,39.398,82.157,40.239z"/>
		<path style="fill:#231F20;" d="M134.587,70.127c0,0.234,0,0.468,0,0.701s-0.023,0.467-0.07,0.699v19.53h-10.85v-2.66
			c-1.4,0.841-2.882,1.505-4.445,1.995s-3.162,0.734-4.795,0.734h-0.069c-2.755,0-5.355-0.535-7.806-1.609
			c-2.449-1.072-4.632-2.613-6.545-4.62c-1.819-1.96-3.231-4.165-4.234-6.614c-1.005-2.451-1.528-5.028-1.575-7.735v-10.78
			c0-2.8,0.502-5.436,1.505-7.91c1.003-2.473,2.438-4.689,4.305-6.65c1.913-2.006,4.096-3.545,6.545-4.619
			c2.45-1.073,5.051-1.61,7.806-1.61h0.069c2.706,0,5.285,0.537,7.735,1.61c2.45,1.074,4.655,2.613,6.615,4.619
			c1.865,2.008,3.301,4.271,4.305,6.791c1.003,2.52,1.505,5.18,1.505,7.979h-11.76c0-1.26-0.222-2.45-0.665-3.569
			c-0.444-1.121-1.05-2.101-1.82-2.94c-0.77-0.841-1.669-1.505-2.694-1.995c-1.027-0.49-2.124-0.734-3.29-0.734
			c-1.167,0-2.252,0.244-3.255,0.734c-1.005,0.49-1.891,1.154-2.66,1.995c-0.771,0.84-1.377,1.819-1.82,2.94
			c-0.444,1.119-0.665,2.31-0.665,3.569v10.149c0,1.261,0.221,2.451,0.665,3.57c0.443,1.12,1.05,2.101,1.82,2.94
			c0.77,0.84,1.655,1.505,2.66,1.995c1.003,0.49,2.088,0.734,3.255,0.734c1.353,0,2.577-0.303,3.675-0.91
			c1.096-0.605,2.041-1.422,2.835-2.449h-6.58v-10.85h20.3V70.127z"/>
		<path style="fill:#231F20;" d="M152.017,50.739v8.399h14.84v11.76h-14.84v8.4h20.16v11.76h-31.92v-52.08h31.92v11.761H152.017z"/>
		<path style="fill:#231F20;" d="M210.746,50.739l-20.3,28.56h20.3v11.76h-33.95v-11.76l20.23-28.56h-20.23V38.978h33.95V50.739z"/>
		<path style="fill:#231F20;" d="M227.405,50.739v8.399h14.84v11.76h-14.84v8.4h20.16v11.76h-31.92v-52.08h31.92v11.761H227.405z"/>
		<path style="fill:#231F20;" d="M286.975,50.739h-11.83v40.319h-11.76V50.739h-11.83V38.978h35.42V50.739z"/>
		<path style="fill:#231F20;" d="M351.444,79.298v11.76h-25.69v-52.08h11.76v40.32H351.444z"/>
		<path style="fill:#231F20;" d="M367.684,91.058h-11.76v-52.08h11.76V91.058z"/>
		<path style="fill:#231F20;" d="M387.354,65.088l22.12,25.97h-11.761l-13.3-14.771v14.771h-11.76v-52.08h11.76v14.91l13.37-14.91
			h11.76L387.354,65.088z"/>
		<path style="fill:#231F20;" d="M81.668,103.978v52.08h-11.9l-14.7-29.12v29.12h-11.76v-52.08h11.97l14.63,29.05v-29.05H81.668z"/>
		<path style="fill:#231F20;" d="M97.277,115.739v8.399h14.841v11.76H97.277v8.4h20.16v11.76h-31.92v-52.08h31.92v11.761H97.277z"/>
		<path style="fill:#231F20;" d="M160.486,103.978v52.08h-11.9l-14.7-29.12v29.12h-11.76v-52.08h11.97l14.63,29.05v-29.05H160.486z"
			/>
		<path style="fill:#231F20;" d="M214.036,130.088l22.12,25.97h-11.761l-13.3-14.771v14.771h-11.76v-52.08h11.76v14.91l13.37-14.91
			h11.76L214.036,130.088z"/>
		<path style="fill:#231F20;" d="M250.365,115.739v8.399h14.84v11.76h-14.84v8.4h20.16v11.76h-31.92v-52.08h31.92v11.761H250.365z"
			/>
		<path style="fill:#231F20;" d="M307.345,139.888c0,0.84-0.06,1.657-0.175,2.45c-0.117,0.794-0.292,1.587-0.525,2.38
			c-0.514,1.634-1.26,3.149-2.24,4.55c-0.979,1.4-2.146,2.602-3.5,3.605s-2.847,1.785-4.479,2.345c-1.635,0.56-3.36,0.84-5.181,0.84
			c-2.239,0-4.329-0.42-6.265-1.26c-1.937-0.841-3.64-1.995-5.11-3.466c-1.47-1.469-2.625-3.185-3.465-5.145s-1.26-4.061-1.26-6.3
			h11.76c0,1.214,0.42,2.252,1.26,3.114c0.841,0.865,1.866,1.296,3.08,1.296c0.98,0,1.844-0.291,2.591-0.875
			c0.745-0.583,1.26-1.318,1.54-2.205c0.14-0.373,0.21-0.793,0.21-1.261c0-1.213-0.421-2.192-1.261-2.939
			c-0.84-0.746-1.867-1.12-3.08-1.12c-2.239,0-4.329-0.407-6.265-1.225c-1.937-0.816-3.64-1.937-5.11-3.36
			c-1.47-1.423-2.625-3.091-3.465-5.005c-0.84-1.913-1.26-3.99-1.26-6.229c0-0.793,0.058-1.586,0.175-2.381
			c0.116-0.793,0.291-1.586,0.525-2.38c0.513-1.633,1.26-3.149,2.24-4.55c0.979-1.4,2.146-2.602,3.5-3.605
			c1.353-1.002,2.846-1.785,4.479-2.345c1.633-0.56,3.36-0.84,5.18-0.84c2.24,0,4.328,0.42,6.266,1.261
			c1.936,0.84,3.64,1.994,5.109,3.465c1.471,1.47,2.625,3.185,3.466,5.145c0.84,1.96,1.26,4.037,1.26,6.23h-11.76
			c0-1.213-0.421-2.24-1.261-3.08s-1.867-1.26-3.08-1.26c-0.979,0-1.844,0.291-2.59,0.875c-0.747,0.584-1.26,1.318-1.54,2.204
			c-0.14,0.327-0.21,0.747-0.21,1.261c0,1.213,0.42,2.193,1.26,2.939c0.841,0.747,1.866,1.12,3.08,1.12
			c2.24,0,4.328,0.409,6.266,1.226c1.936,0.816,3.64,1.937,5.109,3.359c1.471,1.424,2.625,3.092,3.466,5.005
			C306.925,135.642,307.345,137.696,307.345,139.888z"/>
		<path style="fill:#231F20;" d="M346.474,115.739h-11.83v40.319h-11.76v-40.319h-11.83v-11.761h35.42V115.739z"/>
		<path style="fill:#231F20;" d="M372.933,130.088c2.24,1.167,4.036,2.835,5.391,5.005c1.353,2.17,2.029,4.585,2.029,7.245
			c0,1.914-0.361,3.71-1.085,5.39c-0.724,1.681-1.704,3.14-2.939,4.375c-1.237,1.237-2.695,2.218-4.375,2.94
			c-1.681,0.724-3.478,1.084-5.391,1.084h-0.35h-15.96v-52.079h15.96h0.35c1.913,0,3.71,0.362,5.391,1.085
			c1.68,0.724,3.138,1.704,4.375,2.939c1.235,1.237,2.216,2.695,2.939,4.375s1.085,3.478,1.085,5.391
			c0,2.66-0.677,5.074-2.029,7.244C376.969,127.252,375.173,128.922,372.933,130.088z"/>
		<path style="fill:#231F20;" d="M423.683,143.178c-0.98,2.475-2.404,4.689-4.271,6.65c-1.914,2.054-4.095,3.617-6.545,4.689
			c-2.45,1.074-5.052,1.609-7.805,1.609h-0.07c-2.707,0-5.285-0.535-7.734-1.609c-2.45-1.072-4.655-2.613-6.615-4.62
			c-1.82-1.96-3.232-4.176-4.235-6.649c-1.004-2.474-1.528-5.11-1.575-7.91v-12.18c0.233-2.474,0.852-4.807,1.855-7
			c1.003-2.193,2.32-4.177,3.955-5.951c1.96-2.006,4.152-3.545,6.58-4.619c2.426-1.073,5.016-1.61,7.77-1.61h0.07
			c2.753,0,5.354,0.537,7.805,1.61c2.45,1.074,4.631,2.613,6.545,4.619c1.681,1.774,3.01,3.758,3.99,5.951s1.586,4.526,1.82,7v1.539
			v6.44v4.2C425.176,138.092,424.662,140.706,423.683,143.178z"/>
		<path style="fill:#231F20;" d="M468.412,143.178c-0.98,2.475-2.404,4.689-4.271,6.65c-1.914,2.054-4.095,3.617-6.545,4.689
			c-2.45,1.074-5.052,1.609-7.805,1.609h-0.07c-2.707,0-5.285-0.535-7.734-1.609c-2.45-1.072-4.655-2.613-6.615-4.62
			c-1.82-1.96-3.232-4.176-4.235-6.649c-1.004-2.474-1.528-5.11-1.575-7.91v-12.18c0.233-2.474,0.852-4.807,1.855-7
			c1.003-2.193,2.32-4.177,3.955-5.951c1.96-2.006,4.152-3.545,6.58-4.619c2.426-1.073,5.016-1.61,7.77-1.61h0.07
			c2.753,0,5.354,0.537,7.805,1.61c2.45,1.074,4.631,2.613,6.545,4.619c1.681,1.774,3.01,3.758,3.99,5.951s1.586,4.526,1.82,7v1.539
			v6.44v4.2C469.905,138.092,469.392,140.706,468.412,143.178z"/>
		<path style="fill:#231F20;" d="M522.592,156.058h-11.761v-18.2l-6.37,18.2h-11.76l-6.51-18.76v18.76h-11.76v-52.08h11.97
			l12.18,35.14l12.25-35.14h11.761V156.058z"/>
	</g>
</g>
</svg>
