<?xml version="1.0" encoding="iso-8859-1"?>
<!-- Generator: Adobe Illustrator 19.1.0, SVG Export Plug-In . SVG Version: 6.00 Build 0)  -->
<!DOCTYPE svg PUBLIC "-//W3C//DTD SVG 1.1//EN" "http://www.w3.org/Graphics/SVG/1.1/DTD/svg11.dtd">
<svg version="1.1" id="Layer_1" xmlns="http://www.w3.org/2000/svg" xmlns:xlink="http://www.w3.org/1999/xlink" x="0px" y="0px"
	 viewBox="0 0 464.663 561.967" style="enable-background:new 0 0 464.663 561.967;" xml:space="preserve">
<g>
	<g>
		<path style="fill:#EB2F2B;" d="M461.663,533.287c-20.869-48.843-93.731-85-180.16-85h-22.613v-0.159H138.351
			c-36.001,0-69.948-14.121-95.589-39.762S3,348.778,3,312.777V3h323.312c36.001,0,69.948,14.121,95.589,39.762
			s39.762,59.588,39.762,95.589V533.287z"/>
		<path style="fill:#FFFFFF;" d="M326.311,6c35.199,0,68.394,13.809,93.468,38.883s38.883,58.269,38.883,93.468v264.946v47.831
			v69.818c-1.106-1.815-2.287-3.617-3.544-5.405c-9.739-13.853-23.586-26.26-41.156-36.877
			c-35.619-21.524-82.661-33.377-132.46-33.377h-19.613v-0.158h-6H138.351c-35.199,0-68.394-13.809-93.468-38.883
			S6,347.976,6,312.777V6H326.311 M326.311,0H0v312.777c0,76.093,62.258,138.351,138.351,138.351h117.538v0.158h25.613
			c100.738,0,183.161,49.807,183.161,110.681V451.128v-47.831V138.351C464.663,62.258,402.405,0,326.311,0L326.311,0z"/>
	</g>
	<g>
		<path style="fill:#FFFFFF;" d="M123.769,127.016c-0.068,3.197-0.73,6.207-1.988,9.027c-1.26,2.822-2.942,5.271-5.049,7.344
			c-2.109,2.076-4.59,3.725-7.446,4.947c-2.856,1.225-5.883,1.836-9.078,1.836c-3.265,0-6.308-0.611-9.129-1.836
			c-2.823-1.223-5.304-2.906-7.446-5.049c-2.142-2.143-3.824-4.641-5.049-7.496c-1.225-2.857-1.836-5.916-1.836-9.18h17.137
			c0,1.768,0.611,3.281,1.836,4.537c1.223,1.26,2.719,1.889,4.487,1.889c1.768,0,3.28-0.629,4.539-1.889
			c1.257-1.256,1.888-2.77,1.888-4.537V74.284h17.135V127.016z"/>
		<path style="fill:#FFFFFF;" d="M147.944,91.419v12.24h21.624v17.137h-21.624v12.24h29.376v17.135h-46.512V74.284h46.512v17.135
			H147.944z"/>
		<path style="fill:#FFFFFF;" d="M201.186,91.419v12.24h21.624v17.137h-21.624v12.24h29.376v17.135H184.05V74.284h46.512v17.135
			H201.186z"/>
		<path style="fill:#FFFFFF;" d="M287.988,91.419h-17.238v58.752h-17.136V91.419h-17.238V74.284h51.612V91.419z"/>
		<path style="fill:#FFFFFF;" d="M116.527,230.796h-14.075l-10.2,29.375H73.789l26.315-75.887h18.769l26.315,75.887h-18.461
			L116.527,230.796z"/>
		<path style="fill:#FFFFFF;" d="M250.86,201.419l-29.58,41.617h29.58v17.135h-49.47v-17.135l29.478-41.617H201.39v-17.135h49.47
			V201.419z"/>
		<path style="fill:#FFFFFF;" d="M275.135,201.419v12.24h21.624v17.137h-21.624v12.24h29.376v17.135h-46.512v-75.887h46.512v17.135
			H275.135z"/>
		<path style="fill:#FFFFFF;" d="M107.347,370.171l-13.26-28.764h-0.203v28.764H76.747v-75.887h23.052h0.103
			c3.264,0,6.34,0.611,9.23,1.836c2.89,1.223,5.406,2.906,7.549,5.049c2.142,2.141,3.824,4.641,5.049,7.496
			c1.224,2.855,1.836,5.916,1.836,9.18c0,4.625-1.191,8.791-3.57,12.496c-2.381,3.707-5.508,6.545-9.385,8.516l14.383,31.314
			H107.347z"/>
		<path style="fill:#FFFFFF;" d="M147.126,311.419v12.24h21.623v17.137h-21.623v12.24h29.375v17.135H129.99v-75.887h46.512v17.135
			H147.126z"/>
		<path style="fill:#FFFFFF;" d="M204.653,332.329l32.232,37.842h-17.137l-19.38-21.521v21.521h-17.136v-75.887h17.136v21.725
			l19.482-21.725h17.136L204.653,332.329z"/>
		<path style="fill:#FFFFFF;" d="M261.873,332.329l32.232,37.842h-17.137l-19.38-21.521v21.521h-17.136v-75.887h17.136v21.725
			l19.482-21.725h17.136L261.873,332.329z"/>
		<path style="fill:#FFFFFF;" d="M314.81,311.419v12.24h21.624v17.137H314.81v12.24h29.376v17.135h-46.512v-75.887h46.512v17.135
			H314.81z"/>
		<path style="fill:#FFFFFF;" d="M381.517,370.171l-13.26-28.764h-0.204v28.764h-17.136v-75.887h23.052h0.103
			c3.264,0,6.34,0.611,9.23,1.836c2.89,1.223,5.406,2.906,7.548,5.049c2.143,2.141,3.825,4.641,5.05,7.496
			c1.224,2.855,1.836,5.916,1.836,9.18c0,4.625-1.19,8.791-3.57,12.496c-2.381,3.707-5.508,6.545-9.384,8.516l14.382,31.314H381.517
			z"/>
	</g>
</g>
</svg>
