<?xml version="1.0" encoding="iso-8859-1"?>
<!-- Generator: Adobe Illustrator 19.1.0, SVG Export Plug-In . SVG Version: 6.00 Build 0)  -->
<!DOCTYPE svg PUBLIC "-//W3C//DTD SVG 1.1//EN" "http://www.w3.org/Graphics/SVG/1.1/DTD/svg11.dtd">
<svg version="1.1" id="Layer_1" xmlns="http://www.w3.org/2000/svg" xmlns:xlink="http://www.w3.org/1999/xlink" x="0px" y="0px"
	 viewBox="0 0 497.676 239.587" style="enable-background:new 0 0 497.676 239.587;" xml:space="preserve">
<g>
	<g>
		<path style="fill:#FFFFFF;" d="M3,70.866C3,33.444,33.444,3,70.866,3h423.81v108.946c0,37.422-30.444,67.866-67.866,67.866
			h-63.205v0.081H93.818c-41.591,0-77.14,16.252-90.818,38.997V70.866z"/>
		<path d="M491.676,6v105.946c0,17.248-6.769,33.516-19.06,45.807s-28.558,19.06-45.807,19.06h-60.205h-6v0.081H93.819
			c-26.034,0-50.668,6.221-69.362,17.518c-7.462,4.509-13.651,9.622-18.456,15.174v-26.774v-24.5V70.866
			C6,53.618,12.769,37.35,25.06,25.06C37.35,12.769,53.618,6,70.866,6H491.676 M497.676,0H70.866C31.89,0,0,31.89,0,70.866v87.446
			v24.5v56.774c0-31.181,42.218-56.693,93.819-56.693h272.786v-0.081h60.205c38.976,0,70.866-31.89,70.866-70.866V0L497.676,0z"/>
	</g>
	<g>
		<path d="M71.955,69.576v11.16h19.716V96.36H71.955v26.784H56.331V53.952h42.408v15.624H71.955z"/>
		<path d="M147.656,102.033c-0.062,2.915-0.667,5.658-1.813,8.23c-1.148,2.573-2.683,4.806-4.604,6.696
			c-1.923,1.892-4.186,3.395-6.789,4.511c-2.604,1.115-5.363,1.674-8.277,1.674c-2.976,0-5.751-0.559-8.323-1.674
			c-2.573-1.116-4.836-2.651-6.789-4.604c-1.953-1.953-3.487-4.231-4.604-6.836c-1.116-2.604-1.674-5.394-1.674-8.37h15.624
			c0,1.613,0.558,2.992,1.674,4.139c1.116,1.148,2.479,1.721,4.092,1.721c1.611,0,2.99-0.572,4.139-1.721
			c1.146-1.146,1.721-2.525,1.721-4.139V53.952h15.624V102.033z"/>
		<path d="M169.697,123.144h-15.624V53.952h15.624V123.144z"/>
		<path d="M191.924,69.576v11.16h19.716V96.36h-19.716v11.16h26.784v15.624H176.3V53.952h42.408v15.624H191.924z"/>
		<path d="M267.625,101.661c0,1.116-0.079,2.201-0.232,3.255c-0.156,1.056-0.389,2.108-0.698,3.162
			c-0.683,2.171-1.674,4.186-2.976,6.045c-1.302,1.86-2.853,3.457-4.65,4.79c-1.799,1.334-3.782,2.371-5.951,3.115
			c-2.172,0.744-4.465,1.116-6.883,1.116c-2.976,0-5.751-0.559-8.323-1.674c-2.573-1.116-4.836-2.651-6.789-4.604
			c-1.953-1.953-3.487-4.231-4.604-6.836c-1.116-2.604-1.674-5.394-1.674-8.37h15.624c0,1.613,0.558,2.992,1.674,4.139
			c1.116,1.148,2.479,1.721,4.092,1.721c1.303,0,2.449-0.387,3.441-1.163c0.991-0.774,1.674-1.751,2.046-2.929
			c0.187-0.496,0.279-1.054,0.279-1.675c0-1.611-0.559-2.913-1.674-3.905c-1.116-0.991-2.48-1.488-4.093-1.488
			c-2.976,0-5.751-0.542-8.323-1.628c-2.573-1.084-4.836-2.571-6.789-4.464c-1.953-1.891-3.487-4.106-4.604-6.649
			c-1.116-2.541-1.674-5.301-1.674-8.276c0-1.054,0.077-2.107,0.232-3.162c0.154-1.054,0.387-2.107,0.697-3.162
			c0.682-2.17,1.674-4.186,2.977-6.045c1.302-1.86,2.851-3.456,4.649-4.79c1.798-1.332,3.781-2.371,5.952-3.115
			c2.17-0.744,4.464-1.116,6.882-1.116c2.977,0,5.75,0.559,8.324,1.674c2.571,1.116,4.836,2.65,6.789,4.604
			c1.952,1.953,3.487,4.231,4.604,6.836c1.115,2.604,1.674,5.363,1.674,8.277h-15.624c0-1.612-0.559-2.977-1.674-4.093
			c-1.116-1.115-2.48-1.674-4.093-1.674c-1.302,0-2.449,0.388-3.44,1.163c-0.993,0.775-1.674,1.752-2.046,2.929
			c-0.187,0.435-0.279,0.993-0.279,1.675c0,1.612,0.558,2.914,1.674,3.905c1.116,0.993,2.479,1.488,4.092,1.488
			c2.977,0,5.75,0.543,8.324,1.628c2.571,1.085,4.836,2.573,6.789,4.464c1.952,1.892,3.487,4.107,4.604,6.649
			C267.067,96.02,267.625,98.748,267.625,101.661z"/>
		<path d="M319.61,69.576h-15.717v53.568H288.27V69.576h-15.717V53.952h47.058V69.576z"/>
		<path d="M367.505,102.033c-0.062,2.915-0.667,5.658-1.813,8.23c-1.148,2.573-2.683,4.806-4.604,6.696
			c-1.923,1.892-4.185,3.395-6.789,4.511c-2.604,1.115-5.363,1.674-8.277,1.674c-2.976,0-5.751-0.559-8.323-1.674
			c-2.573-1.116-4.836-2.651-6.789-4.604c-1.953-1.953-3.487-4.231-4.604-6.836c-1.116-2.604-1.674-5.394-1.674-8.37h15.624
			c0,1.613,0.558,2.992,1.674,4.139c1.116,1.148,2.479,1.721,4.092,1.721s2.991-0.572,4.139-1.721
			c1.146-1.146,1.721-2.525,1.721-4.139V53.952h15.624V102.033z"/>
		<path d="M389.546,69.576v11.16h19.716V96.36h-19.716v11.16h26.784v15.624h-42.408V53.952h42.408v15.624H389.546z"/>
		<path d="M438.37,102.033h-15.624V53.952h15.624V102.033z M422.839,123.144V107.52h15.531v15.624H422.839z"/>
	</g>
</g>
</svg>
