<?xml version="1.0" encoding="iso-8859-1"?>
<!-- Generator: Adobe Illustrator 19.1.0, SVG Export Plug-In . SVG Version: 6.00 Build 0)  -->
<!DOCTYPE svg PUBLIC "-//W3C//DTD SVG 1.1//EN" "http://www.w3.org/Graphics/SVG/1.1/DTD/svg11.dtd">
<svg version="1.1" id="Layer_1" xmlns="http://www.w3.org/2000/svg" xmlns:xlink="http://www.w3.org/1999/xlink" x="0px" y="0px"
	 viewBox="0 0 202.905 309.587" style="enable-background:new 0 0 202.905 309.587;" xml:space="preserve">
<g>
	<g>
		<path style="fill:#FFFFFF;" d="M71.116,306.836c-37.422,0-67.866-30.444-67.866-67.865V20.947
			c13.672,22.733,49.196,38.98,90.761,38.996l4.976,0.081h33.254c37.422,0,67.866,30.444,67.866,67.866v178.946H71.116z"/>
		<path d="M6.25,30.25c4.805,5.552,10.994,10.665,18.456,15.174C43.38,56.709,67.982,62.929,93.985,62.943l4.953,0.081l0.049,0.001
			h0.049h33.206c17.248,0,33.516,6.769,45.807,19.06c12.291,12.291,19.06,28.558,19.06,45.807v175.946H71.116
			c-17.248,0-33.516-6.769-45.807-19.06C13.019,272.486,6.25,256.219,6.25,238.97V81.524v-24.5V30.25 M0.25,0.25v56.774v24.5V238.97
			c0,38.976,31.89,70.866,70.866,70.866h131.991V127.89c0-38.976-31.89-70.866-70.866-70.866H99.035l-5-0.081h0.033
			C42.468,56.943,0.25,31.431,0.25,0.25L0.25,0.25z"/>
	</g>
	<g>
		<path style="fill:#231F20;" d="M78.517,136.085H68.269v-15.86l-5.551,15.86H52.47l-5.673-16.349v16.349H36.549V90.701H46.98
			l10.614,30.621l10.675-30.621h10.248V136.085z"/>
		<path style="fill:#231F20;" d="M116.701,124.861c-0.854,2.156-2.095,4.087-3.721,5.795c-1.668,1.79-3.568,3.152-5.703,4.088
			c-2.136,0.936-4.403,1.402-6.802,1.402h-0.062c-2.358,0-4.605-0.467-6.74-1.402s-4.057-2.277-5.765-4.026
			c-1.586-1.708-2.816-3.639-3.69-5.795c-0.875-2.155-1.331-4.453-1.372-6.894v-10.613c0.203-2.155,0.741-4.188,1.616-6.101
			c0.874-1.911,2.022-3.639,3.446-5.185c1.708-1.748,3.619-3.09,5.734-4.026c2.114-0.935,4.371-1.402,6.771-1.402h0.062
			c2.398,0,4.666,0.468,6.802,1.402c2.135,0.937,4.035,2.278,5.703,4.026c1.464,1.546,2.623,3.273,3.477,5.185
			c0.854,1.912,1.383,3.945,1.587,6.101v1.342v5.612v3.659C118.003,120.429,117.556,122.706,116.701,124.861z"/>
		<path style="fill:#231F20;" d="M78.761,155.701l-15.799,45.384h-10.37l-15.799-45.384h10.248l10.735,30.865l10.736-30.865H78.761z
			"/>
		<path style="fill:#231F20;" d="M90.777,201.085H80.529v-45.384h10.248V201.085z"/>
		<path style="fill:#231F20;" d="M128.597,155.701v45.384h-10.37l-12.81-25.376v25.376H95.169v-45.384H105.6l12.749,25.314v-25.314
			H128.597z"/>
		<path style="fill:#231F20;" d="M162.268,165.949h-10.309v35.137h-10.248v-35.137h-10.309v-10.247h30.865V165.949z"/>
		<path style="fill:#231F20;" d="M66.805,230.949h-10.31v35.137H46.247v-35.137H35.939v-10.247h30.866V230.949z"/>
		<path style="fill:#231F20;" d="M103.893,254.861c-0.854,2.156-2.095,4.087-3.721,5.795c-1.668,1.79-3.569,3.152-5.704,4.088
			s-4.402,1.402-6.802,1.402h-0.061c-2.359,0-4.605-0.467-6.74-1.402c-2.136-0.936-4.057-2.277-5.765-4.026
			c-1.586-1.708-2.816-3.639-3.69-5.795c-0.875-2.155-1.332-4.453-1.373-6.894v-10.613c0.203-2.155,0.742-4.188,1.617-6.101
			c0.874-1.911,2.022-3.639,3.446-5.185c1.708-1.748,3.619-3.09,5.733-4.026c2.114-0.935,4.371-1.402,6.771-1.402h0.061
			c2.399,0,4.667,0.468,6.802,1.402c2.135,0.937,4.036,2.278,5.704,4.026c1.464,1.546,2.622,3.273,3.477,5.185
			c0.854,1.912,1.382,3.945,1.586,6.101v1.342v5.612v3.659C105.194,250.429,104.746,252.706,103.893,254.861z"/>
		<path style="fill:#231F20;" d="M141.712,220.701v45.384h-10.248v-17.568h-12.139v17.568h-10.248v-45.384h10.248v17.567h12.139
			v-17.567H141.712z"/>
	</g>
</g>
</svg>
