<?xml version="1.0" encoding="iso-8859-1"?>
<!-- Generator: Adobe Illustrator 19.1.0, SVG Export Plug-In . SVG Version: 6.00 Build 0)  -->
<!DOCTYPE svg PUBLIC "-//W3C//DTD SVG 1.1//EN" "http://www.w3.org/Graphics/SVG/1.1/DTD/svg11.dtd">
<svg version="1.1" id="Layer_1" xmlns="http://www.w3.org/2000/svg" xmlns:xlink="http://www.w3.org/1999/xlink" x="0px" y="0px"
	 viewBox="0 0 569.071 255.587" style="enable-background:new 0 0 569.071 255.587;" xml:space="preserve">
<g>
	<g>
		<path style="fill:#FFFFFF;" d="M70.866,252.56C33.444,252.56,3,222.116,3,184.694V20.696
			c13.679,22.745,49.229,38.997,90.819,38.997h340.967l3,0.081h60.205c37.422,0,67.866,30.444,67.866,67.866v124.92H70.866z"/>
		<path d="M6,30.001c4.805,5.552,10.994,10.665,18.456,15.174c18.695,11.297,43.328,17.518,69.362,17.518h337.967v0.081h6h60.205
			c17.248,0,33.516,6.769,45.807,19.06c12.291,12.291,19.06,28.559,19.06,45.807v121.92H70.866c-17.248,0-33.516-6.769-45.807-19.06
			C12.769,218.21,6,201.942,6,184.694V81.274v-24.5V30.001 M0,0v56.774v24.5v103.42c0,38.976,31.89,70.866,70.866,70.866h497.991
			V127.64c0-38.976-31.89-70.866-70.866-70.866h-60.205v-0.081H93.818C42.218,56.693,0,31.181,0,0L0,0z"/>
	</g>
	<g>
		<path style="fill:#231F20;" d="M54.998,147.032h-11.76v-52.08h11.76V147.032z"/>
		<path style="fill:#231F20;" d="M82.158,96.211c1.96,0.84,3.676,1.994,5.145,3.465c1.471,1.471,2.625,3.186,3.465,5.145
			c0.841,1.961,1.261,4.061,1.261,6.301s-0.42,4.34-1.261,6.3c-0.84,1.96-1.994,3.675-3.465,5.146
			c-1.469,1.469-3.185,2.625-5.145,3.465s-4.061,1.26-6.3,1.26h-0.07h-4.06v19.74h-11.76v-52.08h15.819h0.07
			C78.097,94.952,80.198,95.372,82.158,96.211z"/>
		<path style="fill:#231F20;" d="M134.587,126.101c0,0.234,0,0.468,0,0.7c0,0.234-0.023,0.467-0.07,0.7v19.53h-10.85v-2.66
			c-1.4,0.84-2.883,1.505-4.445,1.994c-1.564,0.49-3.162,0.735-4.795,0.735h-0.07c-2.754,0-5.354-0.536-7.805-1.61
			c-2.449-1.072-4.632-2.612-6.545-4.619c-1.82-1.961-3.232-4.166-4.234-6.615c-1.005-2.45-1.529-5.027-1.576-7.734v-10.781
			c0-2.799,0.502-5.436,1.506-7.91c1.002-2.473,2.438-4.689,4.305-6.649c1.913-2.006,4.096-3.546,6.545-4.62
			c2.45-1.072,5.051-1.609,7.805-1.609h0.07c2.706,0,5.285,0.537,7.734,1.609c2.451,1.074,4.656,2.614,6.615,4.62
			c1.866,2.007,3.301,4.271,4.306,6.79c1.003,2.52,1.505,5.18,1.505,7.98h-11.76c0-1.26-0.223-2.45-0.666-3.57
			s-1.049-2.1-1.819-2.939c-0.771-0.841-1.669-1.506-2.694-1.996c-1.027-0.49-2.125-0.734-3.291-0.734s-2.252,0.244-3.254,0.734
			c-1.005,0.49-1.891,1.155-2.66,1.996c-0.771,0.84-1.377,1.819-1.82,2.939c-0.444,1.12-0.665,2.311-0.665,3.57v10.149
			c0,1.261,0.221,2.45,0.665,3.57c0.443,1.12,1.05,2.101,1.82,2.94c0.77,0.84,1.655,1.504,2.66,1.994
			c1.002,0.49,2.088,0.735,3.254,0.735c1.354,0,2.578-0.304,3.676-0.91c1.096-0.606,2.041-1.423,2.834-2.45h-6.58v-10.85h20.301
			V126.101z"/>
		<path style="fill:#231F20;" d="M152.017,106.711v8.4h14.84v11.76h-14.84v8.4h20.16v11.76h-31.92v-52.08h31.92v11.76H152.017z"/>
		<path style="fill:#231F20;" d="M210.746,106.711l-20.299,28.561h20.299v11.76h-33.949v-11.76l20.23-28.561h-20.23v-11.76h33.949
			V106.711z"/>
		<path style="fill:#231F20;" d="M227.406,106.711v8.4h14.84v11.76h-14.84v8.4h20.16v11.76h-31.92v-52.08h31.92v11.76H227.406z"/>
		<path style="fill:#231F20;" d="M286.974,106.711h-11.83v40.32h-11.76v-40.32h-11.83v-11.76h35.42V106.711z"/>
		<path style="fill:#231F20;" d="M351.445,135.272v11.76h-25.691v-52.08h11.76v40.32H351.445z"/>
		<path style="fill:#231F20;" d="M367.683,147.032h-11.76v-52.08h11.76V147.032z"/>
		<path style="fill:#231F20;" d="M387.353,121.061l22.121,25.971h-11.762l-13.299-14.771v14.771h-11.76v-52.08h11.76v14.91
			l13.369-14.91h11.76L387.353,121.061z"/>
		<path style="fill:#231F20;" d="M81.667,159.952v52.08h-11.9l-14.699-29.121v29.121h-11.76v-52.08h11.97l14.63,29.05v-29.05H81.667
			z"/>
		<path style="fill:#231F20;" d="M97.277,171.711v8.4h14.84v11.76h-14.84v8.4h20.16v11.76h-31.92v-52.08h31.92v11.76H97.277z"/>
		<path style="fill:#231F20;" d="M160.486,159.952v52.08h-11.9l-14.699-29.121v29.121h-11.76v-52.08h11.97l14.63,29.05v-29.05
			H160.486z"/>
		<path style="fill:#231F20;" d="M214.037,186.061l22.119,25.971h-11.76l-13.301-14.771v14.771h-11.76v-52.08h11.76v14.91
			l13.371-14.91h11.76L214.037,186.061z"/>
		<path style="fill:#231F20;" d="M250.365,171.711v8.4h14.84v11.76h-14.84v8.4h20.16v11.76h-31.92v-52.08h31.92v11.76H250.365z"/>
		<path style="fill:#231F20;" d="M307.345,195.862c0,0.84-0.061,1.656-0.176,2.449c-0.117,0.795-0.291,1.588-0.525,2.381
			c-0.514,1.633-1.26,3.149-2.24,4.549c-0.979,1.4-2.146,2.603-3.5,3.605c-1.354,1.004-2.846,1.785-4.479,2.346
			c-1.635,0.56-3.361,0.84-5.182,0.84c-2.238,0-4.328-0.42-6.264-1.26c-1.938-0.841-3.641-1.996-5.111-3.466
			c-1.469-1.47-2.625-3.185-3.465-5.146c-0.84-1.959-1.26-4.06-1.26-6.299h11.76c0,1.213,0.42,2.252,1.26,3.114
			c0.842,0.864,1.867,1.296,3.08,1.296c0.98,0,1.844-0.291,2.592-0.875c0.744-0.584,1.26-1.318,1.539-2.205
			c0.141-0.373,0.211-0.793,0.211-1.261c0-1.213-0.422-2.192-1.262-2.94c-0.84-0.746-1.867-1.119-3.08-1.119
			c-2.238,0-4.328-0.408-6.264-1.225c-1.938-0.816-3.641-1.937-5.111-3.361c-1.469-1.422-2.625-3.09-3.465-5.004
			s-1.26-3.99-1.26-6.23c0-0.793,0.059-1.586,0.176-2.38c0.115-0.793,0.291-1.586,0.525-2.38c0.512-1.633,1.26-3.15,2.24-4.551
			c0.979-1.399,2.145-2.601,3.5-3.604c1.352-1.003,2.846-1.785,4.479-2.345c1.633-0.561,3.361-0.84,5.18-0.84
			c2.24,0,4.328,0.42,6.266,1.26c1.936,0.84,3.641,1.994,5.109,3.465c1.471,1.471,2.625,3.186,3.467,5.145
			c0.84,1.961,1.26,4.037,1.26,6.23h-11.76c0-1.213-0.422-2.24-1.262-3.08s-1.867-1.26-3.08-1.26c-0.979,0-1.844,0.292-2.59,0.875
			c-0.746,0.584-1.26,1.318-1.539,2.205c-0.141,0.326-0.211,0.746-0.211,1.26c0,1.214,0.42,2.193,1.26,2.939
			c0.842,0.748,1.867,1.121,3.08,1.121c2.24,0,4.328,0.408,6.266,1.225c1.936,0.816,3.641,1.938,5.109,3.359
			c1.471,1.424,2.625,3.092,3.467,5.006C306.925,191.616,307.345,193.669,307.345,195.862z"/>
		<path style="fill:#231F20;" d="M346.474,171.711h-11.83v40.32h-11.76v-40.32h-11.83v-11.76h35.42V171.711z"/>
		<path style="fill:#231F20;" d="M372.933,186.061c2.24,1.168,4.035,2.836,5.391,5.006c1.352,2.17,2.029,4.584,2.029,7.244
			c0,1.914-0.361,3.711-1.086,5.391c-0.723,1.68-1.703,3.139-2.939,4.375s-2.695,2.217-4.375,2.939
			c-1.68,0.725-3.477,1.085-5.391,1.085h-0.35h-15.959v-52.079h15.959h0.35c1.914,0,3.711,0.361,5.391,1.084
			c1.68,0.725,3.139,1.705,4.375,2.94c1.236,1.237,2.217,2.694,2.939,4.375c0.725,1.68,1.086,3.478,1.086,5.39
			c0,2.66-0.678,5.075-2.029,7.245C376.968,183.226,375.173,184.895,372.933,186.061z"/>
		<path style="fill:#231F20;" d="M423.683,199.151c-0.98,2.475-2.404,4.69-4.271,6.65c-1.914,2.055-4.094,3.617-6.545,4.689
			c-2.449,1.074-5.051,1.61-7.805,1.61h-0.07c-2.707,0-5.285-0.536-7.734-1.61c-2.449-1.072-4.654-2.612-6.615-4.619
			c-1.82-1.961-3.232-4.176-4.234-6.65c-1.004-2.473-1.529-5.109-1.576-7.91v-12.18c0.234-2.473,0.852-4.807,1.855-7
			s2.32-4.176,3.955-5.95c1.961-2.006,4.152-3.546,6.58-4.62c2.426-1.072,5.016-1.609,7.77-1.609h0.07
			c2.754,0,5.355,0.537,7.805,1.609c2.451,1.074,4.631,2.614,6.545,4.62c1.682,1.774,3.01,3.757,3.99,5.95s1.586,4.527,1.82,7v1.54
			v6.44v4.199C425.175,194.065,424.662,196.678,423.683,199.151z"/>
		<path style="fill:#231F20;" d="M468.412,199.151c-0.98,2.475-2.404,4.69-4.27,6.65c-1.914,2.055-4.096,3.617-6.545,4.689
			c-2.451,1.074-5.053,1.61-7.805,1.61h-0.07c-2.707,0-5.285-0.536-7.734-1.61c-2.451-1.072-4.656-2.612-6.615-4.619
			c-1.82-1.961-3.232-4.176-4.236-6.65c-1.004-2.473-1.527-5.109-1.574-7.91v-12.18c0.232-2.473,0.852-4.807,1.855-7
			c1.002-2.193,2.32-4.176,3.955-5.95c1.959-2.006,4.152-3.546,6.58-4.62c2.426-1.072,5.016-1.609,7.77-1.609h0.07
			c2.752,0,5.354,0.537,7.805,1.609c2.449,1.074,4.631,2.614,6.545,4.62c1.68,1.774,3.01,3.757,3.99,5.95s1.586,4.527,1.82,7v1.54
			v6.44v4.199C469.906,194.065,469.392,196.678,468.412,199.151z"/>
		<path style="fill:#231F20;" d="M522.591,212.032h-11.76v-18.201l-6.371,18.201h-11.76l-6.51-18.76v18.76h-11.76v-52.08h11.971
			l12.18,35.14l12.25-35.14h11.76V212.032z"/>
	</g>
</g>
</svg>
