<?xml version="1.0" encoding="iso-8859-1"?>
<!-- Generator: Adobe Illustrator 19.1.0, SVG Export Plug-In . SVG Version: 6.00 Build 0)  -->
<!DOCTYPE svg PUBLIC "-//W3C//DTD SVG 1.1//EN" "http://www.w3.org/Graphics/SVG/1.1/DTD/svg11.dtd">
<svg version="1.1" id="Layer_1" xmlns="http://www.w3.org/2000/svg" xmlns:xlink="http://www.w3.org/1999/xlink" x="0px" y="0px"
	 viewBox="0 0 273.857 332.587" style="enable-background:new 0 0 273.857 332.587;" xml:space="preserve">
<g>
	<g>
		<path style="fill:#231F20;" d="M270.857,311.891c-13.679-22.745-49.228-38.997-90.818-38.997h-45.967l-3-0.081H70.866
			C33.445,272.812,3,242.368,3,204.946V3h199.991c37.422,0,67.866,30.444,67.866,67.866V311.891z"/>
		<path style="fill:#FFFFFF;" d="M202.991,6c17.248,0,33.516,6.769,45.807,19.06c12.291,12.291,19.06,28.559,19.06,45.807v180.446
			v24.5v26.774c-4.805-5.552-10.994-10.665-18.456-15.174c-18.695-11.296-43.328-17.518-69.362-17.518h-42.967v-0.082h-6H70.866
			c-17.248,0-33.516-6.769-45.807-19.06S6,222.194,6,204.946V6H202.991 M202.991,0H0v204.946c0,38.977,31.89,70.866,70.866,70.866
			h60.205v0.082h48.967c51.6,0,93.819,25.512,93.819,56.693v-56.774v-24.5V70.866C273.857,31.89,241.967,0,202.991,0L202.991,0z"/>
	</g>
	<g>
		<path style="fill:#FFFFFF;" d="M107.76,99.031c-1.302,3.287-3.194,6.23-5.673,8.835c-2.543,2.729-5.44,4.806-8.696,6.231
			c-3.255,1.426-6.712,2.139-10.369,2.139h-0.093c-3.596,0-7.021-0.713-10.276-2.139s-6.185-3.473-8.789-6.139
			c-2.418-2.604-4.294-5.548-5.626-8.835c-1.334-3.286-2.03-6.789-2.092-10.509V72.433c0.309-3.286,1.13-6.386,2.464-9.301
			c1.333-2.913,3.083-5.548,5.254-7.904c2.604-2.666,5.518-4.711,8.742-6.139c3.223-1.426,6.664-2.139,10.323-2.139h0.093
			c3.657,0,7.114,0.713,10.369,2.139c3.255,1.428,6.153,3.473,8.696,6.139c2.232,2.356,3.999,4.991,5.301,7.904
			c1.302,2.915,2.107,6.015,2.418,9.301v2.045v8.557v5.58C109.743,92.273,109.062,95.746,107.76,99.031z"/>
		<path style="fill:#FFFFFF;" d="M131.288,62.575v11.159h19.716v15.625h-19.716v11.16h26.784v15.623h-42.408V46.951h42.408v15.624
			H131.288z"/>
		<path style="fill:#FFFFFF;" d="M71.862,212.142H56.238v-69.191h15.624V212.142z"/>
		<path style="fill:#FFFFFF;" d="M121.245,190.66c0,1.115-0.078,2.201-0.232,3.255c-0.155,1.056-0.388,2.108-0.697,3.162
			c-0.683,2.171-1.674,4.185-2.976,6.045c-1.302,1.86-2.853,3.457-4.65,4.79c-1.799,1.334-3.783,2.371-5.952,3.115
			c-2.171,0.744-4.464,1.115-6.882,1.115c-2.976,0-5.751-0.558-8.324-1.674c-2.573-1.115-4.836-2.65-6.789-4.604
			c-1.953-1.953-3.487-4.23-4.604-6.835c-1.116-2.604-1.674-5.394-1.674-8.37h15.624c0,1.613,0.558,2.992,1.674,4.139
			c1.116,1.148,2.479,1.721,4.092,1.721c1.302,0,2.448-0.387,3.441-1.163c0.991-0.774,1.674-1.751,2.046-2.929
			c0.186-0.496,0.279-1.055,0.279-1.675c0-1.611-0.558-2.913-1.674-3.905c-1.116-0.992-2.48-1.488-4.092-1.488
			c-2.976,0-5.751-0.543-8.324-1.628c-2.573-1.084-4.836-2.571-6.789-4.464c-1.953-1.891-3.487-4.106-4.604-6.649
			c-1.116-2.542-1.674-5.302-1.674-8.276c0-1.055,0.077-2.107,0.232-3.162c0.154-1.055,0.387-2.107,0.698-3.162
			c0.681-2.17,1.674-4.186,2.976-6.045c1.302-1.86,2.851-3.456,4.65-4.79c1.797-1.333,3.781-2.372,5.952-3.116
			c2.17-0.743,4.464-1.115,6.882-1.115c2.976,0,5.75,0.559,8.323,1.674c2.572,1.116,4.836,2.65,6.789,4.604s3.488,4.231,4.604,6.836
			c1.116,2.604,1.674,5.363,1.674,8.277h-15.624c0-1.612-0.558-2.977-1.674-4.093c-1.116-1.116-2.48-1.674-4.092-1.674
			c-1.302,0-2.45,0.388-3.441,1.163c-0.993,0.775-1.674,1.752-2.046,2.929c-0.186,0.435-0.279,0.993-0.279,1.675
			c0,1.612,0.558,2.914,1.674,3.905c1.116,0.993,2.479,1.487,4.092,1.487c2.976,0,5.75,0.544,8.323,1.629
			c2.572,1.085,4.836,2.572,6.789,4.463c1.953,1.893,3.488,4.108,4.604,6.65C120.687,185.019,121.245,187.746,121.245,190.66z"/>
		<path style="fill:#FFFFFF;" d="M173.231,158.575h-15.717v53.567H141.89v-53.567h-15.717v-15.624h47.058V158.575z"/>
		<path style="fill:#FFFFFF;" d="M207.873,144.765c2.572,1.147,4.836,2.696,6.789,4.649s3.488,4.217,4.604,6.789
			c1.116,2.574,1.674,5.348,1.674,8.324c0,2.789-0.465,5.224-1.395,7.301c-0.93,2.078-2.078,3.905-3.441,5.486
			c-1.364,1.581-2.853,2.93-4.464,4.045c-1.612,1.117-3.131,2.109-4.557,2.977c-0.807,0.559-1.628,1.039-2.465,1.441
			c-0.837,0.404-1.441,0.916-1.813,1.535c-0.186,0.311-0.311,0.65-0.372,1.022c-0.062,0.372-0.125,0.744-0.186,1.116
			c-0.062,0.435-0.062,0.869,0,1.302h-15.438v-2.79c0-2.293,0.403-4.309,1.209-6.045c0.806-1.734,1.813-3.27,3.022-4.604
			c1.209-1.332,2.526-2.479,3.953-3.441c1.425-0.96,2.728-1.812,3.906-2.557c1.239-0.805,2.278-1.503,3.115-2.093
			c0.837-0.589,1.502-1.146,1.999-1.674c0.496-0.526,0.852-1.023,1.069-1.488c0.217-0.465,0.326-0.977,0.326-1.534
			c0-1.611-0.574-3.007-1.721-4.186c-1.148-1.177-2.527-1.767-4.139-1.767c-1.86,0-3.44,0.59-4.743,1.767
			c-1.302,1.179-1.953,2.574-1.953,4.186h-15.438c0-2.977,0.59-5.75,1.767-8.324c1.177-2.572,2.758-4.836,4.743-6.789
			c1.983-1.953,4.309-3.502,6.976-4.649c2.665-1.146,5.517-1.721,8.556-1.721h0.093
			C202.526,143.044,205.299,143.618,207.873,144.765z M186.808,196.519h15.531v15.623h-15.531V196.519z"/>
	</g>
</g>
</svg>
