<?xml version="1.0" encoding="iso-8859-1"?>
<!-- Generator: Adobe Illustrator 19.1.0, SVG Export Plug-In . SVG Version: 6.00 Build 0)  -->
<!DOCTYPE svg PUBLIC "-//W3C//DTD SVG 1.1//EN" "http://www.w3.org/Graphics/SVG/1.1/DTD/svg11.dtd">
<svg version="1.1" id="Layer_1" xmlns="http://www.w3.org/2000/svg" xmlns:xlink="http://www.w3.org/1999/xlink" x="0px" y="0px"
	 viewBox="0 0 337.676 339.587" style="enable-background:new 0 0 337.676 339.587;" xml:space="preserve">
<g>
	<g>
		<path style="fill:#EB2F2B;" d="M70.866,336.587C33.444,336.587,3,306.143,3,268.721V20.696
			c13.679,22.745,49.228,38.997,90.818,38.997h109.786l3,0.081h60.205c37.422,0,67.866,30.444,67.866,67.866v208.946H70.866z"/>
		<path style="fill:#FFFFFF;" d="M6,30c4.805,5.553,10.994,10.665,18.456,15.174c18.695,11.297,43.328,17.518,69.362,17.518h106.786
			v0.081h6h60.205c17.248,0,33.516,6.769,45.807,19.06s19.06,28.559,19.06,45.807v205.946H70.866
			c-17.248,0-33.516-6.769-45.807-19.06C12.769,302.236,6,285.969,6,268.72V81.274v-24.5V30 M0,0v56.774v24.5V268.72
			c0,38.977,31.89,70.866,70.866,70.866h266.81V127.64c0-38.976-31.89-70.866-70.866-70.866h-60.205v-0.081H93.819
			C42.218,56.693,0,31.181,0,0L0,0z"/>
	</g>
	<g>
		<path style="fill:#FFFFFF;" d="M120.315,179.644h-15.624v-24.181l-8.463,24.181H80.604l-8.649-24.924v24.924H56.331v-69.192
			h15.903l16.182,46.687l16.275-46.687h15.624V179.644z"/>
		<path style="fill:#FFFFFF;" d="M142.634,126.075v11.16h19.716v15.624h-19.716v11.16h26.784v15.624H127.01v-69.192h42.408v15.624
			H142.634z"/>
		<path style="fill:#FFFFFF;" d="M75.768,241.141l29.389,34.503H89.532l-17.67-19.623v19.623H56.238v-69.192h15.624v19.81
			l17.763-19.81h15.624L75.768,241.141z"/>
		<path style="fill:#FFFFFF;" d="M124.034,222.075v11.16h19.716v15.624h-19.716v11.16h26.784v15.624H108.41v-69.192h42.408v15.624
			H124.034z"/>
		<path style="fill:#FFFFFF;" d="M186.436,208.125c2.604,1.116,4.881,2.65,6.834,4.604s3.488,4.231,4.604,6.836
			c1.117,2.604,1.674,5.394,1.674,8.37c0,2.976-0.557,5.766-1.674,8.37c-1.115,2.604-2.65,4.882-4.604,6.835
			s-4.23,3.487-6.834,4.604c-2.604,1.116-5.395,1.674-8.371,1.674h-0.093h-5.394v26.227h-15.624v-69.192h21.018h0.093
			C181.042,206.451,183.832,207.01,186.436,208.125z"/>
		<path style="fill:#FFFFFF;" d="M232.656,208.125c2.604,1.116,4.882,2.65,6.835,4.604s3.487,4.231,4.604,6.836
			c1.116,2.604,1.674,5.394,1.674,8.37c0,2.976-0.558,5.766-1.674,8.37c-1.116,2.604-2.65,4.882-4.604,6.835
			s-4.231,3.487-6.835,4.604c-2.604,1.116-5.395,1.674-8.37,1.674h-0.094h-5.394v26.227h-15.624v-69.192h21.018h0.094
			C227.262,206.451,230.052,207.01,232.656,208.125z"/>
		<path style="fill:#FFFFFF;" d="M265.019,222.075v11.16h19.716v15.624h-19.716v11.16h26.784v15.624h-42.408v-69.192h42.408v15.624
			H265.019z"/>
	</g>
</g>
</svg>
