<?xml version="1.0" encoding="iso-8859-1"?>
<!-- Generator: Adobe Illustrator 19.1.0, SVG Export Plug-In . SVG Version: 6.00 Build 0)  -->
<!DOCTYPE svg PUBLIC "-//W3C//DTD SVG 1.1//EN" "http://www.w3.org/Graphics/SVG/1.1/DTD/svg11.dtd">
<svg version="1.1" id="Layer_1" xmlns="http://www.w3.org/2000/svg" xmlns:xlink="http://www.w3.org/1999/xlink" x="0px" y="0px"
	 viewBox="0 0 569.071 255.587" style="enable-background:new 0 0 569.071 255.587;" xml:space="preserve">
<g>
	<g>
		<path style="fill:#FFFFFF;" d="M3,252.56V127.64c0-37.422,30.444-67.866,67.866-67.866h63.205v-0.081h340.967
			c41.591,0,77.141-16.252,90.819-38.997v163.998c0,37.422-30.444,67.866-67.866,67.866H3z"/>
		<path d="M562.857,30.001v26.773v24.5v103.42c0,17.248-6.769,33.516-19.06,45.807c-12.291,12.291-28.559,19.06-45.807,19.06H6
			V127.64c0-17.248,6.769-33.516,19.06-45.807c12.291-12.291,28.559-19.06,45.807-19.06h60.205h6v-0.081h337.967
			c26.034,0,50.668-6.221,69.363-17.518C551.863,40.666,558.052,35.553,562.857,30.001 M568.857,0
			c0,31.181-42.218,56.693-93.819,56.693H131.071v0.081H70.866C31.89,56.774,0,88.664,0,127.64v127.92h497.991
			c38.977,0,70.866-31.89,70.866-70.866V81.274v-24.5V0L568.857,0z"/>
	</g>
	<g>
		<path style="fill:#231F20;" d="M54.998,147.032h-11.76v-52.08h11.76V147.032z"/>
		<path style="fill:#231F20;" d="M82.158,96.211c1.959,0.84,3.675,1.994,5.145,3.465c1.471,1.471,2.625,3.186,3.465,5.145
			c0.84,1.961,1.26,4.061,1.26,6.301s-0.42,4.34-1.26,6.3s-1.994,3.675-3.465,5.146c-1.47,1.469-3.186,2.625-5.145,3.465
			c-1.961,0.84-4.061,1.26-6.301,1.26h-0.07h-4.06v19.74h-11.76v-52.08h15.819h0.07C78.098,94.952,80.197,95.372,82.158,96.211z"/>
		<path style="fill:#231F20;" d="M134.588,126.101c0,0.234,0,0.468,0,0.7c0,0.234-0.024,0.467-0.07,0.7v19.53h-10.85v-2.66
			c-1.4,0.84-2.883,1.505-4.445,1.994c-1.564,0.49-3.162,0.735-4.795,0.735h-0.07c-2.754,0-5.355-0.536-7.805-1.61
			c-2.45-1.072-4.633-2.612-6.545-4.619c-1.82-1.961-3.232-4.166-4.235-6.615c-1.005-2.45-1.528-5.027-1.575-7.734v-10.781
			c0-2.799,0.502-5.436,1.505-7.91c1.003-2.473,2.438-4.689,4.306-6.649c1.912-2.006,4.095-3.546,6.545-4.62
			c2.449-1.072,5.051-1.609,7.805-1.609h0.07c2.705,0,5.285,0.537,7.734,1.609c2.45,1.074,4.655,2.614,6.615,4.62
			c1.865,2.007,3.301,4.271,4.305,6.79s1.506,5.18,1.506,7.98h-11.761c0-1.26-0.222-2.45-0.665-3.57s-1.05-2.1-1.82-2.939
			c-0.77-0.841-1.668-1.506-2.694-1.996c-1.027-0.49-2.124-0.734-3.29-0.734c-1.167,0-2.252,0.244-3.255,0.734
			c-1.005,0.49-1.89,1.155-2.66,1.996c-0.771,0.84-1.377,1.819-1.819,2.939c-0.445,1.12-0.666,2.311-0.666,3.57v10.149
			c0,1.261,0.221,2.45,0.666,3.57c0.442,1.12,1.049,2.101,1.819,2.94s1.655,1.504,2.66,1.994c1.003,0.49,2.088,0.735,3.255,0.735
			c1.354,0,2.578-0.304,3.675-0.91s2.041-1.423,2.835-2.45h-6.58v-10.85h20.301V126.101z"/>
		<path style="fill:#231F20;" d="M152.017,106.711v8.4h14.841v11.76h-14.841v8.4h20.16v11.76h-31.92v-52.08h31.92v11.76H152.017z"/>
		<path style="fill:#231F20;" d="M210.746,106.711l-20.3,28.561h20.3v11.76h-33.95v-11.76l20.23-28.561h-20.23v-11.76h33.95V106.711
			z"/>
		<path style="fill:#231F20;" d="M227.405,106.711v8.4h14.84v11.76h-14.84v8.4h20.16v11.76h-31.92v-52.08h31.92v11.76H227.405z"/>
		<path style="fill:#231F20;" d="M286.975,106.711h-11.83v40.32h-11.76v-40.32h-11.83v-11.76h35.42V106.711z"/>
		<path style="fill:#231F20;" d="M351.444,135.272v11.76h-25.69v-52.08h11.76v40.32H351.444z"/>
		<path style="fill:#231F20;" d="M367.684,147.032h-11.76v-52.08h11.76V147.032z"/>
		<path style="fill:#231F20;" d="M387.354,121.061l22.12,25.971h-11.761l-13.3-14.771v14.771h-11.76v-52.08h11.76v14.91l13.37-14.91
			h11.76L387.354,121.061z"/>
		<path style="fill:#231F20;" d="M81.668,159.952v52.08h-11.9l-14.699-29.121v29.121H43.308v-52.08h11.97l14.631,29.05v-29.05
			H81.668z"/>
		<path style="fill:#231F20;" d="M97.277,171.711v8.4h14.84v11.76h-14.84v8.4h20.16v11.76h-31.92v-52.08h31.92v11.76H97.277z"/>
		<path style="fill:#231F20;" d="M160.486,159.952v52.08h-11.9l-14.699-29.121v29.121h-11.761v-52.08h11.97l14.631,29.05v-29.05
			H160.486z"/>
		<path style="fill:#231F20;" d="M214.036,186.061l22.12,25.971h-11.761l-13.3-14.771v14.771h-11.76v-52.08h11.76v14.91l13.37-14.91
			h11.76L214.036,186.061z"/>
		<path style="fill:#231F20;" d="M250.365,171.711v8.4h14.84v11.76h-14.84v8.4h20.16v11.76h-31.92v-52.08h31.92v11.76H250.365z"/>
		<path style="fill:#231F20;" d="M307.345,195.862c0,0.84-0.06,1.656-0.175,2.449c-0.117,0.795-0.292,1.588-0.525,2.381
			c-0.514,1.633-1.26,3.149-2.24,4.549c-0.979,1.4-2.146,2.603-3.5,3.605c-1.354,1.004-2.847,1.785-4.479,2.346
			c-1.635,0.56-3.36,0.84-5.181,0.84c-2.239,0-4.329-0.42-6.265-1.26c-1.937-0.841-3.64-1.996-5.11-3.466
			c-1.47-1.47-2.625-3.185-3.465-5.146c-0.84-1.959-1.26-4.06-1.26-6.299h11.76c0,1.213,0.42,2.252,1.26,3.114
			c0.841,0.864,1.866,1.296,3.08,1.296c0.98,0,1.844-0.291,2.591-0.875c0.745-0.584,1.26-1.318,1.54-2.205
			c0.14-0.373,0.21-0.793,0.21-1.261c0-1.213-0.421-2.192-1.261-2.94c-0.84-0.746-1.867-1.119-3.08-1.119
			c-2.239,0-4.329-0.408-6.265-1.225c-1.937-0.816-3.64-1.937-5.11-3.361c-1.47-1.422-2.625-3.09-3.465-5.004s-1.26-3.99-1.26-6.23
			c0-0.793,0.058-1.586,0.175-2.38c0.116-0.793,0.291-1.586,0.525-2.38c0.513-1.633,1.26-3.15,2.24-4.551
			c0.979-1.399,2.146-2.601,3.5-3.604c1.353-1.003,2.846-1.785,4.479-2.345c1.633-0.561,3.36-0.84,5.18-0.84
			c2.24,0,4.328,0.42,6.266,1.26c1.936,0.84,3.64,1.994,5.109,3.465c1.471,1.471,2.625,3.186,3.466,5.145
			c0.84,1.961,1.26,4.037,1.26,6.23h-11.76c0-1.213-0.421-2.24-1.261-3.08s-1.867-1.26-3.08-1.26c-0.979,0-1.844,0.292-2.59,0.875
			c-0.747,0.584-1.26,1.318-1.54,2.205c-0.14,0.326-0.21,0.746-0.21,1.26c0,1.214,0.42,2.193,1.26,2.939
			c0.841,0.748,1.866,1.121,3.08,1.121c2.24,0,4.328,0.408,6.266,1.225c1.936,0.816,3.64,1.938,5.109,3.359
			c1.471,1.424,2.625,3.092,3.466,5.006C306.925,191.616,307.345,193.669,307.345,195.862z"/>
		<path style="fill:#231F20;" d="M346.474,171.711h-11.83v40.32h-11.76v-40.32h-11.83v-11.76h35.42V171.711z"/>
		<path style="fill:#231F20;" d="M372.933,186.061c2.24,1.168,4.036,2.836,5.391,5.006c1.353,2.17,2.029,4.584,2.029,7.244
			c0,1.914-0.361,3.711-1.085,5.391s-1.704,3.139-2.939,4.375c-1.237,1.236-2.695,2.217-4.375,2.939
			c-1.681,0.725-3.478,1.085-5.391,1.085h-0.35h-15.96v-52.079h15.96h0.35c1.913,0,3.71,0.361,5.391,1.084
			c1.68,0.725,3.138,1.705,4.375,2.94c1.235,1.237,2.216,2.694,2.939,4.375c0.724,1.68,1.085,3.478,1.085,5.39
			c0,2.66-0.677,5.075-2.029,7.245C376.969,183.226,375.173,184.895,372.933,186.061z"/>
		<path style="fill:#231F20;" d="M423.683,199.151c-0.98,2.475-2.404,4.69-4.271,6.65c-1.914,2.055-4.095,3.617-6.545,4.689
			c-2.45,1.074-5.052,1.61-7.805,1.61h-0.07c-2.707,0-5.285-0.536-7.734-1.61c-2.45-1.072-4.655-2.612-6.615-4.619
			c-1.82-1.961-3.232-4.176-4.235-6.65c-1.004-2.473-1.528-5.109-1.575-7.91v-12.18c0.233-2.473,0.852-4.807,1.855-7
			c1.003-2.193,2.32-4.176,3.955-5.95c1.96-2.006,4.152-3.546,6.58-4.62c2.426-1.072,5.016-1.609,7.77-1.609h0.07
			c2.753,0,5.354,0.537,7.805,1.609c2.45,1.074,4.631,2.614,6.545,4.62c1.681,1.774,3.01,3.757,3.99,5.95s1.586,4.527,1.82,7v1.54
			v6.44v4.199C425.176,194.065,424.662,196.678,423.683,199.151z"/>
		<path style="fill:#231F20;" d="M468.412,199.151c-0.98,2.475-2.404,4.69-4.271,6.65c-1.914,2.055-4.095,3.617-6.545,4.689
			c-2.45,1.074-5.052,1.61-7.805,1.61h-0.07c-2.707,0-5.285-0.536-7.734-1.61c-2.45-1.072-4.655-2.612-6.615-4.619
			c-1.82-1.961-3.232-4.176-4.235-6.65c-1.004-2.473-1.528-5.109-1.575-7.91v-12.18c0.233-2.473,0.852-4.807,1.855-7
			c1.003-2.193,2.32-4.176,3.955-5.95c1.96-2.006,4.152-3.546,6.58-4.62c2.426-1.072,5.016-1.609,7.77-1.609h0.07
			c2.753,0,5.354,0.537,7.805,1.609c2.45,1.074,4.631,2.614,6.545,4.62c1.681,1.774,3.01,3.757,3.99,5.95s1.586,4.527,1.82,7v1.54
			v6.44v4.199C469.905,194.065,469.392,196.678,468.412,199.151z"/>
		<path style="fill:#231F20;" d="M522.592,212.032h-11.761v-18.201l-6.37,18.201h-11.76l-6.51-18.76v18.76h-11.76v-52.08h11.97
			l12.18,35.14l12.25-35.14h11.761V212.032z"/>
	</g>
</g>
</svg>
