<?xml version="1.0" encoding="iso-8859-1"?>
<!-- Generator: Adobe Illustrator 19.1.0, SVG Export Plug-In . SVG Version: 6.00 Build 0)  -->
<!DOCTYPE svg PUBLIC "-//W3C//DTD SVG 1.1//EN" "http://www.w3.org/Graphics/SVG/1.1/DTD/svg11.dtd">
<svg version="1.1" id="Layer_1" xmlns="http://www.w3.org/2000/svg" xmlns:xlink="http://www.w3.org/1999/xlink" x="0px" y="0px"
	 viewBox="0 0 337.676 339.587" style="enable-background:new 0 0 337.676 339.587;" xml:space="preserve">
<g>
	<g>
		<path style="fill:#EB2F2B;" d="M334.676,318.891c-13.679-22.745-49.228-38.997-90.818-38.997H134.071l-3-0.081H70.866
			C33.445,279.812,3,249.368,3,211.946V3h263.81c37.422,0,67.866,30.444,67.866,67.866V318.891z"/>
		<path style="fill:#FFFFFF;" d="M266.81,6c17.248,0,33.516,6.769,45.807,19.06c12.291,12.291,19.06,28.559,19.06,45.807v187.446
			v24.5v26.774c-4.805-5.552-10.994-10.665-18.456-15.174c-18.695-11.297-43.328-17.518-69.362-17.518H137.071v-0.081h-6H70.866
			c-17.248,0-33.516-6.769-45.807-19.06C12.769,245.462,6,229.194,6,211.946V6H266.81 M266.81,0H0v211.946
			c0,38.977,31.89,70.866,70.866,70.866h60.205v0.081h112.786c51.6,0,93.819,25.512,93.819,56.693v-56.774v-24.5V70.866
			C337.676,31.89,305.786,0,266.81,0L266.81,0z"/>
	</g>
	<g>
		<path style="fill:#FFFFFF;" d="M120.315,123.144h-15.624V98.963l-8.463,24.181H80.604L71.955,98.22v24.924H56.331V53.951h15.903
			l16.182,46.687l16.275-46.687h15.624V123.144z"/>
		<path style="fill:#FFFFFF;" d="M142.634,69.575v11.16h19.716v15.624h-19.716v11.16h26.784v15.624H127.01V53.951h42.408v15.624
			H142.634z"/>
		<path style="fill:#FFFFFF;" d="M75.768,184.641l29.388,34.503H89.532l-17.67-19.623v19.623H56.238v-69.192h15.624v19.81
			l17.763-19.81h15.624L75.768,184.641z"/>
		<path style="fill:#FFFFFF;" d="M124.034,165.575v11.16h19.716v15.624h-19.716v11.16h26.784v15.624H108.41v-69.192h42.408v15.624
			H124.034z"/>
		<path style="fill:#FFFFFF;" d="M186.437,151.625c2.604,1.116,4.881,2.65,6.834,4.604s3.488,4.231,4.604,6.836
			c1.117,2.604,1.674,5.394,1.674,8.37c0,2.976-0.557,5.766-1.674,8.37c-1.115,2.604-2.65,4.882-4.604,6.835
			s-4.23,3.487-6.834,4.604c-2.605,1.116-5.395,1.674-8.371,1.674h-0.093h-5.394v26.227h-15.624v-69.192h21.018h0.093
			C181.042,149.951,183.832,150.51,186.437,151.625z"/>
		<path style="fill:#FFFFFF;" d="M232.657,151.625c2.604,1.116,4.882,2.65,6.835,4.604c1.953,1.953,3.487,4.231,4.603,6.836
			c1.116,2.604,1.674,5.394,1.674,8.37c0,2.976-0.558,5.766-1.674,8.37c-1.116,2.604-2.65,4.882-4.603,6.835
			c-1.953,1.953-4.231,3.487-6.835,4.604c-2.604,1.116-5.395,1.674-8.37,1.674h-0.094h-5.394v26.227h-15.624v-69.192h21.018h0.094
			C227.262,149.951,230.052,150.51,232.657,151.625z"/>
		<path style="fill:#FFFFFF;" d="M265.019,165.575v11.16h19.716v15.624h-19.716v11.16h26.784v15.624h-42.408v-69.192h42.408v15.624
			H265.019z"/>
	</g>
</g>
</svg>
