<?xml version="1.0" encoding="iso-8859-1"?>
<!-- Generator: Adobe Illustrator 19.1.0, SVG Export Plug-In . SVG Version: 6.00 Build 0)  -->
<!DOCTYPE svg PUBLIC "-//W3C//DTD SVG 1.1//EN" "http://www.w3.org/Graphics/SVG/1.1/DTD/svg11.dtd">
<svg version="1.1" id="Layer_1" xmlns="http://www.w3.org/2000/svg" xmlns:xlink="http://www.w3.org/1999/xlink" x="0px" y="0px"
	 viewBox="0 0 544.303 315.891" style="enable-background:new 0 0 544.303 315.891;" xml:space="preserve">
<g>
	<g>
		<path style="fill:#FFFFFF;" d="M3,108.088C3,50.142,50.143,3,108.088,3h433.215v118.209c0,57.945-47.143,105.088-105.088,105.088
			h-94.827v0.124H143.096c-66.151,0-122.174,27.062-140.096,64.06V108.088z"/>
		<path d="M538.303,6v115.209c0,27.149-10.652,52.753-29.993,72.094c-19.342,19.342-44.945,29.994-72.094,29.994h-91.827h-6v0.124
			H143.096c-39.142,0-76.135,9.328-104.164,26.266C24.695,258.289,13.602,268.34,6,279.327v-50.03v-37.369v-83.84
			c0-27.149,10.652-52.753,29.994-72.094C55.335,16.652,80.939,6,108.088,6H538.303 M544.303,0H108.088C48.64,0,0,48.639,0,108.088
			v83.84v37.369v86.594c0-47.559,64.393-86.47,143.096-86.47h201.292v-0.124h91.827c59.448,0,108.088-48.64,108.088-108.088V0
			L544.303,0z"/>
	</g>
	<g>
		<path style="fill:#231F20;" d="M67.032,61.544v8.4h14.84v11.76h-14.84v8.4h20.16v11.76h-31.92v-52.08h31.92v11.76H67.032z"/>
		<path style="fill:#231F20;" d="M154.95,49.784l-12.67,52.08h-11.97l-6.86-28.28l-6.86,28.28h-11.97l-12.67-52.08h11.76
			l6.931,28.28l6.859-28.28h11.971l6.859,28.28l6.86-28.28H154.95z"/>
		<path style="fill:#231F20;" d="M170.98,61.544v8.4h14.84v11.76h-14.84v8.4h20.16v11.76h-31.92v-52.08h31.92v11.76H170.98z"/>
		<path style="fill:#231F20;" d="M221.45,90.104v11.76h-25.69v-52.08h11.76v40.32H221.45z"/>
		<path style="fill:#231F20;" d="M237.69,90.104v11.76l-3.71,6.51h-7.21l3.71-6.51H226v-11.76H237.69z"/>
		<path style="fill:#231F20;" d="M309.439,85.694c0,0.84-0.06,1.657-0.175,2.45c-0.117,0.794-0.292,1.587-0.525,2.38
			c-0.514,1.634-1.26,3.149-2.24,4.55c-0.979,1.4-2.146,2.603-3.5,3.605c-1.354,1.004-2.847,1.784-4.479,2.345
			c-1.635,0.56-3.36,0.84-5.181,0.84c-2.239,0-4.329-0.42-6.265-1.26c-1.937-0.84-3.64-1.995-5.11-3.465
			c-1.47-1.471-2.625-3.186-3.465-5.146s-1.26-4.06-1.26-6.3h11.76c0,1.214,0.42,2.252,1.26,3.115
			c0.841,0.863,1.866,1.295,3.08,1.295c0.98,0,1.844-0.291,2.591-0.875c0.745-0.583,1.26-1.318,1.54-2.205
			c0.14-0.373,0.21-0.793,0.21-1.26c0-1.213-0.421-2.193-1.261-2.94c-0.84-0.746-1.867-1.12-3.08-1.12
			c-2.239,0-4.329-0.408-6.265-1.225c-1.937-0.816-3.64-1.937-5.11-3.36c-1.47-1.423-2.625-3.091-3.465-5.005
			c-0.84-1.913-1.26-3.99-1.26-6.23c0-0.793,0.058-1.586,0.175-2.38c0.116-0.793,0.291-1.586,0.525-2.38
			c0.513-1.633,1.26-3.149,2.24-4.55c0.979-1.4,2.146-2.601,3.5-3.604c1.353-1.004,2.846-1.785,4.479-2.346
			c1.633-0.56,3.36-0.84,5.18-0.84c2.24,0,4.328,0.42,6.266,1.26c1.936,0.84,3.64,1.995,5.109,3.465
			c1.471,1.471,2.625,3.186,3.466,5.146c0.84,1.96,1.26,4.037,1.26,6.229h-11.76c0-1.213-0.421-2.239-1.261-3.079
			c-0.84-0.841-1.867-1.261-3.08-1.261c-0.979,0-1.844,0.292-2.59,0.875c-0.747,0.584-1.26,1.319-1.54,2.205
			c-0.14,0.327-0.21,0.747-0.21,1.26c0,1.215,0.42,2.194,1.26,2.94c0.841,0.747,1.866,1.12,3.08,1.12
			c2.24,0,4.328,0.409,6.266,1.225c1.936,0.817,3.64,1.938,5.109,3.36c1.471,1.424,2.625,3.092,3.466,5.005
			C309.019,81.448,309.439,83.501,309.439,85.694z"/>
		<path style="fill:#231F20;" d="M341.077,81.704h-9.66l-7,20.16h-12.67l18.061-52.08h12.88l18.06,52.08h-12.67L341.077,81.704z"/>
		<path style="fill:#231F20;" d="M402.746,49.784v52.08h-11.899l-14.7-29.12v29.12h-11.76v-52.08h11.97l14.63,29.05v-29.05H402.746z
			"/>
		<path style="fill:#231F20;" d="M441.386,61.544h-11.83v40.32h-11.76v-40.32h-11.83v-11.76h35.42V61.544z"/>
		<path style="fill:#231F20;" d="M456.925,61.544v8.4h14.84v11.76h-14.84v8.4h20.16v11.76h-31.92v-52.08h31.92v11.76H456.925z"/>
		<path style="fill:#231F20;" d="M103.501,171.864h-11.76v-18.2l-6.37,18.2h-11.76l-6.51-18.76v18.76H55.341v-52.08h11.971
			l12.18,35.14l12.25-35.14h11.76V171.864z"/>
		<path style="fill:#231F20;" d="M120.3,131.544v8.4h14.841v11.76H120.3v8.4h20.16v11.76h-31.92v-52.08h31.92v11.76H120.3z"/>
		<path style="fill:#231F20;" d="M201.079,171.864l-9.1-19.74h-0.141v19.74h-11.76v-52.08h15.82h0.07c2.24,0,4.352,0.42,6.334,1.26
			c1.984,0.84,3.711,1.995,5.182,3.465c1.469,1.471,2.625,3.186,3.465,5.146s1.26,4.06,1.26,6.3c0,3.174-0.818,6.032-2.451,8.575
			c-1.633,2.544-3.779,4.492-6.439,5.845l9.871,21.49H201.079z"/>
		<path style="fill:#231F20;" d="M243.919,151.704h-9.66l-7,20.16h-12.67l18.061-52.08h12.88l18.06,52.08h-12.67L243.919,151.704z"
			/>
		<path style="fill:#231F20;" d="M301.949,131.544h-11.83v40.32h-11.76v-40.32h-11.83v-11.76h35.42V131.544z"/>
		<path style="fill:#231F20;" d="M337.997,155.974c-0.047,2.193-0.502,4.259-1.364,6.194c-0.864,1.938-2.02,3.617-3.465,5.04
			c-1.447,1.425-3.15,2.556-5.11,3.396s-4.037,1.26-6.23,1.26c-2.239,0-4.329-0.42-6.265-1.26c-1.937-0.84-3.64-1.995-5.11-3.465
			c-1.47-1.471-2.625-3.186-3.465-5.146s-1.26-4.06-1.26-6.3h11.76c0,1.214,0.42,2.252,1.26,3.115
			c0.841,0.863,1.866,1.295,3.08,1.295c1.213,0,2.251-0.432,3.115-1.295c0.863-0.863,1.295-1.901,1.295-3.115v-35.91h11.76V155.974z
			"/>
		<path style="fill:#231F20;" d="M354.587,131.544v8.4h14.84v11.76h-14.84v8.4h20.16v11.76h-31.92v-52.08h31.92v11.76H354.587z"/>
	</g>
</g>
</svg>
