<?xml version="1.0" encoding="iso-8859-1"?>
<!-- Generator: Adobe Illustrator 19.1.0, SVG Export Plug-In . SVG Version: 6.00 Build 0)  -->
<!DOCTYPE svg PUBLIC "-//W3C//DTD SVG 1.1//EN" "http://www.w3.org/Graphics/SVG/1.1/DTD/svg11.dtd">
<svg version="1.1" id="Layer_1" xmlns="http://www.w3.org/2000/svg" xmlns:xlink="http://www.w3.org/1999/xlink" x="0px" y="0px"
	 viewBox="0 0 251.905 242.587" style="enable-background:new 0 0 251.905 242.587;" xml:space="preserve">
<g>
	<g>
		<path style="fill:#FFFFFF;" d="M70.866,239.587C33.444,239.587,3,209.142,3,171.721V20.696
			c13.679,22.745,49.229,38.997,90.819,38.997h23.967l3,0.081h60.205c37.422,0,67.866,30.444,67.866,67.866v111.946H70.866z"/>
		<path d="M6,30c4.805,5.552,10.994,10.665,18.456,15.174c18.695,11.296,43.328,17.518,69.362,17.518h20.967v0.082h6h60.205
			c17.248,0,33.516,6.769,45.807,19.06s19.06,28.559,19.06,45.807v108.946H70.866c-17.248,0-33.516-6.769-45.807-19.06
			C12.769,205.236,6,188.969,6,171.721V81.274v-24.5V30 M0,0v56.774v24.5v90.446c0,38.976,31.89,70.866,70.866,70.866h180.991
			V127.641c0-38.977-31.89-70.866-70.866-70.866h-60.205v-0.082H93.819C42.218,56.693,0,31.181,0,0L0,0z"/>
	</g>
	<g>
		<path style="fill:#231F20;" d="M46.364,93.451v10.248l-3.232,5.674h-6.223l3.233-5.674h-3.965V93.451H46.364z"/>
		<path style="fill:#231F20;" d="M63.505,116.205l19.275,22.631H72.533l-11.59-12.871v12.871H50.695V93.451h10.248v12.993
			l11.651-12.993h10.248L63.505,116.205z"/>
		<path style="fill:#231F20;" d="M145.001,103.699l-17.69,24.889h17.69v10.248h-29.585v-10.248l17.629-24.889h-17.629V93.451h29.585
			V103.699z"/>
		<path style="fill:#231F20;" d="M159.518,138.836H149.27V93.451h10.248V138.836z"/>
		<path style="fill:#231F20;" d="M197.337,93.451v45.385h-10.369l-12.811-25.377v25.377H163.91V93.451h10.432l12.748,25.315V93.451
			H197.337z"/>
		<path style="fill:#231F20;" d="M66.555,168.699h-10.31v35.137H45.998v-35.137H35.689v-10.248h30.866V168.699z"/>
		<path style="fill:#231F20;" d="M80.097,168.699v7.32h12.932v10.248H80.097v7.32h17.567v10.248H69.849v-45.385h27.815v10.248
			H80.097z"/>
		<path style="fill:#231F20;" d="M132.007,168.699h-10.31v35.137H111.45v-35.137h-10.309v-10.248h30.866V168.699z"/>
		<path style="fill:#231F20;" d="M165.619,168.699h-10.31v35.137h-10.248v-35.137h-10.309v-10.248h30.866V168.699z"/>
		<path style="fill:#231F20;" d="M179.16,168.699v7.32h12.932v10.248H179.16v7.32h17.568v10.248h-27.816v-45.385h27.816v10.248
			H179.16z"/>
	</g>
</g>
</svg>
