<?xml version="1.0" encoding="iso-8859-1"?>
<!-- Generator: Adobe Illustrator 19.1.0, SVG Export Plug-In . SVG Version: 6.00 Build 0)  -->
<!DOCTYPE svg PUBLIC "-//W3C//DTD SVG 1.1//EN" "http://www.w3.org/Graphics/SVG/1.1/DTD/svg11.dtd">
<svg version="1.1" id="Layer_1" xmlns="http://www.w3.org/2000/svg" xmlns:xlink="http://www.w3.org/1999/xlink" x="0px" y="0px"
	 viewBox="0 0 834.303 429.891" style="enable-background:new 0 0 834.303 429.891;" xml:space="preserve">
<g>
	<g>
		<path style="fill:#EB2F2B;" d="M3,426.89V194.682C3,136.737,50.143,89.594,108.088,89.594h94.827V89.47h488.292
			c66.151,0,122.174-27.062,140.096-64.061v296.394c0,57.945-47.143,105.087-105.088,105.087H3z"/>
		<path style="fill:#FFFFFF;" d="M828.303,36.564v50.03v37.369v197.84c0,27.149-10.652,52.753-29.993,72.094
			c-19.342,19.342-44.945,29.994-72.094,29.994H6V194.682c0-27.149,10.652-52.753,29.993-72.094
			c19.342-19.342,44.945-29.994,72.094-29.994h91.827h6V92.47h485.292c39.142,0,76.135-9.328,104.164-26.265
			C809.608,57.602,820.701,47.551,828.303,36.564 M834.303,0c0,47.559-64.393,86.47-143.095,86.47H199.915v0.124h-91.827
			C48.64,86.594,0,135.234,0,194.682v235.209h726.215c59.448,0,108.088-48.64,108.088-108.088v-197.84V86.594V0L834.303,0z"/>
	</g>
	<g>
		<path style="fill:#FFFFFF;" d="M91.551,174.439v14.4h25.441V209H91.551v34.56H71.392v-89.28h54.72v20.16H91.551z"/>
		<path style="fill:#FFFFFF;" d="M189.231,216.319c-0.081,3.762-0.861,7.302-2.34,10.62c-1.482,3.32-3.462,6.201-5.94,8.64
			c-2.48,2.441-5.399,4.381-8.761,5.82c-3.359,1.44-6.92,2.16-10.68,2.16c-3.84,0-7.421-0.72-10.74-2.16
			c-3.32-1.439-6.239-3.42-8.76-5.939c-2.52-2.521-4.5-5.46-5.939-8.82s-2.16-6.96-2.16-10.8h20.16c0,2.081,0.72,3.86,2.16,5.34
			c1.439,1.481,3.198,2.22,5.279,2.22c2.08,0,3.859-0.738,5.34-2.22c1.48-1.479,2.221-3.259,2.221-5.34v-61.561h20.16V216.319z"/>
		<path style="fill:#FFFFFF;" d="M217.67,243.559h-20.16v-89.28h20.16V243.559z"/>
		<path style="fill:#FFFFFF;" d="M246.35,174.439v14.4h25.439V209H246.35v14.399h34.56v20.16h-54.72v-89.28h54.72v20.16H246.35z"/>
		<path style="fill:#FFFFFF;" d="M344.028,215.84c0,1.439-0.102,2.841-0.3,4.2c-0.201,1.36-0.501,2.72-0.9,4.079
			c-0.881,2.802-2.16,5.4-3.84,7.801c-1.68,2.399-3.681,4.46-6,6.18c-2.321,1.722-4.881,3.06-7.68,4.02
			c-2.802,0.96-5.761,1.44-8.881,1.44c-3.84,0-7.421-0.72-10.739-2.16c-3.321-1.439-6.24-3.42-8.761-5.939
			c-2.52-2.521-4.5-5.46-5.939-8.82c-1.44-3.36-2.16-6.96-2.16-10.8h20.16c0,2.081,0.72,3.86,2.16,5.34
			c1.439,1.481,3.198,2.22,5.279,2.22c1.681,0,3.16-0.499,4.44-1.5c1.278-0.999,2.16-2.259,2.64-3.78
			c0.24-0.639,0.36-1.359,0.36-2.159c0-2.08-0.72-3.76-2.16-5.04c-1.439-1.279-3.2-1.92-5.28-1.92c-3.84,0-7.421-0.7-10.739-2.101
			c-3.321-1.398-6.24-3.318-8.761-5.76c-2.52-2.439-4.5-5.299-5.939-8.58c-1.44-3.279-2.16-6.84-2.16-10.68
			c0-1.359,0.1-2.719,0.3-4.08c0.199-1.359,0.499-2.719,0.9-4.08c0.879-2.8,2.16-5.4,3.84-7.8c1.68-2.4,3.679-4.459,6-6.181
			c2.319-1.719,4.879-3.06,7.68-4.02c2.8-0.96,5.761-1.44,8.88-1.44c3.841,0,7.42,0.721,10.74,2.16c3.319,1.44,6.24,3.42,8.76,5.94
			c2.521,2.52,4.5,5.46,5.94,8.819c1.44,3.36,2.16,6.921,2.16,10.681h-20.16c0-2.08-0.72-3.84-2.16-5.28
			c-1.439-1.44-3.2-2.16-5.28-2.16c-1.68,0-3.161,0.501-4.439,1.5c-1.281,1.001-2.16,2.262-2.641,3.78
			c-0.239,0.561-0.359,1.28-0.359,2.16c0,2.081,0.72,3.761,2.16,5.04c1.439,1.28,3.198,1.92,5.279,1.92
			c3.841,0,7.42,0.701,10.74,2.1c3.319,1.4,6.24,3.32,8.76,5.76c2.521,2.441,4.5,5.301,5.94,8.58
			C343.309,208.56,344.028,212.08,344.028,215.84z"/>
		<path style="fill:#FFFFFF;" d="M411.107,174.439h-20.279v69.12h-20.16v-69.12h-20.28v-20.16h60.72V174.439z"/>
		<path style="fill:#FFFFFF;" d="M437.746,174.439v14.4h25.439V209h-25.439v14.399h34.56v20.16h-54.72v-89.28h54.72v20.16H437.746z"
			/>
		<path style="fill:#FFFFFF;" d="M546.105,154.279v89.28h-20.399l-25.2-49.92v49.92h-20.16v-89.28h20.52l25.08,49.8v-49.8H546.105z"
			/>
		<path style="fill:#FFFFFF;" d="M656.743,223.399v20.16h-44.04v-89.28h20.16v69.12H656.743z"/>
		<path style="fill:#FFFFFF;" d="M684.583,243.559h-20.16v-89.28h20.16V243.559z"/>
		<path style="fill:#FFFFFF;" d="M718.303,199.04l37.92,44.52h-20.16l-22.8-25.32v25.32h-20.16v-89.28h20.16v25.561l22.92-25.561
			h20.16L718.303,199.04z"/>
		<path style="fill:#FFFFFF;" d="M134.392,318.92c0,6-1.122,11.699-3.36,17.1c-2.24,5.4-5.52,10.26-9.84,14.58
			c-4.001,3.921-8.501,6.98-13.5,9.18c-5,2.201-10.26,3.462-15.779,3.78h-2.641h-18v-89.28h18c6,0,11.739,1.101,17.221,3.3
			c5.479,2.202,10.379,5.421,14.699,9.66c4.32,4.32,7.6,9.181,9.84,14.58C133.27,307.219,134.392,312.92,134.392,318.92z"/>
		<path style="fill:#FFFFFF;" d="M161.151,294.439v14.4h25.44V329h-25.44v14.399h34.561v20.16H140.99v-89.28h54.721v20.16H161.151z"
			/>
		<path style="fill:#FFFFFF;" d="M302.509,319.04c3.84,2,6.919,4.859,9.24,8.579c2.319,3.721,3.479,7.86,3.479,12.421
			c0,3.281-0.62,6.359-1.859,9.239c-1.241,2.88-2.922,5.382-5.04,7.5c-2.121,2.121-4.62,3.801-7.5,5.04
			c-2.88,1.241-5.961,1.86-9.24,1.86h-0.6h-27.36v-89.28h27.36h0.6c3.279,0,6.36,0.621,9.24,1.86c2.88,1.241,5.379,2.921,7.5,5.04
			c2.118,2.12,3.799,4.62,5.04,7.5c1.239,2.88,1.859,5.96,1.859,9.24c0,4.56-1.16,8.699-3.479,12.42
			C309.428,314.179,306.349,317.041,302.509,319.04z"/>
		<path style="fill:#FFFFFF;" d="M378.349,336.319c-0.081,3.762-0.861,7.302-2.34,10.62c-1.481,3.32-3.462,6.201-5.94,8.64
			c-2.48,2.441-5.4,4.381-8.76,5.82c-3.36,1.44-6.921,2.16-10.681,2.16c-3.84,0-7.421-0.72-10.739-2.16
			c-3.321-1.439-6.24-3.42-8.761-5.939c-2.52-2.521-4.5-5.46-5.939-8.82c-1.44-3.36-2.16-6.96-2.16-10.8h20.16
			c0,2.081,0.72,3.86,2.16,5.34c1.439,1.481,3.198,2.22,5.279,2.22c2.08,0,3.859-0.738,5.341-2.22c1.479-1.479,2.22-3.259,2.22-5.34
			v-61.561h20.16V336.319z"/>
		<path style="fill:#FFFFFF;" d="M406.788,363.559h-20.16v-89.28h20.16V363.559z"/>
		<path style="fill:#FFFFFF;" d="M435.468,294.439v14.4h25.439V329h-25.439v14.399h34.56v20.16h-54.72v-89.28h54.72v20.16H435.468z"
			/>
		<path style="fill:#FFFFFF;" d="M533.147,335.84c0,1.439-0.102,2.841-0.3,4.2c-0.201,1.36-0.501,2.72-0.9,4.079
			c-0.881,2.802-2.16,5.4-3.84,7.801c-1.68,2.399-3.681,4.46-6,6.18c-2.321,1.722-4.881,3.06-7.68,4.02
			c-2.802,0.96-5.761,1.44-8.881,1.44c-3.84,0-7.421-0.72-10.739-2.16c-3.321-1.439-6.24-3.42-8.761-5.939
			c-2.52-2.521-4.5-5.46-5.939-8.82c-1.44-3.36-2.16-6.96-2.16-10.8h20.16c0,2.081,0.72,3.86,2.16,5.34
			c1.439,1.481,3.198,2.22,5.279,2.22c1.681,0,3.16-0.499,4.44-1.5c1.278-0.999,2.16-2.259,2.64-3.78
			c0.24-0.639,0.36-1.359,0.36-2.159c0-2.08-0.72-3.76-2.16-5.04c-1.439-1.279-3.2-1.92-5.28-1.92c-3.84,0-7.421-0.7-10.739-2.101
			c-3.321-1.398-6.24-3.318-8.761-5.76c-2.52-2.439-4.5-5.299-5.939-8.58c-1.44-3.279-2.16-6.84-2.16-10.68
			c0-1.359,0.1-2.719,0.3-4.08c0.199-1.359,0.499-2.719,0.9-4.08c0.879-2.8,2.16-5.4,3.84-7.8c1.68-2.4,3.679-4.459,6-6.181
			c2.319-1.719,4.879-3.06,7.68-4.02c2.8-0.96,5.761-1.44,8.88-1.44c3.841,0,7.42,0.721,10.74,2.16c3.319,1.44,6.24,3.42,8.76,5.94
			c2.521,2.52,4.5,5.46,5.94,8.819c1.44,3.36,2.16,6.921,2.16,10.681h-20.16c0-2.08-0.72-3.84-2.16-5.28
			c-1.439-1.44-3.2-2.16-5.28-2.16c-1.68,0-3.161,0.501-4.439,1.5c-1.281,1.001-2.16,2.262-2.641,3.78
			c-0.239,0.561-0.359,1.28-0.359,2.16c0,2.081,0.72,3.761,2.16,5.04c1.439,1.28,3.198,1.92,5.279,1.92
			c3.841,0,7.42,0.701,10.74,2.1c3.319,1.4,6.24,3.32,8.76,5.76c2.521,2.441,4.5,5.301,5.94,8.58
			C532.427,328.56,533.147,332.08,533.147,335.84z"/>
		<path style="fill:#FFFFFF;" d="M600.225,294.439h-20.279v69.12h-20.16v-69.12h-20.28v-20.16h60.72V294.439z"/>
		<path style="fill:#FFFFFF;" d="M626.864,294.439v14.4h25.439V329h-25.439v14.399h34.56v20.16h-54.72v-89.28h54.72v20.16H626.864z"
			/>
		<path style="fill:#FFFFFF;" d="M735.223,274.279v89.28h-20.399l-25.2-49.92v49.92h-20.16v-89.28h20.52l25.08,49.8v-49.8H735.223z"
			/>
	</g>
</g>
</svg>
