<?xml version="1.0" encoding="iso-8859-1"?>
<!-- Generator: Adobe Illustrator 19.1.0, SVG Export Plug-In . SVG Version: 6.00 Build 0)  -->
<!DOCTYPE svg PUBLIC "-//W3C//DTD SVG 1.1//EN" "http://www.w3.org/Graphics/SVG/1.1/DTD/svg11.dtd">
<svg version="1.1" id="Layer_1" xmlns="http://www.w3.org/2000/svg" xmlns:xlink="http://www.w3.org/1999/xlink" x="0px" y="0px"
	 viewBox="0 0 544.303 315.891" style="enable-background:new 0 0 544.303 315.891;" xml:space="preserve">
<g>
	<g>
		<path style="fill:#FFFFFF;" d="M108.088,312.89C50.142,312.89,3,265.748,3,207.803V25.41
			c17.922,36.998,73.944,64.061,140.096,64.061h198.293v0.124h94.827c57.945,0,105.088,47.142,105.088,105.087V312.89H108.088z"/>
		<path d="M6,36.564c7.602,10.987,18.695,21.038,32.931,29.641C66.96,83.142,103.953,92.47,143.096,92.47h195.292v0.124h6h91.827
			c27.149,0,52.753,10.652,72.094,29.994c19.342,19.341,29.993,44.945,29.993,72.094v115.209H108.088
			c-27.149,0-52.753-10.652-72.094-29.994C16.652,260.556,6,234.952,6,207.803v-83.84V86.594V36.564 M0,0v86.594v37.369v83.84
			c0,59.448,48.64,108.088,108.088,108.088h436.215V194.682c0-59.448-48.64-108.088-108.088-108.088h-91.827V86.47H143.096
			C64.393,86.47,0,47.558,0,0L0,0z"/>
	</g>
	<g>
		<path style="fill:#231F20;" d="M67.031,147.544v8.4h14.841v11.76H67.031v8.4h20.16v11.76h-31.92v-52.08h31.92v11.76H67.031z"/>
		<path style="fill:#231F20;" d="M154.951,135.784l-12.67,52.08H130.31l-6.859-28.28l-6.86,28.28h-11.97l-12.67-52.08h11.76
			l6.93,28.28l6.86-28.28h11.97l6.86,28.28l6.859-28.28H154.951z"/>
		<path style="fill:#231F20;" d="M170.98,147.544v8.4h14.839v11.76H170.98v8.4h20.159v11.76H159.22v-52.08h31.919v11.76H170.98z"/>
		<path style="fill:#231F20;" d="M221.45,176.104v11.76h-25.69v-52.08h11.76v40.32H221.45z"/>
		<path style="fill:#231F20;" d="M237.689,176.104v11.76l-3.71,6.51h-7.21l3.71-6.51H226v-11.76H237.689z"/>
		<path style="fill:#231F20;" d="M309.438,171.694c0,0.84-0.06,1.657-0.175,2.45c-0.117,0.794-0.292,1.587-0.525,2.38
			c-0.514,1.634-1.26,3.149-2.24,4.55c-0.979,1.4-2.146,2.603-3.5,3.605c-1.354,1.004-2.847,1.784-4.479,2.345
			c-1.635,0.56-3.36,0.84-5.181,0.84c-2.239,0-4.329-0.42-6.265-1.26c-1.937-0.84-3.64-1.995-5.11-3.465
			c-1.47-1.471-2.625-3.186-3.465-5.146s-1.26-4.06-1.26-6.3h11.76c0,1.214,0.42,2.252,1.26,3.115
			c0.841,0.863,1.866,1.295,3.08,1.295c0.98,0,1.844-0.291,2.591-0.875c0.745-0.583,1.26-1.318,1.54-2.205
			c0.14-0.373,0.21-0.793,0.21-1.26c0-1.213-0.421-2.193-1.261-2.94c-0.84-0.746-1.867-1.12-3.08-1.12
			c-2.239,0-4.329-0.408-6.265-1.225c-1.937-0.816-3.64-1.937-5.11-3.36c-1.47-1.423-2.625-3.091-3.465-5.005
			c-0.84-1.913-1.26-3.99-1.26-6.23c0-0.793,0.058-1.586,0.175-2.38c0.116-0.793,0.291-1.586,0.525-2.38
			c0.513-1.633,1.26-3.149,2.24-4.55c0.979-1.4,2.146-2.601,3.5-3.604c1.353-1.004,2.846-1.785,4.479-2.346
			c1.633-0.56,3.36-0.84,5.18-0.84c2.24,0,4.328,0.42,6.266,1.26c1.936,0.84,3.64,1.995,5.109,3.465
			c1.471,1.471,2.625,3.186,3.466,5.146c0.84,1.96,1.26,4.037,1.26,6.229h-11.76c0-1.213-0.421-2.239-1.261-3.079
			c-0.84-0.841-1.867-1.261-3.08-1.261c-0.979,0-1.844,0.292-2.59,0.875c-0.747,0.584-1.26,1.319-1.54,2.205
			c-0.14,0.327-0.21,0.747-0.21,1.26c0,1.215,0.42,2.194,1.26,2.94c0.841,0.747,1.866,1.12,3.08,1.12
			c2.24,0,4.328,0.409,6.266,1.225c1.936,0.817,3.64,1.938,5.109,3.36c1.471,1.424,2.625,3.092,3.466,5.005
			C309.018,167.448,309.438,169.501,309.438,171.694z"/>
		<path style="fill:#231F20;" d="M341.077,167.704h-9.66l-7,20.16h-12.67l18.061-52.08h12.88l18.06,52.08h-12.67L341.077,167.704z"
			/>
		<path style="fill:#231F20;" d="M402.746,135.784v52.08h-11.899l-14.7-29.12v29.12h-11.76v-52.08h11.97l14.63,29.05v-29.05H402.746
			z"/>
		<path style="fill:#231F20;" d="M441.385,147.544h-11.83v40.32h-11.76v-40.32h-11.83v-11.76h35.42V147.544z"/>
		<path style="fill:#231F20;" d="M456.924,147.544v8.4h14.84v11.76h-14.84v8.4h20.16v11.76h-31.92v-52.08h31.92v11.76H456.924z"/>
		<path style="fill:#231F20;" d="M103.502,257.864h-11.76v-18.2l-6.37,18.2H73.611l-6.51-18.76v18.76h-11.76v-52.08h11.97
			l12.181,35.14l12.25-35.14h11.76V257.864z"/>
		<path style="fill:#231F20;" d="M120.3,217.544v8.4h14.84v11.76H120.3v8.4h20.16v11.76h-31.92v-52.08h31.92v11.76H120.3z"/>
		<path style="fill:#231F20;" d="M201.079,257.864l-9.1-19.74h-0.141v19.74H180.08v-52.08h15.819h0.07c2.24,0,4.352,0.42,6.334,1.26
			c1.984,0.84,3.711,1.995,5.182,3.465c1.469,1.471,2.625,3.186,3.465,5.146s1.26,4.06,1.26,6.3c0,3.174-0.818,6.032-2.451,8.575
			c-1.633,2.544-3.779,4.492-6.439,5.845l9.871,21.49H201.079z"/>
		<path style="fill:#231F20;" d="M243.919,237.704h-9.66l-7,20.16h-12.67l18.061-52.08h12.88l18.06,52.08h-12.67L243.919,237.704z"
			/>
		<path style="fill:#231F20;" d="M301.948,217.544h-11.83v40.32h-11.76v-40.32h-11.83v-11.76h35.42V217.544z"/>
		<path style="fill:#231F20;" d="M337.997,241.974c-0.047,2.193-0.502,4.259-1.364,6.194c-0.864,1.938-2.02,3.617-3.465,5.04
			c-1.447,1.425-3.15,2.556-5.11,3.395c-1.96,0.84-4.037,1.26-6.23,1.26c-2.239,0-4.329-0.42-6.265-1.26
			c-1.937-0.84-3.64-1.995-5.11-3.465c-1.47-1.471-2.625-3.186-3.465-5.146s-1.26-4.06-1.26-6.3h11.76
			c0,1.214,0.42,2.252,1.26,3.115c0.841,0.863,1.866,1.295,3.08,1.295c1.213,0,2.251-0.432,3.115-1.295
			c0.863-0.863,1.295-1.901,1.295-3.115v-35.91h11.76V241.974z"/>
		<path style="fill:#231F20;" d="M354.587,217.544v8.4h14.84v11.76h-14.84v8.4h20.16v11.76h-31.92v-52.08h31.92v11.76H354.587z"/>
	</g>
</g>
</svg>
