<?xml version="1.0" encoding="iso-8859-1"?>
<!-- Generator: Adobe Illustrator 19.1.0, SVG Export Plug-In . SVG Version: 6.00 Build 0)  -->
<!DOCTYPE svg PUBLIC "-//W3C//DTD SVG 1.1//EN" "http://www.w3.org/Graphics/SVG/1.1/DTD/svg11.dtd">
<svg version="1.1" id="Layer_1" xmlns="http://www.w3.org/2000/svg" xmlns:xlink="http://www.w3.org/1999/xlink" x="0px" y="0px"
	 viewBox="0 0 714.663 451.967" style="enable-background:new 0 0 714.663 451.967;" xml:space="preserve">
<g>
	<g>
		<path style="fill:#FFFFFF;" d="M711.663,423.287c-20.869-48.843-93.731-85-180.16-85H258.889v-0.159H138.351
			c-36.001,0-69.948-14.121-95.589-39.762S3,238.778,3,202.777V3h573.312c36.001,0,69.948,14.121,95.589,39.762
			s39.762,59.588,39.762,95.589V423.287z"/>
		<path d="M576.311,6c35.2,0,68.394,13.809,93.468,38.883s38.883,58.269,38.883,93.468v154.946v47.831v69.818
			c-1.106-1.815-2.287-3.617-3.544-5.405c-9.739-13.853-23.586-26.26-41.156-36.877c-35.619-21.524-82.661-33.377-132.46-33.377
			H261.889v-0.158h-6H138.351c-35.199,0-68.394-13.809-93.468-38.883S6,237.976,6,202.777V6H576.311 M576.311,0H0v202.777
			c0,76.093,62.258,138.351,138.351,138.351h117.538v0.158h275.613c100.738,0,183.161,49.807,183.161,110.681V341.128v-47.831
			V138.351C714.663,62.258,652.405,0,576.311,0L576.311,0z"/>
	</g>
	<g>
		<path style="fill:#231F20;" d="M130.4,112.227c0,5.1-0.953,9.945-2.856,14.535c-1.904,4.59-4.692,8.721-8.364,12.393
			c-3.4,3.332-7.226,5.934-11.475,7.803c-4.25,1.871-8.721,2.943-13.413,3.213h-2.244h-15.3V74.284h15.3
			c5.101,0,9.979,0.936,14.638,2.805c4.656,1.871,8.822,4.607,12.494,8.211c3.672,3.672,6.46,7.803,8.364,12.393
			C129.447,102.282,130.4,107.128,130.4,112.227z"/>
		<path style="fill:#231F20;" d="M153.145,91.419v12.24h21.624v17.137h-21.624v12.24h29.376v17.135h-46.512V74.284h46.512v17.135
			H153.145z"/>
		<path style="fill:#231F20;" d="M332.255,74.284l-18.462,75.887h-17.442l-9.996-41.207l-9.995,41.207h-17.442l-18.462-75.887
			h17.136l10.099,41.207l9.995-41.207h17.442l9.996,41.207l9.996-41.207H332.255z"/>
		<path style="fill:#231F20;" d="M355.613,91.419v12.24h21.624v17.137h-21.624v12.24h29.376v17.135h-46.512V74.284h46.512v17.135
			H355.613z"/>
		<path style="fill:#231F20;" d="M438.64,126.61c0,1.223-0.086,2.414-0.255,3.568c-0.171,1.158-0.426,2.312-0.765,3.469
			c-0.749,2.381-1.836,4.59-3.265,6.631c-1.428,2.039-3.128,3.791-5.1,5.252c-1.974,1.463-4.148,2.602-6.528,3.418
			c-2.381,0.814-4.896,1.223-7.548,1.223c-3.264,0-6.308-0.611-9.129-1.836c-2.822-1.223-5.304-2.906-7.446-5.049
			c-2.142-2.143-3.825-4.641-5.049-7.496c-1.224-2.857-1.836-5.916-1.836-9.18h17.136c0,1.768,0.612,3.281,1.836,4.537
			c1.225,1.26,2.72,1.889,4.488,1.889c1.428,0,2.686-0.424,3.774-1.275c1.087-0.85,1.836-1.92,2.243-3.213
			c0.204-0.543,0.307-1.156,0.307-1.836c0-1.768-0.612-3.195-1.836-4.285c-1.225-1.086-2.721-1.631-4.488-1.631
			c-3.264,0-6.308-0.596-9.129-1.785c-2.822-1.189-5.304-2.822-7.446-4.896c-2.142-2.074-3.825-4.504-5.049-7.293
			c-1.224-2.787-1.836-5.814-1.836-9.078c0-1.154,0.084-2.311,0.255-3.469c0.169-1.154,0.424-2.311,0.765-3.467
			c0.748-2.379,1.837-4.59,3.265-6.631c1.428-2.039,3.127-3.789,5.1-5.252c1.972-1.461,4.147-2.602,6.528-3.418
			c2.379-0.816,4.896-1.223,7.548-1.223c3.264,0,6.307,0.611,9.129,1.836c2.821,1.223,5.304,2.906,7.446,5.049
			c2.142,2.141,3.825,4.641,5.049,7.496s1.836,5.883,1.836,9.078h-17.136c0-1.768-0.612-3.264-1.836-4.488
			c-1.225-1.223-2.721-1.836-4.488-1.836c-1.428,0-2.688,0.426-3.774,1.275c-1.088,0.852-1.836,1.922-2.243,3.213
			c-0.204,0.477-0.307,1.088-0.307,1.836c0,1.77,0.612,3.197,1.836,4.285c1.225,1.088,2.72,1.631,4.488,1.631
			c3.264,0,6.307,0.596,9.129,1.785c2.821,1.191,5.304,2.822,7.446,4.896c2.142,2.074,3.825,4.506,5.049,7.293
			C438.028,120.423,438.64,123.413,438.64,126.61z"/>
		<path style="fill:#231F20;" d="M500.961,74.284v75.887h-17.34l-21.42-42.432v42.432h-17.137V74.284h17.442l21.318,42.33v-42.33
			H500.961z"/>
		<path style="fill:#231F20;" d="M147.433,184.284l-26.418,75.887h-17.34l-26.418-75.887h17.137l17.951,51.611l17.952-51.611
			H147.433z"/>
		<path style="fill:#231F20;" d="M190.17,230.796h-14.076l-10.2,29.375h-18.462l26.316-75.887h18.768l26.316,75.887h-18.462
			L190.17,230.796z"/>
		<path style="fill:#231F20;" d="M280.031,184.284v75.887h-17.34l-21.42-42.432v42.432h-17.137v-75.887h17.442l21.318,42.33v-42.33
			H280.031z"/>
		<path style="fill:#231F20;" d="M336.333,201.419h-17.238v58.752h-17.136v-58.752h-17.238v-17.135h51.612V201.419z"/>
		<path style="fill:#231F20;" d="M439.863,237.016c-0.069,3.197-0.732,6.207-1.989,9.027c-1.259,2.822-2.942,5.271-5.049,7.344
			c-2.109,2.076-4.591,3.725-7.446,4.947c-2.856,1.225-5.883,1.836-9.078,1.836c-3.264,0-6.308-0.611-9.129-1.836
			c-2.822-1.223-5.304-2.906-7.446-5.049c-2.142-2.143-3.825-4.641-5.049-7.496c-1.224-2.857-1.836-5.916-1.836-9.18h17.136
			c0,1.768,0.612,3.281,1.836,4.537c1.225,1.26,2.72,1.889,4.488,1.889c1.768,0,3.28-0.629,4.539-1.889
			c1.258-1.256,1.887-2.77,1.887-4.537v-52.326h17.137V237.016z"/>
		<path style="fill:#231F20;" d="M503.408,241.403c-1.428,3.605-3.503,6.834-6.222,9.689c-2.789,2.994-5.967,5.271-9.537,6.834
			c-3.57,1.566-7.361,2.346-11.373,2.346h-0.102c-3.945,0-7.701-0.779-11.271-2.346c-3.57-1.562-6.783-3.807-9.639-6.73
			c-2.652-2.857-4.71-6.086-6.171-9.691c-1.464-3.604-2.227-7.445-2.295-11.525v-17.748c0.339-3.604,1.239-7.004,2.702-10.199
			c1.462-3.197,3.383-6.086,5.764-8.67c2.855-2.924,6.051-5.168,9.588-6.732c3.535-1.564,7.309-2.346,11.322-2.346h0.102
			c4.012,0,7.803,0.781,11.373,2.346s6.748,3.809,9.537,6.732c2.448,2.584,4.386,5.473,5.813,8.67
			c1.429,3.195,2.312,6.596,2.652,10.199v2.244v9.385v6.119C505.583,233.993,504.835,237.8,503.408,241.403z"/>
		<path style="fill:#231F20;" d="M551.857,230.796h-14.076l-10.2,29.375h-18.462l26.316-75.887h18.768l26.316,75.887h-18.462
			L551.857,230.796z"/>
		<path style="fill:#231F20;" d="M616.319,260.171l-13.26-28.764h-0.204v28.764h-17.136v-75.887h23.052h0.103
			c3.264,0,6.34,0.611,9.23,1.836c2.89,1.223,5.406,2.906,7.548,5.049c2.143,2.141,3.825,4.641,5.05,7.496
			c1.224,2.855,1.836,5.916,1.836,9.18c0,4.625-1.19,8.791-3.57,12.496c-2.381,3.707-5.508,6.545-9.384,8.516l14.382,31.314H616.319
			z"/>
	</g>
</g>
</svg>
