<?xml version="1.0" encoding="iso-8859-1"?>
<!-- Generator: Adobe Illustrator 19.1.0, SVG Export Plug-In . SVG Version: 6.00 Build 0)  -->
<!DOCTYPE svg PUBLIC "-//W3C//DTD SVG 1.1//EN" "http://www.w3.org/Graphics/SVG/1.1/DTD/svg11.dtd">
<svg version="1.1" id="Layer_1" xmlns="http://www.w3.org/2000/svg" xmlns:xlink="http://www.w3.org/1999/xlink" x="0px" y="0px"
	 viewBox="0 0 457.676 332.587" style="enable-background:new 0 0 457.676 332.587;" xml:space="preserve">
<g>
	<g>
		<path d="M70.866,329.587C33.444,329.587,3,299.142,3,261.721V20.696c13.679,22.745,49.229,38.997,90.818,38.997h229.786l3,0.082
			h60.205c37.422,0,67.866,30.445,67.866,67.866v201.946H70.866z"/>
		<path style="fill:#FFFFFF;" d="M6,30c4.805,5.553,10.994,10.665,18.456,15.174c18.695,11.297,43.328,17.518,69.362,17.518h226.786
			v0.081h6h60.205c17.248,0,33.516,6.769,45.807,19.06c12.291,12.291,19.06,28.559,19.06,45.807v198.946H70.866
			c-17.248,0-33.516-6.769-45.807-19.06C12.769,295.236,6,278.969,6,261.721V81.274v-24.5V30 M0,0v56.774v24.5v180.446
			c0,38.976,31.89,70.866,70.866,70.866h386.809V127.64c0-38.976-31.89-70.866-70.866-70.866h-60.205v-0.081H93.819
			C42.218,56.693,0,31.181,0,0L0,0z"/>
	</g>
	<g>
		<path style="fill:#FFFFFF;" d="M99.111,159.033c-0.062,2.915-0.667,5.658-1.813,8.23c-1.148,2.573-2.683,4.806-4.604,6.696
			c-1.923,1.892-4.186,3.395-6.789,4.511c-2.604,1.115-5.363,1.674-8.277,1.674c-2.976,0-5.751-0.559-8.323-1.674
			c-2.573-1.116-4.836-2.651-6.789-4.604c-1.953-1.953-3.487-4.231-4.604-6.836c-1.116-2.604-1.674-5.394-1.674-8.37h15.624
			c0,1.613,0.558,2.992,1.674,4.138c1.116,1.148,2.479,1.721,4.092,1.721c1.611,0,2.99-0.572,4.139-1.721
			c1.146-1.146,1.721-2.525,1.721-4.138v-47.709h15.624V159.033z"/>
		<path style="fill:#FFFFFF;" d="M121.152,180.143h-15.624v-69.192h15.624V180.143z"/>
		<path style="fill:#FFFFFF;" d="M178.812,110.952v69.192h-15.811l-19.53-38.688v38.688h-15.624v-69.192h15.903l19.438,38.595
			v-38.595H178.812z"/>
		<path style="fill:#FFFFFF;" d="M234.982,110.952v69.192h-15.81l-19.53-38.688v38.688h-15.624v-69.192h15.903l19.437,38.595
			v-38.595H234.982z"/>
		<path style="fill:#FFFFFF;" d="M255.721,126.576v11.16h19.716v15.624h-19.716v11.16h26.784v15.624h-42.408v-69.192h42.408v15.624
			H255.721z"/>
		<path style="fill:#FFFFFF;" d="M82.092,260.612c1.549,0,2.991-0.325,4.325-0.977c1.332-0.651,2.511-1.534,3.533-2.65
			c1.023-1.116,1.828-2.418,2.418-3.906c0.589-1.487,0.884-3.068,0.884-4.743h15.624c0,3.721-0.651,7.254-1.953,10.603
			c-1.302,3.348-3.225,6.355-5.766,9.021c-2.543,2.667-5.44,4.713-8.695,6.139c-3.256,1.427-6.712,2.139-10.37,2.139h-0.093
			c-3.659,0-7.1-0.712-10.323-2.139c-3.225-1.426-6.138-3.472-8.742-6.139c-2.418-2.604-4.294-5.533-5.626-8.788
			c-1.333-3.255-2.03-6.68-2.093-10.276v-14.322c0.062-3.72,0.744-7.222,2.046-10.509c1.303-3.286,3.192-6.231,5.673-8.835
			c2.604-2.665,5.518-4.711,8.742-6.139c3.224-1.425,6.664-2.139,10.323-2.139h0.093c3.658,0,7.114,0.714,10.37,2.139
			c3.255,1.428,6.152,3.474,8.695,6.139c2.541,2.666,4.464,5.673,5.766,9.021c1.302,3.349,1.953,6.882,1.953,10.603H93.252
			c0-1.674-0.295-3.255-0.884-4.743c-0.59-1.488-1.395-2.79-2.418-3.906c-1.022-1.116-2.201-1.999-3.533-2.65
			c-1.334-0.651-2.776-0.977-4.325-0.977c-1.55,0-3.008,0.325-4.371,0.977c-1.364,0.651-2.558,1.534-3.58,2.65
			c-1.023,1.116-1.829,2.418-2.418,3.906c-0.59,1.488-0.884,3.069-0.884,4.743v13.484c0,1.675,0.294,3.256,0.884,4.743
			c0.589,1.488,1.395,2.79,2.418,3.906c1.022,1.116,2.216,1.999,3.58,2.65C79.084,260.287,80.542,260.612,82.092,260.612z"/>
		<path style="fill:#FFFFFF;" d="M150.445,249.359h-12.834l-9.3,26.784h-16.833l23.994-69.192h17.112l23.993,69.192h-16.833
			L150.445,249.359z"/>
		<path style="fill:#FFFFFF;" d="M232.376,206.951v69.192h-15.809l-19.531-38.688v38.688h-15.623v-69.192h15.902l19.438,38.595
			v-38.595H232.376z"/>
		<path style="fill:#FFFFFF;" d="M273.761,249.359h-12.834l-9.3,26.784h-16.833l23.994-69.192H275.9l23.994,69.192h-16.833
			L273.761,249.359z"/>
		<path style="fill:#FFFFFF;" d="M332.536,276.143l-12.091-26.227h-0.186v26.227h-15.624v-69.192h21.018h0.094
			c2.976,0,5.78,0.559,8.416,1.674c2.635,1.116,4.929,2.65,6.882,4.604s3.488,4.231,4.604,6.836c1.116,2.604,1.674,5.394,1.674,8.37
			c0,4.217-1.085,8.014-3.255,11.393c-2.171,3.38-5.021,5.968-8.556,7.766l13.113,28.551H332.536z"/>
		<path style="fill:#FFFFFF;" d="M402.098,241.547c0,4.65-0.869,9.068-2.604,13.253c-1.737,4.185-4.278,7.951-7.626,11.3
			c-3.102,3.038-6.589,5.41-10.463,7.114c-3.876,1.706-7.951,2.683-12.229,2.93h-2.046h-13.95v-69.192h13.95
			c4.649,0,9.098,0.854,13.346,2.558c4.246,1.706,8.044,4.201,11.393,7.486c3.348,3.349,5.889,7.114,7.626,11.3
			C401.229,232.479,402.098,236.897,402.098,241.547z"/>
	</g>
</g>
</svg>
