<?xml version="1.0" encoding="iso-8859-1"?>
<!-- Generator: Adobe Illustrator 19.1.0, SVG Export Plug-In . SVG Version: 6.00 Build 0)  -->
<!DOCTYPE svg PUBLIC "-//W3C//DTD SVG 1.1//EN" "http://www.w3.org/Graphics/SVG/1.1/DTD/svg11.dtd">
<svg version="1.1" id="Layer_1" xmlns="http://www.w3.org/2000/svg" xmlns:xlink="http://www.w3.org/1999/xlink" x="0px" y="0px"
	 viewBox="0 0 577.676 332.587" style="enable-background:new 0 0 577.676 332.587;" xml:space="preserve">
<g>
	<g>
		<path style="fill:#FFFFFF;" d="M3,70.866C3,33.444,33.445,3,70.866,3h503.81v201.946c0,37.422-30.444,67.866-67.866,67.866
			h-63.205v0.081H93.819c-41.591,0-77.14,16.252-90.818,38.997V70.866z"/>
		<path d="M571.676,6v198.946c0,17.248-6.769,33.516-19.06,45.807s-28.559,19.06-45.807,19.06h-60.205h-6v0.082H93.819
			c-26.034,0-50.668,6.221-69.362,17.518c-7.462,4.509-13.651,9.622-18.456,15.174v-26.774v-24.5V70.866
			c0-17.248,6.769-33.516,19.06-45.807C37.35,12.769,53.618,6,70.866,6H571.676 M577.676,0H70.866C31.89,0,0,31.89,0,70.866v180.446
			v24.5v56.774c0-31.181,42.218-56.693,93.818-56.693h352.786v-0.082h60.205c38.977,0,70.866-31.89,70.866-70.866V0L577.676,0z"/>
	</g>
	<g>
		<path style="fill:#231F20;" d="M105.157,81.547c0,4.65-0.869,9.068-2.604,13.253c-1.736,4.185-4.278,7.951-7.626,11.3
			c-3.102,3.038-6.588,5.41-10.463,7.113c-3.875,1.707-7.951,2.684-12.229,2.93h-2.047H56.239V46.951h13.949
			c4.65,0,9.098,0.854,13.346,2.558c4.246,1.706,8.045,4.2,11.393,7.486c3.348,3.349,5.89,7.114,7.626,11.3
			C104.287,72.479,105.157,76.896,105.157,81.547z"/>
		<path style="fill:#231F20;" d="M138.17,116.142l-12.09-26.226h-0.186v26.226H110.27V46.951h21.019h0.093
			c2.977,0,5.781,0.559,8.416,1.674c2.635,1.116,4.93,2.65,6.883,4.604s3.487,4.231,4.604,6.836
			c1.115,2.604,1.674,5.394,1.674,8.369c0,4.217-1.086,8.015-3.255,11.393c-2.171,3.381-5.022,5.969-8.556,7.766l13.112,28.551
			H138.17z"/>
		<path style="fill:#231F20;" d="M174.44,116.142h-15.625V46.951h15.625V116.142z"/>
		<path style="fill:#231F20;" d="M232.099,46.951v69.191h-15.81l-19.53-38.688v38.688h-15.624V46.951h15.903l19.437,38.595V46.951
			H232.099z"/>
		<path style="fill:#231F20;" d="M256.743,81.64l29.388,34.502h-15.624l-17.67-19.623v19.623h-15.624V46.951h15.624V66.76
			L270.6,46.951h15.624L256.743,81.64z"/>
		<path style="fill:#231F20;" d="M340.442,46.951v69.191h-15.81l-19.53-38.688v38.688h-15.624V46.951h15.903l19.437,38.595V46.951
			H340.442z"/>
		<path style="fill:#231F20;" d="M120.315,212.142h-15.623v-24.18l-8.463,24.18H80.604l-8.648-24.924v24.924H56.33v-69.191h15.904
			l16.182,46.686l16.275-46.686h15.623V212.142z"/>
		<path style="fill:#231F20;" d="M142.634,158.575v11.159h19.716v15.625h-19.716v11.16h26.784v15.623H127.01v-69.191h42.408v15.624
			H142.634z"/>
		<path style="fill:#231F20;" d="M286.132,212.142h-15.624v-24.18l-8.463,24.18h-15.624l-8.649-24.924v24.924h-15.624v-69.191
			h15.903l16.182,46.686l16.275-46.686h15.624V212.142z"/>
		<path style="fill:#231F20;" d="M344.349,195.031c-1.303,3.287-3.194,6.23-5.674,8.835c-2.543,2.729-5.44,4.806-8.695,6.231
			s-6.712,2.139-10.369,2.139h-0.093c-3.597,0-7.021-0.713-10.277-2.139c-3.255-1.426-6.184-3.473-8.788-6.139
			c-2.418-2.604-4.294-5.548-5.627-8.835c-1.333-3.286-2.029-6.789-2.092-10.509v-16.182c0.31-3.286,1.13-6.386,2.464-9.301
			c1.333-2.913,3.084-5.548,5.255-7.904c2.604-2.666,5.518-4.711,8.742-6.139c3.223-1.426,6.664-2.139,10.323-2.139h0.093
			c3.657,0,7.114,0.713,10.369,2.139c3.255,1.428,6.152,3.473,8.695,6.139c2.232,2.356,3.999,4.991,5.302,7.904
			c1.302,2.915,2.106,6.015,2.418,9.301v2.045v8.557v5.58C346.332,188.273,345.651,191.746,344.349,195.031z"/>
		<path style="fill:#231F20;" d="M388.523,185.359h-12.834l-9.3,26.783h-16.833l23.994-69.191h17.112l23.994,69.191h-16.833
			L388.523,185.359z"/>
		<path style="fill:#231F20;" d="M465.618,158.575h-15.717v53.567h-15.624v-53.567h-15.717v-15.624h47.058V158.575z"/>
		<path style="fill:#231F20;" d="M521.697,142.951v69.191h-15.81l-19.53-38.688v38.688h-15.624v-69.191h15.903l19.437,38.595
			v-38.595H521.697z"/>
	</g>
</g>
</svg>
