<?xml version="1.0" encoding="iso-8859-1"?>
<!-- Generator: Adobe Illustrator 19.1.0, SVG Export Plug-In . SVG Version: 6.00 Build 0)  -->
<!DOCTYPE svg PUBLIC "-//W3C//DTD SVG 1.1//EN" "http://www.w3.org/Graphics/SVG/1.1/DTD/svg11.dtd">
<svg version="1.1" id="Layer_1" xmlns="http://www.w3.org/2000/svg" xmlns:xlink="http://www.w3.org/1999/xlink" x="0px" y="0px"
	 viewBox="0 0 397.676 332.587" style="enable-background:new 0 0 397.676 332.587;" xml:space="preserve">
<g>
	<g>
		<path style="fill:#EB2F2B;" d="M394.676,311.89c-13.679-22.745-49.228-38.997-90.818-38.997H134.072l-3-0.081H70.866
			C33.445,272.812,3,242.368,3,204.946V3h323.81c37.422,0,67.866,30.444,67.866,67.866V311.89z"/>
		<path style="fill:#FFFFFF;" d="M326.81,6c17.248,0,33.516,6.769,45.807,19.06c12.291,12.291,19.06,28.559,19.06,45.807v180.446
			v24.5v26.774c-4.805-5.553-10.994-10.665-18.456-15.174c-18.695-11.297-43.328-17.518-69.362-17.518H137.071v-0.081h-6H70.866
			c-17.248,0-33.516-6.769-45.807-19.06C12.769,238.462,6,222.194,6,204.946V6H326.81 M326.81,0H0v204.946
			c0,38.976,31.89,70.866,70.866,70.866h60.205v0.081h172.786c51.6,0,93.818,25.512,93.818,56.693v-56.774v-24.5V70.866
			C397.676,31.89,365.786,0,326.81,0L326.81,0z"/>
	</g>
	<g>
		<path style="fill:#FFFFFF;" d="M99.018,101.66c0,1.115-0.078,2.201-0.232,3.255c-0.155,1.056-0.388,2.108-0.697,3.162
			c-0.683,2.171-1.674,4.185-2.976,6.045c-1.302,1.86-2.853,3.457-4.65,4.79c-1.799,1.334-3.783,2.371-5.952,3.115
			c-2.171,0.744-4.464,1.115-6.882,1.115c-2.976,0-5.751-0.558-8.324-1.674c-2.573-1.115-4.836-2.65-6.789-4.604
			c-1.953-1.953-3.487-4.23-4.604-6.835c-1.116-2.604-1.674-5.394-1.674-8.37h15.624c0,1.613,0.558,2.992,1.674,4.139
			c1.116,1.148,2.479,1.721,4.092,1.721c1.302,0,2.448-0.387,3.441-1.163c0.991-0.774,1.674-1.751,2.046-2.929
			c0.186-0.496,0.279-1.055,0.279-1.675c0-1.611-0.558-2.913-1.674-3.905c-1.116-0.992-2.48-1.488-4.092-1.488
			c-2.976,0-5.751-0.543-8.324-1.628c-2.573-1.084-4.836-2.571-6.789-4.464c-1.953-1.891-3.487-4.106-4.604-6.649
			c-1.116-2.542-1.674-5.302-1.674-8.276c0-1.055,0.077-2.107,0.232-3.162c0.154-1.055,0.387-2.107,0.698-3.162
			c0.681-2.17,1.674-4.186,2.976-6.045c1.302-1.86,2.851-3.456,4.65-4.79c1.797-1.333,3.781-2.372,5.952-3.116
			c2.17-0.743,4.464-1.115,6.882-1.115c2.976,0,5.75,0.559,8.323,1.674c2.572,1.116,4.836,2.65,6.789,4.604s3.488,4.231,4.604,6.836
			c1.116,2.604,1.674,5.363,1.674,8.277H83.394c0-1.612-0.558-2.977-1.674-4.093c-1.116-1.116-2.48-1.674-4.092-1.674
			c-1.302,0-2.45,0.388-3.441,1.163c-0.993,0.775-1.674,1.752-2.046,2.929c-0.186,0.435-0.279,0.993-0.279,1.675
			c0,1.612,0.558,2.914,1.674,3.905c1.116,0.993,2.479,1.487,4.092,1.487c2.976,0,5.75,0.544,8.323,1.629
			c2.572,1.085,4.836,2.572,6.789,4.463c1.953,1.893,3.488,4.108,4.604,6.65C98.46,96.019,99.018,98.746,99.018,101.66z"/>
		<path style="fill:#FFFFFF;" d="M155.84,53.951v69.191h-15.81L120.5,84.455v38.688h-15.624V53.951h15.903l19.437,38.595V53.951
			H155.84z"/>
		<path style="fill:#FFFFFF;" d="M176.578,69.575v11.159h19.716v15.625h-19.716v11.16h26.785v15.623h-42.409V53.951h42.409v15.624
			H176.578z"/>
		<path style="fill:#FFFFFF;" d="M243.629,107.519v15.623h-34.13V53.951h15.624v53.568H243.629z"/>
		<path style="fill:#FFFFFF;" d="M283.712,107.519v15.623h-34.131V53.951h15.624v53.568H283.712z"/>
		<path style="fill:#FFFFFF;" d="M305.288,69.575v11.159h19.716v15.625h-19.716v11.16h26.784v15.623h-42.408V53.951h42.408v15.624
			H305.288z"/>
		<path style="fill:#FFFFFF;" d="M120.315,219.142h-15.624v-24.18l-8.463,24.18H80.604l-8.649-24.924v24.924H56.331v-69.191h15.903
			l16.182,46.686l16.275-46.686h15.624V219.142z"/>
		<path style="fill:#FFFFFF;" d="M178.532,202.031c-1.302,3.287-3.194,6.23-5.673,8.835c-2.543,2.729-5.44,4.806-8.696,6.231
			c-3.255,1.426-6.712,2.139-10.369,2.139h-0.093c-3.596,0-7.021-0.713-10.276-2.139s-6.185-3.473-8.789-6.139
			c-2.418-2.604-4.294-5.548-5.626-8.835c-1.334-3.286-2.03-6.789-2.092-10.509v-16.182c0.309-3.286,1.13-6.386,2.464-9.301
			c1.333-2.913,3.083-5.548,5.254-7.904c2.604-2.666,5.518-4.711,8.742-6.139c3.223-1.426,6.664-2.139,10.323-2.139h0.093
			c3.657,0,7.114,0.713,10.369,2.139c3.255,1.428,6.153,3.473,8.696,6.139c2.232,2.356,3.999,4.991,5.301,7.904
			c1.302,2.915,2.107,6.015,2.418,9.301v2.045v8.557v5.58C180.515,195.273,179.834,198.746,178.532,202.031z"/>
		<path style="fill:#FFFFFF;" d="M205.967,184.64l29.388,34.502h-15.624l-17.67-19.623v19.623h-15.624v-69.191h15.624v19.809
			l17.763-19.809h15.624L205.967,184.64z"/>
		<path style="fill:#FFFFFF;" d="M258.139,184.64l29.388,34.502h-15.624l-17.67-19.623v19.623h-15.624v-69.191h15.624v19.809
			l17.763-19.809h15.624L258.139,184.64z"/>
		<path style="fill:#FFFFFF;" d="M306.404,165.575v11.159h19.716v15.625h-19.716v11.16h26.784v15.623H290.78v-69.191h42.408v15.624
			H306.404z"/>
	</g>
</g>
</svg>
