<?xml version="1.0" encoding="iso-8859-1"?>
<!-- Generator: Adobe Illustrator 19.1.0, SVG Export Plug-In . SVG Version: 6.00 Build 0)  -->
<!DOCTYPE svg PUBLIC "-//W3C//DTD SVG 1.1//EN" "http://www.w3.org/Graphics/SVG/1.1/DTD/svg11.dtd">
<svg version="1.1" id="Layer_1" xmlns="http://www.w3.org/2000/svg" xmlns:xlink="http://www.w3.org/1999/xlink" x="0px" y="0px"
	 viewBox="0 0 601.502 559.967" style="enable-background:new 0 0 601.502 559.967;" xml:space="preserve">
<g>
	<g>
		<path style="fill:#FFFFFF;" d="M138.351,556.967c-36.001,0-69.948-14.121-95.589-39.762
			c-25.641-25.641-39.762-59.588-39.762-95.589V28.68c20.869,48.843,93.731,85.001,180.16,85.001h159.452v0.158h120.538
			c36.001,0,69.948,14.121,95.589,39.762c25.642,25.641,39.763,59.588,39.763,95.589v307.777H138.351z"/>
		<path d="M6,41.021c1.106,1.816,2.287,3.617,3.544,5.405C19.283,60.279,33.13,72.686,50.7,83.304
			c35.619,21.523,82.661,33.377,132.46,33.377h156.453v0.159h6h117.538c35.199,0,68.394,13.809,93.468,38.883
			c25.074,25.074,38.883,58.268,38.883,93.468v304.777H138.351c-35.199,0-68.393-13.809-93.468-38.883
			C19.809,490.01,6,456.816,6,421.617V158.67v-47.831V41.021 M0,0v110.839v47.831v262.946c0,76.093,62.258,138.351,138.351,138.351
			h463.151V249.19c0-76.093-62.258-138.351-138.351-138.351H345.613v-0.159H183.161C82.422,110.681,0,60.874,0,0L0,0z"/>
	</g>
	<g>
		<path style="fill:#231F20;" d="M87.882,193.421v12.24h21.624v17.136H87.882v12.24h29.377v17.136H70.747v-75.888h46.513v17.136
			H87.882z"/>
		<path style="fill:#231F20;" d="M221.91,228.611c0,1.224-0.086,2.414-0.256,3.569c-0.17,1.157-0.426,2.312-0.764,3.468
			c-0.75,2.382-1.836,4.591-3.266,6.631c-1.428,2.04-3.127,3.791-5.1,5.253c-1.973,1.463-4.148,2.601-6.527,3.417
			c-2.381,0.815-4.896,1.224-7.549,1.224c-3.264,0-6.307-0.612-9.129-1.836s-5.303-2.907-7.445-5.049
			c-2.143-2.143-3.826-4.642-5.049-7.497c-1.225-2.856-1.836-5.916-1.836-9.18h17.135c0,1.769,0.613,3.281,1.836,4.538
			c1.225,1.26,2.721,1.888,4.488,1.888c1.428,0,2.686-0.424,3.775-1.275c1.086-0.85,1.836-1.92,2.242-3.213
			c0.205-0.543,0.307-1.155,0.307-1.836c0-1.768-0.611-3.195-1.836-4.284c-1.225-1.087-2.721-1.632-4.488-1.632
			c-3.264,0-6.307-0.595-9.129-1.785c-2.822-1.188-5.303-2.821-7.445-4.896s-3.826-4.504-5.049-7.293
			c-1.225-2.788-1.836-5.814-1.836-9.078c0-1.155,0.084-2.312,0.254-3.469c0.17-1.155,0.424-2.311,0.766-3.468
			c0.748-2.379,1.836-4.59,3.264-6.63s3.127-3.79,5.1-5.253c1.973-1.461,4.148-2.601,6.529-3.417
			c2.379-0.816,4.895-1.224,7.547-1.224c3.264,0,6.307,0.611,9.129,1.836c2.822,1.224,5.305,2.907,7.447,5.049
			c2.141,2.142,3.824,4.641,5.049,7.497c1.223,2.855,1.836,5.883,1.836,9.078h-17.137c0-1.768-0.611-3.265-1.836-4.488
			s-2.721-1.836-4.488-1.836c-1.428,0-2.688,0.426-3.773,1.275c-1.088,0.851-1.836,1.922-2.244,3.213
			c-0.203,0.477-0.307,1.088-0.307,1.836c0,1.769,0.613,3.197,1.836,4.284c1.225,1.088,2.721,1.632,4.488,1.632
			c3.264,0,6.307,0.596,9.129,1.785c2.822,1.19,5.305,2.822,7.447,4.896c2.141,2.075,3.824,4.506,5.049,7.293
			C221.296,222.423,221.91,225.415,221.91,228.611z"/>
		<path style="fill:#231F20;" d="M256.589,235.138c1.697,0,3.279-0.356,4.742-1.071c1.461-0.714,2.754-1.683,3.875-2.906
			c1.123-1.225,2.006-2.652,2.652-4.284s0.969-3.366,0.969-5.202h17.137c0,4.08-0.715,7.956-2.143,11.628s-3.535,6.971-6.324,9.895
			s-5.967,5.168-9.537,6.731c-3.568,1.565-7.361,2.346-11.371,2.346h-0.104c-4.012,0-7.787-0.78-11.322-2.346
			c-3.535-1.563-6.73-3.808-9.588-6.731c-2.65-2.856-4.709-6.069-6.17-9.64c-1.461-3.569-2.227-7.326-2.295-11.271v-15.708
			c0.068-4.08,0.816-7.921,2.244-11.526c1.428-3.604,3.5-6.834,6.221-9.689c2.857-2.924,6.053-5.167,9.588-6.732
			c3.535-1.563,7.311-2.346,11.322-2.346h0.104c4.01,0,7.803,0.782,11.371,2.346c3.57,1.565,6.748,3.809,9.537,6.732
			s4.896,6.222,6.324,9.894s2.143,7.548,2.143,11.628h-17.137c0-1.836-0.322-3.57-0.969-5.202s-1.529-3.06-2.652-4.284
			c-1.121-1.224-2.414-2.192-3.875-2.906c-1.463-0.714-3.045-1.071-4.742-1.071c-1.701,0-3.301,0.357-4.795,1.071
			c-1.496,0.714-2.805,1.683-3.928,2.906c-1.121,1.225-2.006,2.652-2.65,4.284c-0.648,1.632-0.971,3.366-0.971,5.202v14.79
			c0,1.836,0.322,3.57,0.971,5.202c0.645,1.632,1.529,3.06,2.65,4.284c1.123,1.224,2.432,2.192,3.928,2.906
			C253.289,234.782,254.888,235.138,256.589,235.138z"/>
		<path style="fill:#231F20;" d="M346.347,176.285v75.888H329.21v-29.376h-20.297v29.376h-17.137v-75.888h17.137v29.376h20.297
			v-29.376H346.347z"/>
		<path style="fill:#231F20;" d="M371.541,193.421v12.24h21.625v17.136h-21.625v12.24h29.377v17.136h-46.512v-75.888h46.512v17.136
			H371.541z"/>
		<path style="fill:#231F20;" d="M458.343,193.421h-17.238v58.752h-17.137v-58.752H406.73v-17.136h51.613V193.421z"/>
		<path style="fill:#231F20;" d="M480.986,193.421v12.24h21.623v17.136h-21.623v12.24h29.375v17.136h-46.512v-75.888h46.512v17.136
			H480.986z"/>
		<path style="fill:#231F20;" d="M87.882,362.172H70.747v-75.888h17.136V362.172z"/>
		<path style="fill:#231F20;" d="M151.123,286.285v75.888h-17.34l-21.42-42.432v42.432H95.226v-75.888h17.442l21.317,42.33v-42.33
			H151.123z"/>
		<path style="fill:#231F20;" d="M224.867,303.421v12.24h21.625v17.136h-21.625v12.24h29.377v17.136h-46.512v-75.888h46.512v17.136
			H224.867z"/>
		<path style="fill:#231F20;" d="M126.745,396.285v75.888h-17.34l-21.421-42.432v42.432H70.849v-75.888h17.441l21.318,42.33v-42.33
			H126.745z"/>
		<path style="fill:#231F20;" d="M149.49,413.421v12.24h21.623v17.136H149.49v12.24h29.375v17.136h-46.512v-75.888h46.512v17.136
			H149.49z"/>
		<path style="fill:#231F20;" d="M236.291,413.421h-17.238v58.752h-17.135v-58.752h-17.238v-17.136h51.611V413.421z"/>
		<path style="fill:#231F20;" d="M291.267,413.421l-29.58,41.616h29.58v17.136h-49.469v-17.136l29.477-41.616h-29.477v-17.136
			h49.469V413.421z"/>
		<path style="fill:#231F20;" d="M338.187,442.796h-14.076l-10.199,29.376h-18.463l26.316-75.888h18.768l26.316,75.888h-18.461
			L338.187,442.796z"/>
		<path style="fill:#231F20;" d="M393.47,434.331l32.232,37.842h-17.137l-19.381-21.522v21.522H372.05v-75.888h17.135v21.726
			l19.482-21.726h17.137L393.47,434.331z"/>
	</g>
</g>
</svg>
