<?xml version="1.0" encoding="iso-8859-1"?>
<!-- Generator: Adobe Illustrator 19.1.0, SVG Export Plug-In . SVG Version: 6.00 Build 0)  -->
<!DOCTYPE svg PUBLIC "-//W3C//DTD SVG 1.1//EN" "http://www.w3.org/Graphics/SVG/1.1/DTD/svg11.dtd">
<svg version="1.1" id="Layer_1" xmlns="http://www.w3.org/2000/svg" xmlns:xlink="http://www.w3.org/1999/xlink" x="0px" y="0px"
	 viewBox="0 0 834.303 429.891" style="enable-background:new 0 0 834.303 429.891;" xml:space="preserve">
<g>
	<g>
		<path style="fill:#EB2F2B;" d="M108.087,426.89C50.142,426.89,3,379.749,3,321.803V25.41
			C20.921,62.408,76.944,89.47,143.095,89.47h488.293v0.124h94.827c57.945,0,105.088,47.143,105.088,105.088V426.89H108.087z"/>
		<path style="fill:#FFFFFF;" d="M6,36.564c7.602,10.987,18.695,21.038,32.931,29.641C66.96,83.143,103.953,92.47,143.096,92.47
			h485.292v0.124h6h91.827c27.149,0,52.753,10.652,72.094,29.994c19.342,19.341,29.993,44.945,29.993,72.094v229.209H108.088
			c-27.149,0-52.753-10.652-72.094-29.994C16.652,374.556,6,348.952,6,321.803v-197.84V86.594V36.564 M0,0v86.594v37.369v197.84
			c0,59.448,48.64,108.088,108.088,108.088h726.215V194.682c0-59.448-48.639-108.088-108.088-108.088h-91.827V86.47H143.096
			C64.393,86.47,0,47.559,0,0L0,0z"/>
	</g>
	<g>
		<path style="fill:#FFFFFF;" d="M91.551,174.439v14.4h25.44V209h-25.44v34.56h-20.16v-89.28h54.721v20.16H91.551z"/>
		<path style="fill:#FFFFFF;" d="M189.23,216.319c-0.081,3.762-0.86,7.302-2.34,10.62c-1.481,3.32-3.462,6.201-5.94,8.64
			c-2.48,2.441-5.399,4.381-8.76,5.82c-3.359,1.44-6.92,2.16-10.68,2.16c-3.84,0-7.422-0.72-10.74-2.16
			c-3.32-1.439-6.24-3.42-8.76-5.939c-2.52-2.521-4.5-5.46-5.939-8.82c-1.44-3.36-2.16-6.96-2.16-10.8h20.16
			c0,2.081,0.719,3.86,2.159,5.34c1.44,1.481,3.198,2.22,5.28,2.22c2.079,0,3.859-0.738,5.34-2.22
			c1.479-1.479,2.221-3.259,2.221-5.34v-61.561h20.159V216.319z"/>
		<path style="fill:#FFFFFF;" d="M217.671,243.559h-20.16v-89.28h20.16V243.559z"/>
		<path style="fill:#FFFFFF;" d="M246.35,174.439v14.4h25.439V209H246.35v14.399h34.559v20.16H226.19v-89.28h54.719v20.16H246.35z"
			/>
		<path style="fill:#FFFFFF;" d="M344.028,215.84c0,1.439-0.102,2.841-0.299,4.2c-0.201,1.36-0.502,2.72-0.9,4.079
			c-0.881,2.802-2.16,5.4-3.84,7.801c-1.68,2.399-3.682,4.46-6,6.18c-2.322,1.722-4.881,3.06-7.68,4.02
			c-2.803,0.96-5.762,1.44-8.881,1.44c-3.84,0-7.422-0.72-10.74-2.16c-3.32-1.439-6.24-3.42-8.76-5.939
			c-2.52-2.521-4.5-5.46-5.939-8.82c-1.441-3.36-2.16-6.96-2.16-10.8h20.16c0,2.081,0.719,3.86,2.16,5.34
			c1.439,1.481,3.197,2.22,5.279,2.22c1.68,0,3.16-0.499,4.439-1.5c1.279-0.999,2.16-2.259,2.641-3.78
			c0.24-0.639,0.359-1.359,0.359-2.159c0-2.08-0.719-3.76-2.16-5.04c-1.439-1.279-3.199-1.92-5.279-1.92
			c-3.84,0-7.422-0.7-10.74-2.101c-3.32-1.398-6.24-3.318-8.76-5.76c-2.52-2.439-4.5-5.299-5.939-8.58
			c-1.441-3.279-2.16-6.84-2.16-10.68c0-1.359,0.1-2.719,0.299-4.08c0.199-1.359,0.5-2.719,0.9-4.08c0.879-2.8,2.16-5.4,3.84-7.8
			c1.68-2.4,3.68-4.459,6-6.181c2.32-1.719,4.879-3.06,7.68-4.02s5.762-1.44,8.881-1.44c3.84,0,7.42,0.721,10.74,2.16
			c3.318,1.44,6.24,3.42,8.76,5.94c2.52,2.52,4.5,5.46,5.939,8.819c1.441,3.36,2.16,6.921,2.16,10.681h-20.16
			c0-2.08-0.719-3.84-2.16-5.28c-1.439-1.44-3.199-2.16-5.279-2.16c-1.68,0-3.162,0.501-4.439,1.5
			c-1.281,1.001-2.16,2.262-2.641,3.78c-0.24,0.561-0.359,1.28-0.359,2.16c0,2.081,0.719,3.761,2.16,5.04
			c1.439,1.28,3.197,1.92,5.279,1.92c3.84,0,7.42,0.701,10.74,2.1c3.318,1.4,6.24,3.32,8.76,5.76c2.52,2.441,4.5,5.301,5.939,8.58
			C343.309,208.56,344.028,212.08,344.028,215.84z"/>
		<path style="fill:#FFFFFF;" d="M411.106,174.439h-20.279v69.12h-20.16v-69.12h-20.279v-20.16h60.719V174.439z"/>
		<path style="fill:#FFFFFF;" d="M437.747,174.439v14.4h25.439V209h-25.439v14.399h34.559v20.16h-54.719v-89.28h54.719v20.16
			H437.747z"/>
		<path style="fill:#FFFFFF;" d="M546.104,154.279v89.28h-20.398l-25.201-49.92v49.92h-20.16v-89.28h20.52l25.08,49.8v-49.8H546.104
			z"/>
		<path style="fill:#FFFFFF;" d="M656.743,223.399v20.16h-44.039v-89.28h20.16v69.12H656.743z"/>
		<path style="fill:#FFFFFF;" d="M684.583,243.559h-20.16v-89.28h20.16V243.559z"/>
		<path style="fill:#FFFFFF;" d="M718.303,199.04l37.92,44.52h-20.16l-22.801-25.32v25.32h-20.16v-89.28h20.16v25.561l22.92-25.561
			h20.16L718.303,199.04z"/>
		<path style="fill:#FFFFFF;" d="M134.391,318.92c0,6-1.121,11.699-3.359,17.1c-2.24,5.4-5.52,10.26-9.84,14.58
			c-4.002,3.921-8.502,6.98-13.5,9.18c-5.001,2.201-10.26,3.462-15.78,3.78h-2.64h-18v-89.28h18c6,0,11.738,1.101,17.22,3.3
			c5.479,2.202,10.38,5.421,14.7,9.66c4.32,4.32,7.6,9.181,9.84,14.58C133.27,307.219,134.391,312.92,134.391,318.92z"/>
		<path style="fill:#FFFFFF;" d="M161.151,294.439v14.4h25.439V329h-25.439v14.399h34.561v20.16h-54.721v-89.28h54.721v20.16
			H161.151z"/>
		<path style="fill:#FFFFFF;" d="M302.508,319.04c3.84,2,6.92,4.859,9.24,8.579c2.32,3.721,3.48,7.86,3.48,12.421
			c0,3.281-0.621,6.359-1.859,9.239c-1.242,2.88-2.922,5.382-5.041,7.5c-2.121,2.121-4.619,3.801-7.5,5.04
			c-2.879,1.241-5.961,1.86-9.24,1.86h-0.6h-27.359v-89.28h27.359h0.6c3.279,0,6.361,0.621,9.24,1.86
			c2.881,1.241,5.379,2.921,7.5,5.04c2.119,2.12,3.799,4.62,5.041,7.5c1.238,2.88,1.859,5.96,1.859,9.24
			c0,4.56-1.16,8.699-3.48,12.42C309.428,314.179,306.348,317.041,302.508,319.04z"/>
		<path style="fill:#FFFFFF;" d="M378.348,336.319c-0.08,3.762-0.861,7.302-2.34,10.62c-1.48,3.32-3.461,6.201-5.939,8.64
			c-2.48,2.441-5.4,4.381-8.76,5.82c-3.361,1.44-6.922,2.16-10.682,2.16c-3.84,0-7.42-0.72-10.738-2.16
			c-3.322-1.439-6.24-3.42-8.762-5.939c-2.52-2.521-4.5-5.46-5.939-8.82s-2.16-6.96-2.16-10.8h20.16c0,2.081,0.721,3.86,2.16,5.34
			c1.439,1.481,3.199,2.22,5.279,2.22s3.859-0.738,5.342-2.22c1.479-1.479,2.219-3.259,2.219-5.34v-61.561h20.16V336.319z"/>
		<path style="fill:#FFFFFF;" d="M406.788,363.559h-20.16v-89.28h20.16V363.559z"/>
		<path style="fill:#FFFFFF;" d="M435.467,294.439v14.4h25.439V329h-25.439v14.399h34.561v20.16h-54.721v-89.28h54.721v20.16
			H435.467z"/>
		<path style="fill:#FFFFFF;" d="M533.147,335.84c0,1.439-0.102,2.841-0.301,4.2c-0.201,1.36-0.5,2.72-0.9,4.079
			c-0.881,2.802-2.16,5.4-3.84,7.801c-1.68,2.399-3.68,4.46-6,6.18c-2.32,1.722-4.881,3.06-7.68,4.02
			c-2.801,0.96-5.76,1.44-8.881,1.44c-3.84,0-7.42-0.72-10.738-2.16c-3.322-1.439-6.24-3.42-8.762-5.939
			c-2.52-2.521-4.5-5.46-5.939-8.82s-2.16-6.96-2.16-10.8h20.16c0,2.081,0.721,3.86,2.16,5.34c1.439,1.481,3.199,2.22,5.279,2.22
			c1.682,0,3.16-0.499,4.441-1.5c1.277-0.999,2.16-2.259,2.639-3.78c0.24-0.639,0.361-1.359,0.361-2.159
			c0-2.08-0.721-3.76-2.16-5.04c-1.439-1.279-3.201-1.92-5.281-1.92c-3.84,0-7.42-0.7-10.738-2.101
			c-3.322-1.398-6.24-3.318-8.762-5.76c-2.52-2.439-4.5-5.299-5.939-8.58c-1.439-3.279-2.16-6.84-2.16-10.68
			c0-1.359,0.1-2.719,0.301-4.08c0.199-1.359,0.498-2.719,0.9-4.08c0.879-2.8,2.16-5.4,3.84-7.8c1.68-2.4,3.678-4.459,6-6.181
			c2.318-1.719,4.879-3.06,7.68-4.02c2.799-0.96,5.76-1.44,8.879-1.44c3.842,0,7.42,0.721,10.74,2.16c3.32,1.44,6.24,3.42,8.76,5.94
			c2.521,2.52,4.5,5.46,5.941,8.819c1.439,3.36,2.16,6.921,2.16,10.681h-20.16c0-2.08-0.721-3.84-2.16-5.28
			c-1.439-1.44-3.201-2.16-5.281-2.16c-1.68,0-3.16,0.501-4.439,1.5c-1.281,1.001-2.16,2.262-2.641,3.78
			c-0.238,0.561-0.359,1.28-0.359,2.16c0,2.081,0.721,3.761,2.16,5.04c1.439,1.28,3.199,1.92,5.279,1.92
			c3.842,0,7.42,0.701,10.74,2.1c3.32,1.4,6.24,3.32,8.76,5.76c2.521,2.441,4.5,5.301,5.941,8.58
			C532.426,328.56,533.147,332.08,533.147,335.84z"/>
		<path style="fill:#FFFFFF;" d="M600.225,294.439h-20.279v69.12h-20.16v-69.12h-20.281v-20.16h60.721V294.439z"/>
		<path style="fill:#FFFFFF;" d="M626.864,294.439v14.4h25.439V329h-25.439v14.399h34.561v20.16h-54.721v-89.28h54.721v20.16
			H626.864z"/>
		<path style="fill:#FFFFFF;" d="M735.223,274.279v89.28h-20.4l-25.199-49.92v49.92h-20.16v-89.28h20.52l25.08,49.8v-49.8H735.223z"
			/>
	</g>
</g>
</svg>
