<?xml version="1.0" encoding="iso-8859-1"?>
<!-- Generator: Adobe Illustrator 19.1.0, SVG Export Plug-In . SVG Version: 6.00 Build 0)  -->
<!DOCTYPE svg PUBLIC "-//W3C//DTD SVG 1.1//EN" "http://www.w3.org/Graphics/SVG/1.1/DTD/svg11.dtd">
<svg version="1.1" id="Layer_1" xmlns="http://www.w3.org/2000/svg" xmlns:xlink="http://www.w3.org/1999/xlink" x="0px" y="0px"
	 viewBox="0 0 350.905 255.587" style="enable-background:new 0 0 350.905 255.587;" xml:space="preserve">
<g>
	<g>
		<path style="fill:#FFFFFF;" d="M70.866,252.56C33.444,252.56,3,222.116,3,184.694V20.696
			c13.679,22.745,49.228,38.997,90.818,38.997h122.967l3,0.081h60.206c37.422,0,67.866,30.444,67.866,67.866v124.92H70.866z"/>
		<path d="M6,30c4.805,5.553,10.994,10.665,18.456,15.174c18.695,11.297,43.328,17.518,69.362,17.518h119.967v0.081h6h60.205
			c17.248,0,33.516,6.769,45.807,19.06s19.06,28.559,19.06,45.807V249.56H70.866c-17.248,0-33.516-6.769-45.807-19.06
			C12.769,218.209,6,201.942,6,184.694V81.274v-24.5V30 M0,0v56.774v24.5v103.419c0,38.977,31.89,70.866,70.866,70.866h279.991
			V127.64c0-38.976-31.89-70.866-70.866-70.866h-60.205v-0.081H93.819C42.218,56.693,0,31.181,0,0L0,0z"/>
	</g>
	<g>
		<path style="fill:#231F20;" d="M57.938,119.561l22.12,25.971h-11.76l-13.301-14.771v14.771h-11.76v-52.08h11.76v14.91l13.37-14.91
			h11.761L57.938,119.561z"/>
		<path style="fill:#231F20;" d="M114.776,129.641c-0.047,2.194-0.502,4.26-1.365,6.195c-0.863,1.938-2.019,3.617-3.465,5.04
			c-1.446,1.424-3.149,2.555-5.109,3.396c-1.96,0.84-4.037,1.26-6.23,1.26c-2.24,0-4.329-0.42-6.265-1.26
			c-1.938-0.841-3.641-1.995-5.11-3.466c-1.47-1.47-2.625-3.185-3.465-5.145s-1.26-4.061-1.26-6.3h11.76
			c0,1.214,0.42,2.252,1.26,3.114c0.84,0.864,1.866,1.296,3.08,1.296c1.213,0,2.251-0.432,3.115-1.296
			c0.863-0.862,1.295-1.9,1.295-3.114v-35.91h11.76V129.641z"/>
		<path style="fill:#231F20;" d="M131.366,145.532h-11.76v-52.08h11.76V145.532z"/>
		<path style="fill:#231F20;" d="M157.337,145.532l-9.101-19.74h-0.14v19.74h-11.76v-52.08h15.819h0.07
			c2.24,0,4.351,0.42,6.335,1.26c1.983,0.84,3.71,1.995,5.18,3.465c1.471,1.471,2.625,3.186,3.466,5.146
			c0.84,1.96,1.26,4.06,1.26,6.3c0,3.174-0.817,6.032-2.45,8.575c-1.634,2.544-3.78,4.492-6.439,5.845l9.869,21.49H157.337z"/>
		<path style="fill:#231F20;" d="M246.306,93.452v52.08h-11.899l-14.7-29.12v29.12h-11.76v-52.08h11.97l14.63,29.05v-29.05H246.306z
			"/>
		<path style="fill:#231F20;" d="M261.915,105.211v8.4h14.84v11.76h-14.84v8.4h20.16v11.76h-31.92v-52.08h31.92v11.76H261.915z"/>
		<path style="fill:#231F20;" d="M57.938,184.561l22.12,25.971h-11.76l-13.301-14.771v14.771h-11.76v-52.08h11.76v14.91l13.37-14.91
			h11.761L57.938,184.561z"/>
		<path style="fill:#231F20;" d="M94.267,210.532h-11.76v-52.08h11.76V210.532z"/>
		<path style="fill:#231F20;" d="M197.377,158.452l-12.67,52.08h-11.971l-6.859-28.28l-6.86,28.28h-11.97l-12.67-52.08h11.76
			l6.93,28.28l6.86-28.28h11.97l6.859,28.28l6.861-28.28H197.377z"/>
		<path style="fill:#231F20;" d="M213.406,170.211v8.4h14.84v11.76h-14.84v8.4h20.16v11.76h-31.92v-52.08h31.92v11.76H213.406z"/>
		<path style="fill:#231F20;" d="M259.186,210.532l-9.1-19.74h-0.141v19.74h-11.76v-52.08h15.82h0.069c2.24,0,4.352,0.42,6.335,1.26
			s3.71,1.995,5.181,3.465c1.47,1.471,2.625,3.186,3.465,5.146s1.26,4.06,1.26,6.3c0,3.174-0.817,6.032-2.45,8.575
			c-1.634,2.544-3.779,4.492-6.439,5.845l9.87,21.49H259.186z"/>
		<path style="fill:#231F20;" d="M286.484,170.211v8.4h14.84v11.76h-14.84v8.4h20.16v11.76h-31.92v-52.08h31.92v11.76H286.484z"/>
	</g>
</g>
</svg>
