<?xml version="1.0" encoding="iso-8859-1"?>
<!-- Generator: Adobe Illustrator 19.1.0, SVG Export Plug-In . SVG Version: 6.00 Build 0)  -->
<!DOCTYPE svg PUBLIC "-//W3C//DTD SVG 1.1//EN" "http://www.w3.org/Graphics/SVG/1.1/DTD/svg11.dtd">
<svg version="1.1" id="Layer_1" xmlns="http://www.w3.org/2000/svg" xmlns:xlink="http://www.w3.org/1999/xlink" x="0px" y="0px"
	 viewBox="0 0 350.905 255.587" style="enable-background:new 0 0 350.905 255.587;" xml:space="preserve">
<g>
	<g>
		<path style="fill:#FFFFFF;" d="M3,70.893C3,33.471,33.444,3.027,70.866,3.027h276.991v124.92
			c0,37.421-30.444,67.865-67.866,67.865h-63.206v0.082H93.818c-41.591,0-77.14,16.252-90.818,38.996V70.893z"/>
		<path d="M344.857,6.027v121.92c0,17.248-6.769,33.516-19.06,45.807s-28.559,19.06-45.807,19.06h-60.205h-6v0.081H93.819
			c-26.034,0-50.668,6.221-69.362,17.518c-7.462,4.509-13.651,9.622-18.456,15.174v-26.774v-24.5V70.893
			c0-17.248,6.769-33.516,19.06-45.807C37.35,12.796,53.618,6.027,70.866,6.027H344.857 M350.857,0.027H70.866
			C31.89,0.027,0,31.917,0,70.893v103.42v24.5v56.774c0-31.181,42.218-56.693,93.818-56.693h125.967v-0.081h60.205
			c38.976,0,70.866-31.89,70.866-70.866V0.027L350.857,0.027z"/>
	</g>
	<g>
		<path style="fill:#231F20;" d="M57.938,63.088l22.12,25.97h-11.76L54.997,74.288v14.771h-11.76v-52.08h11.76v14.91l13.37-14.91
			h11.761L57.938,63.088z"/>
		<path style="fill:#231F20;" d="M114.776,73.168c-0.047,2.193-0.502,4.259-1.365,6.195s-2.019,3.616-3.465,5.039
			c-1.446,1.424-3.149,2.555-5.109,3.396c-1.96,0.84-4.037,1.26-6.23,1.26c-2.24,0-4.329-0.42-6.265-1.26
			c-1.938-0.841-3.641-1.995-5.11-3.466c-1.47-1.469-2.625-3.185-3.465-5.145s-1.26-4.061-1.26-6.3h11.76
			c0,1.214,0.42,2.252,1.26,3.114c0.84,0.865,1.866,1.296,3.08,1.296c1.213,0,2.251-0.431,3.115-1.296
			c0.863-0.862,1.295-1.9,1.295-3.114v-35.91h11.76V73.168z"/>
		<path style="fill:#231F20;" d="M131.366,89.058h-11.76v-52.08h11.76V89.058z"/>
		<path style="fill:#231F20;" d="M157.337,89.058l-9.101-19.74h-0.14v19.74h-11.76v-52.08h15.819h0.07
			c2.24,0,4.351,0.42,6.335,1.261c1.983,0.84,3.71,1.994,5.18,3.465c1.471,1.47,2.625,3.185,3.466,5.145
			c0.84,1.96,1.26,4.061,1.26,6.3c0,3.175-0.817,6.032-2.45,8.575c-1.634,2.544-3.78,4.492-6.439,5.845l9.869,21.49H157.337z"/>
		<path style="fill:#231F20;" d="M246.306,36.978v52.08h-11.899l-14.7-29.12v29.12h-11.76v-52.08h11.97l14.63,29.05v-29.05H246.306z
			"/>
		<path style="fill:#231F20;" d="M261.915,48.739v8.399h14.84v11.76h-14.84v8.4h20.16v11.76h-31.92v-52.08h31.92v11.761H261.915z"/>
		<path style="fill:#231F20;" d="M57.938,128.088l22.12,25.97h-11.76l-13.301-14.771v14.771h-11.76v-52.08h11.76v14.91l13.37-14.91
			h11.761L57.938,128.088z"/>
		<path style="fill:#231F20;" d="M94.267,154.058h-11.76v-52.08h11.76V154.058z"/>
		<path style="fill:#231F20;" d="M197.377,101.978l-12.67,52.08h-11.971l-6.859-28.28l-6.86,28.28h-11.97l-12.67-52.08h11.76
			l6.93,28.28l6.86-28.28h11.97l6.859,28.28l6.861-28.28H197.377z"/>
		<path style="fill:#231F20;" d="M213.406,113.739v8.399h14.84v11.76h-14.84v8.4h20.16v11.76h-31.92v-52.08h31.92v11.761H213.406z"
			/>
		<path style="fill:#231F20;" d="M259.186,154.058l-9.1-19.74h-0.141v19.74h-11.76v-52.08h15.82h0.069
			c2.24,0,4.352,0.42,6.335,1.261c1.983,0.84,3.71,1.994,5.181,3.465c1.47,1.47,2.625,3.185,3.465,5.145s1.26,4.061,1.26,6.3
			c0,3.175-0.817,6.032-2.45,8.575c-1.634,2.544-3.779,4.492-6.439,5.845l9.87,21.49H259.186z"/>
		<path style="fill:#231F20;" d="M286.484,113.739v8.399h14.84v11.76h-14.84v8.4h20.16v11.76h-31.92v-52.08h31.92v11.761H286.484z"
			/>
	</g>
</g>
</svg>
