<?xml version="1.0" encoding="iso-8859-1"?>
<!-- Generator: Adobe Illustrator 19.1.0, SVG Export Plug-In . SVG Version: 6.00 Build 0)  -->
<!DOCTYPE svg PUBLIC "-//W3C//DTD SVG 1.1//EN" "http://www.w3.org/Graphics/SVG/1.1/DTD/svg11.dtd">
<svg version="1.1" id="Layer_1" xmlns="http://www.w3.org/2000/svg" xmlns:xlink="http://www.w3.org/1999/xlink" x="0px" y="0px"
	 viewBox="0 0 251.905 242.587" style="enable-background:new 0 0 251.905 242.587;" xml:space="preserve">
<g>
	<g>
		<path style="fill:#FFFFFF;" d="M3,70.866C3,33.444,33.444,3,70.866,3h177.991v111.946c0,37.422-30.444,67.866-67.866,67.866
			h-63.205v0.081H93.819c-41.591,0-77.141,16.252-90.819,38.997V70.866z"/>
		<path d="M245.857,6v108.946c0,17.248-6.769,33.516-19.06,45.807s-28.558,19.06-45.807,19.06h-60.205h-6v0.082H93.819
			c-26.034,0-50.668,6.222-69.362,17.518c-7.462,4.509-13.651,9.622-18.456,15.174v-26.774v-24.5V70.866
			c0-17.248,6.769-33.516,19.06-45.807C37.35,12.769,53.618,6,70.866,6H245.857 M251.857,0H70.866C31.89,0,0,31.89,0,70.866v90.446
			v24.5v56.774c0-31.181,42.218-56.693,93.819-56.693h26.967v-0.082h60.205c38.976,0,70.866-31.89,70.866-70.866V0L251.857,0z"/>
	</g>
	<g>
		<path style="fill:#231F20;" d="M46.364,36.951v10.248l-3.232,5.674h-6.223l3.233-5.674h-3.965V36.951H46.364z"/>
		<path style="fill:#231F20;" d="M63.505,59.705l19.275,22.631H72.533l-11.59-12.871v12.871H50.695V36.951h10.248v12.993
			l11.651-12.993h10.248L63.505,59.705z"/>
		<path style="fill:#231F20;" d="M145.001,47.199l-17.69,24.889h17.69v10.248h-29.585V72.088l17.629-24.889h-17.629V36.951h29.585
			V47.199z"/>
		<path style="fill:#231F20;" d="M159.518,82.336H149.27V36.951h10.248V82.336z"/>
		<path style="fill:#231F20;" d="M197.337,36.951v45.385h-10.369l-12.811-25.377v25.377H163.91V36.951h10.432l12.748,25.315V36.951
			H197.337z"/>
		<path style="fill:#231F20;" d="M66.555,112.199h-10.31v35.137H45.998v-35.137H35.689v-10.248h30.866V112.199z"/>
		<path style="fill:#231F20;" d="M80.097,112.199v7.32h12.932v10.248H80.097v7.32h17.567v10.248H69.849v-45.385h27.815v10.248
			H80.097z"/>
		<path style="fill:#231F20;" d="M132.007,112.199h-10.31v35.137H111.45v-35.137h-10.309v-10.248h30.866V112.199z"/>
		<path style="fill:#231F20;" d="M165.619,112.199h-10.31v35.137h-10.248v-35.137h-10.309v-10.248h30.866V112.199z"/>
		<path style="fill:#231F20;" d="M179.16,112.199v7.32h12.932v10.248H179.16v7.32h17.568v10.248h-27.816v-45.385h27.816v10.248
			H179.16z"/>
	</g>
</g>
</svg>
