<?xml version="1.0" encoding="iso-8859-1"?>
<!-- Generator: Adobe Illustrator 19.1.0, SVG Export Plug-In . SVG Version: 6.00 Build 0)  -->
<!DOCTYPE svg PUBLIC "-//W3C//DTD SVG 1.1//EN" "http://www.w3.org/Graphics/SVG/1.1/DTD/svg11.dtd">
<svg version="1.1" id="Layer_1" xmlns="http://www.w3.org/2000/svg" xmlns:xlink="http://www.w3.org/1999/xlink" x="0px" y="0px"
	 viewBox="0 0 700.915 255.587" style="enable-background:new 0 0 700.915 255.587;" xml:space="preserve">
<g>
	<g>
		<path style="fill:#EB2F2B;" d="M3,70.893C3,33.472,33.445,3.027,70.866,3.027h626.991v124.919
			c0,37.422-30.444,67.866-67.866,67.866h-63.205v0.081H93.819c-41.591,0-77.14,16.252-90.818,38.997V70.893z"/>
		<path style="fill:#FFFFFF;" d="M694.857,6.027v121.919c0,17.248-6.769,33.516-19.06,45.807
			c-12.291,12.291-28.558,19.06-45.807,19.06h-60.205h-6v0.081H93.819c-26.034,0-50.668,6.221-69.362,17.518
			c-7.462,4.509-13.651,9.622-18.456,15.174v-26.774v-24.5V70.893c0-17.248,6.769-33.516,19.06-45.806
			C37.35,12.796,53.618,6.027,70.866,6.027H694.857 M700.857,0.027H70.866C31.89,0.027,0,31.917,0,70.893v103.42v24.5v56.774
			c0-31.181,42.218-56.693,93.819-56.693h475.967v-0.081h60.205c38.976,0,70.866-31.89,70.866-70.866V0.027L700.857,0.027z"/>
	</g>
	<g>
		<path style="fill:#FFFFFF;" d="M54.859,36.978v11.761l-3.71,6.51h-7.141l3.71-6.51h-4.55V36.978H54.859z"/>
		<path style="fill:#FFFFFF;" d="M94.619,48.739h-11.83v40.319h-11.76V48.739h-11.83V36.978h35.42V48.739z"/>
		<path style="fill:#FFFFFF;" d="M167.348,48.739l-20.3,28.56h20.3v11.76h-33.95v-11.76l20.23-28.56h-20.23V36.978h33.95V48.739z"/>
		<path style="fill:#FFFFFF;" d="M235.387,36.978l-12.67,52.08h-11.97l-6.86-28.279l-6.859,28.279h-11.971l-12.67-52.08h11.761
			l6.93,28.28l6.86-28.28h11.97l6.859,28.28l6.86-28.28H235.387z"/>
		<path style="fill:#FFFFFF;" d="M251.417,89.058h-11.76v-52.08h11.76V89.058z"/>
		<path style="fill:#FFFFFF;" d="M268.147,48.739v8.399h14.84v11.76h-14.84v8.4h20.16v11.76h-31.92v-52.08h31.92v11.761H268.147z"/>
		<path style="fill:#FFFFFF;" d="M331.356,36.978v52.08h-11.899l-14.7-29.12v29.12h-11.76v-52.08h11.97l14.63,29.051V36.978H331.356
			z"/>
		<path style="fill:#FFFFFF;" d="M407.026,63.018c0,3.5-0.654,6.825-1.96,9.976c-1.308,3.149-3.221,5.984-5.74,8.505
			c-2.334,2.287-4.959,4.072-7.875,5.354c-2.917,1.284-5.985,2.02-9.205,2.205h-1.54h-10.5v-52.08h10.5
			c3.5,0,6.848,0.643,10.045,1.926c3.196,1.283,6.055,3.161,8.575,5.635c2.52,2.52,4.433,5.354,5.74,8.505
			C406.372,56.193,407.026,59.518,407.026,63.018z"/>
		<path style="fill:#FFFFFF;" d="M422.635,48.739v8.399h14.84v11.76h-14.84v8.4h20.16v11.76h-31.92v-52.08h31.92v11.761H422.635z"/>
		<path style="fill:#FFFFFF;" d="M487.875,68.268c-0.047,2.754-0.56,5.367-1.54,7.84c-0.979,2.475-2.404,4.69-4.27,6.65
			c-1.914,2.054-4.096,3.617-6.545,4.69c-2.45,1.073-5.053,1.609-7.806,1.609h-0.069c-2.707,0-5.285-0.536-7.735-1.609
			s-4.655-2.637-6.615-4.69c-1.82-1.96-3.231-4.176-4.235-6.65c-1.004-2.473-1.528-5.086-1.574-7.84V36.909h11.76v31.149
			c0,1.26,0.221,2.45,0.665,3.57c0.442,1.12,1.05,2.1,1.82,2.939c0.77,0.841,1.668,1.506,2.694,1.995
			c1.026,0.49,2.123,0.735,3.29,0.735c1.166,0,2.251-0.245,3.255-0.735c1.003-0.489,1.891-1.154,2.66-1.995
			c0.771-0.84,1.376-1.819,1.82-2.939c0.442-1.12,0.665-2.311,0.665-3.57V36.909h11.76V68.268z"/>
		<path style="fill:#FFFFFF;" d="M513.004,89.058l-9.1-19.74h-0.141v19.74h-11.76v-52.08h15.82h0.069c2.24,0,4.352,0.42,6.335,1.261
			c1.983,0.84,3.71,1.994,5.181,3.465c1.47,1.47,2.625,3.185,3.465,5.145s1.26,4.061,1.26,6.3c0,3.175-0.817,6.032-2.45,8.575
			c-1.634,2.544-3.779,4.492-6.439,5.845l9.87,21.49H513.004z"/>
		<path style="fill:#FFFFFF;" d="M600.364,63.018c0,3.5-0.654,6.825-1.96,9.976c-1.308,3.149-3.221,5.984-5.74,8.505
			c-2.334,2.287-4.959,4.072-7.875,5.354c-2.917,1.284-5.985,2.02-9.205,2.205h-1.54h-10.5v-52.08h10.5
			c3.5,0,6.848,0.643,10.045,1.926c3.196,1.283,6.055,3.161,8.575,5.635c2.52,2.52,4.433,5.354,5.74,8.505
			C599.709,56.193,600.364,59.518,600.364,63.018z"/>
		<path style="fill:#FFFFFF;" d="M615.973,48.739v8.399h14.84v11.76h-14.84v8.4h20.16v11.76h-31.92v-52.08h31.92v11.761H615.973z"/>
		<path style="fill:#FFFFFF;" d="M65.918,128.089c2.24,1.167,4.036,2.835,5.39,5.005s2.03,4.585,2.03,7.245
			c0,1.914-0.362,3.71-1.085,5.39c-0.724,1.681-1.704,3.14-2.939,4.375c-1.237,1.237-2.695,2.218-4.375,2.94
			c-1.681,0.724-3.478,1.085-5.391,1.085h-0.35h-15.96v-52.08h15.96h0.35c1.913,0,3.71,0.362,5.391,1.085
			c1.68,0.724,3.138,1.704,4.375,2.94c1.235,1.236,2.216,2.694,2.939,4.375c0.723,1.68,1.085,3.477,1.085,5.39
			c0,2.66-0.677,5.075-2.03,7.245S68.159,126.923,65.918,128.089z"/>
		<path style="fill:#FFFFFF;" d="M110.158,138.169c-0.047,2.194-0.502,4.259-1.365,6.195s-2.019,3.616-3.465,5.04
			s-3.149,2.555-5.109,3.395s-4.037,1.26-6.23,1.26c-2.24,0-4.329-0.42-6.265-1.26c-1.938-0.84-3.641-1.995-5.11-3.465
			s-2.625-3.186-3.465-5.146s-1.26-4.06-1.26-6.3h11.76c0,1.214,0.42,2.252,1.26,3.115c0.84,0.864,1.866,1.295,3.08,1.295
			c1.213,0,2.251-0.431,3.115-1.295c0.863-0.863,1.295-1.901,1.295-3.115v-35.91h11.76V138.169z"/>
		<path style="fill:#FFFFFF;" d="M126.748,154.058h-11.76v-52.08h11.76V154.058z"/>
		<path style="fill:#FFFFFF;" d="M166.508,113.739h-11.83v40.319h-11.76v-40.319h-11.83v-11.761h35.42V113.739z"/>
		<path style="fill:#FFFFFF;" d="M182.047,113.739v8.399h14.84v11.76h-14.84v8.4h20.16v11.76h-31.92v-52.08h31.92v11.761H182.047z"
			/>
		<path style="fill:#FFFFFF;" d="M245.257,101.978v52.08h-11.899l-14.7-29.12v29.12h-11.76v-52.08h11.97l14.63,29.051v-29.051
			H245.257z"/>
		<path style="fill:#FFFFFF;" d="M316.376,138.169c-0.047,2.194-0.502,4.259-1.364,6.195c-0.864,1.937-2.02,3.616-3.465,5.04
			c-1.447,1.424-3.15,2.555-5.11,3.395s-4.037,1.26-6.23,1.26c-2.239,0-4.329-0.42-6.265-1.26c-1.937-0.84-3.64-1.995-5.11-3.465
			c-1.47-1.47-2.625-3.186-3.465-5.146s-1.26-4.06-1.26-6.3h11.76c0,1.214,0.42,2.252,1.26,3.115
			c0.841,0.864,1.866,1.295,3.08,1.295c1.213,0,2.251-0.431,3.115-1.295c0.863-0.863,1.295-1.901,1.295-3.115v-35.91h11.76V138.169z
			"/>
		<path style="fill:#FFFFFF;" d="M359.987,141.179c-0.98,2.475-2.404,4.69-4.271,6.65c-1.914,2.054-4.095,3.617-6.545,4.689
			c-2.45,1.074-5.052,1.61-7.805,1.61h-0.07c-2.707,0-5.285-0.536-7.734-1.61c-2.45-1.072-4.655-2.612-6.615-4.62
			c-1.82-1.96-3.232-4.176-4.235-6.649c-1.004-2.474-1.528-5.11-1.575-7.91v-12.18c0.233-2.474,0.852-4.807,1.855-7
			c1.003-2.193,2.32-4.177,3.955-5.95c1.96-2.006,4.152-3.546,6.58-4.62c2.426-1.073,5.016-1.61,7.77-1.61h0.07
			c2.753,0,5.354,0.537,7.805,1.61c2.45,1.074,4.631,2.614,6.545,4.62c1.681,1.773,3.01,3.757,3.99,5.95s1.586,4.526,1.82,7v1.54
			v6.439v4.2C361.48,136.093,360.966,138.706,359.987,141.179z"/>
		<path style="fill:#FFFFFF;" d="M393.236,133.898h-9.66l-7,20.16h-12.67l18.061-52.08h12.88l18.06,52.08h-12.67L393.236,133.898z"
			/>
		<path style="fill:#FFFFFF;" d="M456.305,133.129c0,0.234,0,0.467,0,0.7s-0.024,0.467-0.07,0.7v19.529h-10.85v-2.66
			c-1.4,0.841-2.882,1.506-4.445,1.995c-1.563,0.49-3.162,0.735-4.795,0.735h-0.07c-2.754,0-5.354-0.536-7.805-1.61
			c-2.45-1.072-4.632-2.612-6.545-4.62c-1.82-1.96-3.232-4.165-4.235-6.614c-1.004-2.45-1.527-5.028-1.574-7.735v-10.78
			c0-2.8,0.502-5.436,1.505-7.91c1.003-2.473,2.438-4.689,4.305-6.649c1.913-2.006,4.095-3.546,6.545-4.62
			c2.45-1.073,5.051-1.61,7.805-1.61h0.07c2.706,0,5.285,0.537,7.735,1.61c2.45,1.074,4.654,2.614,6.614,4.62
			c1.866,2.007,3.302,4.27,4.306,6.79c1.003,2.52,1.505,5.18,1.505,7.979h-11.76c0-1.26-0.223-2.449-0.665-3.569
			c-0.444-1.12-1.05-2.101-1.82-2.94c-0.77-0.84-1.669-1.505-2.695-1.995s-2.124-0.734-3.29-0.734c-1.167,0-2.252,0.244-3.255,0.734
			c-1.004,0.49-1.89,1.155-2.66,1.995c-0.77,0.84-1.377,1.82-1.819,2.94c-0.444,1.12-0.665,2.31-0.665,3.569v10.15
			c0,1.26,0.221,2.45,0.665,3.57c0.442,1.119,1.05,2.1,1.819,2.939c0.771,0.84,1.656,1.505,2.66,1.995
			c1.003,0.49,2.088,0.735,3.255,0.735c1.354,0,2.578-0.304,3.676-0.91c1.096-0.606,2.041-1.423,2.835-2.45h-6.58v-10.85h20.3
			V133.129z"/>
		<path style="fill:#FFFFFF;" d="M473.735,113.739v8.399h14.84v11.76h-14.84v8.4h20.16v11.76h-31.92v-52.08h31.92v11.761H473.735z"
			/>
		<path style="fill:#FFFFFF;" d="M536.944,101.978v52.08h-11.899l-14.7-29.12v29.12h-11.76v-52.08h11.97l14.63,29.051v-29.051
			H536.944z"/>
	</g>
</g>
</svg>
