<?xml version="1.0" encoding="iso-8859-1"?>
<!-- Generator: Adobe Illustrator 19.1.0, SVG Export Plug-In . SVG Version: 6.00 Build 0)  -->
<!DOCTYPE svg PUBLIC "-//W3C//DTD SVG 1.1//EN" "http://www.w3.org/Graphics/SVG/1.1/DTD/svg11.dtd">
<svg version="1.1" id="Layer_1" xmlns="http://www.w3.org/2000/svg" xmlns:xlink="http://www.w3.org/1999/xlink" x="0px" y="0px"
	 viewBox="0 0 844.663 451.967" style="enable-background:new 0 0 844.663 451.967;" xml:space="preserve">
<g>
	<g>
		<path style="fill:#EB2F2B;" d="M3,138.351c0-36.001,14.121-69.948,39.762-95.589C68.402,17.121,102.351,3,138.351,3h703.312
			v199.777c0,36.001-14.121,69.948-39.762,95.589c-25.641,25.642-59.589,39.763-95.589,39.763H585.774v0.158H183.16
			c-86.429,0-159.291,36.157-180.16,85V138.351z"/>
		<path style="fill:#FFFFFF;" d="M838.662,6v196.777c0,35.199-13.809,68.394-38.883,93.468s-58.268,38.883-93.468,38.883H588.774h-6
			v0.159H183.161c-49.8,0-96.842,11.854-132.46,33.377c-17.57,10.618-31.417,23.025-41.156,36.877
			c-1.257,1.789-2.438,3.59-3.544,5.405v-69.818v-47.831V138.351c0-35.199,13.809-68.394,38.883-93.468S103.151,6,138.351,6H838.662
			 M844.662,0H138.351C62.258,0,0,62.258,0,138.351v154.946v47.831v110.839c0-60.875,82.422-110.681,183.161-110.681h405.613v-0.159
			h117.538c76.093,0,138.351-62.258,138.351-138.351V0L844.662,0z"/>
	</g>
	<g>
		<path style="fill:#FFFFFF;" d="M93.679,66.284V83.42l-5.406,9.486H77.869l5.405-9.486h-6.63V66.284H93.679z"/>
		<path style="fill:#FFFFFF;" d="M151.614,83.42h-17.237v58.752H117.24V83.42h-17.237V66.284h51.611V83.42z"/>
		<path style="fill:#FFFFFF;" d="M225.258,142.171h-17.136V66.284h17.136V142.171z"/>
		<path style="fill:#FFFFFF;" d="M279.42,118.61c0,1.224-0.086,2.414-0.255,3.569c-0.171,1.157-0.426,2.312-0.765,3.468
			c-0.749,2.382-1.836,4.591-3.265,6.631c-1.428,2.04-3.128,3.791-5.1,5.253c-1.974,1.463-4.148,2.601-6.528,3.417
			c-2.381,0.815-4.896,1.224-7.548,1.224c-3.264,0-6.308-0.612-9.129-1.836c-2.822-1.224-5.304-2.907-7.446-5.049
			c-2.142-2.143-3.825-4.642-5.049-7.497c-1.224-2.856-1.836-5.916-1.836-9.18h17.136c0,1.769,0.612,3.281,1.836,4.538
			c1.225,1.26,2.72,1.888,4.488,1.888c1.428,0,2.686-0.424,3.774-1.275c1.087-0.85,1.836-1.92,2.243-3.213
			c0.204-0.543,0.307-1.155,0.307-1.836c0-1.768-0.612-3.195-1.836-4.284c-1.225-1.087-2.721-1.632-4.488-1.632
			c-3.264,0-6.308-0.595-9.129-1.785c-2.822-1.188-5.304-2.821-7.446-4.896c-2.142-2.074-3.825-4.504-5.049-7.293
			c-1.224-2.788-1.836-5.814-1.836-9.078c0-1.155,0.084-2.312,0.255-3.469c0.169-1.155,0.424-2.311,0.765-3.468
			c0.748-2.379,1.837-4.59,3.265-6.63s3.127-3.79,5.1-5.253c1.972-1.461,4.147-2.601,6.528-3.417
			c2.379-0.816,4.896-1.224,7.548-1.224c3.264,0,6.307,0.611,9.129,1.836c2.821,1.224,5.304,2.907,7.446,5.049
			c2.142,2.142,3.825,4.641,5.049,7.497c1.224,2.855,1.836,5.883,1.836,9.078h-17.136c0-1.768-0.612-3.265-1.836-4.488
			c-1.225-1.224-2.721-1.836-4.488-1.836c-1.428,0-2.688,0.426-3.774,1.275c-1.088,0.851-1.836,1.922-2.243,3.213
			c-0.204,0.477-0.307,1.088-0.307,1.836c0,1.769,0.612,3.197,1.836,4.284c1.225,1.088,2.72,1.632,4.488,1.632
			c3.264,0,6.307,0.596,9.129,1.785c2.821,1.19,5.304,2.822,7.446,4.896c2.142,2.075,3.825,4.506,5.049,7.293
			C278.808,112.422,279.42,115.414,279.42,118.61z"/>
		<path style="fill:#FFFFFF;" d="M407.429,66.284l-26.418,75.888h-17.34l-26.418-75.888h17.137l17.951,51.611l17.952-51.611H407.429
			z"/>
		<path style="fill:#FFFFFF;" d="M450.166,112.796H436.09l-10.2,29.376h-18.462l26.316-75.888h18.768l26.316,75.888h-18.462
			L450.166,112.796z"/>
		<path style="fill:#FFFFFF;" d="M540.026,66.284v75.888h-17.34l-21.42-42.432v42.432H484.13V66.284h17.442l21.318,42.33v-42.33
			H540.026z"/>
		<path style="fill:#FFFFFF;" d="M634.068,125.036v17.136h-37.434V66.284h17.136v58.752H634.068z"/>
		<path style="fill:#FFFFFF;" d="M657.733,83.42v12.24h21.624v17.136h-21.624v12.24h29.376v17.136h-46.512V66.284h46.512V83.42
			H657.733z"/>
		<path style="fill:#FFFFFF;" d="M715.26,104.33l32.232,37.842h-17.137l-19.38-21.522v21.522H693.84V66.284h17.136v21.726
			l19.482-21.726h17.136L715.26,104.33z"/>
		<path style="fill:#FFFFFF;" d="M147.025,252.171h-17.136v-26.52l-9.282,26.52h-17.136l-9.486-27.336v27.336H76.849v-75.888h17.442
			l17.748,51.204l17.85-51.204h17.136V252.171z"/>
		<path style="fill:#FFFFFF;" d="M171.503,252.171h-17.136v-75.888h17.136V252.171z"/>
		<path style="fill:#FFFFFF;" d="M195.881,193.42v12.24h21.624v17.136h-21.624v12.24h29.376v17.136h-46.512v-75.888h46.512v17.136
			H195.881z"/>
		<path style="fill:#FFFFFF;" d="M287.986,176.284v75.888h-17.34l-21.42-42.432v42.432H232.09v-75.888h17.442l21.318,42.33v-42.33
			H287.986z"/>
		<path style="fill:#FFFFFF;" d="M382.028,235.036v17.136h-37.434v-75.888h17.136v58.752H382.028z"/>
		<path style="fill:#FFFFFF;" d="M405.693,252.171h-17.136v-75.888h17.136V252.171z"/>
		<path style="fill:#FFFFFF;" d="M445.269,178.12c2.856,1.224,5.355,2.907,7.497,5.049s3.825,4.641,5.049,7.497
			c1.224,2.855,1.836,5.916,1.836,9.18c0,3.265-0.612,6.324-1.836,9.18c-1.224,2.856-2.907,5.355-5.049,7.497
			c-2.142,2.143-4.641,3.825-7.497,5.05c-2.856,1.224-5.916,1.836-9.18,1.836h-0.103h-5.916v28.764h-17.136v-75.888h23.052h0.103
			C439.353,176.284,442.412,176.895,445.269,178.12z"/>
		<path style="fill:#FFFFFF;" d="M514.322,193.42h-17.238v58.752h-17.136V193.42H462.71v-17.136h51.612V193.42z"/>
		<path style="fill:#FFFFFF;" d="M566.852,229.017c-0.069,3.197-0.732,6.206-1.989,9.027c-1.259,2.822-2.942,5.271-5.049,7.344
			c-2.109,2.075-4.591,3.724-7.446,4.947c-2.856,1.224-5.883,1.836-9.078,1.836c-3.264,0-6.308-0.612-9.129-1.836
			c-2.822-1.224-5.304-2.907-7.446-5.049c-2.142-2.143-3.825-4.642-5.049-7.497c-1.224-2.856-1.836-5.916-1.836-9.18h17.136
			c0,1.769,0.612,3.281,1.836,4.538c1.225,1.26,2.72,1.888,4.488,1.888c1.768,0,3.28-0.628,4.539-1.888
			c1.258-1.257,1.887-2.77,1.887-4.538v-52.326h17.137V229.017z"/>
		<path style="fill:#FFFFFF;" d="M591.025,193.42v12.24h21.624v17.136h-21.624v12.24h29.376v17.136h-46.512v-75.888h46.512v17.136
			H591.025z"/>
	</g>
</g>
</svg>
