<?xml version="1.0" encoding="iso-8859-1"?>
<!-- Generator: Adobe Illustrator 19.1.0, SVG Export Plug-In . SVG Version: 6.00 Build 0)  -->
<!DOCTYPE svg PUBLIC "-//W3C//DTD SVG 1.1//EN" "http://www.w3.org/Graphics/SVG/1.1/DTD/svg11.dtd">
<svg version="1.1" id="Layer_1" xmlns="http://www.w3.org/2000/svg" xmlns:xlink="http://www.w3.org/1999/xlink" x="0px" y="0px"
	 viewBox="0 0 352.857 252.56" style="enable-background:new 0 0 352.857 252.56;" xml:space="preserve">
<g>
	<g>
		<path style="fill:#231F20;" d="M2.999,249.56V127.64c0-37.422,30.444-67.866,67.866-67.866h193.206v-0.161
			c39.407-1.25,72.661-17.095,85.785-38.917v160.998c0,37.422-30.444,67.866-67.866,67.866H2.999z"/>
		<path style="fill:#FFFFFF;" d="M346.857,30.001v26.773v24.5v100.42c0,17.248-6.769,33.516-19.06,45.807
			s-28.558,19.06-45.807,19.06H6V127.64c0-17.248,6.769-33.516,19.06-45.807c12.291-12.291,28.559-19.06,45.807-19.06h190.205h6
			v-0.28c23.036-1.144,44.57-7.192,61.329-17.319C335.863,40.666,342.052,35.553,346.857,30.001 M352.857,0
			c0,31.181-42.218,56.693-93.818,56.693h2.033v0.081H70.866C31.89,56.774,0,88.664,0,127.64v124.92h281.991
			c38.976,0,70.866-31.89,70.866-70.866V81.274v-24.5V0L352.857,0z"/>
	</g>
	<g>
		<path style="fill:#FFFFFF;" d="M47.858,90.618v11.761l-3.71,6.51h-7.14l3.71-6.51h-4.55V90.618H47.858z"/>
		<path style="fill:#FFFFFF;" d="M67.528,116.728l22.12,25.97h-11.76l-13.301-14.77v14.77h-11.76v-52.08h11.76v14.91l13.37-14.91
			h11.761L67.528,116.728z"/>
		<path style="fill:#FFFFFF;" d="M161.047,102.378l-20.301,28.56h20.301v11.76h-33.95v-11.76l20.229-28.56h-20.229V90.618h33.95
			V102.378z"/>
		<path style="fill:#FFFFFF;" d="M177.707,142.698h-11.76v-52.08h11.76V142.698z"/>
		<path style="fill:#FFFFFF;" d="M221.106,90.618v52.08h-11.899l-14.7-29.119v29.119h-11.76v-52.08h11.97l14.63,29.051V90.618
			H221.106z"/>
		<path style="fill:#FFFFFF;" d="M271.576,90.618v11.761l-3.71,6.51h-7.141l3.711-6.51h-4.551V90.618H271.576z"/>
		<path style="fill:#FFFFFF;" d="M311.335,102.378h-11.83v40.319h-11.76v-40.319h-11.83V90.618h35.42V102.378z"/>
		<path style="fill:#FFFFFF;" d="M76.068,186.768c0,0.234,0,0.467,0,0.7s-0.023,0.467-0.07,0.7v19.529h-10.85v-2.66
			c-1.4,0.841-2.882,1.506-4.445,1.996s-3.162,0.734-4.795,0.734h-0.069c-2.755,0-5.355-0.535-7.806-1.609
			c-2.449-1.073-4.632-2.613-6.545-4.621c-1.819-1.959-3.231-4.164-4.234-6.614c-1.005-2.45-1.528-5.028-1.575-7.735v-10.779
			c0-2.801,0.502-5.437,1.505-7.91c1.003-2.473,2.438-4.69,4.305-6.65c1.913-2.006,4.096-3.546,6.545-4.62
			c2.45-1.073,5.051-1.61,7.806-1.61h0.069c2.706,0,5.285,0.537,7.735,1.61c2.45,1.074,4.655,2.614,6.615,4.62
			c1.865,2.008,3.301,4.27,4.305,6.79c1.003,2.521,1.505,5.181,1.505,7.979h-11.76c0-1.26-0.222-2.449-0.665-3.569
			c-0.444-1.12-1.05-2.101-1.82-2.94c-0.77-0.84-1.669-1.505-2.694-1.994c-1.027-0.49-2.124-0.735-3.29-0.735
			c-1.167,0-2.252,0.245-3.255,0.735c-1.005,0.489-1.891,1.154-2.66,1.994c-0.771,0.84-1.377,1.82-1.82,2.94
			c-0.444,1.12-0.665,2.31-0.665,3.569v10.15c0,1.26,0.221,2.45,0.665,3.57c0.443,1.119,1.05,2.1,1.82,2.939
			c0.77,0.84,1.655,1.506,2.66,1.996c1.003,0.489,2.088,0.734,3.255,0.734c1.353,0,2.577-0.303,3.675-0.91
			c1.096-0.605,2.041-1.423,2.835-2.449h-6.58v-10.851h20.3V186.768z"/>
		<path style="fill:#FFFFFF;" d="M109.038,187.538h-9.66l-7,20.16h-12.67l18.06-52.08h12.881l18.06,52.08h-12.67L109.038,187.538z"
			/>
		<path style="fill:#FFFFFF;" d="M167.067,167.378h-11.83v40.319h-11.76v-40.319h-11.83v-11.761h35.42V167.378z"/>
		<path style="fill:#FFFFFF;" d="M217.606,207.698h-11.76v-52.08h11.76V207.698z"/>
		<path style="fill:#FFFFFF;" d="M261.005,155.618v52.08h-11.899l-14.7-29.119v29.119h-11.76v-52.08h11.97l14.63,29.051v-29.051
			H261.005z"/>
	</g>
</g>
</svg>
