<?xml version="1.0" encoding="iso-8859-1"?>
<!-- Generator: Adobe Illustrator 19.1.0, SVG Export Plug-In . SVG Version: 6.00 Build 0)  -->
<!DOCTYPE svg PUBLIC "-//W3C//DTD SVG 1.1//EN" "http://www.w3.org/Graphics/SVG/1.1/DTD/svg11.dtd">
<svg version="1.1" id="Layer_1" xmlns="http://www.w3.org/2000/svg" xmlns:xlink="http://www.w3.org/1999/xlink" x="0px" y="0px"
	 viewBox="0 0 297.857 242.587" style="enable-background:new 0 0 297.857 242.587;" xml:space="preserve">
<g>
	<g>
		<path style="fill:#231F20;" d="M3,70.866C3,33.444,33.444,3,70.866,3h223.991v111.946c0,37.422-30.444,67.866-67.866,67.866
			h-63.205v0.081H93.819c-41.591,0-77.141,16.252-90.819,38.997V70.866z"/>
		<path style="fill:#FFFFFF;" d="M291.857,6v108.946c0,17.248-6.769,33.516-19.06,45.807c-12.291,12.291-28.559,19.06-45.807,19.06
			h-60.205h-6v0.081H93.818c-26.034,0-50.668,6.221-69.362,17.518c-7.462,4.509-13.651,9.622-18.456,15.174v-26.774v-24.5V70.866
			C6,53.618,12.769,37.35,25.06,25.06C37.35,12.769,53.618,6,70.866,6H291.857 M297.857,0H70.866C31.89,0,0,31.89,0,70.866v90.446
			v24.5v56.774c0-31.181,42.218-56.693,93.819-56.693h72.967v-0.081h60.205c38.976,0,70.866-31.89,70.866-70.866V0L297.857,0z"/>
	</g>
	<g>
		<path style="fill:#FFFFFF;" d="M70.947,61.097c0,0.204,0,0.407,0,0.61c0,0.204-0.021,0.406-0.062,0.609v17.02H61.43v-2.318
			c-1.22,0.732-2.511,1.312-3.873,1.738c-1.363,0.428-2.756,0.641-4.179,0.641h-0.061c-2.4,0-4.667-0.467-6.802-1.402
			s-4.036-2.277-5.703-4.026c-1.587-1.708-2.817-3.63-3.691-5.765s-1.331-4.382-1.372-6.74v-9.395c0-2.439,0.438-4.736,1.312-6.893
			c0.874-2.155,2.125-4.087,3.752-5.795c1.667-1.748,3.568-3.09,5.703-4.026c2.135-0.935,4.401-1.402,6.802-1.402h0.061
			c2.358,0,4.605,0.468,6.74,1.402c2.136,0.937,4.057,2.278,5.765,4.026c1.626,1.749,2.877,3.721,3.752,5.917
			c0.874,2.196,1.312,4.514,1.312,6.954H60.699c0-1.099-0.193-2.136-0.58-3.111s-0.915-1.83-1.586-2.562
			c-0.671-0.732-1.454-1.312-2.349-1.739c-0.895-0.427-1.851-0.641-2.866-0.641c-1.018,0-1.963,0.214-2.837,0.641
			c-0.875,0.428-1.646,1.007-2.318,1.739c-0.671,0.731-1.199,1.586-1.586,2.562s-0.579,2.013-0.579,3.111v8.845
			c0,1.098,0.192,2.135,0.579,3.111c0.387,0.976,0.915,1.83,1.586,2.562c0.672,0.732,1.443,1.312,2.318,1.738
			c0.874,0.428,1.819,0.641,2.837,0.641c1.179,0,2.246-0.264,3.202-0.793c0.955-0.527,1.778-1.24,2.471-2.135h-5.734v-9.455h17.69
			V61.097z"/>
		<path style="fill:#FFFFFF;" d="M86.135,79.336H75.887V33.952h10.248V79.336z"/>
		<path style="fill:#FFFFFF;" d="M100.775,44.199v7.32h12.933v10.248h-12.933v17.568H90.527V33.952h27.816v10.247H100.775z"/>
		<path style="fill:#FFFFFF;" d="M194.838,79.336h-10.248v-15.86l-5.551,15.86h-10.248l-5.674-16.349v16.349h-10.248V33.952h10.431
			l10.614,30.621l10.676-30.621h10.248V79.336z"/>
		<path style="fill:#FFFFFF;" d="M233.022,68.111c-0.854,2.156-2.095,4.087-3.721,5.795c-1.668,1.79-3.568,3.152-5.704,4.088
			c-2.135,0.936-4.402,1.402-6.801,1.402h-0.062c-2.358,0-4.605-0.467-6.74-1.402s-4.057-2.277-5.765-4.026
			c-1.586-1.708-2.816-3.639-3.69-5.795c-0.875-2.155-1.331-4.453-1.372-6.894V50.666c0.202-2.155,0.741-4.188,1.616-6.101
			c0.874-1.911,2.022-3.639,3.446-5.185c1.708-1.748,3.619-3.09,5.734-4.026c2.113-0.935,4.371-1.402,6.771-1.402h0.062
			c2.398,0,4.666,0.468,6.801,1.402c2.136,0.937,4.036,2.278,5.704,4.026c1.464,1.546,2.623,3.273,3.477,5.185
			c0.854,1.912,1.382,3.945,1.586,6.101v1.342v5.612v3.659C234.323,63.68,233.877,65.957,233.022,68.111z"/>
		<path style="fill:#FFFFFF;" d="M53.196,134.148c1.016,0,1.961-0.213,2.836-0.641c0.874-0.427,1.647-1.006,2.318-1.738
			c0.671-0.731,1.199-1.586,1.586-2.562c0.386-0.977,0.579-2.014,0.579-3.111h10.248c0,2.44-0.427,4.758-1.28,6.954
			c-0.854,2.196-2.115,4.169-3.782,5.917c-1.668,1.749-3.568,3.091-5.704,4.026c-2.135,0.936-4.402,1.402-6.801,1.402h-0.062
			c-2.399,0-4.656-0.467-6.771-1.402c-2.115-0.936-4.026-2.277-5.734-4.026c-1.586-1.708-2.816-3.63-3.69-5.765
			s-1.331-4.382-1.372-6.74v-9.395c0.041-2.439,0.487-4.736,1.342-6.893c0.854-2.155,2.094-4.087,3.721-5.795
			c1.708-1.748,3.619-3.09,5.734-4.026c2.114-0.935,4.371-1.402,6.771-1.402h0.062c2.398,0,4.666,0.468,6.801,1.402
			c2.136,0.937,4.036,2.278,5.704,4.026c1.667,1.749,2.928,3.721,3.782,5.917c0.854,2.196,1.28,4.514,1.28,6.954H60.515
			c0-1.099-0.193-2.136-0.579-3.111c-0.387-0.976-0.915-1.83-1.586-2.562c-0.671-0.732-1.444-1.312-2.318-1.739
			c-0.875-0.427-1.82-0.641-2.836-0.641c-1.018,0-1.974,0.214-2.867,0.641c-0.896,0.428-1.678,1.007-2.349,1.739
			c-0.671,0.731-1.2,1.586-1.586,2.562c-0.387,0.976-0.579,2.013-0.579,3.111v8.845c0,1.098,0.192,2.135,0.579,3.111
			c0.386,0.976,0.915,1.83,1.586,2.562c0.671,0.732,1.453,1.312,2.349,1.738C51.222,133.935,52.178,134.148,53.196,134.148z"/>
		<path style="fill:#FFFFFF;" d="M106.875,98.952v45.384H96.627v-17.568H84.488v17.568H74.24V98.952h10.248v17.567h12.139V98.952
			H106.875z"/>
		<path style="fill:#FFFFFF;" d="M121.942,109.199v7.32h12.932v10.248h-12.932v7.32h17.567v10.248h-27.815V98.952h27.815v10.247
			H121.942z"/>
		<path style="fill:#FFFFFF;" d="M173.853,109.199h-10.311v35.137h-10.248v-35.137h-10.309V98.952h30.867V109.199z"/>
		<path style="fill:#FFFFFF;" d="M207.463,109.199h-10.31v35.137h-10.248v-35.137h-10.309V98.952h30.866V109.199z"/>
		<path style="fill:#FFFFFF;" d="M221.005,109.199v7.32h12.932v10.248h-12.932v7.32h17.568v10.248h-27.816V98.952h27.816v10.247
			H221.005z"/>
	</g>
</g>
</svg>
