<?xml version="1.0" encoding="iso-8859-1"?>
<!-- Generator: Adobe Illustrator 19.1.0, SVG Export Plug-In . SVG Version: 6.00 Build 0)  -->
<!DOCTYPE svg PUBLIC "-//W3C//DTD SVG 1.1//EN" "http://www.w3.org/Graphics/SVG/1.1/DTD/svg11.dtd">
<svg version="1.1" id="Layer_1" xmlns="http://www.w3.org/2000/svg" xmlns:xlink="http://www.w3.org/1999/xlink" x="0px" y="0px"
	 viewBox="0 0 662.884 255.587" style="enable-background:new 0 0 662.884 255.587;" xml:space="preserve">
<g>
	<g>
		<path style="fill:#231F20;" d="M3,252.56V127.641c0-37.422,30.444-67.866,67.866-67.866h63.205v-0.081h434.967
			c41.591,0,77.141-16.252,90.819-38.997v163.997c0,37.422-30.444,67.866-67.866,67.866H3z"/>
		<path style="fill:#FFFFFF;" d="M656.857,30v26.774v24.5v103.419c0,17.248-6.769,33.516-19.06,45.807
			c-12.291,12.291-28.558,19.06-45.806,19.06H6V127.64c0-17.248,6.769-33.516,19.06-45.806c12.291-12.291,28.558-19.06,45.806-19.06
			h60.205h6v-0.081h431.967c26.034,0,50.668-6.221,69.362-17.518C645.863,40.665,652.052,35.553,656.857,30 M662.857,0
			c0,31.181-42.218,56.693-93.818,56.693H131.071v0.081H70.866C31.89,56.774,0,88.664,0,127.64v127.92h591.991
			c38.976,0,70.866-31.89,70.866-70.866V81.274v-24.5V0L662.857,0z"/>
	</g>
	<g>
		<path style="fill:#FFFFFF;" d="M54.858,94.951v11.761l-3.71,6.51h-7.14l3.709-6.51h-4.549V94.951H54.858z"/>
		<path style="fill:#FFFFFF;" d="M94.618,106.712h-11.83v40.319h-11.76v-40.319h-11.83V94.951h35.42V106.712z"/>
		<path style="fill:#FFFFFF;" d="M165.599,130.861c0,0.84-0.06,1.657-0.176,2.45c-0.117,0.794-0.292,1.587-0.525,2.38
			c-0.514,1.634-1.26,3.15-2.24,4.55c-0.979,1.4-2.146,2.603-3.5,3.605c-1.354,1.004-2.846,1.785-4.479,2.345
			c-1.634,0.561-3.36,0.84-5.18,0.84c-2.24,0-4.329-0.42-6.265-1.26c-1.938-0.84-3.641-1.995-5.11-3.465s-2.625-3.186-3.466-5.146
			c-0.84-1.96-1.26-4.06-1.26-6.3h11.76c0,1.214,0.421,2.252,1.261,3.115c0.84,0.864,1.866,1.295,3.08,1.295
			c0.979,0,1.843-0.291,2.59-0.875c0.746-0.583,1.261-1.318,1.54-2.205c0.141-0.373,0.21-0.793,0.21-1.26
			c0-1.213-0.42-2.193-1.26-2.94c-0.841-0.746-1.867-1.12-3.08-1.12c-2.24,0-4.329-0.407-6.265-1.225
			c-1.938-0.816-3.641-1.936-5.11-3.36c-1.47-1.423-2.625-3.091-3.466-5.005c-0.84-1.913-1.26-3.99-1.26-6.229
			c0-0.793,0.059-1.586,0.176-2.38c0.115-0.793,0.291-1.586,0.525-2.381c0.512-1.633,1.26-3.149,2.239-4.55
			c0.979-1.399,2.146-2.601,3.5-3.604c1.353-1.003,2.847-1.785,4.479-2.346c1.633-0.56,3.36-0.84,5.181-0.84
			c2.239,0,4.327,0.42,6.265,1.261c1.936,0.84,3.641,1.994,5.11,3.465c1.47,1.47,2.625,3.185,3.465,5.145s1.261,4.037,1.261,6.23
			h-11.761c0-1.213-0.42-2.24-1.26-3.08c-0.841-0.84-1.867-1.26-3.08-1.26c-0.979,0-1.845,0.292-2.591,0.875
			c-0.746,0.584-1.26,1.318-1.539,2.204c-0.141,0.327-0.211,0.747-0.211,1.261c0,1.214,0.421,2.193,1.261,2.939
			c0.84,0.747,1.866,1.12,3.08,1.12c2.239,0,4.327,0.409,6.265,1.226c1.936,0.816,3.641,1.937,5.11,3.359
			c1.47,1.424,2.625,3.092,3.465,5.005C165.178,126.615,165.599,128.669,165.599,130.861z"/>
		<path style="fill:#FFFFFF;" d="M189.397,135.342c1.166,0,2.252-0.245,3.256-0.735c1.002-0.49,1.891-1.155,2.66-1.995
			s1.375-1.82,1.82-2.939c0.441-1.12,0.664-2.311,0.664-3.57h11.76c0,2.8-0.49,5.46-1.469,7.979c-0.98,2.521-2.428,4.784-4.342,6.79
			c-1.914,2.008-4.094,3.548-6.545,4.62c-2.449,1.074-5.051,1.61-7.805,1.61h-0.07c-2.754,0-5.344-0.536-7.77-1.61
			c-2.426-1.072-4.619-2.612-6.58-4.62c-1.82-1.96-3.231-4.165-4.234-6.614c-1.003-2.45-1.528-5.028-1.575-7.735v-10.78
			c0.047-2.8,0.561-5.436,1.54-7.91c0.98-2.473,2.402-4.689,4.27-6.649c1.961-2.006,4.154-3.546,6.58-4.62
			c2.426-1.073,5.016-1.61,7.77-1.61h0.07c2.754,0,5.355,0.537,7.805,1.61c2.451,1.074,4.631,2.614,6.545,4.62
			c1.914,2.007,3.361,4.27,4.342,6.79c0.979,2.52,1.469,5.18,1.469,7.979h-11.76c0-1.26-0.223-2.449-0.664-3.569
			c-0.445-1.12-1.051-2.101-1.82-2.94s-1.658-1.505-2.66-1.995c-1.004-0.49-2.09-0.734-3.256-0.734s-2.264,0.244-3.289,0.734
			c-1.027,0.49-1.926,1.155-2.695,1.995s-1.377,1.82-1.82,2.94s-0.664,2.31-0.664,3.569v10.15c0,1.26,0.221,2.45,0.664,3.57
			c0.443,1.119,1.051,2.1,1.82,2.939s1.668,1.505,2.695,1.995C187.133,135.097,188.231,135.342,189.397,135.342z"/>
		<path style="fill:#FFFFFF;" d="M250.996,94.951v52.08h-11.76v-20.16h-13.931v20.16h-11.76v-52.08h11.76v20.16h13.931v-20.16
			H250.996z"/>
		<path style="fill:#FFFFFF;" d="M295.306,134.151c-0.98,2.475-2.404,4.69-4.271,6.65c-1.914,2.054-4.095,3.617-6.545,4.689
			c-2.45,1.074-5.052,1.61-7.805,1.61h-0.07c-2.707,0-5.285-0.536-7.734-1.61c-2.45-1.072-4.655-2.612-6.615-4.62
			c-1.82-1.96-3.232-4.176-4.235-6.649c-1.004-2.474-1.528-5.11-1.575-7.91v-12.18c0.233-2.474,0.852-4.807,1.855-7
			c1.003-2.193,2.32-4.177,3.955-5.95c1.96-2.006,4.152-3.546,6.58-4.62c2.426-1.073,5.016-1.61,7.77-1.61h0.07
			c2.753,0,5.354,0.537,7.805,1.61c2.45,1.074,4.631,2.614,6.545,4.62c1.681,1.773,3.01,3.757,3.99,5.95s1.586,4.526,1.82,7v1.54
			v6.439v4.2C296.799,129.065,296.285,131.679,295.306,134.151z"/>
		<path style="fill:#FFFFFF;" d="M328.555,126.871h-9.66l-7,20.16h-12.67l18.061-52.08h12.88l18.06,52.08h-12.67L328.555,126.871z"
			/>
		<path style="fill:#FFFFFF;" d="M373.984,96.212c1.96,0.84,3.675,1.994,5.145,3.465c1.47,1.47,2.625,3.185,3.465,5.145
			s1.26,4.061,1.26,6.3c0,2.24-0.42,4.341-1.26,6.301s-1.995,3.675-3.465,5.145s-3.185,2.625-5.145,3.465s-4.061,1.26-6.301,1.26
			h-0.069h-4.061v19.74h-11.76v-52.08h15.82h0.069C369.924,94.951,372.024,95.371,373.984,96.212z"/>
		<path style="fill:#FFFFFF;" d="M433.344,106.712v8.399h14.84v11.76h-14.84v8.4h20.16v11.76h-31.92v-52.08h31.92v11.761H433.344z"
			/>
		<path style="fill:#FFFFFF;" d="M490.323,130.861c0,0.84-0.06,1.657-0.175,2.45c-0.117,0.794-0.292,1.587-0.525,2.38
			c-0.514,1.634-1.26,3.15-2.24,4.55c-0.979,1.4-2.146,2.603-3.5,3.605c-1.354,1.004-2.847,1.785-4.479,2.345
			c-1.635,0.561-3.36,0.84-5.181,0.84c-2.239,0-4.329-0.42-6.265-1.26c-1.937-0.84-3.64-1.995-5.11-3.465
			c-1.47-1.47-2.625-3.186-3.465-5.146s-1.26-4.06-1.26-6.3h11.76c0,1.214,0.42,2.252,1.26,3.115
			c0.841,0.864,1.866,1.295,3.08,1.295c0.98,0,1.844-0.291,2.591-0.875c0.745-0.583,1.26-1.318,1.54-2.205
			c0.14-0.373,0.21-0.793,0.21-1.26c0-1.213-0.421-2.193-1.261-2.94c-0.84-0.746-1.867-1.12-3.08-1.12
			c-2.239,0-4.329-0.407-6.265-1.225c-1.937-0.816-3.64-1.936-5.11-3.36c-1.47-1.423-2.625-3.091-3.465-5.005
			c-0.84-1.913-1.26-3.99-1.26-6.229c0-0.793,0.058-1.586,0.175-2.38c0.116-0.793,0.291-1.586,0.525-2.381
			c0.513-1.633,1.26-3.149,2.24-4.55c0.979-1.399,2.146-2.601,3.5-3.604c1.353-1.003,2.846-1.785,4.479-2.346
			c1.633-0.56,3.36-0.84,5.18-0.84c2.24,0,4.328,0.42,6.266,1.261c1.936,0.84,3.64,1.994,5.109,3.465
			c1.471,1.47,2.625,3.185,3.466,5.145c0.84,1.96,1.26,4.037,1.26,6.23h-11.76c0-1.213-0.421-2.24-1.261-3.08s-1.867-1.26-3.08-1.26
			c-0.979,0-1.844,0.292-2.59,0.875c-0.747,0.584-1.26,1.318-1.54,2.204c-0.14,0.327-0.21,0.747-0.21,1.261
			c0,1.214,0.42,2.193,1.26,2.939c0.841,0.747,1.866,1.12,3.08,1.12c2.24,0,4.328,0.409,6.266,1.226
			c1.936,0.816,3.64,1.937,5.109,3.359c1.471,1.424,2.625,3.092,3.466,5.005C489.903,126.615,490.323,128.669,490.323,130.861z"/>
		<path style="fill:#FFFFFF;" d="M566.482,120.991c0,3.5-0.654,6.825-1.96,9.976c-1.308,3.149-3.221,5.984-5.74,8.505
			c-2.334,2.287-4.959,4.072-7.875,5.354c-2.917,1.284-5.985,2.02-9.205,2.205h-1.54h-10.5v-52.08h10.5
			c3.5,0,6.848,0.643,10.045,1.926c3.196,1.283,6.055,3.161,8.575,5.635c2.52,2.52,4.433,5.354,5.74,8.505
			C565.828,114.166,566.482,117.491,566.482,120.991z"/>
		<path style="fill:#FFFFFF;" d="M582.092,106.712v8.399h14.84v11.76h-14.84v8.4h20.16v11.76h-31.92v-52.08h31.92v11.761H582.092z"
			/>
		<path style="fill:#FFFFFF;" d="M65.429,161.212c1.959,0.84,3.675,1.994,5.145,3.465c1.471,1.47,2.625,3.185,3.465,5.145
			s1.26,4.061,1.26,6.3c0,2.24-0.42,4.341-1.26,6.301s-1.994,3.675-3.465,5.145c-1.47,1.47-3.186,2.625-5.145,3.465
			c-1.961,0.84-4.061,1.26-6.301,1.26h-0.07h-4.06v19.74h-11.76v-52.08h15.819h0.07C61.368,159.951,63.468,160.371,65.429,161.212z"
			/>
		<path style="fill:#FFFFFF;" d="M99.028,212.031l-9.101-19.74h-0.14v19.74h-11.76v-52.08h15.819h0.07
			c2.239,0,4.351,0.42,6.335,1.261c1.982,0.84,3.71,1.994,5.18,3.465c1.471,1.47,2.625,3.185,3.465,5.145s1.26,4.061,1.26,6.3
			c0,3.175-0.816,6.032-2.449,8.575c-1.635,2.544-3.78,4.492-6.439,5.845l9.869,21.49H99.028z"/>
		<path style="fill:#FFFFFF;" d="M126.327,171.712v8.399h14.84v11.76h-14.84v8.4h20.16v11.76h-31.92v-52.08h31.92v11.761H126.327z"
			/>
		<path style="fill:#FFFFFF;" d="M191.566,191.241c-0.047,2.754-0.561,5.367-1.541,7.84c-0.979,2.475-2.404,4.69-4.27,6.65
			c-1.914,2.054-4.096,3.617-6.545,4.69s-5.053,1.609-7.805,1.609h-0.07c-2.707,0-5.285-0.536-7.735-1.609
			c-2.449-1.073-4.654-2.637-6.615-4.69c-1.819-1.96-3.231-4.176-4.234-6.65c-1.004-2.473-1.529-5.086-1.575-7.84v-31.359h11.761
			v31.149c0,1.26,0.221,2.45,0.664,3.57s1.051,2.1,1.82,2.939c0.77,0.841,1.668,1.506,2.695,1.995
			c1.025,0.49,2.123,0.735,3.29,0.735c1.166,0,2.25-0.245,3.254-0.735c1.004-0.489,1.891-1.154,2.66-1.995
			c0.771-0.84,1.377-1.819,1.82-2.939s0.666-2.311,0.666-3.57v-31.149h11.76V191.241z"/>
		<path style="fill:#FFFFFF;" d="M230.485,171.712h-11.83v40.319h-11.76v-40.319h-11.83v-11.761h35.42V171.712z"/>
		<path style="fill:#FFFFFF;" d="M246.024,171.712v8.399h14.84v11.76h-14.84v8.4h20.16v11.76h-31.92v-52.08h31.92v11.761H246.024z"
			/>
		<path style="fill:#FFFFFF;" d="M344.584,199.151c-0.98,2.475-2.404,4.69-4.271,6.65c-1.914,2.054-4.095,3.617-6.545,4.689
			c-2.45,1.074-5.052,1.61-7.805,1.61h-0.07c-2.707,0-5.285-0.536-7.734-1.61c-2.45-1.072-4.655-2.612-6.615-4.62
			c-1.82-1.96-3.232-4.176-4.235-6.649c-1.004-2.474-1.528-5.11-1.575-7.91v-12.18c0.233-2.474,0.852-4.807,1.855-7
			c1.003-2.193,2.32-4.177,3.955-5.95c1.96-2.006,4.152-3.546,6.58-4.62c2.426-1.073,5.016-1.61,7.77-1.61h0.07
			c2.753,0,5.354,0.537,7.805,1.61c2.45,1.074,4.631,2.614,6.545,4.62c1.681,1.773,3.01,3.757,3.99,5.95s1.586,4.526,1.82,7v1.54
			v6.439v4.2C346.077,194.065,345.564,196.679,344.584,199.151z"/>
		<path style="fill:#FFFFFF;" d="M362.363,171.712v8.399h14.84v11.76h-14.84v20.16h-11.76v-52.08h31.92v11.761H362.363z"/>
	</g>
</g>
</svg>
