<?xml version="1.0" encoding="iso-8859-1"?>
<!-- Generator: Adobe Illustrator 19.1.0, SVG Export Plug-In . SVG Version: 6.00 Build 0)  -->
<!DOCTYPE svg PUBLIC "-//W3C//DTD SVG 1.1//EN" "http://www.w3.org/Graphics/SVG/1.1/DTD/svg11.dtd">
<svg version="1.1" id="Layer_1" xmlns="http://www.w3.org/2000/svg" xmlns:xlink="http://www.w3.org/1999/xlink" x="0px" y="0px"
	 viewBox="0 0 477.676 332.587" style="enable-background:new 0 0 477.676 332.587;" xml:space="preserve">
<g>
	<g>
		<path style="fill:#231F20;" d="M3,70.866C3,33.444,33.444,3,70.866,3h403.81v201.946c0,37.422-30.444,67.866-67.866,67.866
			h-63.205v0.081H93.818c-41.591,0-77.14,16.252-90.818,38.997V70.866z"/>
		<path style="fill:#FFFFFF;" d="M471.676,6v198.946c0,17.248-6.769,33.516-19.06,45.807s-28.559,19.06-45.807,19.06h-60.205h-6
			v0.082H93.819c-26.034,0-50.668,6.222-69.363,17.518c-7.462,4.509-13.651,9.622-18.456,15.174v-26.774v-24.5V70.866
			c0-17.248,6.769-33.516,19.06-45.807C37.35,12.769,53.618,6,70.866,6H471.676 M477.676,0H70.866C31.89,0,0,31.89,0,70.866v180.446
			v24.5v56.774c0-31.181,42.219-56.693,93.819-56.693h252.786v-0.082h60.205c38.977,0,70.866-31.89,70.866-70.866V0L477.676,0z"/>
	</g>
	<g>
		<path style="fill:#FFFFFF;" d="M71.677,46.951v15.624l-4.93,8.649h-9.486l4.93-8.649h-6.045V46.951H71.677z"/>
		<path style="fill:#FFFFFF;" d="M97.809,81.64l29.388,34.502h-15.624l-17.67-19.623v19.623H78.279V46.951h15.624V66.76
			l17.764-19.809h15.623L97.809,81.64z"/>
		<path style="fill:#FFFFFF;" d="M222.056,62.575l-26.971,37.944h26.971v15.623h-45.104v-15.623l26.876-37.944h-26.876V46.951
			h45.104V62.575z"/>
		<path style="fill:#FFFFFF;" d="M244.19,116.142h-15.625V46.951h15.625V116.142z"/>
		<path style="fill:#FFFFFF;" d="M266.417,62.575v11.159h19.715v15.625h-19.715v11.16H293.2v15.623h-42.408V46.951H293.2v15.624
			H266.417z"/>
		<path style="fill:#FFFFFF;" d="M99.111,191.032c-0.062,2.915-0.667,5.658-1.813,8.23c-1.148,2.573-2.683,4.806-4.604,6.696
			c-1.922,1.892-4.186,3.395-6.789,4.51c-2.604,1.116-5.363,1.674-8.277,1.674c-2.976,0-5.751-0.558-8.323-1.674
			c-2.573-1.115-4.836-2.65-6.789-4.604c-1.952-1.953-3.487-4.23-4.604-6.835s-1.674-5.394-1.674-8.37h15.624
			c0,1.613,0.559,2.992,1.674,4.139c1.116,1.148,2.479,1.721,4.092,1.721c1.611,0,2.99-0.572,4.139-1.721
			c1.146-1.146,1.721-2.525,1.721-4.139v-47.709h15.624V191.032z"/>
		<path style="fill:#FFFFFF;" d="M121.152,158.575v11.159h19.716v15.625h-19.716v11.16h26.784v15.623h-42.408v-69.191h42.408v15.624
			H121.152z"/>
		<path style="fill:#FFFFFF;" d="M253.491,184.336c0,0.311,0,0.621,0,0.93c0,0.312-0.033,0.621-0.094,0.931v25.946h-14.414v-3.533
			c-1.861,1.115-3.83,1.999-5.906,2.65c-2.078,0.65-4.201,0.977-6.371,0.977h-0.092c-3.66,0-7.115-0.713-10.369-2.139
			c-3.256-1.426-6.154-3.473-8.697-6.139c-2.418-2.604-4.293-5.533-5.625-8.789c-1.334-3.254-2.031-6.68-2.094-10.275v-14.322
			c0-3.721,0.668-7.223,2-10.51c1.332-3.285,3.238-6.23,5.719-8.834c2.543-2.666,5.441-4.711,8.697-6.139
			c3.254-1.426,6.709-2.139,10.369-2.139h0.092c3.596,0,7.021,0.713,10.277,2.139c3.254,1.428,6.184,3.473,8.789,6.139
			c2.479,2.666,4.385,5.672,5.719,9.021c1.332,3.349,2,6.882,2,10.603h-15.625c0-1.674-0.295-3.256-0.883-4.744
			c-0.59-1.487-1.395-2.789-2.418-3.905s-2.217-1.999-3.58-2.65c-1.365-0.651-2.822-0.977-4.371-0.977
			c-1.551,0-2.992,0.325-4.324,0.977c-1.334,0.651-2.512,1.534-3.535,2.65s-1.83,2.418-2.418,3.905
			c-0.59,1.488-0.883,3.07-0.883,4.744v13.484c0,1.674,0.293,3.256,0.883,4.743c0.588,1.487,1.395,2.79,2.418,3.905
			c1.023,1.117,2.201,2,3.535,2.651c1.332,0.651,2.773,0.977,4.324,0.977c1.797,0,3.424-0.403,4.883-1.21
			c1.455-0.805,2.711-1.89,3.766-3.254h-8.742v-14.416h26.971V184.336z"/>
		<path style="fill:#FFFFFF;" d="M276.647,158.575v11.159h19.715v15.625h-19.715v11.16h26.783v15.623h-42.408v-69.191h42.408v15.624
			H276.647z"/>
		<path style="fill:#FFFFFF;" d="M337.468,212.142l-12.09-26.226h-0.186v26.226h-15.625v-69.191h21.018h0.094
			c2.977,0,5.781,0.559,8.416,1.674c2.635,1.116,4.93,2.65,6.883,4.604s3.488,4.231,4.604,6.836
			c1.115,2.604,1.674,5.394,1.674,8.369c0,4.217-1.086,8.015-3.256,11.393c-2.17,3.381-5.021,5.969-8.555,7.766l13.113,28.551
			H337.468z"/>
		<path style="fill:#FFFFFF;" d="M409.169,142.951v69.191H393.36l-19.531-38.688v38.688h-15.623v-69.191h15.902l19.438,38.595
			v-38.595H409.169z"/>
	</g>
</g>
</svg>
