<?xml version="1.0" encoding="iso-8859-1"?>
<!-- Generator: Adobe Illustrator 19.1.0, SVG Export Plug-In . SVG Version: 6.00 Build 0)  -->
<!DOCTYPE svg PUBLIC "-//W3C//DTD SVG 1.1//EN" "http://www.w3.org/Graphics/SVG/1.1/DTD/svg11.dtd">
<svg version="1.1" id="Layer_1" xmlns="http://www.w3.org/2000/svg" xmlns:xlink="http://www.w3.org/1999/xlink" x="0px" y="0px"
	 viewBox="0 0 337.676 339.587" style="enable-background:new 0 0 337.676 339.587;" xml:space="preserve">
<g>
	<g>
		<path style="fill:#EB2F2B;" d="M3,336.587V127.641c0-37.422,30.444-67.866,67.866-67.866h63.205v-0.081h109.786
			c41.591,0,77.14-16.252,90.818-38.997v248.024c0,37.422-30.444,67.866-67.866,67.866H3z"/>
		<path style="fill:#FFFFFF;" d="M331.676,30v26.774v24.5V268.72c0,17.248-6.769,33.516-19.06,45.807
			c-12.291,12.291-28.558,19.06-45.807,19.06H6V127.64c0-17.248,6.769-33.516,19.06-45.807s28.558-19.06,45.807-19.06h60.205h6
			v-0.081h106.786c26.034,0,50.668-6.221,69.362-17.518C320.682,40.666,326.87,35.553,331.676,30 M337.676,0
			c0,31.181-42.218,56.693-93.818,56.693H131.071v0.081H70.866C31.89,56.774,0,88.664,0,127.64v211.946h266.81
			c38.976,0,70.866-31.89,70.866-70.866V81.274v-24.5V0L337.676,0z"/>
	</g>
	<g>
		<path style="fill:#FFFFFF;" d="M120.315,179.644h-15.624v-24.181l-8.463,24.181H80.604l-8.649-24.924v24.924H56.331v-69.192
			h15.903l16.182,46.687l16.275-46.687h15.624V179.644z"/>
		<path style="fill:#FFFFFF;" d="M142.634,126.075v11.16h19.716v15.624h-19.716v11.16h26.784v15.624H127.01v-69.192h42.408v15.624
			H142.634z"/>
		<path style="fill:#FFFFFF;" d="M75.768,241.141l29.389,34.503H89.532l-17.67-19.623v19.623H56.238v-69.192h15.624v19.81
			l17.763-19.81h15.624L75.768,241.141z"/>
		<path style="fill:#FFFFFF;" d="M124.034,222.075v11.16h19.716v15.624h-19.716v11.16h26.784v15.624H108.41v-69.192h42.408v15.624
			H124.034z"/>
		<path style="fill:#FFFFFF;" d="M186.436,208.125c2.604,1.116,4.881,2.65,6.834,4.604s3.488,4.231,4.604,6.836
			c1.117,2.604,1.674,5.394,1.674,8.37c0,2.976-0.557,5.766-1.674,8.37c-1.115,2.604-2.65,4.882-4.604,6.835
			s-4.23,3.487-6.834,4.604c-2.604,1.116-5.395,1.674-8.371,1.674h-0.093h-5.394v26.227h-15.624v-69.192h21.018h0.093
			C181.042,206.451,183.832,207.01,186.436,208.125z"/>
		<path style="fill:#FFFFFF;" d="M232.656,208.125c2.604,1.116,4.882,2.65,6.835,4.604s3.487,4.231,4.604,6.836
			c1.116,2.604,1.674,5.394,1.674,8.37c0,2.976-0.558,5.766-1.674,8.37c-1.116,2.604-2.65,4.882-4.604,6.835
			s-4.231,3.487-6.835,4.604c-2.604,1.116-5.395,1.674-8.37,1.674h-0.094h-5.394v26.227h-15.624v-69.192h21.018h0.094
			C227.262,206.451,230.052,207.01,232.656,208.125z"/>
		<path style="fill:#FFFFFF;" d="M265.019,222.075v11.16h19.716v15.624h-19.716v11.16h26.784v15.624h-42.408v-69.192h42.408v15.624
			H265.019z"/>
	</g>
</g>
</svg>
