<?xml version="1.0" encoding="iso-8859-1"?>
<!-- Generator: Adobe Illustrator 19.1.0, SVG Export Plug-In . SVG Version: 6.00 Build 0)  -->
<!DOCTYPE svg PUBLIC "-//W3C//DTD SVG 1.1//EN" "http://www.w3.org/Graphics/SVG/1.1/DTD/svg11.dtd">
<svg version="1.1" id="Layer_1" xmlns="http://www.w3.org/2000/svg" xmlns:xlink="http://www.w3.org/1999/xlink" x="0px" y="0px"
	 viewBox="0 0 337.676 339.587" style="enable-background:new 0 0 337.676 339.587;" xml:space="preserve">
<g>
	<g>
		<path style="fill:#EB2F2B;" d="M3,70.866C3,33.444,33.444,3,70.866,3h263.81v208.946c0,37.422-30.444,67.866-67.866,67.866
			h-63.205v0.081H93.818c-41.591,0-77.14,16.252-90.818,38.997V70.866z"/>
		<path style="fill:#FFFFFF;" d="M331.676,6v205.946c0,17.248-6.769,33.516-19.06,45.807c-12.291,12.291-28.558,19.06-45.807,19.06
			h-60.205h-6v0.081H93.819c-26.034,0-50.668,6.221-69.362,17.518c-7.462,4.509-13.651,9.622-18.456,15.174v-26.774v-24.5V70.866
			C6,53.618,12.769,37.35,25.06,25.06C37.35,12.769,53.618,6,70.866,6H331.676 M337.676,0H70.866C31.89,0,0,31.89,0,70.866v187.446
			v24.5v56.774c0-31.181,42.218-56.693,93.819-56.693h112.786v-0.081h60.205c38.976,0,70.866-31.89,70.866-70.866V0L337.676,0z"/>
	</g>
	<g>
		<path style="fill:#FFFFFF;" d="M120.315,123.144h-15.624V98.963l-8.463,24.181H80.605L71.955,98.22v24.924H56.331V53.951h15.903
			l16.182,46.687l16.275-46.687h15.624V123.144z"/>
		<path style="fill:#FFFFFF;" d="M142.634,69.575v11.16h19.716v15.624h-19.716v11.16h26.784v15.624H127.01V53.951h42.408v15.624
			H142.634z"/>
		<path style="fill:#FFFFFF;" d="M75.768,184.641l29.389,34.503H89.532l-17.67-19.623v19.623H56.238v-69.192h15.624v19.81
			l17.763-19.81h15.624L75.768,184.641z"/>
		<path style="fill:#FFFFFF;" d="M124.034,165.575v11.16h19.716v15.624h-19.716v11.16h26.784v15.624H108.41v-69.192h42.408v15.624
			H124.034z"/>
		<path style="fill:#FFFFFF;" d="M186.437,151.625c2.604,1.116,4.881,2.65,6.834,4.604s3.488,4.231,4.604,6.836
			c1.117,2.604,1.674,5.394,1.674,8.37c0,2.976-0.557,5.766-1.674,8.37c-1.115,2.604-2.65,4.882-4.604,6.835
			s-4.23,3.487-6.834,4.604c-2.604,1.116-5.395,1.674-8.371,1.674h-0.093h-5.394v26.227h-15.624v-69.192h21.018h0.093
			C181.042,149.951,183.832,150.51,186.437,151.625z"/>
		<path style="fill:#FFFFFF;" d="M232.656,151.625c2.604,1.116,4.882,2.65,6.835,4.604s3.487,4.231,4.604,6.836
			c1.116,2.604,1.674,5.394,1.674,8.37c0,2.976-0.558,5.766-1.674,8.37c-1.116,2.604-2.65,4.882-4.604,6.835
			s-4.231,3.487-6.835,4.604c-2.604,1.116-5.395,1.674-8.37,1.674h-0.094h-5.394v26.227h-15.624v-69.192h21.018h0.094
			C227.262,149.951,230.052,150.51,232.656,151.625z"/>
		<path style="fill:#FFFFFF;" d="M265.02,165.575v11.16h19.716v15.624H265.02v11.16h26.784v15.624h-42.408v-69.192h42.408v15.624
			H265.02z"/>
	</g>
</g>
</svg>
