<?xml version="1.0" encoding="iso-8859-1"?>
<!-- Generator: Adobe Illustrator 19.1.0, SVG Export Plug-In . SVG Version: 6.00 Build 0)  -->
<!DOCTYPE svg PUBLIC "-//W3C//DTD SVG 1.1//EN" "http://www.w3.org/Graphics/SVG/1.1/DTD/svg11.dtd">
<svg version="1.1" id="Layer_1" xmlns="http://www.w3.org/2000/svg" xmlns:xlink="http://www.w3.org/1999/xlink" x="0px" y="0px"
	 viewBox="0 0 297.857 194.109" style="enable-background:new 0 0 297.857 194.109;" xml:space="preserve">
<g>
	<g>
		<path style="fill:#EB2F2B;" d="M3,70.866C3,33.445,33.444,3,70.866,3h223.991v63.919c0,37.422-30.444,67.866-67.866,67.866
			h-63.206v0.082H93.818c-41.591,0-77.14,16.252-90.818,38.996V70.866z"/>
		<path style="fill:#FFFFFF;" d="M291.857,6v60.92c0,17.248-6.769,33.516-19.06,45.807c-12.291,12.291-28.559,19.06-45.807,19.06
			h-60.205h-6v0.081H93.819c-26.034,0-50.668,6.221-69.362,17.518c-7.462,4.509-13.651,9.622-18.456,15.174v-26.774v-24.5v-42.42
			C6,53.618,12.769,37.35,25.06,25.06S53.618,6,70.866,6H291.857 M297.857,0H70.866C31.89,0,0,31.89,0,70.866v42.42v24.5v56.774
			c0-31.181,42.218-56.693,93.819-56.693h72.967v-0.081h60.205c38.976,0,70.866-31.89,70.866-70.866V0L297.857,0z"/>
	</g>
	<g>
		<path style="fill:#FFFFFF;" d="M112.006,34.951L96.802,97.447H82.439l-8.232-33.937l-8.232,33.937H51.61L36.406,34.951h14.111
			l8.316,33.936l8.232-33.936H81.43l8.232,33.936l8.231-33.936H112.006z"/>
		<path style="fill:#FFFFFF;" d="M165.682,72.499c-0.057,3.305-0.672,6.44-1.848,9.408c-1.177,2.969-2.885,5.628-5.124,7.979
			c-2.297,2.465-4.914,4.341-7.854,5.628c-2.939,1.289-6.062,1.933-9.366,1.933h-0.084c-3.248,0-6.342-0.644-9.281-1.933
			c-2.94-1.287-5.586-3.163-7.938-5.628c-2.184-2.352-3.878-5.011-5.082-7.979c-1.205-2.968-1.835-6.104-1.89-9.408V34.867h14.111
			v37.38c0,1.512,0.266,2.94,0.799,4.284c0.531,1.344,1.26,2.52,2.184,3.527c0.924,1.009,2.002,1.807,3.234,2.395
			c1.23,0.588,2.547,0.882,3.947,0.882c1.399,0,2.701-0.294,3.906-0.882c1.204-0.588,2.269-1.386,3.192-2.395
			c0.924-1.008,1.65-2.184,2.184-3.527c0.531-1.344,0.798-2.772,0.798-4.284v-37.38h14.112V72.499z"/>
		<path style="fill:#FFFFFF;" d="M188.277,66.283l26.544,31.164H200.71l-15.96-17.725v17.725h-14.112V34.951h14.112v17.892
			l16.044-17.892h14.111L188.277,66.283z"/>
		<path style="fill:#FFFFFF;" d="M244.515,36.589c2.323,1.037,4.368,2.437,6.132,4.2c1.765,1.764,3.15,3.809,4.158,6.132
			c1.008,2.324,1.512,4.83,1.512,7.519c0,2.52-0.42,4.718-1.26,6.594c-0.84,1.877-1.877,3.527-3.107,4.956
			c-1.233,1.428-2.577,2.646-4.032,3.653c-1.457,1.009-2.829,1.905-4.116,2.688c-0.729,0.504-1.47,0.938-2.226,1.302
			c-0.757,0.365-1.303,0.827-1.639,1.386c-0.168,0.281-0.28,0.589-0.336,0.925c-0.057,0.336-0.112,0.672-0.168,1.008
			c-0.057,0.393-0.057,0.785,0,1.176h-13.944v-2.52c0-2.071,0.364-3.892,1.093-5.46c0.727-1.567,1.638-2.953,2.729-4.158
			c1.092-1.204,2.281-2.239,3.57-3.108c1.287-0.867,2.464-1.638,3.528-2.31c1.119-0.728,2.058-1.357,2.813-1.891
			c0.756-0.531,1.357-1.035,1.806-1.512c0.448-0.475,0.77-0.924,0.967-1.344c0.195-0.42,0.294-0.882,0.294-1.386
			c0-1.456-0.519-2.716-1.555-3.78c-1.036-1.063-2.282-1.596-3.737-1.596c-1.681,0-3.108,0.532-4.284,1.596
			c-1.176,1.064-1.764,2.324-1.764,3.78h-13.944c0-2.688,0.533-5.194,1.596-7.519c1.063-2.323,2.491-4.368,4.284-6.132
			c1.792-1.764,3.892-3.163,6.3-4.2c2.407-1.035,4.983-1.554,7.729-1.554h0.084C239.685,35.035,242.191,35.554,244.515,36.589z
			 M225.488,83.335h14.028v14.112h-14.028V83.335z"/>
	</g>
</g>
</svg>
