<?xml version="1.0" encoding="iso-8859-1"?>
<!-- Generator: Adobe Illustrator 19.1.0, SVG Export Plug-In . SVG Version: 6.00 Build 0)  -->
<!DOCTYPE svg PUBLIC "-//W3C//DTD SVG 1.1//EN" "http://www.w3.org/Graphics/SVG/1.1/DTD/svg11.dtd">
<svg version="1.1" id="Layer_1" xmlns="http://www.w3.org/2000/svg" xmlns:xlink="http://www.w3.org/1999/xlink" x="0px" y="0px"
	 viewBox="0 0 497.676 239.587" style="enable-background:new 0 0 497.676 239.587;" xml:space="preserve">
<g>
	<g>
		<path style="fill:#FFFFFF;" d="M70.866,236.587C33.445,236.587,3,206.142,3,168.72V20.696
			c13.679,22.745,49.228,38.997,90.818,38.997h269.786l3,0.081h60.205c37.422,0,67.866,30.444,67.866,67.866v108.946H70.866z"/>
		<path d="M6,30c4.805,5.552,10.994,10.665,18.456,15.174c18.695,11.297,43.328,17.518,69.363,17.518h266.786v0.081h6h60.205
			c17.248,0,33.516,6.769,45.807,19.06s19.06,28.559,19.06,45.807v105.946H70.866c-17.248,0-33.516-6.769-45.807-19.06
			C12.769,202.236,6,185.969,6,168.721V81.274v-24.5V30 M0,0v56.774v24.5v87.446c0,38.976,31.89,70.866,70.866,70.866h426.809
			V127.64c0-38.976-31.89-70.866-70.866-70.866h-60.205v-0.081H93.819C42.218,56.693,0,31.181,0,0L0,0z"/>
	</g>
	<g>
		<path d="M71.955,126.243v11.159h19.716v15.624H71.955v26.784H56.33v-69.191h42.408v15.624H71.955z"/>
		<path d="M147.656,158.7c-0.062,2.915-0.668,5.658-1.814,8.23c-1.147,2.573-2.682,4.805-4.604,6.695
			c-1.922,1.893-4.185,3.395-6.789,4.511c-2.604,1.116-5.363,1.674-8.276,1.674c-2.976,0-5.751-0.558-8.323-1.674
			c-2.574-1.116-4.836-2.65-6.789-4.604s-3.488-4.231-4.604-6.835c-1.116-2.604-1.674-5.395-1.674-8.37h15.623
			c0,1.612,0.559,2.991,1.674,4.138c1.117,1.148,2.479,1.721,4.093,1.721c1.611,0,2.99-0.572,4.138-1.721
			c1.146-1.146,1.721-2.525,1.721-4.138v-47.709h15.625V158.7z"/>
		<path d="M169.697,179.81h-15.625v-69.191h15.625V179.81z"/>
		<path d="M191.924,126.243v11.159h19.716v15.624h-19.716v11.16h26.784v15.624H176.3v-69.191h42.408v15.624H191.924z"/>
		<path d="M267.625,158.328c0,1.115-0.079,2.201-0.232,3.255c-0.156,1.055-0.389,2.108-0.698,3.162
			c-0.683,2.171-1.674,4.185-2.976,6.045c-1.302,1.859-2.853,3.457-4.65,4.789c-1.799,1.334-3.782,2.372-5.951,3.115
			c-2.172,0.744-4.465,1.116-6.883,1.116c-2.976,0-5.751-0.558-8.323-1.674c-2.573-1.116-4.836-2.65-6.789-4.604
			s-3.487-4.231-4.604-6.835c-1.116-2.604-1.674-5.395-1.674-8.37h15.624c0,1.612,0.558,2.991,1.674,4.138
			c1.116,1.148,2.479,1.721,4.092,1.721c1.303,0,2.449-0.387,3.441-1.162c0.991-0.774,1.674-1.751,2.046-2.93
			c0.187-0.495,0.279-1.054,0.279-1.674c0-1.611-0.559-2.914-1.674-3.906c-1.116-0.991-2.48-1.488-4.093-1.488
			c-2.976,0-5.751-0.542-8.323-1.627c-2.573-1.084-4.836-2.572-6.789-4.464c-1.953-1.891-3.487-4.106-4.604-6.649
			c-1.116-2.542-1.674-5.302-1.674-8.277c0-1.054,0.077-2.107,0.232-3.162c0.154-1.054,0.387-2.106,0.697-3.162
			c0.682-2.169,1.674-4.185,2.977-6.045c1.302-1.859,2.851-3.455,4.649-4.789c1.798-1.333,3.781-2.372,5.952-3.116
			c2.17-0.743,4.464-1.115,6.882-1.115c2.977,0,5.75,0.558,8.324,1.674c2.571,1.116,4.836,2.65,6.789,4.604
			c1.952,1.953,3.487,4.231,4.604,6.835c1.115,2.604,1.674,5.364,1.674,8.277h-15.624c0-1.611-0.559-2.976-1.674-4.092
			c-1.116-1.116-2.48-1.674-4.093-1.674c-1.302,0-2.449,0.388-3.44,1.162c-0.993,0.776-1.674,1.753-2.046,2.93
			c-0.187,0.435-0.279,0.992-0.279,1.674c0,1.613,0.558,2.915,1.674,3.906c1.116,0.992,2.479,1.487,4.092,1.487
			c2.977,0,5.75,0.544,8.324,1.628c2.571,1.086,4.836,2.573,6.789,4.464c1.952,1.893,3.487,4.108,4.604,6.649
			C267.067,152.686,267.625,155.414,267.625,158.328z"/>
		<path d="M319.611,126.243h-15.717v53.567H288.27v-53.567h-15.717v-15.624h47.058V126.243z"/>
		<path d="M367.505,158.7c-0.062,2.915-0.667,5.658-1.813,8.23c-1.148,2.573-2.683,4.805-4.604,6.695
			c-1.923,1.893-4.185,3.395-6.789,4.511c-2.604,1.116-5.363,1.674-8.277,1.674c-2.976,0-5.751-0.558-8.323-1.674
			c-2.573-1.116-4.836-2.65-6.789-4.604s-3.487-4.231-4.604-6.835c-1.116-2.604-1.674-5.395-1.674-8.37h15.624
			c0,1.612,0.558,2.991,1.674,4.138c1.116,1.148,2.479,1.721,4.092,1.721s2.991-0.572,4.139-1.721
			c1.146-1.146,1.721-2.525,1.721-4.138v-47.709h15.624V158.7z"/>
		<path d="M389.546,126.243v11.159h19.716v15.624h-19.716v11.16h26.784v15.624h-42.408v-69.191h42.408v15.624H389.546z"/>
		<path d="M438.37,158.7h-15.624v-48.081h15.624V158.7z M422.839,179.81v-15.624h15.531v15.624H422.839z"/>
	</g>
</g>
</svg>
