<?xml version="1.0" encoding="iso-8859-1"?>
<!-- Generator: Adobe Illustrator 19.1.0, SVG Export Plug-In . SVG Version: 6.00 Build 0)  -->
<!DOCTYPE svg PUBLIC "-//W3C//DTD SVG 1.1//EN" "http://www.w3.org/Graphics/SVG/1.1/DTD/svg11.dtd">
<svg version="1.1" id="Layer_1" xmlns="http://www.w3.org/2000/svg" xmlns:xlink="http://www.w3.org/1999/xlink" x="0px" y="0px"
	 viewBox="0 0 783.238 255.587" style="enable-background:new 0 0 783.238 255.587;" xml:space="preserve">
<g>
	<g>
		<path style="fill:#231F20;" d="M3,252.586V127.667c0-37.422,30.444-67.866,67.866-67.866h63.206V59.72h554.967
			c41.59,0,77.14-16.252,90.818-38.997v163.998c0,37.421-30.444,67.865-67.866,67.865H3z"/>
		<path style="fill:#FFFFFF;" d="M776.857,30.027v26.774v24.5v103.419c0,17.248-6.769,33.516-19.06,45.807
			c-12.291,12.291-28.558,19.06-45.806,19.06H6V127.667c0-17.248,6.769-33.516,19.06-45.807
			c12.291-12.291,28.558-19.06,45.806-19.06h60.205h6V62.72h551.967c26.034,0,50.668-6.222,69.362-17.518
			C765.863,40.692,772.052,35.58,776.857,30.027 M782.857,0.027c0,31.181-42.218,56.693-93.818,56.693H131.071v0.082H70.866
			C31.89,56.801,0,88.691,0,127.667v127.919h711.991c38.976,0,70.866-31.89,70.866-70.866V81.301v-24.5V0.027L782.857,0.027z"/>
	</g>
	<g>
		<path style="fill:#FFFFFF;" d="M81.668,94.475v52.08h-11.9l-14.699-29.12v29.12H43.307v-52.08h11.971l14.63,29.051V94.475H81.668z
			"/>
		<path style="fill:#FFFFFF;" d="M124.297,133.675c-0.979,2.474-2.403,4.69-4.27,6.649c-1.914,2.055-4.095,3.617-6.545,4.69
			c-2.45,1.074-5.052,1.61-7.805,1.61h-0.07c-2.707,0-5.285-0.536-7.735-1.61c-2.45-1.073-4.654-2.612-6.614-4.62
			c-1.82-1.96-3.232-4.176-4.235-6.65c-1.004-2.473-1.528-5.109-1.575-7.91v-12.18c0.233-2.473,0.851-4.806,1.855-7
			c1.003-2.192,2.32-4.176,3.955-5.949c1.96-2.006,4.152-3.547,6.579-4.621c2.427-1.072,5.017-1.609,7.771-1.609h0.07
			c2.753,0,5.354,0.537,7.805,1.609c2.45,1.074,4.631,2.615,6.545,4.621c1.68,1.773,3.01,3.757,3.99,5.949
			c0.979,2.194,1.586,4.527,1.819,7v1.541v6.439v4.199C125.79,128.589,125.277,131.201,124.297,133.675z"/>
		<path style="fill:#FFFFFF;" d="M170.077,125.625c0,0.234,0,0.467,0,0.699c0,0.234-0.024,0.467-0.07,0.701v19.529h-10.85v-2.66
			c-1.4,0.84-2.883,1.506-4.445,1.995c-1.564,0.49-3.162,0.735-4.795,0.735h-0.07c-2.754,0-5.354-0.536-7.805-1.61
			c-2.45-1.073-4.632-2.612-6.545-4.62c-1.82-1.96-3.232-4.165-4.235-6.615c-1.004-2.449-1.528-5.027-1.575-7.734v-10.78
			c0-2.8,0.502-5.437,1.505-7.91c1.003-2.473,2.438-4.69,4.306-6.649c1.913-2.006,4.095-3.547,6.545-4.621
			c2.45-1.072,5.051-1.609,7.805-1.609h0.07c2.706,0,5.285,0.537,7.734,1.609c2.45,1.074,4.655,2.615,6.615,4.621
			c1.866,2.007,3.301,4.27,4.306,6.789c1.003,2.521,1.505,5.181,1.505,7.98h-11.761c0-1.26-0.222-2.449-0.665-3.57
			c-0.443-1.119-1.05-2.1-1.819-2.939c-0.771-0.84-1.669-1.506-2.695-1.995c-1.027-0.49-2.124-0.735-3.29-0.735
			c-1.167,0-2.252,0.245-3.255,0.735c-1.004,0.489-1.89,1.155-2.66,1.995c-0.77,0.84-1.377,1.82-1.819,2.939
			c-0.444,1.121-0.665,2.311-0.665,3.57v10.15c0,1.26,0.221,2.449,0.665,3.57c0.442,1.119,1.05,2.1,1.819,2.939
			c0.771,0.84,1.656,1.505,2.66,1.995c1.003,0.489,2.088,0.735,3.255,0.735c1.354,0,2.578-0.304,3.675-0.91s2.041-1.424,2.835-2.45
			h-6.58v-10.851h20.301V125.625z"/>
		<path style="fill:#FFFFFF;" d="M250.576,125.625c0,0.234,0,0.467,0,0.699c0,0.234-0.024,0.467-0.07,0.701v19.529h-10.85v-2.66
			c-1.4,0.84-2.882,1.506-4.445,1.995c-1.563,0.49-3.162,0.735-4.795,0.735h-0.07c-2.754,0-5.354-0.536-7.805-1.61
			c-2.45-1.073-4.632-2.612-6.545-4.62c-1.82-1.96-3.232-4.165-4.235-6.615c-1.004-2.449-1.527-5.027-1.574-7.734v-10.78
			c0-2.8,0.502-5.437,1.505-7.91c1.003-2.473,2.438-4.69,4.305-6.649c1.913-2.006,4.095-3.547,6.545-4.621
			c2.45-1.072,5.051-1.609,7.805-1.609h0.07c2.706,0,5.285,0.537,7.735,1.609c2.45,1.074,4.654,2.615,6.614,4.621
			c1.866,2.007,3.302,4.27,4.306,6.789c1.003,2.521,1.505,5.181,1.505,7.98h-11.76c0-1.26-0.223-2.449-0.665-3.57
			c-0.444-1.119-1.05-2.1-1.82-2.939c-0.77-0.84-1.669-1.506-2.695-1.995c-1.026-0.49-2.124-0.735-3.29-0.735
			c-1.167,0-2.252,0.245-3.255,0.735c-1.004,0.489-1.89,1.155-2.66,1.995c-0.77,0.84-1.377,1.82-1.819,2.939
			c-0.444,1.121-0.665,2.311-0.665,3.57v10.15c0,1.26,0.221,2.449,0.665,3.57c0.442,1.119,1.05,2.1,1.819,2.939
			c0.771,0.84,1.656,1.505,2.66,1.995c1.003,0.489,2.088,0.735,3.255,0.735c1.354,0,2.578-0.304,3.676-0.91
			c1.096-0.606,2.041-1.424,2.835-2.45h-6.58v-10.851h20.3V125.625z"/>
		<path style="fill:#FFFFFF;" d="M268.006,146.555h-11.76v-52.08h11.76V146.555z"/>
		<path style="fill:#FFFFFF;" d="M311.405,94.475v52.08h-11.899l-14.7-29.12v29.12h-11.76v-52.08h11.97l14.63,29.051V94.475H311.405
			z"/>
		<path style="fill:#FFFFFF;" d="M385.045,106.235h-11.83v40.32h-11.76v-40.32h-11.83v-11.76h35.42V106.235z"/>
		<path style="fill:#FFFFFF;" d="M451.964,94.475l-12.67,52.08h-11.97l-6.86-28.279l-6.859,28.279h-11.971l-12.67-52.08h11.761
			l6.93,28.28l6.86-28.28h11.97l6.859,28.28l6.86-28.28H451.964z"/>
		<path style="fill:#FFFFFF;" d="M495.014,133.675c-0.98,2.474-2.404,4.69-4.271,6.649c-1.914,2.055-4.095,3.617-6.545,4.69
			c-2.45,1.074-5.052,1.61-7.805,1.61h-0.07c-2.707,0-5.285-0.536-7.734-1.61c-2.45-1.073-4.655-2.612-6.615-4.62
			c-1.82-1.96-3.232-4.176-4.235-6.65c-1.004-2.473-1.528-5.109-1.575-7.91v-12.18c0.233-2.473,0.852-4.806,1.855-7
			c1.003-2.192,2.32-4.176,3.955-5.949c1.96-2.006,4.152-3.547,6.58-4.621c2.426-1.072,5.016-1.609,7.77-1.609h0.07
			c2.753,0,5.354,0.537,7.805,1.609c2.45,1.074,4.631,2.615,6.545,4.621c1.681,1.773,3.01,3.757,3.99,5.949
			c0.98,2.194,1.586,4.527,1.82,7v1.541v6.439v4.199C496.507,128.589,495.994,131.201,495.014,133.675z"/>
		<path style="fill:#FFFFFF;" d="M528.263,126.395h-9.66l-7,20.16h-12.67l18.061-52.08h12.88l18.06,52.08h-12.67L528.263,126.395z"
			/>
		<path style="fill:#FFFFFF;" d="M577.193,134.795v11.76h-25.69v-52.08h11.76v40.32H577.193z"/>
		<path style="fill:#FFFFFF;" d="M630.182,94.475l-18.13,52.08h-11.899l-18.131-52.08h11.761l12.319,35.42l12.32-35.42H630.182z"/>
		<path style="fill:#FFFFFF;" d="M643.971,106.235v8.4h14.84v11.76h-14.84v8.4h20.16v11.76h-31.92v-52.08h31.92v11.76H643.971z"/>
		<path style="fill:#FFFFFF;" d="M54.998,171.235v8.4h14.84v11.76h-14.84v8.4h20.16v11.76h-31.92v-52.08h31.92v11.76H54.998z"/>
		<path style="fill:#FFFFFF;" d="M118.207,159.475v52.08h-11.9l-14.699-29.12v29.12H79.846v-52.08h11.971l14.63,29.051v-29.051
			H118.207z"/>
		<path style="fill:#FFFFFF;" d="M195.836,198.675c-0.98,2.474-2.404,4.69-4.27,6.649c-1.914,2.055-4.096,3.617-6.545,4.69
			c-2.451,1.074-5.053,1.61-7.805,1.61h-0.07c-2.707,0-5.285-0.536-7.735-1.61c-2.45-1.073-4.654-2.612-6.614-4.62
			c-1.82-1.96-3.232-4.176-4.235-6.65c-1.004-2.473-1.528-5.109-1.575-7.91v-12.18c0.233-2.473,0.851-4.806,1.855-7
			c1.003-2.192,2.32-4.176,3.955-5.949c1.96-2.006,4.152-3.547,6.579-4.621c2.427-1.072,5.017-1.609,7.771-1.609h0.07
			c2.752,0,5.354,0.537,7.805,1.609c2.449,1.074,4.631,2.615,6.545,4.621c1.68,1.773,3.01,3.757,3.99,5.949
			c0.98,2.194,1.586,4.527,1.82,7v1.541v6.439v4.199C197.33,193.589,196.816,196.201,195.836,198.675z"/>
		<path style="fill:#FFFFFF;" d="M227.475,199.795v11.76h-25.69v-52.08h11.76v40.32H227.475z"/>
		<path style="fill:#FFFFFF;" d="M315.185,211.555h-11.761v-18.2l-6.37,18.2h-11.76l-6.51-18.76v18.76h-11.76v-52.08h11.97
			l12.18,35.141l12.25-35.141h11.761V211.555z"/>
		<path style="fill:#FFFFFF;" d="M360.684,190.765c-0.047,2.754-0.56,5.367-1.54,7.84c-0.979,2.474-2.404,4.69-4.27,6.65
			c-1.914,2.054-4.096,3.616-6.545,4.69c-2.45,1.073-5.053,1.609-7.806,1.609h-0.069c-2.707,0-5.285-0.536-7.735-1.609
			c-2.45-1.074-4.655-2.637-6.615-4.69c-1.82-1.96-3.231-4.177-4.235-6.65c-1.004-2.473-1.528-5.086-1.574-7.84v-31.36h11.76v31.15
			c0,1.26,0.221,2.45,0.665,3.57c0.442,1.119,1.05,2.1,1.82,2.939c0.77,0.84,1.668,1.506,2.694,1.995
			c1.026,0.49,2.123,0.735,3.29,0.735c1.166,0,2.251-0.245,3.255-0.735c1.003-0.489,1.891-1.155,2.66-1.995
			c0.771-0.84,1.376-1.82,1.82-2.939c0.442-1.12,0.665-2.311,0.665-3.57v-31.15h11.76V190.765z"/>
		<path style="fill:#FFFFFF;" d="M390.505,199.795v11.76h-25.69v-52.08h11.76v40.32H390.505z"/>
		<path style="fill:#FFFFFF;" d="M420.674,199.795v11.76h-25.69v-52.08h11.76v40.32H420.674z"/>
		<path style="fill:#FFFFFF;" d="M436.914,171.235v8.4h14.84v11.76h-14.84v8.4h20.16v11.76h-31.92v-52.08h31.92v11.76H436.914z"/>
		<path style="fill:#FFFFFF;" d="M498.513,185.515c0,3.5-0.654,6.825-1.96,9.976c-1.308,3.149-3.221,5.984-5.74,8.504
			c-2.334,2.287-4.959,4.072-7.875,5.355c-2.917,1.284-5.985,2.02-9.205,2.205h-1.54h-10.5v-52.08h10.5
			c3.5,0,6.848,0.643,10.045,1.926c3.196,1.283,6.055,3.161,8.575,5.635c2.52,2.52,4.433,5.354,5.74,8.504
			C497.859,178.69,498.513,182.015,498.513,185.515z"/>
		<path style="fill:#FFFFFF;" d="M523.363,211.555l-9.1-19.74h-0.141v19.74h-11.76v-52.08h15.82h0.069c2.24,0,4.352,0.42,6.335,1.26
			s3.71,1.995,5.181,3.465c1.47,1.471,2.625,3.186,3.465,5.146s1.26,4.06,1.26,6.3c0,3.174-0.817,6.032-2.45,8.575
			c-1.634,2.544-3.779,4.492-6.439,5.845l9.87,21.49H523.363z"/>
		<path style="fill:#FFFFFF;" d="M577.682,198.675c-0.98,2.474-2.404,4.69-4.271,6.649c-1.914,2.055-4.095,3.617-6.545,4.69
			c-2.45,1.074-5.052,1.61-7.805,1.61h-0.07c-2.707,0-5.285-0.536-7.734-1.61c-2.45-1.073-4.655-2.612-6.615-4.62
			c-1.82-1.96-3.232-4.176-4.235-6.65c-1.004-2.473-1.528-5.109-1.575-7.91v-12.18c0.233-2.473,0.852-4.806,1.855-7
			c1.003-2.192,2.32-4.176,3.955-5.949c1.96-2.006,4.152-3.547,6.58-4.621c2.426-1.072,5.016-1.609,7.77-1.609h0.07
			c2.753,0,5.354,0.537,7.805,1.609c2.45,1.074,4.631,2.615,6.545,4.621c1.681,1.773,3.01,3.757,3.99,5.949
			c0.98,2.194,1.586,4.527,1.82,7v1.541v6.439v4.199C579.175,193.589,578.662,196.201,577.682,198.675z"/>
		<path style="fill:#FFFFFF;" d="M595.391,171.235v8.4h14.84v11.76h-14.84v8.4h20.16v11.76h-31.92v-52.08h31.92v11.76H595.391z"/>
		<path style="fill:#FFFFFF;" d="M658.6,159.475v52.08h-11.899l-14.7-29.12v29.12h-11.76v-52.08h11.97l14.63,29.051v-29.051H658.6z"
			/>
		<path style="fill:#FFFFFF;" d="M677.15,185.584l22.12,25.971h-11.761l-13.3-14.77v14.77h-11.76v-52.08h11.76v14.91l13.37-14.91
			h11.76L677.15,185.584z"/>
		<path style="fill:#FFFFFF;" d="M713.479,171.235v8.4h14.84v11.76h-14.84v8.4h20.16v11.76h-31.92v-52.08h31.92v11.76H713.479z"/>
	</g>
</g>
</svg>
