<?xml version="1.0" encoding="iso-8859-1"?>
<!-- Generator: Adobe Illustrator 19.1.0, SVG Export Plug-In . SVG Version: 6.00 Build 0)  -->
<!DOCTYPE svg PUBLIC "-//W3C//DTD SVG 1.1//EN" "http://www.w3.org/Graphics/SVG/1.1/DTD/svg11.dtd">
<svg version="1.1" id="Layer_1" xmlns="http://www.w3.org/2000/svg" xmlns:xlink="http://www.w3.org/1999/xlink" x="0px" y="0px"
	 viewBox="0 0 149.578 20.199" style="enable-background:new 0 0 149.578 20.199;" xml:space="preserve">
<g>
	<g>
		<path style="fill:#FFFFFF;" d="M0.804,5.478c0-0.384,0.3-0.636,0.684-0.636s0.684,0.252,0.684,0.636
			c0,0.372-0.3,0.635-0.684,0.635S0.804,5.849,0.804,5.478z M0.983,7.313h0.983v5.829H0.983V7.313z"/>
		<path style="fill:#FFFFFF;" d="M6.118,7.169c1.487,0,2.327,1.067,2.327,2.734c0,0.204-0.012,0.396-0.036,0.54H4.475
			c0.072,1.259,0.828,2.051,1.943,2.051c0.551,0,1.019-0.18,1.451-0.456l0.348,0.648c-0.504,0.324-1.127,0.6-1.919,0.6
			c-1.559,0-2.794-1.14-2.794-3.046C3.503,8.332,4.787,7.169,6.118,7.169z M7.581,9.795c0-1.188-0.528-1.847-1.439-1.847
			c-0.816,0-1.559,0.672-1.679,1.847H7.581z"/>
		<path style="fill:#FFFFFF;" d="M11.998,7.169c0.672,0,1.115,0.252,1.631,0.671l-0.048-0.995V4.602h0.996v8.539h-0.815
			l-0.084-0.684h-0.036c-0.456,0.444-1.079,0.828-1.763,0.828c-1.463,0-2.411-1.104-2.411-3.046
			C9.467,8.344,10.667,7.169,11.998,7.169z M12.094,12.458c0.54,0,1.007-0.264,1.487-0.804V8.608
			c-0.492-0.443-0.936-0.611-1.415-0.611c-0.936,0-1.679,0.899-1.679,2.23C10.487,11.618,11.075,12.458,12.094,12.458z"/>
		<path style="fill:#FFFFFF;" d="M18.729,7.169c1.487,0,2.327,1.067,2.327,2.734c0,0.204-0.012,0.396-0.036,0.54h-3.934
			c0.072,1.259,0.828,2.051,1.943,2.051c0.551,0,1.019-0.18,1.451-0.456l0.348,0.648c-0.504,0.324-1.127,0.6-1.919,0.6
			c-1.559,0-2.794-1.14-2.794-3.046C16.115,8.332,17.398,7.169,18.729,7.169z M20.193,9.795c0-1.188-0.528-1.847-1.439-1.847
			c-0.816,0-1.56,0.672-1.679,1.847H20.193z"/>
		<path style="fill:#FFFFFF;" d="M22.499,7.313h0.815l0.084,1.055h0.036c0.396-0.731,0.996-1.199,1.655-1.199
			c0.251,0,0.432,0.036,0.624,0.12l-0.192,0.863c-0.192-0.06-0.324-0.096-0.564-0.096c-0.492,0-1.079,0.359-1.475,1.343v3.742
			h-0.983V7.313z"/>
		<path style="fill:#FFFFFF;" d="M28.726,7.169c1.487,0,2.327,1.067,2.327,2.734c0,0.204-0.012,0.396-0.036,0.54h-3.934
			c0.072,1.259,0.828,2.051,1.943,2.051c0.551,0,1.019-0.18,1.451-0.456l0.348,0.648c-0.504,0.324-1.127,0.6-1.919,0.6
			c-1.559,0-2.794-1.14-2.794-3.046C26.111,8.332,27.395,7.169,28.726,7.169z M30.189,9.795c0-1.188-0.528-1.847-1.439-1.847
			c-0.816,0-1.56,0.672-1.679,1.847H30.189z"/>
		<path style="fill:#FFFFFF;" d="M34.678,7.169c1.487,0,2.327,1.067,2.327,2.734c0,0.204-0.012,0.396-0.036,0.54h-3.934
			c0.072,1.259,0.828,2.051,1.943,2.051c0.551,0,1.019-0.18,1.451-0.456l0.348,0.648c-0.504,0.324-1.127,0.6-1.919,0.6
			c-1.559,0-2.794-1.14-2.794-3.046C32.063,8.332,33.346,7.169,34.678,7.169z M36.141,9.795c0-1.188-0.528-1.847-1.439-1.847
			c-0.816,0-1.559,0.672-1.679,1.847H36.141z"/>
		<path style="fill:#FFFFFF;" d="M38.446,7.313h0.815l0.084,0.839h0.036c0.552-0.552,1.151-0.983,1.955-0.983
			c1.223,0,1.775,0.792,1.775,2.279v3.694h-0.983V9.579c0-1.091-0.336-1.559-1.104-1.559c-0.6,0-1.007,0.312-1.595,0.899v4.222
			h-0.983V7.313z"/>
		<path style="fill:#FFFFFF;" d="M44.314,7.313h1.008l0.863,3.37c0.132,0.552,0.24,1.079,0.348,1.619h0.048
			c0.132-0.54,0.252-1.08,0.396-1.619l0.9-3.37h0.959l0.911,3.37c0.144,0.552,0.276,1.079,0.408,1.619h0.048
			c0.132-0.54,0.24-1.067,0.36-1.619l0.852-3.37h0.935l-1.559,5.829h-1.199l-0.839-3.13C48.608,9.459,48.5,8.92,48.356,8.332h-0.048
			c-0.132,0.588-0.252,1.14-0.408,1.691l-0.816,3.118h-1.151L44.314,7.313z"/>
		<path style="fill:#FFFFFF;" d="M55.761,7.169c1.487,0,2.327,1.067,2.327,2.734c0,0.204-0.012,0.396-0.036,0.54h-3.934
			c0.072,1.259,0.828,2.051,1.943,2.051c0.551,0,1.019-0.18,1.451-0.456l0.348,0.648c-0.504,0.324-1.127,0.6-1.919,0.6
			c-1.559,0-2.794-1.14-2.794-3.046C53.146,8.332,54.43,7.169,55.761,7.169z M57.224,9.795c0-1.188-0.528-1.847-1.439-1.847
			c-0.816,0-1.56,0.672-1.679,1.847H57.224z"/>
		<path style="fill:#FFFFFF;" d="M59.375,11.822c0.503,0.408,1.02,0.696,1.715,0.696c0.768,0,1.151-0.408,1.151-0.912
			c0-0.6-0.695-0.863-1.331-1.104c-0.828-0.3-1.739-0.695-1.739-1.679c0-0.936,0.744-1.655,2.003-1.655
			c0.732,0,1.367,0.3,1.811,0.66l-0.468,0.624c-0.396-0.3-0.815-0.516-1.331-0.516c-0.732,0-1.067,0.396-1.067,0.839
			c0,0.54,0.636,0.756,1.295,1.007c0.84,0.312,1.775,0.66,1.775,1.763c0,0.948-0.756,1.739-2.135,1.739
			c-0.828,0-1.619-0.348-2.171-0.804L59.375,11.822z"/>
		<path style="fill:#FFFFFF;" d="M64.726,8.116h-0.864V7.372l0.912-0.06l0.12-1.631h0.828v1.631h1.571v0.803h-1.571v3.238
			c0,0.72,0.228,1.127,0.899,1.127c0.204,0,0.468-0.084,0.66-0.156l0.192,0.744c-0.324,0.108-0.72,0.216-1.08,0.216
			c-1.247,0-1.667-0.792-1.667-1.943V8.116z"/>
		<path style="fill:#FFFFFF;" d="M67.774,7.313h1.02l1.103,3.31c0.168,0.576,0.36,1.163,0.54,1.715h0.048
			c0.168-0.552,0.36-1.139,0.528-1.715l1.103-3.31h0.972l-2.063,5.829h-1.151L67.774,7.313z"/>
		<path style="fill:#FFFFFF;" d="M74.218,4.602h0.983v7.436c0,0.312,0.132,0.432,0.276,0.432c0.06,0,0.108,0,0.216-0.024
			l0.132,0.744c-0.132,0.06-0.3,0.096-0.564,0.096c-0.744,0-1.043-0.468-1.043-1.319V4.602z"/>
		<path style="fill:#FFFFFF;" d="M80.576,9.448c0-0.744-0.252-1.463-1.199-1.463c-0.684,0-1.284,0.312-1.739,0.624l-0.396-0.684
			c0.54-0.348,1.355-0.755,2.291-0.755c1.427,0,2.027,0.947,2.027,2.398v3.574h-0.815l-0.084-0.696h-0.024
			c-0.564,0.456-1.211,0.84-1.931,0.84c-0.983,0-1.715-0.612-1.715-1.655C76.99,10.359,78.093,9.723,80.576,9.448z M78.981,12.494
			c0.563,0,1.031-0.276,1.595-0.78v-1.619c-1.955,0.24-2.615,0.72-2.615,1.463C77.961,12.218,78.405,12.494,78.981,12.494z"/>
		<path style="fill:#FFFFFF;" d="M86.72,9.448c0-0.744-0.252-1.463-1.199-1.463c-0.684,0-1.284,0.312-1.739,0.624l-0.396-0.684
			c0.54-0.348,1.355-0.755,2.291-0.755c1.427,0,2.027,0.947,2.027,2.398v3.574h-0.815l-0.084-0.696H86.78
			c-0.564,0.456-1.211,0.84-1.931,0.84c-0.983,0-1.715-0.612-1.715-1.655C83.134,10.359,84.237,9.723,86.72,9.448z M85.125,12.494
			c0.563,0,1.031-0.276,1.595-0.78v-1.619c-1.955,0.24-2.615,0.72-2.615,1.463C84.105,12.218,84.549,12.494,85.125,12.494z"/>
		<path style="fill:#FFFFFF;" d="M89.565,7.313h0.815l0.084,0.839h0.036c0.504-0.552,1.115-0.983,1.811-0.983
			c0.888,0,1.367,0.42,1.607,1.115c0.612-0.66,1.211-1.115,1.919-1.115c1.2,0,1.775,0.792,1.775,2.279v3.694h-0.984V9.579
			c0-1.091-0.348-1.559-1.079-1.559c-0.456,0-0.923,0.3-1.463,0.899v4.222h-0.983V9.579c0-1.091-0.348-1.559-1.091-1.559
			c-0.432,0-0.923,0.3-1.463,0.899v4.222h-0.983V7.313z"/>
		<path style="fill:#FFFFFF;" d="M99.358,11.822c0.503,0.408,1.02,0.696,1.715,0.696c0.768,0,1.151-0.408,1.151-0.912
			c0-0.6-0.695-0.863-1.331-1.104c-0.828-0.3-1.739-0.695-1.739-1.679c0-0.936,0.744-1.655,2.003-1.655
			c0.732,0,1.367,0.3,1.811,0.66L102.5,8.452c-0.396-0.3-0.815-0.516-1.331-0.516c-0.732,0-1.067,0.396-1.067,0.839
			c0,0.54,0.636,0.756,1.295,1.007c0.84,0.312,1.775,0.66,1.775,1.763c0,0.948-0.756,1.739-2.135,1.739
			c-0.828,0-1.619-0.348-2.171-0.804L99.358,11.822z"/>
		<path style="fill:#FFFFFF;" d="M105.057,11.774c0.384,0,0.708,0.312,0.708,0.768c0,0.432-0.324,0.744-0.708,0.744
			c-0.396,0-0.719-0.312-0.719-0.744C104.338,12.086,104.662,11.774,105.057,11.774z"/>
		<path style="fill:#FFFFFF;" d="M107.529,4.602h0.983v2.327l-0.024,1.055c0.528-0.468,1.175-0.815,1.823-0.815
			c1.511,0,2.314,1.163,2.314,2.962c0,1.991-1.187,3.154-2.519,3.154c-0.54,0-1.151-0.264-1.667-0.72h-0.036l-0.084,0.576h-0.792
			V4.602z M109.94,12.458c0.959,0,1.667-0.875,1.667-2.315c0-1.283-0.432-2.146-1.535-2.146c-0.492,0-1.007,0.276-1.559,0.792v3.058
			C109.028,12.29,109.556,12.458,109.94,12.458z"/>
		<path style="fill:#FFFFFF;" d="M116.372,7.169c1.487,0,2.327,1.067,2.327,2.734c0,0.204-0.012,0.396-0.036,0.54h-3.934
			c0.072,1.259,0.828,2.051,1.943,2.051c0.551,0,1.019-0.18,1.451-0.456l0.348,0.648c-0.504,0.324-1.127,0.6-1.919,0.6
			c-1.559,0-2.794-1.14-2.794-3.046C113.758,8.332,115.041,7.169,116.372,7.169z M117.835,9.795c0-1.188-0.528-1.847-1.439-1.847
			c-0.816,0-1.56,0.672-1.679,1.847H117.835z"/>
	</g>
	<g>
		<path style="fill:#FFFFFF;" d="M125.11,7.802c3.926,0.575,7.133-2.163,9.862-4.37c-0.656,3.111,0.736,5.922,1.512,8.842
			c0.11,0.618,0.024,1.207,0.134,1.824c-3.533-0.517-6.98-1.623-9.776-4.439C126.143,8.956,125.612,8.477,125.11,7.802L125.11,7.802
			z"/>
		<path style="fill:#FFFFFF;" d="M134.952,3.425c4.051-3.016,9.666-4.398,14.626-2.669c-2.25,1.675-3.074,4.562-3.28,7.339
			C143.081,5.418,138.791,4.589,134.952,3.425L134.952,3.425z"/>
		<path style="fill:#FFFFFF;" d="M146.298,8.058c0,0-3.454,0.213-5.113,1.619c-1.658,1.406-1.946,1.983-2.523,2.596
			c-0.451,0.48-0.4,0.51-2.162,1.803c0,0,3.063,0.18,4.975,2.127c1.91,1.947,2.845,3.997,2.845,3.997s1.409-3.168,1.661-6.016
			c0.253-2.848,0.288-3.425,0.288-4.471C146.268,8.667,146.298,8.058,146.298,8.058z"/>
	</g>
</g>
</svg>
