<?xml version="1.0" encoding="iso-8859-1"?>
<!-- Generator: Adobe Illustrator 19.1.0, SVG Export Plug-In . SVG Version: 6.00 Build 0)  -->
<!DOCTYPE svg PUBLIC "-//W3C//DTD SVG 1.1//EN" "http://www.w3.org/Graphics/SVG/1.1/DTD/svg11.dtd">
<svg version="1.1" id="Layer_1" xmlns="http://www.w3.org/2000/svg" xmlns:xlink="http://www.w3.org/1999/xlink" x="0px" y="0px"
	 viewBox="0 0 222.997 317.56" style="enable-background:new 0 0 222.997 317.56;" xml:space="preserve">
<g>
	<g>
		<path style="fill:#231F20;" d="M219.857,296.864c-13.124-21.822-46.378-37.667-85.785-38.917v-0.08l-3-0.081H70.867
			C33.445,257.786,3,227.341,3,189.919V3h148.99c37.422,0,67.866,30.444,67.866,67.866V296.864z"/>
		<path style="fill:#FFFFFF;" d="M151.991,6c17.248,0,33.516,6.769,45.807,19.06s19.06,28.559,19.06,45.807v165.42v24.5v26.774
			c-4.805-5.553-10.994-10.665-18.456-15.174c-16.759-10.127-38.294-16.176-61.33-17.32v-0.28h-6H70.866
			c-17.248,0-33.516-6.769-45.807-19.06S6,207.168,6,189.92V6H151.991 M151.991,0H0v189.92c0,38.976,31.89,70.866,70.866,70.866
			h60.205v0.081h-2.033c51.6,0,93.818,25.512,93.818,56.693v-56.774v-24.5V70.866C222.857,31.89,190.967,0,151.991,0L151.991,0z"/>
	</g>
	<g>
		<path style="fill:#FFFFFF;" d="M84.468,86.032h-11.76v-18.2l-6.37,18.2H54.577l-6.51-18.76v18.76h-11.76v-52.08h11.97
			l12.181,35.14l12.25-35.14h11.76V86.032z"/>
		<path style="fill:#FFFFFF;" d="M128.286,73.152c-0.979,2.475-2.403,4.689-4.27,6.65c-1.914,2.054-4.095,3.617-6.545,4.689
			c-2.45,1.074-5.052,1.609-7.805,1.609h-0.07c-2.707,0-5.285-0.535-7.735-1.609c-2.45-1.072-4.654-2.613-6.614-4.62
			c-1.82-1.96-3.232-4.176-4.235-6.649c-1.004-2.474-1.528-5.11-1.575-7.91v-12.18c0.233-2.474,0.851-4.807,1.855-7
			c1.003-2.193,2.32-4.177,3.955-5.951c1.96-2.006,4.152-3.545,6.579-4.619c2.427-1.073,5.017-1.61,7.771-1.61h0.07
			c2.753,0,5.354,0.537,7.805,1.61c2.45,1.074,4.631,2.613,6.545,4.619c1.68,1.774,3.01,3.758,3.99,5.951
			c0.979,2.193,1.586,4.526,1.819,7v1.539v6.44v4.2C129.78,68.066,129.267,70.679,128.286,73.152z"/>
		<path style="fill:#FFFFFF;" d="M73.688,98.952v52.08h-11.76v-20.16H47.997v20.16h-11.76v-52.08h11.76v20.16h13.931v-20.16H73.688z
			"/>
		<path style="fill:#FFFFFF;" d="M117.997,138.152c-0.979,2.475-2.403,4.689-4.27,6.65c-1.914,2.054-4.095,3.617-6.545,4.689
			c-2.45,1.074-5.052,1.609-7.805,1.609h-0.07c-2.707,0-5.285-0.535-7.735-1.609c-2.45-1.072-4.654-2.613-6.614-4.62
			c-1.82-1.96-3.232-4.176-4.235-6.649c-1.004-2.474-1.528-5.11-1.575-7.91v-12.18c0.233-2.474,0.851-4.807,1.855-7
			c1.003-2.193,2.32-4.177,3.955-5.951c1.96-2.006,4.152-3.545,6.579-4.619c2.427-1.073,5.017-1.61,7.771-1.61h0.07
			c2.753,0,5.354,0.537,7.805,1.61c2.45,1.074,4.631,2.613,6.545,4.619c1.68,1.774,3.01,3.758,3.99,5.951
			c0.979,2.193,1.586,4.526,1.819,7v1.539v6.44v4.2C119.491,133.066,118.978,135.679,117.997,138.152z"/>
		<path style="fill:#FFFFFF;" d="M187.087,98.952l-12.67,52.08h-11.97l-6.86-28.28l-6.86,28.28h-11.97l-12.67-52.08h11.76
			l6.931,28.28l6.859-28.28h11.971l6.859,28.28l6.86-28.28H187.087z"/>
		<path style="fill:#FFFFFF;" d="M70.188,175.712l-20.3,28.56h20.3v11.76h-33.95v-11.76l20.23-28.56h-20.23v-11.761h33.95V175.712z"
			/>
		<path style="fill:#FFFFFF;" d="M86.847,175.712v8.399h14.841v11.76H86.847v8.4h20.16v11.76h-31.92v-52.08h31.92v11.761H86.847z"/>
		<path style="fill:#FFFFFF;" d="M151.456,195.101c0,0.234,0,0.468,0,0.701s-0.023,0.467-0.07,0.699v19.53h-10.85v-2.66
			c-1.4,0.841-2.882,1.505-4.445,1.995s-3.162,0.734-4.795,0.734h-0.069c-2.755,0-5.355-0.535-7.806-1.609
			c-2.449-1.072-4.632-2.613-6.545-4.62c-1.819-1.96-3.231-4.165-4.234-6.614c-1.005-2.451-1.528-5.028-1.575-7.735v-10.78
			c0-2.8,0.502-5.436,1.505-7.91c1.003-2.473,2.438-4.689,4.305-6.65c1.913-2.006,4.096-3.545,6.545-4.619
			c2.45-1.073,5.051-1.61,7.806-1.61h0.069c2.706,0,5.285,0.537,7.735,1.61c2.45,1.074,4.655,2.613,6.615,4.619
			c1.865,2.008,3.301,4.271,4.305,6.791c1.003,2.52,1.505,5.18,1.505,7.979h-11.76c0-1.26-0.222-2.45-0.665-3.569
			c-0.444-1.121-1.05-2.101-1.82-2.94c-0.77-0.841-1.669-1.505-2.694-1.995c-1.027-0.49-2.124-0.734-3.29-0.734
			c-1.167,0-2.252,0.244-3.255,0.734c-1.005,0.49-1.891,1.154-2.66,1.995c-0.771,0.84-1.377,1.819-1.82,2.94
			c-0.444,1.119-0.665,2.31-0.665,3.569v10.149c0,1.261,0.221,2.451,0.665,3.57c0.443,1.12,1.05,2.101,1.82,2.94
			c0.77,0.84,1.655,1.505,2.66,1.995c1.003,0.49,2.088,0.734,3.255,0.734c1.353,0,2.577-0.303,3.675-0.91
			c1.096-0.605,2.041-1.422,2.835-2.449h-6.58v-10.85h20.3V195.101z"/>
		<path style="fill:#FFFFFF;" d="M169.096,200.142h-11.76v-36.19h11.76V200.142z M157.406,216.032v-11.76h11.69v11.76H157.406z"/>
	</g>
</g>
</svg>
