<?xml version="1.0" encoding="iso-8859-1"?>
<!-- Generator: Adobe Illustrator 19.1.0, SVG Export Plug-In . SVG Version: 6.00 Build 0)  -->
<!DOCTYPE svg PUBLIC "-//W3C//DTD SVG 1.1//EN" "http://www.w3.org/Graphics/SVG/1.1/DTD/svg11.dtd">
<svg version="1.1" id="Layer_1" xmlns="http://www.w3.org/2000/svg" xmlns:xlink="http://www.w3.org/1999/xlink" x="0px" y="0px"
	 viewBox="0 0 662.884 255.587" style="enable-background:new 0 0 662.884 255.587;" xml:space="preserve">
<g>
	<g>
		<path style="fill:#EB2F2B;" d="M3,70.893C3,33.471,33.444,3.026,70.866,3.026h588.991v124.92
			c0,37.422-30.444,67.866-67.866,67.866h-63.206v0.081H93.818c-41.591,0-77.14,16.252-90.818,38.997V70.893z"/>
		<path style="fill:#FFFFFF;" d="M656.857,6.027v121.919c0,17.248-6.769,33.516-19.06,45.807
			c-12.291,12.291-28.558,19.06-45.807,19.06h-60.205h-6v0.081H93.819c-26.034,0-50.668,6.222-69.362,17.519
			c-7.462,4.509-13.651,9.622-18.456,15.174v-26.774v-24.5V70.893c0-17.248,6.769-33.516,19.06-45.807
			C37.35,12.795,53.618,6.027,70.866,6.027H656.857 M662.857,0.027H70.866C31.89,0.027,0,31.916,0,70.893v103.419v24.5v56.774
			c0-31.181,42.218-56.693,93.819-56.693h437.967v-0.081h60.205c38.976,0,70.866-31.89,70.866-70.866V0.027L662.857,0.027z"/>
	</g>
	<g>
		<path style="fill:#FFFFFF;" d="M77.188,50.739l-20.3,28.56h20.3v11.76h-33.95v-11.76l20.23-28.56h-20.23V38.979h33.95V50.739z"/>
		<path style="fill:#FFFFFF;" d="M120.867,78.179c-0.98,2.475-2.404,4.689-4.271,6.65c-1.914,2.054-4.095,3.617-6.545,4.689
			c-2.449,1.074-5.052,1.609-7.805,1.609h-0.07c-2.707,0-5.284-0.535-7.734-1.609c-2.45-1.072-4.655-2.613-6.615-4.62
			c-1.82-1.96-3.232-4.176-4.235-6.649c-1.004-2.474-1.527-5.11-1.574-7.91v-12.18c0.232-2.474,0.851-4.807,1.854-7
			c1.003-2.193,2.321-4.177,3.955-5.951c1.96-2.006,4.153-3.545,6.58-4.619c2.426-1.073,5.016-1.61,7.77-1.61h0.07
			c2.753,0,5.355,0.537,7.805,1.61c2.45,1.074,4.631,2.613,6.545,4.619c1.681,1.774,3.011,3.758,3.99,5.951
			c0.98,2.193,1.586,4.526,1.82,7v1.539v6.44v4.2C122.36,73.093,121.847,75.706,120.867,78.179z"/>
		<path style="fill:#FFFFFF;" d="M195.768,50.739l-20.301,28.56h20.301v11.76h-33.951v-11.76l20.23-28.56h-20.23V38.979h33.951
			V50.739z"/>
		<path style="fill:#FFFFFF;" d="M239.446,78.179c-0.98,2.475-2.404,4.689-4.271,6.65c-1.914,2.054-4.095,3.617-6.545,4.689
			c-2.45,1.074-5.052,1.609-7.805,1.609h-0.07c-2.707,0-5.285-0.535-7.734-1.609c-2.45-1.072-4.655-2.613-6.615-4.62
			c-1.82-1.96-3.232-4.176-4.235-6.649c-1.004-2.474-1.528-5.11-1.575-7.91v-12.18c0.233-2.474,0.852-4.807,1.855-7
			c1.003-2.193,2.32-4.177,3.955-5.951c1.96-2.006,4.152-3.545,6.58-4.619c2.426-1.073,5.016-1.61,7.77-1.61h0.07
			c2.753,0,5.354,0.537,7.805,1.61c2.45,1.074,4.631,2.613,6.545,4.619c1.681,1.774,3.01,3.758,3.99,5.951s1.586,4.526,1.82,7v1.539
			v6.44v4.2C240.94,73.093,240.426,75.706,239.446,78.179z"/>
		<path style="fill:#FFFFFF;" d="M280.186,50.739h-11.83v40.319h-11.76V50.739h-11.83V38.979h35.42V50.739z"/>
		<path style="fill:#FFFFFF;" d="M358.795,70.128c0,0.234,0,0.468,0,0.701s-0.024,0.467-0.07,0.699v19.53h-10.85v-2.66
			c-1.4,0.841-2.882,1.505-4.445,1.995s-3.162,0.734-4.795,0.734h-0.07c-2.754,0-5.354-0.535-7.805-1.609
			c-2.45-1.072-4.632-2.613-6.545-4.62c-1.82-1.96-3.232-4.165-4.235-6.614c-1.004-2.451-1.527-5.028-1.574-7.735v-10.78
			c0-2.8,0.502-5.436,1.505-7.91c1.003-2.473,2.438-4.689,4.305-6.65c1.913-2.006,4.095-3.545,6.545-4.619
			c2.45-1.073,5.051-1.61,7.805-1.61h0.07c2.706,0,5.285,0.537,7.735,1.61c2.45,1.074,4.654,2.613,6.614,4.619
			c1.866,2.008,3.302,4.271,4.306,6.791c1.003,2.52,1.505,5.18,1.505,7.979h-11.76c0-1.26-0.223-2.45-0.665-3.569
			c-0.444-1.121-1.05-2.101-1.82-2.94c-0.77-0.841-1.669-1.505-2.695-1.995s-2.124-0.734-3.29-0.734
			c-1.167,0-2.252,0.244-3.255,0.734c-1.004,0.49-1.89,1.154-2.66,1.995c-0.77,0.84-1.377,1.819-1.819,2.94
			c-0.444,1.119-0.665,2.31-0.665,3.569v10.149c0,1.261,0.221,2.451,0.665,3.57c0.442,1.12,1.05,2.101,1.819,2.94
			c0.771,0.84,1.656,1.505,2.66,1.995c1.003,0.49,2.088,0.734,3.255,0.734c1.354,0,2.578-0.303,3.676-0.91
			c1.096-0.605,2.041-1.422,2.835-2.449h-6.58v-10.85h20.3V70.128z"/>
		<path style="fill:#FFFFFF;" d="M376.225,50.739v8.399h14.84v11.76h-14.84v8.4h20.16v11.76h-31.92v-52.08h31.92v11.761H376.225z"/>
		<path style="fill:#FFFFFF;" d="M426.694,79.299v11.76h-25.69v-52.08h11.76v40.32H426.694z"/>
		<path style="fill:#FFFFFF;" d="M442.934,91.059h-11.76v-52.08h11.76V91.059z"/>
		<path style="fill:#FFFFFF;" d="M462.604,65.089l22.12,25.97h-11.761l-13.3-14.771v14.771h-11.76v-52.08h11.76v14.91l13.37-14.91
			h11.76L462.604,65.089z"/>
		<path style="fill:#FFFFFF;" d="M533.933,50.739v8.399h14.84v11.76h-14.84v8.4h20.16v11.76h-31.92v-52.08h31.92v11.761H533.933z"/>
		<path style="fill:#FFFFFF;" d="M597.142,38.979v52.08h-11.899l-14.7-29.12v29.12h-11.76v-52.08h11.97l14.63,29.05v-29.05H597.142z
			"/>
		<path style="fill:#FFFFFF;" d="M70.537,140.898h-9.659l-7,20.16h-12.67l18.06-52.08h12.88l18.061,52.08H77.537L70.537,140.898z"/>
		<path style="fill:#FFFFFF;" d="M113.236,149.368c1.166,0,2.251-0.244,3.255-0.734c1.003-0.49,1.891-1.155,2.66-1.995
			c0.771-0.84,1.376-1.82,1.82-2.94c0.443-1.119,0.665-2.31,0.665-3.57h11.76c0,2.801-0.49,5.461-1.47,7.98
			c-0.98,2.52-2.427,4.784-4.34,6.79c-1.914,2.007-4.096,3.548-6.545,4.62c-2.45,1.074-5.053,1.609-7.806,1.609h-0.069
			c-2.755,0-5.345-0.535-7.771-1.609c-2.427-1.072-4.62-2.613-6.58-4.62c-1.819-1.96-3.231-4.165-4.234-6.614
			c-1.003-2.451-1.528-5.028-1.575-7.735v-10.78c0.047-2.8,0.56-5.436,1.54-7.91c0.979-2.473,2.402-4.689,4.27-6.65
			c1.96-2.006,4.153-3.545,6.58-4.619c2.426-1.073,5.016-1.61,7.771-1.61h0.069c2.753,0,5.355,0.537,7.806,1.61
			c2.449,1.074,4.631,2.613,6.545,4.619c1.913,2.008,3.359,4.271,4.34,6.791c0.979,2.52,1.47,5.18,1.47,7.979h-11.76
			c0-1.26-0.222-2.45-0.665-3.569c-0.444-1.121-1.05-2.101-1.82-2.94c-0.77-0.841-1.657-1.505-2.66-1.995
			c-1.004-0.49-2.089-0.734-3.255-0.734c-1.167,0-2.264,0.244-3.29,0.734s-1.925,1.154-2.694,1.995
			c-0.771,0.84-1.377,1.819-1.82,2.94c-0.444,1.119-0.665,2.31-0.665,3.569v10.149c0,1.261,0.221,2.451,0.665,3.57
			c0.443,1.12,1.05,2.101,1.82,2.94c0.77,0.84,1.668,1.505,2.694,1.995S112.069,149.368,113.236,149.368z"/>
		<path style="fill:#FFFFFF;" d="M174.836,108.979v52.08h-11.761v-20.16h-13.93v20.16h-11.76v-52.08h11.76v20.16h13.93v-20.16
			H174.836z"/>
		<path style="fill:#FFFFFF;" d="M215.155,120.739h-11.83v40.319h-11.76v-40.319h-11.83v-11.761h35.42V120.739z"/>
		<path style="fill:#FFFFFF;" d="M230.694,120.739v8.399h14.84v11.76h-14.84v8.4h20.16v11.76h-31.92v-52.08h31.92v11.761H230.694z"
			/>
		<path style="fill:#FFFFFF;" d="M276.474,161.059l-9.1-19.74h-0.141v19.74h-11.76v-52.08h15.82h0.069
			c2.24,0,4.352,0.42,6.335,1.261c1.983,0.84,3.71,1.994,5.181,3.465c1.47,1.47,2.625,3.185,3.465,5.145s1.26,4.061,1.26,6.3
			c0,3.175-0.817,6.032-2.45,8.575c-1.634,2.544-3.779,4.492-6.439,5.845l9.87,21.49H276.474z"/>
		<path style="fill:#FFFFFF;" d="M328.833,135.019c0,3.5-0.654,6.825-1.96,9.975c-1.308,3.15-3.221,5.985-5.74,8.506
			c-2.334,2.287-4.959,4.072-7.875,5.354c-2.917,1.284-5.985,2.019-9.205,2.205h-1.54h-10.5v-52.08h10.5
			c3.5,0,6.848,0.642,10.045,1.925c3.196,1.284,6.055,3.162,8.575,5.635c2.52,2.521,4.433,5.355,5.74,8.506
			C328.179,128.193,328.833,131.519,328.833,135.019z"/>
		<path style="fill:#FFFFFF;" d="M344.443,120.739v8.399h14.84v11.76h-14.84v8.4h20.16v11.76h-31.92v-52.08h31.92v11.761H344.443z"
			/>
		<path style="fill:#FFFFFF;" d="M409.682,140.269c-0.047,2.754-0.56,5.367-1.54,7.84c-0.979,2.475-2.404,4.69-4.27,6.65
			c-1.914,2.054-4.096,3.617-6.545,4.689c-2.45,1.074-5.053,1.61-7.806,1.61h-0.069c-2.707,0-5.285-0.536-7.735-1.61
			c-2.45-1.072-4.655-2.636-6.615-4.689c-1.82-1.96-3.231-4.176-4.235-6.65c-1.004-2.473-1.528-5.086-1.574-7.84v-31.359h11.76
			v31.149c0,1.26,0.221,2.45,0.665,3.569c0.442,1.121,1.05,2.101,1.82,2.94c0.77,0.841,1.668,1.505,2.694,1.995
			s2.123,0.735,3.29,0.735c1.166,0,2.251-0.245,3.255-0.735c1.003-0.49,1.891-1.154,2.66-1.995c0.771-0.84,1.376-1.819,1.82-2.94
			c0.442-1.119,0.665-2.31,0.665-3.569v-31.149h11.76V140.269z"/>
		<path style="fill:#FFFFFF;" d="M434.812,161.059l-9.1-19.74h-0.141v19.74h-11.76v-52.08h15.82h0.069
			c2.24,0,4.352,0.42,6.335,1.261c1.983,0.84,3.71,1.994,5.181,3.465c1.47,1.47,2.625,3.185,3.465,5.145s1.26,4.061,1.26,6.3
			c0,3.175-0.817,6.032-2.45,8.575c-1.634,2.544-3.779,4.492-6.439,5.845l9.87,21.49H434.812z"/>
		<path style="fill:#FFFFFF;" d="M462.11,120.739v8.399h14.84v11.76h-14.84v8.4h20.16v11.76h-31.92v-52.08h31.92v11.761H462.11z"/>
	</g>
</g>
</svg>
