<?xml version="1.0" encoding="iso-8859-1"?>
<!-- Generator: Adobe Illustrator 19.1.0, SVG Export Plug-In . SVG Version: 6.00 Build 0)  -->
<!DOCTYPE svg PUBLIC "-//W3C//DTD SVG 1.1//EN" "http://www.w3.org/Graphics/SVG/1.1/DTD/svg11.dtd">
<svg version="1.1" id="Layer_1" xmlns="http://www.w3.org/2000/svg" xmlns:xlink="http://www.w3.org/1999/xlink" x="0px" y="0px"
	 viewBox="0 0 464.663 561.967" style="enable-background:new 0 0 464.663 561.967;" xml:space="preserve">
<g>
	<g>
		<path style="fill:#EB2F2B;" d="M3,138.35c0-36.001,14.121-69.948,39.763-95.589C68.403,17.121,102.35,3,138.351,3h323.312v309.777
			c0,36.001-14.121,69.948-39.762,95.589s-59.588,39.762-95.589,39.762H205.774v0.159h-22.613c-86.429,0-159.292,36.158-180.161,85
			V138.35z"/>
		<path style="fill:#FFFFFF;" d="M458.663,6v306.777c0,35.199-13.809,68.394-38.883,93.468s-58.269,38.883-93.468,38.883H208.774h-6
			v0.158h-19.613c-49.8,0-96.842,11.854-132.46,33.377c-17.57,10.617-31.417,23.025-41.156,36.877
			c-1.257,1.789-2.438,3.59-3.544,5.405v-69.818v-47.831V138.351c0-35.199,13.809-68.394,38.883-93.468S103.152,6,138.351,6H458.663
			 M464.663,0H138.351C62.258,0,0,62.258,0,138.351v264.946v47.831v110.839c0-60.875,82.422-110.681,183.161-110.681h25.613v-0.158
			h117.538c76.093,0,138.351-62.258,138.351-138.351V0L464.663,0z"/>
	</g>
	<g>
		<path style="fill:#FFFFFF;" d="M123.77,127.016c-0.068,3.197-0.732,6.207-1.989,9.027c-1.259,2.822-2.942,5.271-5.05,7.344
			c-2.107,2.076-4.59,3.725-7.445,4.947c-2.855,1.225-5.883,1.836-9.078,1.836c-3.264,0-6.309-0.611-9.129-1.836
			c-2.822-1.223-5.305-2.906-7.446-5.049s-3.825-4.641-5.049-7.496c-1.224-2.857-1.836-5.916-1.836-9.18h17.136
			c0,1.768,0.612,3.281,1.836,4.537c1.225,1.26,2.719,1.889,4.488,1.889c1.768,0,3.279-0.629,4.539-1.889
			c1.258-1.256,1.887-2.77,1.887-4.537V74.284h17.137V127.016z"/>
		<path style="fill:#FFFFFF;" d="M147.944,91.419v12.24h21.624v17.137h-21.624v12.24h29.376v17.135h-46.513V74.284h46.513v17.135
			H147.944z"/>
		<path style="fill:#FFFFFF;" d="M201.186,91.419v12.24h21.624v17.137h-21.624v12.24h29.376v17.135H184.05V74.284h46.512v17.135
			H201.186z"/>
		<path style="fill:#FFFFFF;" d="M287.988,91.419H270.75v58.752h-17.136V91.419h-17.238V74.284h51.612V91.419z"/>
		<path style="fill:#FFFFFF;" d="M116.528,230.796h-14.076l-10.2,29.375H73.79l26.316-75.887h18.768l26.316,75.887h-18.463
			L116.528,230.796z"/>
		<path style="fill:#FFFFFF;" d="M250.86,201.419l-29.58,41.617h29.58v17.135h-49.47v-17.135l29.478-41.617H201.39v-17.135h49.47
			V201.419z"/>
		<path style="fill:#FFFFFF;" d="M275.135,201.419v12.24h21.624v17.137h-21.624v12.24h29.376v17.135H258v-75.887h46.512v17.135
			H275.135z"/>
		<path style="fill:#FFFFFF;" d="M107.348,370.171l-13.261-28.764h-0.204v28.764H76.748v-75.887h23.052h0.102
			c3.265,0,6.341,0.611,9.231,1.836c2.89,1.223,5.406,2.906,7.548,5.049c2.143,2.141,3.825,4.641,5.049,7.496
			c1.225,2.855,1.836,5.916,1.836,9.18c0,4.625-1.189,8.791-3.569,12.496c-2.382,3.707-5.508,6.545-9.384,8.516l14.382,31.314
			H107.348z"/>
		<path style="fill:#FFFFFF;" d="M147.126,311.419v12.24h21.623v17.137h-21.623v12.24h29.375v17.135h-46.511v-75.887h46.511v17.135
			H147.126z"/>
		<path style="fill:#FFFFFF;" d="M204.653,332.329l32.232,37.842h-17.137l-19.38-21.521v21.521h-17.136v-75.887h17.136v21.725
			l19.482-21.725h17.136L204.653,332.329z"/>
		<path style="fill:#FFFFFF;" d="M261.874,332.329l32.232,37.842h-17.137l-19.38-21.521v21.521h-17.136v-75.887h17.136v21.725
			l19.482-21.725h17.136L261.874,332.329z"/>
		<path style="fill:#FFFFFF;" d="M314.81,311.419v12.24h21.624v17.137H314.81v12.24h29.376v17.135h-46.512v-75.887h46.512v17.135
			H314.81z"/>
		<path style="fill:#FFFFFF;" d="M381.517,370.171l-13.26-28.764h-0.204v28.764h-17.136v-75.887h23.052h0.103
			c3.264,0,6.34,0.611,9.23,1.836c2.89,1.223,5.406,2.906,7.548,5.049c2.143,2.141,3.825,4.641,5.05,7.496
			c1.224,2.855,1.836,5.916,1.836,9.18c0,4.625-1.19,8.791-3.57,12.496c-2.381,3.707-5.508,6.545-9.384,8.516l14.382,31.314H381.517
			z"/>
	</g>
</g>
</svg>
