<?xml version="1.0" encoding="iso-8859-1"?>
<!-- Generator: Adobe Illustrator 19.1.0, SVG Export Plug-In . SVG Version: 6.00 Build 0)  -->
<!DOCTYPE svg PUBLIC "-//W3C//DTD SVG 1.1//EN" "http://www.w3.org/Graphics/SVG/1.1/DTD/svg11.dtd">
<svg version="1.1" id="Layer_1" xmlns="http://www.w3.org/2000/svg" xmlns:xlink="http://www.w3.org/1999/xlink" x="0px" y="0px"
	 viewBox="0 0 454.321 395.224" style="enable-background:new 0 0 454.321 395.224;" xml:space="preserve">
<g>
	<g>
		<path style="fill:#231F20;" d="M451.303,370.481c-17.922-36.998-73.944-64.061-140.096-64.061H202.915v-0.124h-94.827
			C50.142,306.296,3,259.153,3,201.208V3h343.215c57.945,0,105.088,47.143,105.088,105.088V370.481z"/>
		<path style="fill:#FFFFFF;" d="M346.215,6c27.149,0,52.753,10.652,72.094,29.993s29.993,44.945,29.993,72.094v163.841v37.368
			v50.03c-7.602-10.987-18.695-21.038-32.931-29.641c-28.029-16.938-65.022-26.265-104.164-26.265H205.915v-0.124h-6h-91.827
			c-27.149,0-52.753-10.652-72.094-29.994C16.652,253.961,6,228.358,6,201.209V6H346.215 M346.215,0H0v201.209
			c0,59.448,48.64,108.088,108.088,108.088h91.827v0.124h111.292c78.703,0,143.096,38.912,143.096,86.47v-86.594v-37.368V108.088
			C454.303,48.639,405.664,0,346.215,0L346.215,0z"/>
	</g>
	<g>
		<path style="fill:#FFFFFF;" d="M90.062,61.545h-11.83v40.32h-11.76v-40.32h-11.83v-11.76h35.42V61.545z"/>
		<path style="fill:#FFFFFF;" d="M105.602,61.545v8.4h14.84v11.76h-14.84v8.4h20.16v11.76h-31.92v-52.08h31.92v11.76H105.602z"/>
		<path style="fill:#FFFFFF;" d="M162.581,85.695c0,0.84-0.059,1.657-0.175,2.45c-0.117,0.794-0.292,1.587-0.525,2.38
			c-0.514,1.634-1.26,3.149-2.24,4.55c-0.98,1.4-2.147,2.603-3.5,3.605c-1.354,1.004-2.847,1.784-4.48,2.345
			c-1.634,0.56-3.36,0.84-5.18,0.84c-2.24,0-4.329-0.42-6.265-1.26c-1.937-0.84-3.64-1.995-5.11-3.465
			c-1.47-1.471-2.625-3.186-3.465-5.146c-0.84-1.96-1.26-4.06-1.26-6.3h11.76c0,1.214,0.42,2.252,1.26,3.115s1.866,1.295,3.08,1.295
			c0.98,0,1.843-0.291,2.59-0.875c0.746-0.583,1.26-1.318,1.54-2.205c0.14-0.373,0.21-0.793,0.21-1.26c0-1.213-0.42-2.193-1.26-2.94
			c-0.84-0.746-1.867-1.12-3.08-1.12c-2.24,0-4.329-0.408-6.265-1.225c-1.937-0.816-3.64-1.937-5.11-3.36
			c-1.47-1.423-2.625-3.091-3.465-5.005c-0.84-1.913-1.26-3.99-1.26-6.23c0-0.793,0.058-1.586,0.175-2.38
			c0.116-0.793,0.291-1.586,0.525-2.38c0.513-1.633,1.26-3.149,2.24-4.55s2.146-2.601,3.5-3.604c1.353-1.004,2.846-1.785,4.48-2.346
			c1.633-0.56,3.36-0.84,5.18-0.84c2.24,0,4.328,0.42,6.265,1.26c1.936,0.84,3.64,1.995,5.11,3.465
			c1.47,1.471,2.625,3.186,3.465,5.146s1.26,4.037,1.26,6.229h-11.76c0-1.213-0.42-2.239-1.26-3.079
			c-0.84-0.841-1.867-1.261-3.08-1.261c-0.98,0-1.844,0.292-2.59,0.875c-0.747,0.584-1.26,1.319-1.54,2.205
			c-0.14,0.327-0.21,0.747-0.21,1.26c0,1.215,0.42,2.194,1.26,2.94c0.84,0.747,1.866,1.12,3.08,1.12c2.24,0,4.328,0.409,6.265,1.225
			c1.936,0.817,3.64,1.938,5.11,3.36c1.47,1.424,2.625,3.092,3.465,5.005C162.161,81.449,162.581,83.502,162.581,85.695z"/>
		<path style="fill:#FFFFFF;" d="M213.68,61.545v8.4h14.84v11.76h-14.84v8.4h20.16v11.76h-31.92v-52.08h31.92v11.76H213.68z"/>
		<path style="fill:#FFFFFF;" d="M77.952,145.896c2.24,1.167,4.036,2.835,5.39,5.005c1.353,2.17,2.03,4.585,2.03,7.245
			c0,1.914-0.362,3.71-1.085,5.39c-0.724,1.68-1.704,3.139-2.94,4.375c-1.237,1.237-2.695,2.217-4.375,2.94
			c-1.68,0.724-3.477,1.085-5.39,1.085h-0.35h-15.96v-52.08h15.96h0.35c1.913,0,3.71,0.361,5.39,1.085
			c1.68,0.724,3.138,1.704,4.375,2.939c1.236,1.237,2.216,2.695,2.94,4.375c0.723,1.681,1.085,3.478,1.085,5.391
			c0,2.66-0.677,5.075-2.03,7.245C81.988,143.061,80.192,144.73,77.952,145.896z"/>
		<path style="fill:#FFFFFF;" d="M101.682,131.545v8.4h14.84v11.76h-14.84v8.4h20.16v11.76h-31.92v-52.08h31.92v11.76H101.682z"/>
		<path style="fill:#FFFFFF;" d="M158.661,155.695c0,0.84-0.059,1.657-0.175,2.45c-0.117,0.794-0.292,1.587-0.525,2.38
			c-0.514,1.634-1.26,3.149-2.24,4.55c-0.98,1.4-2.147,2.603-3.5,3.605c-1.354,1.004-2.847,1.784-4.48,2.345
			c-1.634,0.56-3.36,0.84-5.18,0.84c-2.24,0-4.329-0.42-6.265-1.26c-1.937-0.84-3.64-1.995-5.11-3.465
			c-1.47-1.471-2.625-3.186-3.465-5.146c-0.84-1.96-1.26-4.06-1.26-6.3h11.76c0,1.214,0.42,2.252,1.26,3.115s1.866,1.295,3.08,1.295
			c0.98,0,1.843-0.291,2.59-0.875c0.746-0.583,1.26-1.318,1.54-2.205c0.14-0.373,0.21-0.793,0.21-1.26c0-1.213-0.42-2.193-1.26-2.94
			c-0.84-0.746-1.867-1.12-3.08-1.12c-2.24,0-4.329-0.408-6.265-1.225c-1.937-0.816-3.64-1.937-5.11-3.36
			c-1.47-1.423-2.625-3.091-3.465-5.005c-0.84-1.913-1.26-3.99-1.26-6.23c0-0.793,0.058-1.586,0.175-2.38
			c0.116-0.793,0.291-1.586,0.525-2.38c0.513-1.633,1.26-3.149,2.24-4.55s2.146-2.601,3.5-3.604c1.353-1.004,2.846-1.785,4.48-2.346
			c1.633-0.56,3.36-0.84,5.18-0.84c2.24,0,4.328,0.42,6.265,1.26c1.936,0.84,3.64,1.995,5.11,3.465
			c1.47,1.471,2.625,3.186,3.465,5.146s1.26,4.037,1.26,6.229h-11.76c0-1.213-0.42-2.239-1.26-3.079
			c-0.84-0.841-1.867-1.261-3.08-1.261c-0.98,0-1.844,0.292-2.59,0.875c-0.747,0.584-1.26,1.319-1.54,2.205
			c-0.14,0.327-0.21,0.747-0.21,1.26c0,1.215,0.42,2.194,1.26,2.94c0.84,0.747,1.866,1.12,3.08,1.12c2.24,0,4.328,0.409,6.265,1.225
			c1.936,0.817,3.64,1.938,5.11,3.36c1.47,1.424,2.625,3.092,3.465,5.005C158.241,151.449,158.661,153.502,158.661,155.695z"/>
		<path style="fill:#FFFFFF;" d="M182.46,160.175c1.166,0,2.251-0.244,3.255-0.734c1.003-0.49,1.891-1.155,2.66-1.995
			s1.376-1.82,1.82-2.94c0.442-1.12,0.665-2.31,0.665-3.569h11.76c0,2.8-0.49,5.46-1.47,7.979c-0.98,2.521-2.428,4.784-4.341,6.79
			c-1.914,2.007-4.095,3.547-6.545,4.62c-2.449,1.074-5.052,1.61-7.805,1.61h-0.07c-2.754,0-5.344-0.536-7.77-1.61
			c-2.427-1.073-4.62-2.613-6.58-4.62c-1.82-1.96-3.232-4.165-4.235-6.615c-1.003-2.449-1.528-5.027-1.575-7.734v-10.78
			c0.047-2.8,0.56-5.436,1.54-7.91c0.98-2.473,2.403-4.689,4.27-6.649c1.96-2.006,4.153-3.546,6.58-4.62
			c2.426-1.073,5.016-1.61,7.77-1.61h0.07c2.753,0,5.355,0.537,7.805,1.61c2.45,1.074,4.631,2.614,6.545,4.62
			c1.913,2.007,3.36,4.27,4.341,6.79c0.979,2.52,1.47,5.18,1.47,7.979h-11.76c0-1.26-0.223-2.45-0.665-3.57
			c-0.444-1.119-1.051-2.1-1.82-2.939s-1.657-1.505-2.66-1.995c-1.004-0.49-2.089-0.735-3.255-0.735
			c-1.167,0-2.264,0.245-3.29,0.735c-1.027,0.49-1.925,1.155-2.695,1.995s-1.377,1.82-1.82,2.939
			c-0.444,1.12-0.665,2.311-0.665,3.57v10.15c0,1.26,0.221,2.449,0.665,3.569c0.443,1.12,1.05,2.101,1.82,2.94
			s1.668,1.505,2.695,1.995C180.196,159.931,181.293,160.175,182.46,160.175z"/>
		<path style="fill:#FFFFFF;" d="M244.06,119.785v52.08H232.3v-20.16h-13.931v20.16h-11.76v-52.08h11.76v20.16H232.3v-20.16H244.06z
			"/>
		<path style="fill:#FFFFFF;" d="M261.349,131.545v8.4h14.84v11.76h-14.84v8.4h20.16v11.76h-31.92v-52.08h31.92v11.76H261.349z"/>
		<path style="fill:#FFFFFF;" d="M320.918,131.545h-11.83v40.32h-11.76v-40.32h-11.83v-11.76h35.42V131.545z"/>
		<path style="fill:#FFFFFF;" d="M336.457,131.545v8.4h14.84v11.76h-14.84v8.4h20.16v11.76h-31.92v-52.08h31.92v11.76H336.457z"/>
		<path style="fill:#FFFFFF;" d="M399.666,119.785v52.08h-11.899l-14.7-29.12v29.12h-11.76v-52.08h11.97l14.63,29.05v-29.05H399.666
			z"/>
		<path style="fill:#FFFFFF;" d="M69.972,215.896l22.12,25.97h-11.76l-13.3-14.77v14.77h-11.76v-52.08h11.76v14.91l13.37-14.91
			h11.76L69.972,215.896z"/>
		<path style="fill:#FFFFFF;" d="M133.321,228.986c-0.98,2.474-2.404,4.689-4.27,6.649c-1.914,2.055-4.095,3.617-6.545,4.69
			c-2.45,1.074-5.052,1.61-7.805,1.61h-0.07c-2.707,0-5.285-0.536-7.735-1.61c-2.45-1.073-4.655-2.613-6.615-4.62
			c-1.82-1.96-3.232-4.176-4.235-6.649c-1.004-2.474-1.528-5.11-1.575-7.91v-12.181c0.233-2.473,0.851-4.806,1.855-7
			c1.003-2.192,2.321-4.176,3.955-5.949c1.96-2.006,4.153-3.546,6.58-4.62c2.426-1.073,5.016-1.61,7.77-1.61h0.07
			c2.753,0,5.355,0.537,7.805,1.61c2.45,1.074,4.631,2.614,6.545,4.62c1.68,1.773,3.01,3.757,3.99,5.949
			c0.98,2.194,1.586,4.527,1.82,7v1.54v6.44v4.2C134.814,223.9,134.301,226.513,133.321,228.986z"/>
		<path style="fill:#FFFFFF;" d="M187.501,241.865h-11.76v-18.2l-6.37,18.2h-11.76l-6.51-18.76v18.76h-11.76v-52.08h11.97
			l12.18,35.14l12.25-35.14h11.76V241.865z"/>
		<path style="fill:#FFFFFF;" d="M204.3,241.865h-11.76v-52.08h11.76V241.865z"/>
		<path style="fill:#FFFFFF;" d="M241.47,225.695c0,0.84-0.06,1.657-0.175,2.45c-0.117,0.794-0.292,1.587-0.525,2.38
			c-0.514,1.634-1.26,3.149-2.24,4.55c-0.979,1.4-2.146,2.603-3.5,3.605c-1.354,1.004-2.847,1.784-4.479,2.345
			c-1.635,0.56-3.36,0.84-5.181,0.84c-2.239,0-4.329-0.42-6.265-1.26c-1.937-0.84-3.64-1.995-5.11-3.465
			c-1.47-1.471-2.625-3.186-3.465-5.146s-1.26-4.06-1.26-6.3h11.76c0,1.214,0.42,2.252,1.26,3.115
			c0.841,0.863,1.866,1.295,3.08,1.295c0.98,0,1.844-0.291,2.591-0.875c0.745-0.583,1.26-1.318,1.54-2.205
			c0.14-0.373,0.21-0.793,0.21-1.26c0-1.213-0.421-2.193-1.261-2.94c-0.84-0.746-1.867-1.12-3.08-1.12
			c-2.239,0-4.329-0.408-6.265-1.225c-1.937-0.816-3.64-1.937-5.11-3.36c-1.47-1.423-2.625-3.091-3.465-5.005
			c-0.84-1.913-1.26-3.99-1.26-6.23c0-0.793,0.058-1.586,0.175-2.38c0.116-0.793,0.291-1.586,0.525-2.38
			c0.513-1.633,1.26-3.149,2.24-4.55c0.979-1.4,2.146-2.601,3.5-3.604c1.353-1.004,2.846-1.785,4.479-2.346
			c1.633-0.56,3.36-0.84,5.18-0.84c2.24,0,4.328,0.42,6.266,1.26c1.936,0.84,3.64,1.995,5.109,3.465
			c1.471,1.471,2.625,3.186,3.466,5.146c0.84,1.96,1.26,4.037,1.26,6.229h-11.76c0-1.213-0.421-2.239-1.261-3.079
			c-0.84-0.841-1.867-1.261-3.08-1.261c-0.979,0-1.844,0.292-2.59,0.875c-0.747,0.584-1.26,1.319-1.54,2.205
			c-0.14,0.327-0.21,0.747-0.21,1.26c0,1.215,0.42,2.194,1.26,2.94c0.841,0.747,1.866,1.12,3.08,1.12
			c2.24,0,4.328,0.409,6.266,1.225c1.936,0.817,3.64,1.938,5.109,3.36c1.471,1.424,2.625,3.092,3.466,5.005
			C241.05,221.449,241.47,223.502,241.47,225.695z"/>
		<path style="fill:#FFFFFF;" d="M278.078,225.976c-0.047,2.193-0.502,4.259-1.364,6.194c-0.864,1.938-2.02,3.617-3.465,5.04
			c-1.447,1.425-3.15,2.556-5.11,3.396s-4.037,1.26-6.23,1.26c-2.239,0-4.329-0.42-6.265-1.26c-1.937-0.84-3.64-1.995-5.11-3.465
			c-1.47-1.471-2.625-3.186-3.465-5.146s-1.26-4.06-1.26-6.3h11.76c0,1.214,0.42,2.252,1.26,3.115
			c0.841,0.863,1.866,1.295,3.08,1.295c1.213,0,2.251-0.432,3.115-1.295c0.863-0.863,1.295-1.901,1.295-3.115v-35.91h11.76V225.976z
			"/>
		<path style="fill:#FFFFFF;" d="M294.668,201.545v8.4h14.84v11.76h-14.84v8.4h20.16v11.76h-31.92v-52.08h31.92v11.76H294.668z"/>
	</g>
</g>
</svg>
