<?xml version="1.0" encoding="iso-8859-1"?>
<!-- Generator: Adobe Illustrator 19.1.0, SVG Export Plug-In . SVG Version: 6.00 Build 0)  -->
<!DOCTYPE svg PUBLIC "-//W3C//DTD SVG 1.1//EN" "http://www.w3.org/Graphics/SVG/1.1/DTD/svg11.dtd">
<svg version="1.1" id="Layer_1" xmlns="http://www.w3.org/2000/svg" xmlns:xlink="http://www.w3.org/1999/xlink" x="0px" y="0px"
	 viewBox="0 0 844.663 451.967" style="enable-background:new 0 0 844.663 451.967;" xml:space="preserve">
<g>
	<g>
		<path style="fill:#EB2F2B;" d="M138.351,448.967c-36.001,0-69.948-14.121-95.589-39.762S3,349.618,3,313.617V28.68
			c20.869,48.843,93.731,85.001,180.16,85.001h402.613v0.158h120.538c36.001,0,69.948,14.121,95.589,39.762
			s39.762,59.588,39.762,95.589v199.777H138.351z"/>
		<path style="fill:#FFFFFF;" d="M6,41.021c1.106,1.815,2.287,3.617,3.544,5.405C19.283,60.279,33.13,72.686,50.7,83.304
			c35.619,21.523,82.66,33.377,132.46,33.377h399.613v0.159h6h117.538c35.199,0,68.394,13.809,93.468,38.883
			s38.883,58.269,38.883,93.468v196.777H138.351c-35.199,0-68.394-13.809-93.468-38.883C19.809,382.01,6,348.816,6,313.616V158.671
			v-47.831V41.021 M0,0v110.839v47.831v154.946c0,76.093,62.258,138.351,138.351,138.351h706.312V249.191
			c0-76.093-62.258-138.351-138.351-138.351H588.774v-0.159H183.16C82.422,110.681,0,60.875,0,0L0,0z"/>
	</g>
	<g>
		<path style="fill:#FFFFFF;" d="M93.679,175.778v17.137l-5.406,9.486H77.869l5.405-9.486h-6.63v-17.137H93.679z"/>
		<path style="fill:#FFFFFF;" d="M151.615,192.915h-17.237v58.752H117.24v-58.752h-17.237v-17.137h51.611V192.915z"/>
		<path style="fill:#FFFFFF;" d="M225.258,251.667h-17.136v-75.889h17.136V251.667z"/>
		<path style="fill:#FFFFFF;" d="M279.42,228.104c0,1.225-0.086,2.414-0.255,3.57c-0.171,1.156-0.426,2.312-0.765,3.467
			c-0.749,2.383-1.836,4.592-3.265,6.631c-1.428,2.041-3.128,3.791-5.1,5.254c-1.974,1.463-4.148,2.6-6.528,3.416
			c-2.381,0.816-4.896,1.225-7.548,1.225c-3.264,0-6.308-0.613-9.129-1.836c-2.822-1.225-5.304-2.908-7.446-5.049
			c-2.142-2.143-3.825-4.643-5.049-7.498s-1.836-5.916-1.836-9.18h17.136c0,1.77,0.612,3.281,1.836,4.539
			c1.225,1.26,2.72,1.887,4.488,1.887c1.428,0,2.686-0.424,3.774-1.275c1.087-0.85,1.836-1.92,2.243-3.213
			c0.204-0.543,0.307-1.154,0.307-1.836c0-1.768-0.612-3.195-1.836-4.283c-1.225-1.088-2.721-1.633-4.488-1.633
			c-3.264,0-6.308-0.594-9.129-1.785c-2.822-1.188-5.304-2.82-7.446-4.895c-2.142-2.074-3.825-4.504-5.049-7.293
			s-1.836-5.814-1.836-9.078c0-1.156,0.084-2.312,0.255-3.469c0.169-1.156,0.424-2.311,0.765-3.469
			c0.748-2.379,1.837-4.59,3.265-6.629c1.428-2.041,3.127-3.791,5.1-5.254c1.972-1.461,4.147-2.6,6.528-3.416
			c2.379-0.816,4.896-1.225,7.548-1.225c3.264,0,6.307,0.611,9.129,1.836c2.821,1.225,5.304,2.908,7.446,5.049
			c2.142,2.143,3.825,4.641,5.049,7.498c1.224,2.855,1.836,5.883,1.836,9.078h-17.136c0-1.768-0.612-3.266-1.836-4.488
			c-1.225-1.225-2.721-1.836-4.488-1.836c-1.428,0-2.688,0.426-3.774,1.275c-1.088,0.85-1.836,1.922-2.243,3.213
			c-0.204,0.477-0.307,1.088-0.307,1.836c0,1.768,0.612,3.197,1.836,4.283c1.225,1.088,2.72,1.633,4.488,1.633
			c3.264,0,6.307,0.596,9.129,1.785c2.821,1.189,5.304,2.822,7.446,4.895c2.142,2.076,3.825,4.506,5.049,7.293
			C278.808,221.917,279.42,224.909,279.42,228.104z"/>
		<path style="fill:#FFFFFF;" d="M407.429,175.778l-26.418,75.889h-17.34l-26.418-75.889h17.137l17.951,51.611l17.952-51.611
			H407.429z"/>
		<path style="fill:#FFFFFF;" d="M450.166,222.29H436.09l-10.2,29.377h-18.462l26.316-75.889h18.768l26.316,75.889h-18.462
			L450.166,222.29z"/>
		<path style="fill:#FFFFFF;" d="M540.027,175.778v75.889h-17.34l-21.42-42.432v42.432H484.13v-75.889h17.442l21.318,42.33v-42.33
			H540.027z"/>
		<path style="fill:#FFFFFF;" d="M634.069,234.53v17.137h-37.434v-75.889h17.136v58.752H634.069z"/>
		<path style="fill:#FFFFFF;" d="M657.733,192.915v12.24h21.624v17.135h-21.624v12.24h29.376v17.137h-46.512v-75.889h46.512v17.137
			H657.733z"/>
		<path style="fill:#FFFFFF;" d="M715.26,213.825l32.232,37.842h-17.137l-19.38-21.523v21.523H693.84v-75.889h17.136v21.727
			l19.482-21.727h17.136L715.26,213.825z"/>
		<path style="fill:#FFFFFF;" d="M147.025,361.667h-17.136v-26.52l-9.282,26.52h-17.136l-9.486-27.336v27.336H76.849v-75.889h17.442
			l17.748,51.205l17.85-51.205h17.136V361.667z"/>
		<path style="fill:#FFFFFF;" d="M171.503,361.667h-17.136v-75.889h17.136V361.667z"/>
		<path style="fill:#FFFFFF;" d="M195.881,302.915v12.24h21.624v17.135h-21.624v12.24h29.376v17.137h-46.512v-75.889h46.512v17.137
			H195.881z"/>
		<path style="fill:#FFFFFF;" d="M287.987,285.778v75.889h-17.34l-21.42-42.432v42.432H232.09v-75.889h17.442l21.318,42.33v-42.33
			H287.987z"/>
		<path style="fill:#FFFFFF;" d="M382.029,344.53v17.137h-37.434v-75.889h17.136v58.752H382.029z"/>
		<path style="fill:#FFFFFF;" d="M405.693,361.667h-17.136v-75.889h17.136V361.667z"/>
		<path style="fill:#FFFFFF;" d="M445.269,287.614c2.856,1.225,5.355,2.908,7.497,5.049c2.142,2.143,3.825,4.641,5.049,7.498
			c1.224,2.855,1.836,5.916,1.836,9.18s-0.612,6.324-1.836,9.18s-2.907,5.355-5.049,7.496c-2.142,2.143-4.641,3.826-7.497,5.051
			c-2.856,1.223-5.916,1.836-9.18,1.836h-0.103h-5.916v28.764h-17.136v-75.889h23.052h0.103
			C439.353,285.778,442.412,286.389,445.269,287.614z"/>
		<path style="fill:#FFFFFF;" d="M514.323,302.915h-17.238v58.752h-17.136v-58.752H462.71v-17.137h51.612V302.915z"/>
		<path style="fill:#FFFFFF;" d="M566.852,338.512c-0.069,3.197-0.732,6.205-1.989,9.027c-1.259,2.822-2.942,5.27-5.049,7.344
			c-2.109,2.074-4.591,3.723-7.446,4.947c-2.856,1.223-5.883,1.836-9.078,1.836c-3.264,0-6.308-0.613-9.129-1.836
			c-2.822-1.225-5.304-2.908-7.446-5.049c-2.142-2.143-3.825-4.643-5.049-7.498s-1.836-5.916-1.836-9.18h17.136
			c0,1.77,0.612,3.281,1.836,4.539c1.225,1.26,2.72,1.887,4.488,1.887c1.768,0,3.28-0.627,4.539-1.887
			c1.258-1.258,1.887-2.77,1.887-4.539v-52.326h17.137V338.512z"/>
		<path style="fill:#FFFFFF;" d="M591.025,302.915v12.24h21.624v17.135h-21.624v12.24h29.376v17.137h-46.512v-75.889h46.512v17.137
			H591.025z"/>
	</g>
</g>
</svg>
