<?xml version="1.0" encoding="iso-8859-1"?>
<!-- Generator: Adobe Illustrator 19.1.0, SVG Export Plug-In . SVG Version: 6.00 Build 0)  -->
<!DOCTYPE svg PUBLIC "-//W3C//DTD SVG 1.1//EN" "http://www.w3.org/Graphics/SVG/1.1/DTD/svg11.dtd">
<svg version="1.1" id="Layer_1" xmlns="http://www.w3.org/2000/svg" xmlns:xlink="http://www.w3.org/1999/xlink" x="0px" y="0px"
	 viewBox="0 0 297.857 242.587" style="enable-background:new 0 0 297.857 242.587;" xml:space="preserve">
<g>
	<g>
		<path style="fill:#231F20;" d="M3,239.587V127.641c0-37.422,30.444-67.866,67.866-67.866h63.205v-0.082h69.967
			c41.591,0,77.141-16.252,90.819-38.996v151.024c0,37.422-30.444,67.866-67.866,67.866H3z"/>
		<path style="fill:#FFFFFF;" d="M291.857,30v26.774v24.5v90.446c0,17.248-6.769,33.516-19.06,45.807
			c-12.291,12.291-28.559,19.06-45.807,19.06H6V127.64c0-17.248,6.769-33.516,19.06-45.807c12.291-12.291,28.559-19.06,45.807-19.06
			h60.205h6v-0.081h66.967c26.034,0,50.668-6.221,69.363-17.518C280.863,40.665,287.052,35.553,291.857,30 M297.857,0
			c0,31.181-42.218,56.693-93.819,56.693h-72.967v0.081H70.866C31.89,56.774,0,88.664,0,127.64v114.946h226.991
			c38.976,0,70.866-31.89,70.866-70.866V81.274v-24.5V0L297.857,0z"/>
	</g>
	<g>
		<path style="fill:#FFFFFF;" d="M70.947,117.764c0,0.203,0,0.406,0,0.609c0,0.204-0.021,0.407-0.061,0.61v17.019h-9.455v-2.317
			c-1.221,0.731-2.512,1.312-3.874,1.738s-2.755,0.641-4.179,0.641h-0.061c-2.4,0-4.666-0.468-6.802-1.403
			c-2.135-0.935-4.036-2.277-5.703-4.026c-1.587-1.708-2.817-3.629-3.69-5.764c-0.875-2.136-1.332-4.382-1.373-6.741v-9.394
			c0-2.44,0.438-4.737,1.312-6.894c0.873-2.154,2.124-4.087,3.751-5.795c1.667-1.748,3.568-3.09,5.703-4.025
			c2.136-0.936,4.401-1.403,6.802-1.403h0.061c2.358,0,4.605,0.468,6.74,1.403c2.136,0.936,4.057,2.277,5.766,4.025
			c1.625,1.749,2.876,3.722,3.751,5.917c0.874,2.196,1.312,4.515,1.312,6.954H60.699c0-1.098-0.193-2.135-0.58-3.11
			c-0.387-0.977-0.914-1.83-1.586-2.562c-0.67-0.731-1.454-1.312-2.348-1.738c-0.895-0.427-1.852-0.641-2.867-0.641
			c-1.018,0-1.963,0.214-2.836,0.641c-0.875,0.427-1.647,1.007-2.318,1.738c-0.672,0.732-1.2,1.586-1.586,2.562
			c-0.387,0.976-0.58,2.013-0.58,3.11v8.846c0,1.098,0.193,2.135,0.58,3.11c0.386,0.977,0.914,1.83,1.586,2.562
			c0.671,0.731,1.443,1.312,2.318,1.738c0.873,0.427,1.818,0.641,2.836,0.641c1.179,0,2.246-0.265,3.203-0.793
			c0.954-0.528,1.777-1.24,2.47-2.136h-5.733v-9.454h17.689V117.764z"/>
		<path style="fill:#FFFFFF;" d="M86.136,136.002H75.888V90.618h10.248V136.002z"/>
		<path style="fill:#FFFFFF;" d="M100.775,100.866v7.32h12.933v10.248h-12.933v17.567H90.527V90.618h27.816v10.248H100.775z"/>
		<path style="fill:#FFFFFF;" d="M194.838,136.002H184.59v-15.859l-5.551,15.859h-10.248l-5.674-16.348v16.348h-10.248V90.618
			h10.432l10.613,30.622l10.676-30.622h10.248V136.002z"/>
		<path style="fill:#FFFFFF;" d="M233.023,124.778c-0.854,2.156-2.095,4.087-3.721,5.795c-1.668,1.79-3.568,3.152-5.704,4.087
			c-2.135,0.936-4.402,1.403-6.801,1.403h-0.062c-2.358,0-4.605-0.468-6.74-1.403c-2.135-0.935-4.057-2.277-5.765-4.026
			c-1.586-1.708-2.816-3.639-3.69-5.795c-0.875-2.154-1.331-4.453-1.372-6.893v-10.614c0.202-2.155,0.741-4.188,1.616-6.1
			c0.874-1.911,2.022-3.64,3.446-5.186c1.708-1.748,3.619-3.09,5.734-4.025c2.113-0.936,4.371-1.403,6.771-1.403h0.062
			c2.398,0,4.666,0.468,6.801,1.403c2.136,0.936,4.036,2.277,5.704,4.025c1.464,1.546,2.623,3.274,3.477,5.186
			c0.854,1.912,1.382,3.944,1.586,6.1v1.342v5.612v3.66C234.323,120.346,233.877,122.623,233.023,124.778z"/>
		<path style="fill:#FFFFFF;" d="M53.196,190.816c1.017,0,1.962-0.214,2.837-0.641c0.873-0.427,1.646-1.007,2.317-1.738
			c0.671-0.732,1.199-1.586,1.587-2.562c0.385-0.976,0.578-2.013,0.578-3.11h10.248c0,2.439-0.426,4.758-1.28,6.953
			c-0.854,2.196-2.115,4.169-3.782,5.917c-1.668,1.749-3.568,3.092-5.703,4.026c-2.135,0.936-4.402,1.403-6.802,1.403h-0.062
			c-2.399,0-4.656-0.468-6.771-1.403c-2.114-0.935-4.026-2.277-5.733-4.026c-1.586-1.708-2.816-3.629-3.691-5.764
			c-0.873-2.136-1.331-4.382-1.372-6.741v-9.394c0.041-2.44,0.487-4.737,1.342-6.894c0.854-2.154,2.095-4.087,3.722-5.795
			c1.707-1.748,3.619-3.09,5.733-4.025s4.371-1.403,6.771-1.403h0.062c2.399,0,4.667,0.468,6.802,1.403s4.035,2.277,5.703,4.025
			c1.667,1.749,2.928,3.722,3.782,5.917c0.854,2.196,1.28,4.515,1.28,6.954H60.516c0-1.098-0.193-2.135-0.578-3.11
			c-0.388-0.977-0.916-1.83-1.587-2.562c-0.671-0.731-1.444-1.312-2.317-1.738c-0.875-0.427-1.82-0.641-2.837-0.641
			s-1.974,0.214-2.867,0.641c-0.896,0.427-1.677,1.007-2.349,1.738c-0.671,0.732-1.199,1.586-1.586,2.562
			c-0.387,0.976-0.579,2.013-0.579,3.11v8.846c0,1.098,0.192,2.135,0.579,3.11c0.387,0.977,0.915,1.83,1.586,2.562
			c0.672,0.731,1.453,1.312,2.349,1.738C51.223,190.602,52.18,190.816,53.196,190.816z"/>
		<path style="fill:#FFFFFF;" d="M106.875,155.618v45.384H96.627v-17.567H84.488v17.567H74.24v-45.384h10.248v17.568h12.139v-17.568
			H106.875z"/>
		<path style="fill:#FFFFFF;" d="M121.942,165.866v7.32h12.933v10.248h-12.933v7.319h17.567v10.248h-27.815v-45.384h27.815v10.248
			H121.942z"/>
		<path style="fill:#FFFFFF;" d="M173.854,165.866h-10.311v35.136h-10.248v-35.136h-10.309v-10.248h30.867V165.866z"/>
		<path style="fill:#FFFFFF;" d="M207.464,165.866h-10.31v35.136h-10.248v-35.136h-10.309v-10.248h30.866V165.866z"/>
		<path style="fill:#FFFFFF;" d="M221.005,165.866v7.32h12.932v10.248h-12.932v7.319h17.568v10.248h-27.816v-45.384h27.816v10.248
			H221.005z"/>
	</g>
</g>
</svg>
