<?xml version="1.0" encoding="iso-8859-1"?>
<!-- Generator: Adobe Illustrator 19.1.0, SVG Export Plug-In . SVG Version: 6.00 Build 0)  -->
<!DOCTYPE svg PUBLIC "-//W3C//DTD SVG 1.1//EN" "http://www.w3.org/Graphics/SVG/1.1/DTD/svg11.dtd">
<svg version="1.1" id="Layer_1" xmlns="http://www.w3.org/2000/svg" xmlns:xlink="http://www.w3.org/1999/xlink" x="0px" y="0px"
	 viewBox="0 0 397.676 332.587" style="enable-background:new 0 0 397.676 332.587;" xml:space="preserve">
<g>
	<g>
		<path style="fill:#EB2F2B;" d="M3,329.587V127.64c0-37.422,30.444-67.866,67.866-67.866h63.205v-0.081h169.786
			c41.591,0,77.14-16.252,90.818-38.997v241.024c0,37.422-30.444,67.866-67.866,67.866H3z"/>
		<path style="fill:#FFFFFF;" d="M391.676,30v26.774v24.5v180.446c0,17.248-6.769,33.516-19.06,45.807s-28.558,19.06-45.807,19.06H6
			V127.64c0-17.248,6.769-33.516,19.06-45.807s28.559-19.06,45.807-19.06h60.205h6v-0.081h166.786
			c26.034,0,50.668-6.221,69.362-17.518C380.682,40.665,386.87,35.553,391.676,30 M397.676,0c0,31.181-42.218,56.693-93.818,56.693
			H131.071v0.081H70.866C31.89,56.774,0,88.664,0,127.64v204.946h326.81c38.976,0,70.866-31.89,70.866-70.866V81.274v-24.5V0
			L397.676,0z"/>
	</g>
	<g>
		<path style="fill:#FFFFFF;" d="M99.017,157.66c0,1.115-0.078,2.201-0.232,3.255c-0.155,1.055-0.388,2.108-0.697,3.162
			c-0.683,2.171-1.674,4.185-2.976,6.045c-1.303,1.859-2.853,3.457-4.65,4.789c-1.799,1.334-3.782,2.372-5.952,3.115
			c-2.171,0.744-4.464,1.116-6.882,1.116c-2.976,0-5.751-0.558-8.323-1.674c-2.573-1.116-4.836-2.65-6.789-4.604
			s-3.487-4.231-4.604-6.835c-1.116-2.604-1.674-5.395-1.674-8.37h15.624c0,1.612,0.558,2.991,1.674,4.138
			c1.116,1.148,2.479,1.721,4.092,1.721c1.302,0,2.448-0.387,3.441-1.162c0.991-0.774,1.674-1.751,2.046-2.93
			c0.186-0.495,0.278-1.054,0.278-1.674c0-1.611-0.558-2.914-1.674-3.906c-1.115-0.991-2.48-1.488-4.092-1.488
			c-2.976,0-5.751-0.542-8.323-1.627c-2.573-1.084-4.836-2.572-6.789-4.464c-1.953-1.891-3.487-4.106-4.604-6.649
			c-1.116-2.542-1.674-5.302-1.674-8.277c0-1.054,0.077-2.107,0.232-3.162c0.154-1.054,0.387-2.106,0.697-3.162
			c0.682-2.169,1.674-4.185,2.976-6.045c1.303-1.859,2.852-3.455,4.65-4.789c1.798-1.333,3.781-2.372,5.952-3.116
			c2.17-0.743,4.464-1.115,6.882-1.115c2.977,0,5.75,0.558,8.323,1.674c2.572,1.116,4.836,2.65,6.789,4.604s3.488,4.231,4.604,6.835
			c1.116,2.604,1.674,5.364,1.674,8.277H83.393c0-1.611-0.558-2.976-1.674-4.092c-1.115-1.116-2.48-1.674-4.092-1.674
			c-1.302,0-2.45,0.388-3.44,1.162c-0.993,0.776-1.675,1.753-2.047,2.93c-0.186,0.435-0.278,0.992-0.278,1.674
			c0,1.613,0.558,2.915,1.674,3.906c1.116,0.992,2.479,1.487,4.092,1.487c2.977,0,5.75,0.544,8.323,1.628
			c2.572,1.086,4.836,2.573,6.789,4.464c1.953,1.893,3.488,4.108,4.604,6.649C98.46,152.018,99.017,154.746,99.017,157.66z"/>
		<path style="fill:#FFFFFF;" d="M155.84,109.951v69.191h-15.81l-19.53-38.688v38.688h-15.624v-69.191h15.903l19.437,38.595v-38.595
			H155.84z"/>
		<path style="fill:#FFFFFF;" d="M176.578,125.575v11.159h19.716v15.624h-19.716v11.16h26.784v15.624h-42.408v-69.191h42.408v15.624
			H176.578z"/>
		<path style="fill:#FFFFFF;" d="M243.629,163.518v15.624h-34.131v-69.191h15.624v53.567H243.629z"/>
		<path style="fill:#FFFFFF;" d="M283.712,163.518v15.624h-34.131v-69.191h15.624v53.567H283.712z"/>
		<path style="fill:#FFFFFF;" d="M305.288,125.575v11.159h19.716v15.624h-19.716v11.16h26.784v15.624h-42.408v-69.191h42.408v15.624
			H305.288z"/>
		<path style="fill:#FFFFFF;" d="M120.315,275.142h-15.624v-24.18l-8.463,24.18H80.604l-8.649-24.924v24.924H56.331v-69.191h15.903
			l16.182,46.686l16.275-46.686h15.624V275.142z"/>
		<path style="fill:#FFFFFF;" d="M178.532,258.031c-1.302,3.286-3.194,6.23-5.673,8.835c-2.543,2.729-5.44,4.805-8.696,6.23
			c-3.255,1.427-6.712,2.139-10.369,2.139h-0.093c-3.597,0-7.021-0.712-10.276-2.139c-3.255-1.426-6.185-3.472-8.789-6.138
			c-2.418-2.604-4.294-5.548-5.626-8.835c-1.334-3.286-2.03-6.789-2.093-10.509v-16.183c0.31-3.285,1.131-6.385,2.465-9.3
			c1.332-2.913,3.083-5.548,5.254-7.905c2.604-2.665,5.518-4.711,8.742-6.138c3.223-1.426,6.664-2.139,10.323-2.139h0.093
			c3.657,0,7.114,0.713,10.369,2.139c3.256,1.427,6.153,3.473,8.696,6.138c2.231,2.357,3.999,4.992,5.301,7.905
			c1.302,2.915,2.106,6.015,2.418,9.3v2.046v8.557v5.58C180.515,251.273,179.834,254.745,178.532,258.031z"/>
		<path style="fill:#FFFFFF;" d="M205.967,240.639l29.388,34.503H219.73l-17.67-19.623v19.623h-15.624v-69.191h15.624v19.809
			l17.763-19.809h15.624L205.967,240.639z"/>
		<path style="fill:#FFFFFF;" d="M258.139,240.639l29.388,34.503h-15.624l-17.67-19.623v19.623h-15.624v-69.191h15.624v19.809
			l17.763-19.809h15.624L258.139,240.639z"/>
		<path style="fill:#FFFFFF;" d="M306.404,221.575v11.159h19.716v15.624h-19.716v11.16h26.784v15.624H290.78v-69.191h42.408v15.624
			H306.404z"/>
	</g>
</g>
</svg>
