<?xml version="1.0" encoding="iso-8859-1"?>
<!-- Generator: Adobe Illustrator 19.1.0, SVG Export Plug-In . SVG Version: 6.00 Build 0)  -->
<!DOCTYPE svg PUBLIC "-//W3C//DTD SVG 1.1//EN" "http://www.w3.org/Graphics/SVG/1.1/DTD/svg11.dtd">
<svg version="1.1" id="Layer_1" xmlns="http://www.w3.org/2000/svg" xmlns:xlink="http://www.w3.org/1999/xlink" x="0px" y="0px"
	 viewBox="0 0 601.502 561.967" style="enable-background:new 0 0 601.502 561.967;" xml:space="preserve">
<g>
	<g>
		<path style="fill:#FFFFFF;" d="M3,138.351c0-36.001,14.121-69.948,39.762-95.589C68.402,17.121,102.35,3,138.351,3h460.151
			v307.777c0,36.001-14.121,69.948-39.762,95.589c-25.641,25.642-59.588,39.763-95.589,39.763H342.613v0.158H183.16
			c-86.429,0-159.291,36.158-180.16,85V138.351z"/>
		<path d="M595.502,6v304.777c0,35.199-13.809,68.394-38.883,93.468c-25.074,25.074-58.268,38.883-93.468,38.883H345.613h-6v0.159
			H183.16c-49.8,0-96.842,11.854-132.46,33.377c-17.57,10.617-31.417,23.025-41.156,36.877c-1.257,1.788-2.438,3.59-3.544,5.405
			v-69.819v-47.831V138.351c0-35.199,13.809-68.394,38.883-93.468C69.957,19.809,103.152,6,138.351,6H595.502 M601.502,0H138.351
			C62.258,0,0,62.258,0,138.351v262.946v47.831v110.839c0-60.874,82.422-110.681,183.161-110.681h162.453v-0.159h117.538
			c76.093,0,138.351-62.258,138.351-138.351V0L601.502,0z"/>
	</g>
	<g>
		<path style="fill:#231F20;" d="M87.883,83.421v12.24h21.623v17.136H87.883v12.24h29.376v17.136H70.746V66.285h46.513v17.136
			H87.883z"/>
		<path style="fill:#231F20;" d="M221.909,118.611c0,1.224-0.086,2.414-0.255,3.569c-0.171,1.157-0.426,2.312-0.765,3.468
			c-0.749,2.382-1.836,4.591-3.265,6.631c-1.428,2.04-3.128,3.791-5.1,5.253c-1.974,1.463-4.148,2.601-6.528,3.417
			c-2.381,0.815-4.896,1.224-7.548,1.224c-3.264,0-6.308-0.612-9.129-1.836c-2.822-1.224-5.304-2.907-7.446-5.049
			c-2.142-2.143-3.825-4.642-5.049-7.497c-1.224-2.856-1.836-5.916-1.836-9.18h17.136c0,1.769,0.612,3.281,1.836,4.538
			c1.225,1.26,2.72,1.888,4.488,1.888c1.428,0,2.686-0.424,3.774-1.275c1.087-0.85,1.836-1.92,2.243-3.213
			c0.204-0.543,0.307-1.155,0.307-1.836c0-1.768-0.612-3.195-1.836-4.284c-1.225-1.087-2.721-1.632-4.488-1.632
			c-3.264,0-6.308-0.595-9.129-1.785c-2.822-1.188-5.304-2.821-7.446-4.896c-2.142-2.074-3.825-4.504-5.049-7.293
			c-1.224-2.788-1.836-5.814-1.836-9.078c0-1.155,0.084-2.312,0.255-3.469c0.169-1.155,0.424-2.311,0.765-3.468
			c0.748-2.379,1.837-4.59,3.265-6.63s3.127-3.79,5.1-5.253c1.972-1.461,4.147-2.601,6.528-3.417
			c2.379-0.816,4.896-1.224,7.548-1.224c3.264,0,6.307,0.611,9.129,1.836c2.821,1.224,5.304,2.907,7.446,5.049
			c2.142,2.142,3.825,4.641,5.049,7.497c1.224,2.855,1.836,5.883,1.836,9.078h-17.136c0-1.768-0.612-3.265-1.836-4.488
			c-1.225-1.224-2.721-1.836-4.488-1.836c-1.428,0-2.688,0.426-3.774,1.275c-1.088,0.851-1.836,1.922-2.243,3.213
			c-0.204,0.477-0.307,1.088-0.307,1.836c0,1.769,0.612,3.197,1.836,4.284c1.225,1.088,2.72,1.632,4.488,1.632
			c3.264,0,6.307,0.596,9.129,1.785c2.821,1.19,5.304,2.822,7.446,4.896c2.142,2.075,3.825,4.506,5.049,7.293
			C221.297,112.423,221.909,115.415,221.909,118.611z"/>
		<path style="fill:#231F20;" d="M256.589,125.138c1.698,0,3.279-0.356,4.742-1.071c1.462-0.714,2.754-1.683,3.876-2.906
			c1.122-1.225,2.005-2.652,2.652-4.284c0.646-1.632,0.969-3.366,0.969-5.202h17.137c0,4.08-0.715,7.956-2.143,11.628
			s-3.536,6.971-6.324,9.895c-2.789,2.924-5.967,5.168-9.537,6.731c-3.569,1.565-7.361,2.346-11.372,2.346h-0.103
			c-4.013,0-7.787-0.78-11.322-2.346c-3.536-1.563-6.731-3.808-9.588-6.731c-2.651-2.856-4.709-6.069-6.171-9.64
			c-1.461-3.569-2.227-7.326-2.295-11.271V96.579c0.068-4.08,0.816-7.921,2.244-11.526c1.428-3.604,3.501-6.834,6.222-9.689
			c2.856-2.924,6.052-5.167,9.588-6.732c3.535-1.563,7.31-2.346,11.322-2.346h0.103c4.011,0,7.803,0.782,11.372,2.346
			c3.57,1.565,6.748,3.809,9.537,6.732c2.788,2.924,4.896,6.222,6.324,9.894s2.143,7.548,2.143,11.628h-17.137
			c0-1.836-0.323-3.57-0.969-5.202c-0.647-1.632-1.53-3.06-2.652-4.284c-1.122-1.224-2.414-2.192-3.876-2.906
			c-1.463-0.714-3.044-1.071-4.742-1.071c-1.701,0-3.3,0.357-4.795,1.071c-1.496,0.714-2.805,1.683-3.927,2.906
			c-1.122,1.225-2.006,2.652-2.651,4.284c-0.647,1.632-0.97,3.366-0.97,5.202v14.79c0,1.836,0.322,3.57,0.97,5.202
			c0.646,1.632,1.529,3.06,2.651,4.284c1.122,1.224,2.431,2.192,3.927,2.906C253.289,124.782,254.888,125.138,256.589,125.138z"/>
		<path style="fill:#231F20;" d="M346.348,66.285v75.888h-17.137v-29.376h-20.298v29.376h-17.136V66.285h17.136v29.376h20.298
			V66.285H346.348z"/>
		<path style="fill:#231F20;" d="M371.541,83.421v12.24h21.624v17.136h-21.624v12.24h29.376v17.136h-46.512V66.285h46.512v17.136
			H371.541z"/>
		<path style="fill:#231F20;" d="M458.343,83.421h-17.238v58.752h-17.136V83.421h-17.238V66.285h51.612V83.421z"/>
		<path style="fill:#231F20;" d="M480.985,83.421v12.24h21.624v17.136h-21.624v12.24h29.376v17.136H463.85V66.285h46.512v17.136
			H480.985z"/>
		<path style="fill:#231F20;" d="M87.883,252.172H70.746v-75.888h17.137V252.172z"/>
		<path style="fill:#231F20;" d="M151.122,176.285v75.888h-17.34l-21.42-42.432v42.432H95.227v-75.888h17.441l21.318,42.33v-42.33
			H151.122z"/>
		<path style="fill:#231F20;" d="M224.867,193.421v12.24h21.624v17.136h-21.624v12.24h29.376v17.136h-46.512v-75.888h46.512v17.136
			H224.867z"/>
		<path style="fill:#231F20;" d="M126.744,286.285v75.888h-17.34l-21.42-42.432v42.432H70.849v-75.888H88.29l21.318,42.33v-42.33
			H126.744z"/>
		<path style="fill:#231F20;" d="M149.489,303.421v12.24h21.624v17.136h-21.624v12.24h29.376v17.136h-46.512v-75.888h46.512v17.136
			H149.489z"/>
		<path style="fill:#231F20;" d="M236.291,303.421h-17.238v58.752h-17.136v-58.752h-17.238v-17.136h51.612V303.421z"/>
		<path style="fill:#231F20;" d="M291.268,303.421l-29.58,41.616h29.58v17.136h-49.47v-17.136l29.478-41.616h-29.478v-17.136h49.47
			V303.421z"/>
		<path style="fill:#231F20;" d="M338.188,332.796h-14.076l-10.2,29.376h-18.462l26.316-75.888h18.768l26.316,75.888h-18.462
			L338.188,332.796z"/>
		<path style="fill:#231F20;" d="M393.47,324.331l32.232,37.842h-17.137l-19.38-21.522v21.522H372.05v-75.888h17.136v21.726
			l19.482-21.726h17.136L393.47,324.331z"/>
	</g>
</g>
</svg>
