<?xml version="1.0" encoding="iso-8859-1"?>
<!-- Generator: Adobe Illustrator 19.1.0, SVG Export Plug-In . SVG Version: 6.00 Build 0)  -->
<!DOCTYPE svg PUBLIC "-//W3C//DTD SVG 1.1//EN" "http://www.w3.org/Graphics/SVG/1.1/DTD/svg11.dtd">
<svg version="1.1" id="Layer_1" xmlns="http://www.w3.org/2000/svg" xmlns:xlink="http://www.w3.org/1999/xlink" x="0px" y="0px"
	 viewBox="0 0 222.997 317.56" style="enable-background:new 0 0 222.997 317.56;" xml:space="preserve">
<g>
	<g>
		<path style="fill:#231F20;" d="M70.866,314.56C33.444,314.56,3,284.116,3,246.694V20.697
			c13.124,21.821,46.379,37.666,85.786,38.916v0.08l3,0.081h60.205c37.422,0,67.866,30.444,67.866,67.866v186.92H70.866z"/>
		<path style="fill:#FFFFFF;" d="M6,30c4.805,5.552,10.994,10.665,18.456,15.174c16.76,10.127,38.294,16.176,61.33,17.32v0.28h6
			h60.205c17.248,0,33.516,6.769,45.807,19.06s19.06,28.558,19.06,45.807v183.92H70.866c-17.248,0-33.516-6.769-45.807-19.06
			S6,263.942,6,246.694V81.274v-24.5V30 M0,0v56.774v24.5v165.42c0,38.976,31.89,70.866,70.866,70.866h151.991V127.64
			c0-38.976-31.89-70.866-70.866-70.866H91.786v-0.081h2.033C42.218,56.693,0,31.181,0,0L0,0z"/>
	</g>
	<g>
		<path style="fill:#FFFFFF;" d="M84.467,142.699h-11.76v-18.2l-6.37,18.2h-11.76l-6.51-18.76v18.76H36.307v-52.08h11.971
			l12.18,35.14l12.25-35.14h11.76V142.699z"/>
		<path style="fill:#FFFFFF;" d="M128.287,129.819c-0.98,2.474-2.404,4.689-4.271,6.649c-1.914,2.055-4.095,3.617-6.545,4.69
			c-2.449,1.074-5.052,1.609-7.805,1.609h-0.07c-2.707,0-5.284-0.535-7.734-1.609c-2.45-1.073-4.655-2.613-6.615-4.62
			c-1.82-1.96-3.232-4.176-4.235-6.65c-1.004-2.473-1.527-5.109-1.574-7.91v-12.18c0.232-2.473,0.851-4.806,1.854-7
			c1.003-2.192,2.321-4.176,3.955-5.95c1.96-2.006,4.153-3.546,6.58-4.62c2.426-1.072,5.016-1.609,7.77-1.609h0.07
			c2.753,0,5.355,0.537,7.805,1.609c2.45,1.074,4.631,2.614,6.545,4.62c1.681,1.774,3.011,3.758,3.99,5.95
			c0.98,2.194,1.586,4.527,1.82,7v1.54v6.44v4.199C129.78,124.733,129.266,127.345,128.287,129.819z"/>
		<path style="fill:#FFFFFF;" d="M73.688,155.619v52.08H61.927v-20.16h-13.93v20.16h-11.76v-52.08h11.76v20.16h13.93v-20.16H73.688z
			"/>
		<path style="fill:#FFFFFF;" d="M117.998,194.819c-0.98,2.474-2.404,4.689-4.271,6.649c-1.914,2.055-4.095,3.617-6.545,4.69
			c-2.449,1.074-5.052,1.609-7.805,1.609h-0.07c-2.707,0-5.284-0.535-7.734-1.609c-2.45-1.073-4.655-2.613-6.615-4.62
			c-1.82-1.96-3.232-4.176-4.235-6.65c-1.004-2.473-1.527-5.109-1.574-7.91v-12.18c0.232-2.473,0.851-4.806,1.854-7
			c1.003-2.192,2.321-4.176,3.955-5.95c1.96-2.006,4.153-3.546,6.58-4.62c2.426-1.072,5.016-1.609,7.77-1.609h0.07
			c2.753,0,5.355,0.537,7.805,1.609c2.45,1.074,4.631,2.614,6.545,4.62c1.681,1.774,3.011,3.758,3.99,5.95
			c0.98,2.194,1.586,4.527,1.82,7v1.54v6.44v4.199C119.491,189.733,118.977,192.345,117.998,194.819z"/>
		<path style="fill:#FFFFFF;" d="M187.087,155.619l-12.67,52.08h-11.97l-6.859-28.28l-6.86,28.28h-11.97l-12.67-52.08h11.76
			l6.93,28.28l6.86-28.28h11.97l6.859,28.28l6.86-28.28H187.087z"/>
		<path style="fill:#FFFFFF;" d="M70.188,232.378l-20.301,28.561h20.301v11.76h-33.95v-11.76l20.229-28.561H36.238v-11.76h33.95
			V232.378z"/>
		<path style="fill:#FFFFFF;" d="M86.847,232.378v8.4h14.84v11.76h-14.84v8.4h20.16v11.76h-31.92v-52.08h31.92v11.76H86.847z"/>
		<path style="fill:#FFFFFF;" d="M151.457,251.768c0,0.234,0,0.468,0,0.7c0,0.234-0.024,0.467-0.07,0.7v19.53h-10.85v-2.66
			c-1.4,0.84-2.883,1.505-4.445,1.995c-1.564,0.49-3.162,0.734-4.795,0.734h-0.07c-2.754,0-5.354-0.535-7.805-1.609
			c-2.45-1.073-4.632-2.613-6.545-4.62c-1.82-1.96-3.232-4.165-4.235-6.615c-1.004-2.45-1.528-5.027-1.575-7.734v-10.78
			c0-2.8,0.502-5.437,1.505-7.91c1.003-2.473,2.438-4.69,4.306-6.65c1.913-2.006,4.095-3.546,6.545-4.62
			c2.45-1.072,5.051-1.609,7.805-1.609h0.07c2.706,0,5.285,0.537,7.734,1.609c2.45,1.074,4.655,2.614,6.615,4.62
			c1.866,2.008,3.301,4.271,4.306,6.79c1.003,2.521,1.505,5.181,1.505,7.98h-11.761c0-1.26-0.222-2.45-0.665-3.57
			s-1.05-2.1-1.819-2.939c-0.771-0.841-1.669-1.506-2.695-1.995c-1.027-0.49-2.124-0.735-3.29-0.735
			c-1.167,0-2.252,0.245-3.255,0.735c-1.004,0.489-1.89,1.154-2.66,1.995c-0.77,0.84-1.377,1.819-1.819,2.939
			c-0.444,1.12-0.665,2.311-0.665,3.57v10.149c0,1.261,0.221,2.45,0.665,3.57c0.442,1.12,1.05,2.101,1.819,2.94
			c0.771,0.84,1.656,1.505,2.66,1.995c1.003,0.489,2.088,0.734,3.255,0.734c1.354,0,2.578-0.303,3.675-0.91
			c1.097-0.605,2.041-1.423,2.835-2.449h-6.58v-10.851h20.301V251.768z"/>
		<path style="fill:#FFFFFF;" d="M169.095,256.808h-11.76v-36.189h11.76V256.808z M157.406,272.699v-11.76h11.689v11.76H157.406z"/>
	</g>
</g>
</svg>
