<?xml version="1.0" encoding="iso-8859-1"?>
<!-- Generator: Adobe Illustrator 19.1.0, SVG Export Plug-In . SVG Version: 6.00 Build 0)  -->
<!DOCTYPE svg PUBLIC "-//W3C//DTD SVG 1.1//EN" "http://www.w3.org/Graphics/SVG/1.1/DTD/svg11.dtd">
<svg version="1.1" id="Layer_1" xmlns="http://www.w3.org/2000/svg" xmlns:xlink="http://www.w3.org/1999/xlink" x="0px" y="0px"
	 viewBox="0 0 202.905 309.587" style="enable-background:new 0 0 202.905 309.587;" xml:space="preserve">
<g>
	<g>
		<path style="fill:#FFFFFF;" d="M199.857,288.891c-13.672-22.734-49.196-38.981-90.761-38.997l-4.975-0.081H70.866
			C33.445,249.812,3,219.368,3,181.946V3h128.991c37.421,0,67.866,30.444,67.866,67.866V288.891z"/>
		<path d="M131.991,6c17.248,0,33.516,6.769,45.807,19.06c12.291,12.291,19.06,28.559,19.06,45.807v157.446v24.5v26.774
			c-4.805-5.553-10.994-10.665-18.456-15.174c-18.674-11.284-43.276-17.505-69.279-17.518l-4.953-0.081l-0.049-0.001h-0.049H70.866
			c-17.248,0-33.516-6.769-45.807-19.06S6,199.194,6,181.946V6H131.991 M131.991,0H0v181.946c0,38.976,31.89,70.866,70.866,70.866
			h33.206l5,0.081h-0.033c51.6,0,93.819,25.512,93.819,56.693v-56.774v-24.5V70.866C202.857,31.89,170.967,0,131.991,0L131.991,0z"
			/>
	</g>
	<g>
		<path style="fill:#231F20;" d="M78.267,79.335H68.019V63.476l-5.551,15.859H52.22l-5.673-16.348v16.348H36.299V33.951H46.73
			l10.614,30.622l10.675-30.622h10.248V79.335z"/>
		<path style="fill:#231F20;" d="M116.452,68.111c-0.854,2.156-2.095,4.087-3.721,5.795c-1.668,1.79-3.569,3.152-5.704,4.087
			c-2.135,0.936-4.403,1.403-6.802,1.403h-0.061c-2.359,0-4.605-0.468-6.74-1.403c-2.135-0.935-4.057-2.277-5.765-4.026
			c-1.586-1.708-2.816-3.639-3.69-5.795c-0.875-2.154-1.332-4.453-1.373-6.893V50.665c0.203-2.155,0.742-4.188,1.617-6.1
			c0.874-1.911,2.022-3.64,3.446-5.186c1.708-1.748,3.619-3.09,5.734-4.025c2.114-0.936,4.371-1.403,6.771-1.403h0.061
			c2.399,0,4.667,0.468,6.802,1.403c2.135,0.936,4.036,2.277,5.704,4.025c1.464,1.546,2.623,3.274,3.477,5.186
			c0.854,1.912,1.382,3.944,1.586,6.1v1.342v5.612v3.66C117.753,63.679,117.306,65.956,116.452,68.111z"/>
		<path style="fill:#231F20;" d="M78.511,98.951l-15.799,45.384h-10.37L36.543,98.951h10.248l10.736,30.866l10.736-30.866H78.511z"
			/>
		<path style="fill:#231F20;" d="M90.527,144.335H80.279V98.951h10.248V144.335z"/>
		<path style="fill:#231F20;" d="M128.347,98.951v45.384h-10.37l-12.81-25.376v25.376H94.919V98.951h10.431l12.749,25.315V98.951
			H128.347z"/>
		<path style="fill:#231F20;" d="M162.018,109.199h-10.309v35.136h-10.248v-35.136h-10.309V98.951h30.866V109.199z"/>
		<path style="fill:#231F20;" d="M66.555,174.199H56.246v35.136H45.998v-35.136H35.689v-10.248h30.866V174.199z"/>
		<path style="fill:#231F20;" d="M103.643,198.111c-0.854,2.156-2.095,4.087-3.721,5.795c-1.668,1.79-3.569,3.152-5.704,4.087
			c-2.135,0.936-4.403,1.403-6.802,1.403h-0.061c-2.359,0-4.605-0.468-6.74-1.403c-2.135-0.935-4.057-2.277-5.765-4.026
			c-1.586-1.708-2.816-3.639-3.69-5.795c-0.875-2.154-1.332-4.453-1.373-6.893v-10.614c0.203-2.155,0.742-4.188,1.617-6.1
			c0.874-1.911,2.022-3.64,3.446-5.186c1.708-1.748,3.619-3.09,5.734-4.025c2.114-0.936,4.371-1.403,6.771-1.403h0.061
			c2.399,0,4.667,0.468,6.802,1.403c2.135,0.936,4.036,2.277,5.704,4.025c1.464,1.546,2.623,3.274,3.477,5.186
			c0.854,1.912,1.382,3.944,1.586,6.1v1.342v5.612v3.66C104.944,193.679,104.497,195.956,103.643,198.111z"/>
		<path style="fill:#231F20;" d="M141.462,163.951v45.384h-10.248v-17.567h-12.139v17.567h-10.248v-45.384h10.248v17.568h12.139
			v-17.568H141.462z"/>
	</g>
</g>
</svg>
