<?xml version="1.0" encoding="iso-8859-1"?>
<!-- Generator: Adobe Illustrator 19.1.0, SVG Export Plug-In . SVG Version: 6.00 Build 0)  -->
<!DOCTYPE svg PUBLIC "-//W3C//DTD SVG 1.1//EN" "http://www.w3.org/Graphics/SVG/1.1/DTD/svg11.dtd">
<svg version="1.1" id="Layer_1" xmlns="http://www.w3.org/2000/svg" xmlns:xlink="http://www.w3.org/1999/xlink" x="0px" y="0px"
	 viewBox="0 0 222.997 317.56" style="enable-background:new 0 0 222.997 317.56;" xml:space="preserve">
<g>
	<g>
		<path style="fill:#231F20;" d="M3,70.867C3,33.445,33.445,3,70.867,3h148.99v186.919c0,37.422-30.444,67.866-67.866,67.866H88.786
			v0.161C49.378,259.197,16.124,275.041,3,296.864V70.867z"/>
		<path style="fill:#FFFFFF;" d="M216.857,6v183.92c0,17.248-6.769,33.516-19.06,45.807s-28.558,19.06-45.807,19.06H91.786h-6v0.28
			c-23.036,1.144-44.57,7.192-61.33,17.32c-7.462,4.509-13.651,9.622-18.456,15.174v-26.774v-24.5V70.866
			C6,53.618,12.769,37.35,25.06,25.06S53.618,6,70.866,6H216.857 M222.857,0H70.866C31.89,0,0,31.89,0,70.866v165.42v24.5v56.774
			c0-31.181,42.218-56.693,93.818-56.693h-2.033v-0.081h60.205c38.976,0,70.866-31.89,70.866-70.866V0L222.857,0z"/>
	</g>
	<g>
		<path style="fill:#FFFFFF;" d="M84.467,86.032h-11.76v-18.2l-6.369,18.2H54.578l-6.51-18.76v18.76H36.307v-52.08h11.971
			l12.18,35.141l12.25-35.141h11.76V86.032z"/>
		<path style="fill:#FFFFFF;" d="M128.287,73.152c-0.979,2.475-2.403,4.69-4.271,6.65c-1.914,2.054-4.094,3.617-6.545,4.689
			c-2.449,1.074-5.051,1.61-7.805,1.61h-0.07c-2.707,0-5.284-0.536-7.734-1.61c-2.45-1.072-4.654-2.612-6.615-4.62
			c-1.82-1.96-3.232-4.176-4.234-6.649c-1.004-2.474-1.528-5.11-1.575-7.91v-12.18c0.233-2.474,0.851-4.807,1.854-7
			s2.321-4.177,3.955-5.95c1.961-2.006,4.153-3.546,6.58-4.62c2.426-1.073,5.016-1.61,7.77-1.61h0.07
			c2.754,0,5.355,0.537,7.805,1.61c2.451,1.074,4.631,2.614,6.545,4.62c1.681,1.773,3.011,3.757,3.99,5.95
			c0.98,2.193,1.586,4.526,1.82,7v1.54v6.439v4.2C129.78,68.066,129.266,70.679,128.287,73.152z"/>
		<path style="fill:#FFFFFF;" d="M73.688,98.952v52.08h-11.76v-20.16H47.997v20.16h-11.76v-52.08h11.76v20.16h13.931v-20.16H73.688z
			"/>
		<path style="fill:#FFFFFF;" d="M117.997,138.152c-0.979,2.475-2.403,4.69-4.271,6.65c-1.914,2.054-4.094,3.617-6.545,4.689
			c-2.449,1.074-5.051,1.61-7.805,1.61h-0.07c-2.707,0-5.284-0.536-7.734-1.61c-2.45-1.072-4.654-2.612-6.615-4.62
			c-1.82-1.96-3.232-4.176-4.234-6.649c-1.004-2.474-1.528-5.11-1.575-7.91v-12.18c0.233-2.474,0.851-4.807,1.854-7
			s2.321-4.177,3.955-5.95c1.961-2.006,4.153-3.546,6.58-4.62c2.426-1.073,5.016-1.61,7.77-1.61h0.07
			c2.754,0,5.355,0.537,7.805,1.61c2.451,1.074,4.631,2.614,6.545,4.62c1.681,1.773,3.011,3.757,3.99,5.95
			c0.98,2.193,1.586,4.526,1.82,7v1.54v6.439v4.2C119.491,133.066,118.977,135.679,117.997,138.152z"/>
		<path style="fill:#FFFFFF;" d="M187.086,98.952l-12.67,52.08h-11.969l-6.86-28.279l-6.86,28.279h-11.97l-12.67-52.08h11.76
			l6.931,28.28l6.859-28.28h11.971l6.859,28.28l6.859-28.28H187.086z"/>
		<path style="fill:#FFFFFF;" d="M70.188,175.712l-20.301,28.56h20.301v11.76h-33.95v-11.76l20.229-28.56H36.238v-11.761h33.95
			V175.712z"/>
		<path style="fill:#FFFFFF;" d="M86.847,175.712v8.399h14.841v11.76H86.847v8.4h20.16v11.76h-31.92v-52.08h31.92v11.761H86.847z"/>
		<path style="fill:#FFFFFF;" d="M151.456,195.102c0,0.234,0,0.467,0,0.7s-0.024,0.467-0.07,0.7v19.529h-10.85v-2.66
			c-1.4,0.841-2.882,1.506-4.445,1.995c-1.563,0.49-3.162,0.735-4.795,0.735h-0.069c-2.755,0-5.355-0.536-7.806-1.61
			c-2.45-1.072-4.632-2.612-6.545-4.62c-1.819-1.96-3.231-4.165-4.235-6.614c-1.004-2.45-1.527-5.028-1.574-7.735v-10.78
			c0-2.8,0.502-5.436,1.504-7.91c1.004-2.473,2.438-4.689,4.306-6.649c1.913-2.006,4.095-3.546,6.545-4.62
			c2.45-1.073,5.051-1.61,7.806-1.61h0.069c2.706,0,5.285,0.537,7.735,1.61c2.449,1.074,4.654,2.614,6.615,4.62
			c1.865,2.007,3.301,4.27,4.305,6.79c1.003,2.52,1.505,5.18,1.505,7.979h-11.761c0-1.26-0.221-2.449-0.664-3.569
			c-0.444-1.12-1.051-2.101-1.82-2.94s-1.669-1.505-2.695-1.995c-1.027-0.49-2.123-0.734-3.289-0.734
			c-1.168,0-2.252,0.244-3.256,0.734c-1.004,0.49-1.89,1.155-2.66,1.995c-0.77,0.84-1.377,1.82-1.819,2.94
			c-0.444,1.12-0.665,2.31-0.665,3.569v10.15c0,1.26,0.221,2.45,0.665,3.57c0.442,1.119,1.05,2.1,1.819,2.939
			c0.771,0.84,1.656,1.505,2.66,1.995c1.004,0.49,2.088,0.735,3.256,0.735c1.353,0,2.577-0.304,3.674-0.91s2.041-1.423,2.836-2.45
			h-6.58v-10.85h20.3V195.102z"/>
		<path style="fill:#FFFFFF;" d="M169.096,200.142h-11.76v-36.19h11.76V200.142z M157.406,216.032v-11.76h11.69v11.76H157.406z"/>
	</g>
</g>
</svg>
