<?xml version="1.0" encoding="iso-8859-1"?>
<!-- Generator: Adobe Illustrator 19.1.0, SVG Export Plug-In . SVG Version: 6.00 Build 0)  -->
<!DOCTYPE svg PUBLIC "-//W3C//DTD SVG 1.1//EN" "http://www.w3.org/Graphics/SVG/1.1/DTD/svg11.dtd">
<svg version="1.1" id="Layer_1" xmlns="http://www.w3.org/2000/svg" xmlns:xlink="http://www.w3.org/1999/xlink" x="0px" y="0px"
	 viewBox="0 0 577.676 332.587" style="enable-background:new 0 0 577.676 332.587;" xml:space="preserve">
<g>
	<g>
		<path style="fill:#FFFFFF;" d="M574.676,311.89c-13.679-22.745-49.228-38.997-90.818-38.997H134.071l-3-0.081H70.866
			C33.444,272.812,3,242.368,3,204.946V3h503.81c37.422,0,67.866,30.444,67.866,67.866V311.89z"/>
		<path d="M506.809,6c17.248,0,33.516,6.769,45.807,19.06c12.291,12.291,19.06,28.559,19.06,45.807v180.446v24.5v26.774
			c-4.805-5.553-10.994-10.665-18.456-15.174c-18.694-11.297-43.328-17.518-69.362-17.518H137.072v-0.082h-6H70.866
			c-17.248,0-33.516-6.769-45.806-19.06C12.769,238.462,6,222.194,6,204.946V6H506.809 M506.809,0H0v204.946
			c0,38.977,31.89,70.866,70.866,70.866h60.206v0.082h352.786c51.6,0,93.818,25.512,93.818,56.693v-56.774v-24.5V70.866
			C577.676,31.89,545.786,0,506.809,0L506.809,0z"/>
	</g>
	<g>
		<path style="fill:#231F20;" d="M105.156,81.547c0,4.65-0.869,9.068-2.604,13.253c-1.736,4.185-4.277,7.951-7.625,11.3
			c-3.102,3.038-6.589,5.41-10.463,7.113c-3.875,1.707-7.951,2.684-12.229,2.93h-2.046h-13.95V46.951h13.95
			c4.65,0,9.098,0.854,13.346,2.558c4.246,1.706,8.044,4.2,11.393,7.486c3.348,3.349,5.889,7.114,7.625,11.3
			C104.287,72.479,105.156,76.896,105.156,81.547z"/>
		<path style="fill:#231F20;" d="M138.171,116.142l-12.09-26.226h-0.187v26.226H110.27V46.951h21.018h0.094
			c2.976,0,5.78,0.559,8.416,1.674c2.635,1.116,4.93,2.65,6.883,4.604c1.952,1.953,3.486,4.231,4.604,6.836
			c1.115,2.604,1.674,5.394,1.674,8.369c0,4.217-1.086,8.015-3.256,11.393c-2.17,3.381-5.021,5.969-8.556,7.766l13.112,28.551
			H138.171z"/>
		<path style="fill:#231F20;" d="M174.439,116.142h-15.624V46.951h15.624V116.142z"/>
		<path style="fill:#231F20;" d="M232.098,46.951v69.191H216.29l-19.531-38.688v38.688h-15.623V46.951h15.902l19.438,38.595V46.951
			H232.098z"/>
		<path style="fill:#231F20;" d="M256.743,81.64l29.389,34.502h-15.625l-17.67-19.623v19.623h-15.623V46.951h15.623V66.76
			L270.6,46.951h15.623L256.743,81.64z"/>
		<path style="fill:#231F20;" d="M340.442,46.951v69.191h-15.811l-19.529-38.688v38.688h-15.625V46.951h15.904l19.436,38.595V46.951
			H340.442z"/>
		<path style="fill:#231F20;" d="M120.315,212.142h-15.624v-24.18l-8.463,24.18H80.604l-8.649-24.924v24.924H56.331v-69.191h15.903
			l16.183,46.686l16.274-46.686h15.624V212.142z"/>
		<path style="fill:#231F20;" d="M142.634,158.575v11.159h19.717v15.625h-19.717v11.16h26.785v15.623h-42.408v-69.191h42.408v15.624
			H142.634z"/>
		<path style="fill:#231F20;" d="M286.132,212.142h-15.623v-24.18l-8.463,24.18h-15.625l-8.648-24.924v24.924h-15.625v-69.191
			h15.904l16.182,46.686l16.275-46.686h15.623V212.142z"/>
		<path style="fill:#231F20;" d="M344.348,195.031c-1.303,3.287-3.193,6.23-5.674,8.835c-2.543,2.729-5.439,4.806-8.695,6.231
			c-3.254,1.426-6.711,2.139-10.369,2.139h-0.092c-3.598,0-7.021-0.713-10.277-2.139s-6.184-3.473-8.789-6.139
			c-2.418-2.604-4.293-5.548-5.627-8.835c-1.332-3.286-2.029-6.789-2.092-10.509v-16.182c0.311-3.286,1.131-6.386,2.465-9.301
			c1.332-2.913,3.084-5.548,5.254-7.904c2.605-2.666,5.518-4.711,8.742-6.139c3.223-1.426,6.664-2.139,10.324-2.139h0.092
			c3.658,0,7.115,0.713,10.369,2.139c3.256,1.428,6.152,3.473,8.695,6.139c2.232,2.356,4,4.991,5.303,7.904
			c1.301,2.915,2.105,6.015,2.418,9.301v2.045v8.557v5.58C346.333,188.273,345.651,191.746,344.348,195.031z"/>
		<path style="fill:#231F20;" d="M388.522,185.359h-12.834l-9.299,26.783h-16.834l23.994-69.191h17.113l23.994,69.191h-16.834
			L388.522,185.359z"/>
		<path style="fill:#231F20;" d="M465.618,158.575h-15.717v53.567h-15.623v-53.567h-15.717v-15.624h47.057V158.575z"/>
		<path style="fill:#231F20;" d="M521.696,142.951v69.191h-15.809l-19.531-38.688v38.688h-15.623v-69.191h15.902l19.438,38.595
			v-38.595H521.696z"/>
	</g>
</g>
</svg>
