<?xml version="1.0" encoding="iso-8859-1"?>
<!-- Generator: Adobe Illustrator 19.1.0, SVG Export Plug-In . SVG Version: 6.00 Build 0)  -->
<!DOCTYPE svg PUBLIC "-//W3C//DTD SVG 1.1//EN" "http://www.w3.org/Graphics/SVG/1.1/DTD/svg11.dtd">
<svg version="1.1" id="Layer_1" xmlns="http://www.w3.org/2000/svg" xmlns:xlink="http://www.w3.org/1999/xlink" x="0px" y="0px"
	 viewBox="0 0 297.676 239.587" style="enable-background:new 0 0 297.676 239.587;" xml:space="preserve">
<g>
	<g>
		<path d="M294.676,218.89c-13.679-22.745-49.228-38.997-90.818-38.997h-69.786l-3-0.081H70.866C33.445,179.812,3,149.368,3,111.946
			V3h223.81c37.422,0,67.866,30.444,67.866,67.866V218.89z"/>
		<path style="fill:#FFFFFF;" d="M226.81,6c17.248,0,33.516,6.769,45.807,19.06c12.291,12.291,19.06,28.559,19.06,45.807v87.446
			v24.5v26.774c-4.805-5.552-10.994-10.665-18.456-15.174c-18.695-11.297-43.328-17.518-69.362-17.518h-66.786v-0.081h-6H70.866
			c-17.248,0-33.516-6.769-45.807-19.06S6,129.194,6,111.946V6H226.81 M226.81,0H0v111.946c0,38.976,31.89,70.866,70.866,70.866
			h60.205v0.081h72.786c51.6,0,93.819,25.512,93.819,56.693v-56.774v-24.5V70.866C297.676,31.89,265.786,0,226.81,0L226.81,0z"/>
	</g>
	<g>
		<path style="fill:#FFFFFF;" d="M86.37,88.64c2.976,1.551,5.362,3.767,7.161,6.649c1.797,2.883,2.697,6.092,2.697,9.626
			c0,2.543-0.481,4.929-1.442,7.161c-0.962,2.231-2.264,4.17-3.906,5.812c-1.644,1.644-3.581,2.945-5.812,3.905
			c-2.232,0.962-4.62,1.441-7.161,1.441h-0.465H56.238V54.045h21.204h0.465c2.542,0,4.929,0.48,7.161,1.441
			c2.232,0.962,4.169,2.264,5.812,3.906c1.642,1.644,2.944,3.58,3.906,5.813c0.96,2.231,1.442,4.619,1.442,7.161
			c0,3.533-0.9,6.742-2.697,9.625C91.732,84.874,89.346,87.092,86.37,88.64z"/>
		<path style="fill:#FFFFFF;" d="M117.897,69.576v11.159h19.716v15.624h-19.716v11.16h26.784v15.624h-42.408V53.952h42.408v15.624
			H117.897z"/>
		<path style="fill:#FFFFFF;" d="M178.718,123.143l-12.09-26.226h-0.186v26.226h-15.624V53.952h21.018h0.093
			c2.976,0,5.781,0.558,8.417,1.674c2.635,1.116,4.929,2.65,6.882,4.604s3.488,4.231,4.604,6.835
			c1.116,2.604,1.674,5.395,1.674,8.37c0,4.217-1.085,8.015-3.255,11.393c-2.171,3.38-5.021,5.968-8.556,7.766l13.113,28.551
			H178.718z"/>
		<path style="fill:#FFFFFF;" d="M214.987,69.576v11.159h19.716v15.624h-19.716v11.16h26.784v15.624h-42.408V53.952h42.408v15.624
			H214.987z"/>
	</g>
</g>
</svg>
