<?xml version="1.0" encoding="iso-8859-1"?>
<!-- Generator: Adobe Illustrator 19.1.0, SVG Export Plug-In . SVG Version: 6.00 Build 0)  -->
<!DOCTYPE svg PUBLIC "-//W3C//DTD SVG 1.1//EN" "http://www.w3.org/Graphics/SVG/1.1/DTD/svg11.dtd">
<svg version="1.1" id="Layer_1" xmlns="http://www.w3.org/2000/svg" xmlns:xlink="http://www.w3.org/1999/xlink" x="0px" y="0px"
	 viewBox="0 0 251.905 242.587" style="enable-background:new 0 0 251.905 242.587;" xml:space="preserve">
<g>
	<g>
		<path style="fill:#FFFFFF;" d="M3,239.587V127.641c0-37.422,30.444-67.866,67.866-67.866h63.206v-0.081h23.967
			c41.591,0,77.14-16.252,90.818-38.997v151.024c0,37.422-30.444,67.866-67.866,67.866H3z"/>
		<path d="M245.857,30v26.774v24.5v90.446c0,17.248-6.769,33.516-19.06,45.807c-12.291,12.291-28.559,19.06-45.807,19.06H6V127.641
			c0-17.248,6.769-33.516,19.06-45.807c12.291-12.291,28.558-19.06,45.807-19.06h60.205h6v-0.082h20.967
			c26.034,0,50.668-6.222,69.363-17.518C234.863,40.665,241.052,35.553,245.857,30 M251.857,0c0,31.181-42.218,56.693-93.819,56.693
			h-26.967v0.082H70.866C31.89,56.774,0,88.664,0,127.641v114.946h180.991c38.976,0,70.866-31.89,70.866-70.866V81.274v-24.5V0
			L251.857,0z"/>
	</g>
	<g>
		<path style="fill:#231F20;" d="M46.364,93.451v10.248l-3.232,5.674h-6.223l3.233-5.674h-3.965V93.451H46.364z"/>
		<path style="fill:#231F20;" d="M63.505,116.205l19.275,22.631H72.533l-11.59-12.871v12.871H50.695V93.451h10.248v12.993
			l11.651-12.993h10.248L63.505,116.205z"/>
		<path style="fill:#231F20;" d="M145.001,103.699l-17.69,24.889h17.69v10.248h-29.585v-10.248l17.629-24.889h-17.629V93.451h29.585
			V103.699z"/>
		<path style="fill:#231F20;" d="M159.518,138.836H149.27V93.451h10.248V138.836z"/>
		<path style="fill:#231F20;" d="M197.337,93.451v45.385h-10.369l-12.811-25.377v25.377H163.91V93.451h10.432l12.748,25.315V93.451
			H197.337z"/>
		<path style="fill:#231F20;" d="M66.555,168.699h-10.31v35.137H45.998v-35.137H35.689v-10.248h30.866V168.699z"/>
		<path style="fill:#231F20;" d="M80.097,168.699v7.32h12.932v10.248H80.097v7.32h17.567v10.248H69.849v-45.385h27.815v10.248
			H80.097z"/>
		<path style="fill:#231F20;" d="M132.007,168.699h-10.31v35.137H111.45v-35.137h-10.309v-10.248h30.866V168.699z"/>
		<path style="fill:#231F20;" d="M165.619,168.699h-10.31v35.137h-10.248v-35.137h-10.309v-10.248h30.866V168.699z"/>
		<path style="fill:#231F20;" d="M179.16,168.699v7.32h12.932v10.248H179.16v7.32h17.568v10.248h-27.816v-45.385h27.816v10.248
			H179.16z"/>
	</g>
</g>
</svg>
