<?xml version="1.0" encoding="iso-8859-1"?>
<!-- Generator: Adobe Illustrator 19.1.0, SVG Export Plug-In . SVG Version: 6.00 Build 0)  -->
<!DOCTYPE svg PUBLIC "-//W3C//DTD SVG 1.1//EN" "http://www.w3.org/Graphics/SVG/1.1/DTD/svg11.dtd">
<svg version="1.1" id="Layer_1" xmlns="http://www.w3.org/2000/svg" xmlns:xlink="http://www.w3.org/1999/xlink" x="0px" y="0px"
	 viewBox="0 0 834.303 429.891" style="enable-background:new 0 0 834.303 429.891;" xml:space="preserve">
<g>
	<g>
		<path style="fill:#EB2F2B;" d="M831.303,404.48c-17.922-36.997-73.944-64.06-140.096-64.06H202.915v-0.124h-94.827
			C50.142,340.297,3,293.154,3,235.209V3h723.215c57.945,0,105.088,47.143,105.088,105.088V404.48z"/>
		<path style="fill:#FFFFFF;" d="M726.215,6c27.149,0,52.753,10.652,72.094,29.993c19.341,19.342,29.993,44.945,29.993,72.094
			v197.841v37.368v50.03c-7.602-10.987-18.695-21.038-32.931-29.641c-28.029-16.938-65.022-26.265-104.164-26.265H205.915v-0.124h-6
			h-91.827c-27.149,0-52.753-10.652-72.094-29.994C16.652,287.962,6,262.358,6,235.209V6H726.215 M726.215,0H0v235.208
			c0,59.448,48.64,108.088,108.088,108.088h91.827v0.124h491.292c78.703,0,143.096,38.912,143.096,86.47v-86.594v-37.368V108.088
			C834.303,48.639,785.664,0,726.215,0L726.215,0z"/>
	</g>
	<g>
		<path style="fill:#FFFFFF;" d="M91.551,88.943v14.4h25.44v20.16h-25.44v34.561h-20.16V68.783h54.72v20.16H91.551z"/>
		<path style="fill:#FFFFFF;" d="M189.23,130.824c-0.08,3.762-0.86,7.301-2.34,10.619c-1.481,3.32-3.461,6.201-5.939,8.641
			c-2.48,2.441-5.4,4.381-8.76,5.82c-3.36,1.439-6.92,2.16-10.68,2.16c-3.84,0-7.421-0.721-10.74-2.16
			c-3.32-1.439-6.24-3.42-8.76-5.939c-2.52-2.521-4.5-5.461-5.94-8.82c-1.44-3.361-2.16-6.961-2.16-10.801h20.16
			c0,2.082,0.72,3.861,2.16,5.34c1.44,1.482,3.199,2.221,5.28,2.221c2.079,0,3.859-0.738,5.34-2.221
			c1.479-1.479,2.22-3.258,2.22-5.34V68.783h20.159V130.824z"/>
		<path style="fill:#FFFFFF;" d="M217.67,158.064h-20.16V68.783h20.16V158.064z"/>
		<path style="fill:#FFFFFF;" d="M246.35,88.943v14.4h25.439v20.16H246.35v14.4h34.56v20.16h-54.72V68.783h54.72v20.16H246.35z"/>
		<path style="fill:#FFFFFF;" d="M344.028,130.343c0,1.439-0.102,2.842-0.3,4.201c-0.201,1.359-0.501,2.719-0.9,4.078
			c-0.881,2.803-2.16,5.4-3.84,7.801s-3.681,4.461-6,6.18c-2.321,1.723-4.881,3.061-7.68,4.02c-2.802,0.961-5.761,1.441-8.881,1.441
			c-3.84,0-7.421-0.721-10.739-2.16c-3.321-1.439-6.24-3.42-8.761-5.939c-2.52-2.521-4.5-5.461-5.939-8.82
			c-1.44-3.361-2.16-6.961-2.16-10.801h20.16c0,2.082,0.72,3.861,2.16,5.34c1.439,1.482,3.198,2.221,5.279,2.221
			c1.681,0,3.16-0.5,4.44-1.5c1.278-1,2.16-2.26,2.64-3.781c0.24-0.639,0.36-1.359,0.36-2.158c0-2.08-0.72-3.76-2.16-5.041
			c-1.439-1.279-3.2-1.92-5.28-1.92c-3.84,0-7.421-0.699-10.739-2.1c-3.321-1.398-6.24-3.318-8.761-5.76
			c-2.52-2.439-4.5-5.299-5.939-8.58c-1.44-3.279-2.16-6.84-2.16-10.68c0-1.359,0.1-2.719,0.3-4.08
			c0.199-1.359,0.499-2.719,0.9-4.08c0.879-2.801,2.16-5.4,3.84-7.801s3.679-4.459,6-6.18c2.319-1.719,4.879-3.061,7.68-4.02
			c2.8-0.961,5.761-1.441,8.88-1.441c3.841,0,7.42,0.721,10.74,2.16c3.319,1.441,6.24,3.42,8.76,5.941
			c2.521,2.52,4.5,5.459,5.94,8.818c1.44,3.361,2.16,6.922,2.16,10.682h-20.16c0-2.08-0.72-3.84-2.16-5.281
			c-1.439-1.439-3.2-2.16-5.28-2.16c-1.68,0-3.161,0.502-4.439,1.5c-1.281,1.002-2.16,2.262-2.641,3.781
			c-0.239,0.561-0.359,1.279-0.359,2.16c0,2.08,0.72,3.76,2.16,5.039c1.439,1.281,3.198,1.92,5.279,1.92
			c3.841,0,7.42,0.701,10.74,2.1c3.319,1.4,6.24,3.32,8.76,5.76c2.521,2.441,4.5,5.301,5.94,8.58
			C343.309,123.064,344.028,126.584,344.028,130.343z"/>
		<path style="fill:#FFFFFF;" d="M411.107,88.943h-20.279v69.121h-20.16V88.943h-20.28v-20.16h60.72V88.943z"/>
		<path style="fill:#FFFFFF;" d="M437.746,88.943v14.4h25.439v20.16h-25.439v14.4h34.56v20.16h-54.72V68.783h54.72v20.16H437.746z"
			/>
		<path style="fill:#FFFFFF;" d="M546.105,68.783v89.281h-20.399l-25.2-49.92v49.92h-20.16V68.783h20.52l25.08,49.801V68.783
			H546.105z"/>
		<path style="fill:#FFFFFF;" d="M656.743,137.904v20.16h-44.04V68.783h20.16v69.121H656.743z"/>
		<path style="fill:#FFFFFF;" d="M684.583,158.064h-20.16V68.783h20.16V158.064z"/>
		<path style="fill:#FFFFFF;" d="M718.303,113.545l37.92,44.52h-20.16l-22.8-25.32v25.32h-20.16V68.783h20.16v25.561l22.92-25.561
			h20.16L718.303,113.545z"/>
		<path style="fill:#FFFFFF;" d="M134.392,233.424c0,6-1.122,11.699-3.36,17.1c-2.24,5.4-5.52,10.26-9.84,14.58
			c-4.001,3.922-8.501,6.98-13.5,9.18c-5,2.201-10.26,3.463-15.78,3.781h-2.64h-18v-89.281h18c6,0,11.739,1.102,17.22,3.301
			c5.479,2.201,10.38,5.42,14.7,9.66c4.32,4.32,7.6,9.18,9.84,14.58C133.27,221.724,134.392,227.424,134.392,233.424z"/>
		<path style="fill:#FFFFFF;" d="M161.151,208.943v14.4h25.44v20.16h-25.44v14.4h34.56v20.16h-54.72v-89.281h54.72v20.16H161.151z"
			/>
		<path style="fill:#FFFFFF;" d="M302.509,233.545c3.84,2,6.919,4.859,9.24,8.578c2.319,3.721,3.479,7.861,3.479,12.422
			c0,3.281-0.62,6.359-1.859,9.238c-1.241,2.881-2.922,5.383-5.04,7.5c-2.121,2.121-4.62,3.801-7.5,5.041s-5.961,1.859-9.24,1.859
			h-0.6h-27.36v-89.279h27.36h0.6c3.279,0,6.36,0.621,9.24,1.859c2.88,1.242,5.379,2.922,7.5,5.041
			c2.118,2.119,3.799,4.619,5.04,7.5c1.239,2.879,1.859,5.959,1.859,9.24c0,4.559-1.16,8.699-3.479,12.42
			C309.428,228.683,306.349,231.545,302.509,233.545z"/>
		<path style="fill:#FFFFFF;" d="M378.349,250.824c-0.081,3.762-0.861,7.301-2.34,10.619c-1.481,3.32-3.462,6.201-5.94,8.641
			c-2.48,2.441-5.4,4.381-8.76,5.82c-3.36,1.439-6.921,2.16-10.681,2.16c-3.84,0-7.421-0.721-10.739-2.16
			c-3.321-1.439-6.24-3.42-8.761-5.939c-2.52-2.521-4.5-5.461-5.939-8.82c-1.44-3.361-2.16-6.961-2.16-10.801h20.16
			c0,2.082,0.72,3.861,2.16,5.34c1.439,1.482,3.198,2.221,5.279,2.221c2.08,0,3.859-0.738,5.341-2.221
			c1.479-1.479,2.22-3.258,2.22-5.34v-61.561h20.16V250.824z"/>
		<path style="fill:#FFFFFF;" d="M406.788,278.064h-20.16v-89.281h20.16V278.064z"/>
		<path style="fill:#FFFFFF;" d="M435.468,208.943v14.4h25.439v20.16h-25.439v14.4h34.56v20.16h-54.72v-89.281h54.72v20.16H435.468z
			"/>
		<path style="fill:#FFFFFF;" d="M533.147,250.343c0,1.439-0.102,2.842-0.3,4.201c-0.201,1.359-0.501,2.719-0.9,4.078
			c-0.881,2.803-2.16,5.4-3.84,7.801s-3.681,4.461-6,6.18c-2.321,1.723-4.881,3.061-7.68,4.02c-2.802,0.961-5.761,1.441-8.881,1.441
			c-3.84,0-7.421-0.721-10.739-2.16c-3.321-1.439-6.24-3.42-8.761-5.939c-2.52-2.521-4.5-5.461-5.939-8.82
			c-1.44-3.361-2.16-6.961-2.16-10.801h20.16c0,2.082,0.72,3.861,2.16,5.34c1.439,1.482,3.198,2.221,5.279,2.221
			c1.681,0,3.16-0.5,4.44-1.5c1.278-1,2.16-2.26,2.64-3.781c0.24-0.639,0.36-1.359,0.36-2.158c0-2.08-0.72-3.76-2.16-5.041
			c-1.439-1.279-3.2-1.92-5.28-1.92c-3.84,0-7.421-0.699-10.739-2.1c-3.321-1.398-6.24-3.318-8.761-5.76
			c-2.52-2.439-4.5-5.299-5.939-8.58c-1.44-3.279-2.16-6.84-2.16-10.68c0-1.359,0.1-2.719,0.3-4.08
			c0.199-1.359,0.499-2.719,0.9-4.08c0.879-2.801,2.16-5.4,3.84-7.801s3.679-4.459,6-6.18c2.319-1.719,4.879-3.061,7.68-4.02
			c2.8-0.961,5.761-1.441,8.88-1.441c3.841,0,7.42,0.721,10.74,2.16c3.319,1.441,6.24,3.42,8.76,5.941
			c2.521,2.52,4.5,5.459,5.94,8.818c1.44,3.361,2.16,6.922,2.16,10.682h-20.16c0-2.08-0.72-3.84-2.16-5.281
			c-1.439-1.439-3.2-2.16-5.28-2.16c-1.68,0-3.161,0.502-4.439,1.5c-1.281,1.002-2.16,2.262-2.641,3.781
			c-0.239,0.561-0.359,1.279-0.359,2.16c0,2.08,0.72,3.76,2.16,5.039c1.439,1.281,3.198,1.92,5.279,1.92
			c3.841,0,7.42,0.701,10.74,2.1c3.319,1.4,6.24,3.32,8.76,5.76c2.521,2.441,4.5,5.301,5.94,8.58
			C532.427,243.064,533.147,246.584,533.147,250.343z"/>
		<path style="fill:#FFFFFF;" d="M600.225,208.943h-20.279v69.121h-20.16v-69.121h-20.28v-20.16h60.72V208.943z"/>
		<path style="fill:#FFFFFF;" d="M626.864,208.943v14.4h25.439v20.16h-25.439v14.4h34.56v20.16h-54.72v-89.281h54.72v20.16H626.864z
			"/>
		<path style="fill:#FFFFFF;" d="M735.223,188.783v89.281h-20.399l-25.2-49.92v49.92h-20.16v-89.281h20.52l25.08,49.801v-49.801
			H735.223z"/>
	</g>
</g>
</svg>
