<?xml version="1.0" encoding="iso-8859-1"?>
<!-- Generator: Adobe Illustrator 19.1.0, SVG Export Plug-In . SVG Version: 6.00 Build 0)  -->
<!DOCTYPE svg PUBLIC "-//W3C//DTD SVG 1.1//EN" "http://www.w3.org/Graphics/SVG/1.1/DTD/svg11.dtd">
<svg version="1.1" id="Layer_1" xmlns="http://www.w3.org/2000/svg" xmlns:xlink="http://www.w3.org/1999/xlink" x="0px" y="0px"
	 viewBox="0 0 202.905 309.587" style="enable-background:new 0 0 202.905 309.587;" xml:space="preserve">
<g>
	<g>
		<path style="fill:#FFFFFF;" d="M3,70.866C3,33.444,33.444,3,70.866,3h128.991v178.946c0,37.422-30.444,67.866-67.866,67.866
			H98.785l-5.024,0.082C52.195,249.91,16.672,266.157,3,288.89V70.866z"/>
		<path d="M196.857,6v175.946c0,17.248-6.769,33.516-19.06,45.807c-12.291,12.291-28.558,19.06-45.807,19.06H98.785h-0.049
			l-0.049,0.001l-4.953,0.081c-26.003,0.014-50.605,6.234-69.279,17.518c-7.462,4.509-13.651,9.622-18.456,15.174v-26.774v-24.5
			V70.866C6,53.618,12.769,37.35,25.06,25.06C37.35,12.769,53.618,6,70.866,6H196.857 M202.857,0H70.866C31.89,0,0,31.89,0,70.866
			v157.446v24.5v56.774c0-31.181,42.218-56.693,93.819-56.693h-0.033l5-0.081h33.206c38.976,0,70.866-31.89,70.866-70.866V0
			L202.857,0z"/>
	</g>
	<g>
		<path style="fill:#231F20;" d="M78.267,79.336H68.019v-15.86l-5.551,15.86H52.22l-5.673-16.349v16.349H36.299V33.952H46.73
			l10.614,30.621l10.675-30.621h10.248V79.336z"/>
		<path style="fill:#231F20;" d="M116.451,68.112c-0.854,2.156-2.095,4.086-3.721,5.795c-1.668,1.789-3.568,3.152-5.703,4.087
			c-2.136,0.936-4.403,1.403-6.802,1.403h-0.062c-2.358,0-4.605-0.468-6.74-1.403c-2.135-0.935-4.057-2.277-5.765-4.026
			c-1.586-1.708-2.816-3.639-3.69-5.795c-0.875-2.154-1.331-4.453-1.372-6.893V50.666c0.203-2.155,0.741-4.188,1.616-6.101
			c0.874-1.91,2.022-3.639,3.446-5.185c1.708-1.748,3.619-3.09,5.734-4.026c2.114-0.935,4.371-1.402,6.771-1.402h0.062
			c2.398,0,4.666,0.468,6.802,1.402c2.135,0.937,4.035,2.278,5.703,4.026c1.464,1.546,2.623,3.274,3.477,5.185
			c0.854,1.912,1.383,3.945,1.587,6.101v1.342v5.612v3.66C117.753,63.679,117.306,65.957,116.451,68.112z"/>
		<path style="fill:#231F20;" d="M78.511,98.952l-15.799,45.384h-10.37L36.543,98.952h10.248l10.735,30.865l10.736-30.865H78.511z"
			/>
		<path style="fill:#231F20;" d="M90.527,144.336H80.278V98.952h10.248V144.336z"/>
		<path style="fill:#231F20;" d="M128.347,98.952v45.384h-10.37l-12.81-25.376v25.376H94.919V98.952h10.431l12.749,25.314V98.952
			H128.347z"/>
		<path style="fill:#231F20;" d="M162.018,109.2h-10.309v35.136h-10.248V109.2h-10.309V98.952h30.865V109.2z"/>
		<path style="fill:#231F20;" d="M66.555,174.2h-10.31v35.136H45.997V174.2H35.689v-10.248h30.866V174.2z"/>
		<path style="fill:#231F20;" d="M103.643,198.112c-0.854,2.156-2.095,4.086-3.721,5.795c-1.668,1.789-3.569,3.152-5.704,4.087
			c-2.135,0.936-4.402,1.403-6.802,1.403h-0.061c-2.359,0-4.605-0.468-6.74-1.403c-2.136-0.935-4.057-2.277-5.765-4.026
			c-1.586-1.708-2.816-3.639-3.69-5.795c-0.875-2.154-1.332-4.453-1.373-6.893v-10.614c0.203-2.155,0.742-4.188,1.617-6.101
			c0.874-1.91,2.022-3.639,3.446-5.185c1.708-1.748,3.619-3.09,5.733-4.026c2.114-0.935,4.371-1.402,6.771-1.402h0.061
			c2.399,0,4.667,0.468,6.802,1.402c2.135,0.937,4.036,2.278,5.704,4.026c1.464,1.546,2.622,3.274,3.477,5.185
			c0.854,1.912,1.382,3.945,1.586,6.101v1.342v5.612v3.66C104.944,193.679,104.496,195.957,103.643,198.112z"/>
		<path style="fill:#231F20;" d="M141.462,163.952v45.384h-10.248v-17.567h-12.139v17.567h-10.248v-45.384h10.248v17.568h12.139
			v-17.568H141.462z"/>
	</g>
</g>
</svg>
