<?xml version="1.0" encoding="iso-8859-1"?>
<!-- Generator: Adobe Illustrator 19.1.0, SVG Export Plug-In . SVG Version: 6.00 Build 0)  -->
<!DOCTYPE svg PUBLIC "-//W3C//DTD SVG 1.1//EN" "http://www.w3.org/Graphics/SVG/1.1/DTD/svg11.dtd">
<svg version="1.1" id="Layer_1" xmlns="http://www.w3.org/2000/svg" xmlns:xlink="http://www.w3.org/1999/xlink" x="0px" y="0px"
	 viewBox="0 0 352.857 252.56" style="enable-background:new 0 0 352.857 252.56;" xml:space="preserve">
<g>
	<g>
		<path style="fill:#231F20;" d="M349.858,231.864c-13.124-21.822-46.379-37.667-85.786-38.917v-0.08l-3-0.081H70.866
			C33.445,192.786,3,162.341,3,124.919V3h278.991c37.422,0,67.866,30.444,67.866,67.866V231.864z"/>
		<path style="fill:#FFFFFF;" d="M281.991,6c17.248,0,33.516,6.769,45.807,19.06c12.291,12.291,19.06,28.559,19.06,45.807v100.419
			v24.5v26.773c-4.805-5.553-10.994-10.665-18.456-15.174c-16.759-10.128-38.294-16.176-61.33-17.32v-0.279h-6H70.866
			c-17.248,0-33.516-6.769-45.807-19.06C12.769,158.435,6,142.168,6,124.919V6H281.991 M281.991,0H0v124.919
			c0,38.977,31.89,70.866,70.866,70.866h190.205v0.081h-2.033c51.6,0,93.819,25.512,93.819,56.693v-56.774v-24.5V70.866
			C352.857,31.89,320.967,0,281.991,0L281.991,0z"/>
	</g>
	<g>
		<path style="fill:#FFFFFF;" d="M47.858,33.952v11.76l-3.71,6.51h-7.14l3.71-6.51h-4.55v-11.76H47.858z"/>
		<path style="fill:#FFFFFF;" d="M67.528,60.061l22.12,25.971h-11.76l-13.3-14.77v14.77h-11.76v-52.08h11.76v14.91l13.37-14.91
			h11.76L67.528,60.061z"/>
		<path style="fill:#FFFFFF;" d="M161.047,45.711l-20.3,28.561h20.3v11.76h-33.95v-11.76l20.23-28.561h-20.23v-11.76h33.95V45.711z"
			/>
		<path style="fill:#FFFFFF;" d="M177.706,86.032h-11.76v-52.08h11.76V86.032z"/>
		<path style="fill:#FFFFFF;" d="M221.106,33.952v52.08h-11.899l-14.7-29.12v29.12h-11.76v-52.08h11.97l14.63,29.051V33.952H221.106
			z"/>
		<path style="fill:#FFFFFF;" d="M271.575,33.952v11.76l-3.71,6.51h-7.141l3.711-6.51h-4.551v-11.76H271.575z"/>
		<path style="fill:#FFFFFF;" d="M311.335,45.711h-11.83v40.32h-11.76v-40.32h-11.83v-11.76h35.42V45.711z"/>
		<path style="fill:#FFFFFF;" d="M76.068,130.102c0,0.234,0,0.467,0,0.699c0,0.234-0.024,0.467-0.07,0.701v19.529h-10.85v-2.66
			c-1.4,0.84-2.882,1.506-4.445,1.995c-1.564,0.49-3.162,0.735-4.795,0.735h-0.07c-2.754,0-5.355-0.536-7.805-1.61
			c-2.45-1.073-4.632-2.612-6.545-4.62c-1.82-1.96-3.232-4.165-4.235-6.615c-1.004-2.449-1.528-5.027-1.575-7.734v-10.78
			c0-2.8,0.502-5.437,1.505-7.91c1.003-2.473,2.438-4.69,4.305-6.649c1.913-2.006,4.095-3.547,6.545-4.621
			c2.45-1.072,5.051-1.609,7.805-1.609h0.07c2.706,0,5.285,0.537,7.735,1.609c2.45,1.074,4.655,2.615,6.615,4.621
			c1.866,2.007,3.301,4.27,4.305,6.789c1.003,2.521,1.505,5.181,1.505,7.98h-11.76c0-1.26-0.222-2.449-0.665-3.57
			c-0.444-1.119-1.05-2.1-1.82-2.939s-1.669-1.506-2.695-1.995c-1.027-0.49-2.124-0.735-3.29-0.735
			c-1.167,0-2.252,0.245-3.255,0.735c-1.004,0.489-1.89,1.155-2.66,1.995s-1.377,1.82-1.82,2.939
			c-0.444,1.121-0.665,2.311-0.665,3.57v10.15c0,1.26,0.221,2.449,0.665,3.57c0.443,1.119,1.05,2.1,1.82,2.939
			s1.656,1.505,2.66,1.995c1.003,0.489,2.088,0.735,3.255,0.735c1.353,0,2.578-0.304,3.675-0.91c1.096-0.606,2.041-1.424,2.835-2.45
			h-6.58v-10.851h20.3V130.102z"/>
		<path style="fill:#FFFFFF;" d="M109.037,130.872h-9.66l-7,20.16h-12.67l18.06-52.08h12.88l18.06,52.08h-12.67L109.037,130.872z"/>
		<path style="fill:#FFFFFF;" d="M167.067,110.711h-11.83v40.32h-11.76v-40.32h-11.83v-11.76h35.42V110.711z"/>
		<path style="fill:#FFFFFF;" d="M217.606,151.032h-11.76v-52.08h11.76V151.032z"/>
		<path style="fill:#FFFFFF;" d="M261.005,98.952v52.08h-11.899l-14.7-29.12v29.12h-11.76v-52.08h11.97l14.63,29.051V98.952H261.005
			z"/>
	</g>
</g>
</svg>
