<?xml version="1.0" encoding="iso-8859-1"?>
<!-- Generator: Adobe Illustrator 19.1.0, SVG Export Plug-In . SVG Version: 6.00 Build 0)  -->
<!DOCTYPE svg PUBLIC "-//W3C//DTD SVG 1.1//EN" "http://www.w3.org/Graphics/SVG/1.1/DTD/svg11.dtd">
<svg version="1.1" id="Layer_1" xmlns="http://www.w3.org/2000/svg" xmlns:xlink="http://www.w3.org/1999/xlink" x="0px" y="0px"
	 viewBox="0 0 297.857 194.109" style="enable-background:new 0 0 297.857 194.109;" xml:space="preserve">
<g>
	<g>
		<path style="fill:#EB2F2B;" d="M70.866,191.109C33.444,191.109,3,160.664,3,123.242V20.245
			c13.679,22.744,49.228,38.996,90.818,38.996h69.967l3,0.081h60.206c37.422,0,67.866,30.444,67.866,67.866v63.92H70.866z"/>
		<path style="fill:#FFFFFF;" d="M6,29.549c4.805,5.552,10.994,10.665,18.456,15.174C43.151,56.02,67.784,62.242,93.819,62.242
			h66.967v0.081h6h60.205c17.248,0,33.516,6.769,45.807,19.06s19.06,28.559,19.06,45.807v60.92H70.866
			c-17.248,0-33.516-6.769-45.807-19.06C12.769,156.758,6,140.491,6,123.243v-42.42v-24.5V29.549 M0-0.451v56.774v24.5v42.42
			c0,38.976,31.89,70.866,70.866,70.866h226.991v-66.92c0-38.976-31.89-70.866-70.866-70.866h-60.205v-0.081H93.819
			C42.218,56.242,0,30.73,0-0.451L0-0.451z"/>
	</g>
	<g>
		<path style="fill:#FFFFFF;" d="M112.006,95l-15.204,62.496H82.439l-8.232-33.937l-8.232,33.937H51.61L36.406,95h14.111
			l8.316,33.936L67.067,95H81.43l8.232,33.936L97.894,95H112.006z"/>
		<path style="fill:#FFFFFF;" d="M165.682,132.548c-0.057,3.305-0.672,6.44-1.848,9.408c-1.177,2.969-2.885,5.628-5.124,7.979
			c-2.297,2.465-4.914,4.341-7.854,5.628c-2.939,1.289-6.062,1.933-9.366,1.933h-0.084c-3.248,0-6.342-0.644-9.281-1.933
			c-2.94-1.287-5.586-3.163-7.938-5.628c-2.184-2.352-3.878-5.011-5.082-7.979c-1.205-2.968-1.835-6.104-1.89-9.408V94.916h14.111
			v37.38c0,1.512,0.266,2.94,0.799,4.284c0.531,1.344,1.26,2.52,2.184,3.527c0.924,1.009,2.002,1.807,3.234,2.395
			c1.23,0.588,2.547,0.882,3.947,0.882c1.399,0,2.701-0.294,3.906-0.882c1.204-0.588,2.269-1.386,3.192-2.395
			c0.924-1.008,1.65-2.184,2.184-3.527c0.531-1.344,0.798-2.772,0.798-4.284v-37.38h14.112V132.548z"/>
		<path style="fill:#FFFFFF;" d="M188.277,126.332l26.544,31.164H200.71l-15.96-17.725v17.725h-14.112V95h14.112v17.892L200.794,95
			h14.111L188.277,126.332z"/>
		<path style="fill:#FFFFFF;" d="M244.515,96.638c2.323,1.037,4.368,2.437,6.132,4.2c1.765,1.764,3.15,3.809,4.158,6.132
			c1.008,2.324,1.512,4.83,1.512,7.519c0,2.52-0.42,4.718-1.26,6.594c-0.84,1.877-1.877,3.527-3.107,4.956
			c-1.233,1.428-2.577,2.646-4.032,3.653c-1.457,1.009-2.829,1.905-4.116,2.688c-0.729,0.504-1.47,0.938-2.226,1.302
			c-0.757,0.365-1.303,0.827-1.639,1.386c-0.168,0.281-0.28,0.589-0.336,0.925c-0.057,0.336-0.112,0.672-0.168,1.008
			c-0.057,0.393-0.057,0.785,0,1.176h-13.944v-2.52c0-2.071,0.364-3.892,1.093-5.46c0.727-1.567,1.638-2.953,2.729-4.158
			c1.092-1.204,2.281-2.239,3.57-3.108c1.287-0.867,2.464-1.638,3.528-2.31c1.119-0.728,2.058-1.357,2.813-1.891
			c0.756-0.531,1.357-1.035,1.806-1.512c0.448-0.475,0.77-0.924,0.967-1.344c0.195-0.42,0.294-0.882,0.294-1.386
			c0-1.456-0.519-2.716-1.555-3.78c-1.036-1.063-2.282-1.596-3.737-1.596c-1.681,0-3.108,0.532-4.284,1.596
			c-1.176,1.064-1.764,2.324-1.764,3.78h-13.944c0-2.688,0.533-5.194,1.596-7.519c1.063-2.323,2.491-4.368,4.284-6.132
			c1.792-1.764,3.892-3.163,6.3-4.2c2.407-1.035,4.983-1.554,7.729-1.554h0.084C239.685,95.084,242.191,95.603,244.515,96.638z
			 M225.488,143.384h14.028v14.112h-14.028V143.384z"/>
	</g>
</g>
</svg>
