<?xml version="1.0" encoding="iso-8859-1"?>
<!-- Generator: Adobe Illustrator 19.1.0, SVG Export Plug-In . SVG Version: 6.00 Build 0)  -->
<!DOCTYPE svg PUBLIC "-//W3C//DTD SVG 1.1//EN" "http://www.w3.org/Graphics/SVG/1.1/DTD/svg11.dtd">
<svg version="1.1" id="Layer_1" xmlns="http://www.w3.org/2000/svg" xmlns:xlink="http://www.w3.org/1999/xlink" x="0px" y="0px"
	 viewBox="0 0 784.905 431.891" style="enable-background:new 0 0 784.905 431.891;" xml:space="preserve">
<g>
	<g>
		<path style="fill:#EB2F2B;" d="M3,428.891V196.682C3,138.736,50.143,91.594,108.088,91.594h94.827V91.47h438.292
			c66.151,0,122.174-27.062,140.096-64.06v296.393c0,57.945-47.143,105.088-105.088,105.088H3z"/>
		<path style="fill:#FFFFFF;" d="M778.303,38.564v50.03v37.368v197.84c0,27.149-10.652,52.753-29.993,72.094
			c-19.341,19.342-44.945,29.993-72.094,29.993H6V196.682c0-27.149,10.652-52.753,29.993-72.094
			c19.342-19.342,44.945-29.994,72.094-29.994h91.827h6V94.47h435.292c39.142,0,76.135-9.328,104.164-26.266
			C759.608,59.602,770.701,49.551,778.303,38.564 M784.303,2c0,47.559-64.393,86.47-143.095,86.47H199.915v0.124h-91.827
			C48.64,88.594,0,137.234,0,196.682v235.209h676.216c59.448,0,108.088-48.639,108.088-108.088v-197.84V88.594V2L784.303,2z"/>
	</g>
	<g>
		<path style="fill:#FFFFFF;" d="M129.911,173.944h-20.279v69.12h-20.16v-69.12h-20.28v-20.16h60.72V173.944z"/>
		<path style="fill:#FFFFFF;" d="M156.551,173.944v14.4h25.44v20.16h-25.44v14.399h34.56v20.16h-54.72v-89.28h54.72v20.16H156.551z"
			/>
		<path style="fill:#FFFFFF;" d="M318.669,173.944H298.39v69.12h-20.16v-69.12h-20.28v-20.16h60.72V173.944z"/>
		<path style="fill:#FFFFFF;" d="M345.309,243.064h-20.16v-89.28h20.16V243.064z"/>
		<path style="fill:#FFFFFF;" d="M416.948,198.424c0,6-1.121,11.699-3.36,17.1c-2.24,5.4-5.52,10.26-9.84,14.58
			c-4.001,3.921-8.501,6.98-13.5,9.18c-5.001,2.201-10.26,3.462-15.78,3.78h-2.64h-18v-89.28h18c6,0,11.739,1.101,17.22,3.3
			c5.479,2.202,10.38,5.421,14.7,9.66c4.32,4.32,7.6,9.181,9.84,14.58C415.827,186.724,416.948,192.424,416.948,198.424z"/>
		<path style="fill:#FFFFFF;" d="M546.668,198.424c0,6-1.121,11.699-3.36,17.1c-2.24,5.4-5.52,10.26-9.84,14.58
			c-4.001,3.921-8.501,6.98-13.5,9.18c-5.001,2.201-10.26,3.462-15.78,3.78h-2.64h-18v-89.28h18c6,0,11.739,1.101,17.22,3.3
			c5.479,2.202,10.38,5.421,14.7,9.66c4.32,4.32,7.6,9.181,9.84,14.58C545.547,186.724,546.668,192.424,546.668,198.424z"/>
		<path style="fill:#FFFFFF;" d="M600.067,208.504h-16.56l-12,34.56h-21.721l30.961-89.28h22.079l30.96,89.28h-21.72
			L600.067,208.504z"/>
		<path style="fill:#FFFFFF;" d="M699.545,173.944h-20.279v69.12h-20.16v-69.12h-20.28v-20.16h60.72V173.944z"/>
		<path style="fill:#FFFFFF;" d="M90.192,273.783v20.16l-6.36,11.16h-12.24l6.361-11.16h-7.801v-20.16H90.192z"/>
		<path style="fill:#FFFFFF;" d="M158.352,293.944h-20.28v69.12h-20.16v-69.12H97.632v-20.16h60.72V293.944z"/>
		<path style="fill:#FFFFFF;" d="M294.192,327.424c-0.081,4.721-0.96,9.2-2.641,13.439c-1.68,4.241-4.121,8.04-7.319,11.4
			c-3.281,3.521-7.021,6.2-11.221,8.04c-4.199,1.841-8.66,2.76-13.38,2.76h-0.12c-4.641,0-9.06-0.919-13.26-2.76
			c-4.2-1.84-7.979-4.519-11.34-8.04c-3.12-3.36-5.541-7.159-7.26-11.4c-1.722-4.239-2.621-8.719-2.7-13.439v-53.761h20.16v53.4
			c0,2.16,0.379,4.2,1.14,6.12c0.76,1.92,1.8,3.6,3.12,5.04c1.32,1.439,2.859,2.58,4.62,3.42c1.759,0.84,3.64,1.26,5.64,1.26
			c1.999,0,3.859-0.42,5.58-1.26c1.72-0.84,3.24-1.98,4.561-3.42c1.319-1.44,2.358-3.12,3.119-5.04c0.76-1.92,1.141-3.96,1.141-6.12
			v-53.4h20.16V327.424z"/>
		<path style="fill:#FFFFFF;" d="M360.91,293.944h-20.279v69.12h-20.16v-69.12h-20.28v-20.16h60.72V293.944z"/>
		<path style="fill:#FFFFFF;" d="M447.55,293.944v14.4h25.439v20.16H447.55v14.399h34.56v20.16h-54.72v-89.28h54.72v20.16H447.55z"
			/>
		<path style="fill:#FFFFFF;" d="M545.229,335.344c0,1.439-0.102,2.841-0.3,4.2c-0.201,1.36-0.501,2.72-0.9,4.079
			c-0.881,2.802-2.16,5.4-3.84,7.801c-1.68,2.399-3.681,4.46-6,6.18c-2.321,1.722-4.881,3.06-7.68,4.02
			c-2.802,0.96-5.761,1.44-8.881,1.44c-3.84,0-7.421-0.72-10.739-2.16c-3.321-1.439-6.24-3.42-8.761-5.939
			c-2.52-2.521-4.5-5.46-5.939-8.82c-1.44-3.36-2.16-6.96-2.16-10.8h20.16c0,2.081,0.72,3.86,2.16,5.34
			c1.439,1.481,3.198,2.22,5.279,2.22c1.681,0,3.16-0.499,4.44-1.5c1.278-0.999,2.16-2.259,2.64-3.78
			c0.24-0.639,0.36-1.359,0.36-2.159c0-2.08-0.72-3.76-2.16-5.04c-1.439-1.279-3.2-1.92-5.28-1.92c-3.84,0-7.421-0.7-10.739-2.101
			c-3.321-1.398-6.24-3.318-8.761-5.76c-2.52-2.439-4.5-5.299-5.939-8.58c-1.44-3.279-2.16-6.84-2.16-10.68
			c0-1.359,0.1-2.719,0.3-4.08c0.199-1.359,0.499-2.719,0.9-4.08c0.879-2.8,2.16-5.4,3.84-7.8c1.68-2.4,3.679-4.459,6-6.181
			c2.319-1.719,4.879-3.06,7.68-4.02c2.8-0.96,5.761-1.44,8.88-1.44c3.841,0,7.42,0.721,10.74,2.16c3.319,1.44,6.24,3.42,8.76,5.94
			c2.521,2.52,4.5,5.46,5.94,8.819c1.44,3.36,2.16,6.921,2.16,10.681h-20.16c0-2.08-0.72-3.84-2.16-5.28
			c-1.439-1.44-3.2-2.16-5.28-2.16c-1.68,0-3.161,0.501-4.439,1.5c-1.281,1.001-2.16,2.262-2.641,3.78
			c-0.239,0.561-0.359,1.28-0.359,2.16c0,2.081,0.72,3.761,2.16,5.04c1.439,1.28,3.198,1.92,5.279,1.92
			c3.841,0,7.42,0.701,10.74,2.1c3.319,1.4,6.24,3.32,8.76,5.76c2.521,2.441,4.5,5.301,5.94,8.58
			C544.509,328.065,545.229,331.584,545.229,335.344z"/>
	</g>
</g>
</svg>
