<?xml version="1.0" encoding="iso-8859-1"?>
<!-- Generator: Adobe Illustrator 19.1.0, SVG Export Plug-In . SVG Version: 6.00 Build 0)  -->
<!DOCTYPE svg PUBLIC "-//W3C//DTD SVG 1.1//EN" "http://www.w3.org/Graphics/SVG/1.1/DTD/svg11.dtd">
<svg version="1.1" id="Layer_1" xmlns="http://www.w3.org/2000/svg" xmlns:xlink="http://www.w3.org/1999/xlink" x="0px" y="0px"
	 viewBox="0 0 202.905 309.587" style="enable-background:new 0 0 202.905 309.587;" xml:space="preserve">
<g>
	<g>
		<path style="fill:#FFFFFF;" d="M3,306.087V127.14c0-37.421,30.444-67.865,67.866-67.865h33.206l5.024-0.082
			c41.565-0.016,77.089-16.263,90.761-38.996v218.024c0,37.422-30.444,67.866-67.866,67.866H3z"/>
		<path d="M196.857,29.5v26.774v24.5v157.446c0,17.248-6.769,33.516-19.06,45.807s-28.558,19.06-45.807,19.06H6V127.14
			c0-17.248,6.769-33.516,19.06-45.807c12.291-12.291,28.559-19.06,45.807-19.06h33.206h0.049l0.049-0.001l4.953-0.08
			c26.004-0.013,50.604-6.233,69.279-17.518C185.863,40.165,192.052,35.053,196.857,29.5 M202.857-0.5
			c0,31.181-42.218,56.693-93.819,56.693h0.033l-5,0.081H70.866C31.89,56.274,0,88.164,0,127.14v181.946h131.991
			c38.976,0,70.866-31.89,70.866-70.866V80.774v-24.5V-0.5L202.857-0.5z"/>
	</g>
	<g>
		<path style="fill:#231F20;" d="M78.267,135.335H68.019v-15.859l-5.551,15.859H52.22l-5.673-16.348v16.348H36.299V89.951H46.73
			l10.614,30.622l10.675-30.622h10.248V135.335z"/>
		<path style="fill:#231F20;" d="M116.452,124.111c-0.854,2.156-2.095,4.088-3.721,5.795c-1.668,1.791-3.568,3.152-5.703,4.088
			c-2.136,0.936-4.403,1.402-6.802,1.402h-0.062c-2.358,0-4.605-0.467-6.74-1.402s-4.057-2.277-5.765-4.026
			c-1.586-1.708-2.816-3.639-3.69-5.795c-0.875-2.155-1.331-4.453-1.372-6.894v-10.613c0.203-2.155,0.741-4.188,1.616-6.1
			c0.874-1.912,2.022-3.64,3.446-5.186c1.708-1.748,3.619-3.09,5.734-4.025c2.114-0.936,4.371-1.403,6.771-1.403h0.062
			c2.398,0,4.666,0.468,6.802,1.403c2.135,0.936,4.035,2.277,5.703,4.025c1.464,1.546,2.623,3.273,3.477,5.186
			c0.854,1.912,1.383,3.944,1.587,6.1v1.342v5.612v3.659C117.754,119.679,117.306,121.956,116.452,124.111z"/>
		<path style="fill:#231F20;" d="M78.511,154.951l-15.799,45.384h-10.37l-15.799-45.384h10.248l10.735,30.866l10.736-30.866H78.511z
			"/>
		<path style="fill:#231F20;" d="M90.527,200.335H80.279v-45.384h10.248V200.335z"/>
		<path style="fill:#231F20;" d="M128.347,154.951v45.384h-10.37l-12.81-25.376v25.376H94.92v-45.384h10.431l12.749,25.315v-25.315
			H128.347z"/>
		<path style="fill:#231F20;" d="M162.018,165.198H151.71v35.137h-10.248v-35.137h-10.309v-10.247h30.865V165.198z"/>
		<path style="fill:#231F20;" d="M66.555,230.198h-10.31v35.137H45.998v-35.137H35.689v-10.247h30.866V230.198z"/>
		<path style="fill:#231F20;" d="M103.643,254.111c-0.854,2.156-2.095,4.088-3.721,5.795c-1.668,1.791-3.569,3.152-5.704,4.088
			s-4.402,1.402-6.802,1.402h-0.061c-2.359,0-4.605-0.467-6.74-1.402c-2.136-0.936-4.057-2.277-5.765-4.026
			c-1.586-1.708-2.816-3.639-3.69-5.795c-0.875-2.155-1.332-4.453-1.373-6.894v-10.613c0.203-2.155,0.742-4.188,1.617-6.1
			c0.874-1.912,2.022-3.64,3.446-5.186c1.708-1.748,3.619-3.09,5.733-4.025s4.371-1.403,6.771-1.403h0.061
			c2.399,0,4.667,0.468,6.802,1.403s4.036,2.277,5.704,4.025c1.464,1.546,2.622,3.273,3.477,5.186
			c0.854,1.912,1.382,3.944,1.586,6.1v1.342v5.612v3.659C104.944,249.679,104.497,251.956,103.643,254.111z"/>
		<path style="fill:#231F20;" d="M141.462,219.951v45.384h-10.248v-17.568h-12.139v17.568h-10.248v-45.384h10.248v17.567h12.139
			v-17.567H141.462z"/>
	</g>
</g>
</svg>
