<?xml version="1.0" encoding="iso-8859-1"?>
<!-- Generator: Adobe Illustrator 19.1.0, SVG Export Plug-In . SVG Version: 6.00 Build 0)  -->
<!DOCTYPE svg PUBLIC "-//W3C//DTD SVG 1.1//EN" "http://www.w3.org/Graphics/SVG/1.1/DTD/svg11.dtd">
<svg version="1.1" id="Layer_1" xmlns="http://www.w3.org/2000/svg" xmlns:xlink="http://www.w3.org/1999/xlink" x="0px" y="0px"
	 viewBox="0 0 297.857 242.587" style="enable-background:new 0 0 297.857 242.587;" xml:space="preserve">
<g>
	<g>
		<path style="fill:#231F20;" d="M294.857,221.891c-13.679-22.745-49.228-38.997-90.818-38.997h-69.967l-3-0.081H70.866
			C33.445,182.812,3,152.368,3,114.946V3h223.991c37.422,0,67.866,30.444,67.866,67.866V221.891z"/>
		<path style="fill:#FFFFFF;" d="M226.991,6c17.248,0,33.516,6.769,45.807,19.06c12.291,12.291,19.06,28.558,19.06,45.807v90.446
			v24.5v26.774c-4.805-5.553-10.994-10.665-18.456-15.174c-18.695-11.297-43.328-17.518-69.363-17.518h-66.967v-0.081h-6H70.866
			c-17.248,0-33.516-6.769-45.807-19.06S6,132.194,6,114.946V6H226.991 M226.991,0H0v114.946c0,38.976,31.89,70.866,70.866,70.866
			h60.205v0.081h72.967c51.6,0,93.819,25.512,93.819,56.693v-56.774v-24.5V70.866C297.857,31.89,265.967,0,226.991,0L226.991,0z"/>
	</g>
	<g>
		<path style="fill:#FFFFFF;" d="M70.947,61.098c0,0.203,0,0.406,0,0.609c0,0.204-0.021,0.406-0.061,0.609v17.02h-9.455v-2.318
			c-1.22,0.732-2.511,1.312-3.874,1.738c-1.363,0.428-2.755,0.641-4.178,0.641h-0.061c-2.4,0-4.667-0.467-6.802-1.402
			c-2.135-0.936-4.036-2.277-5.703-4.026c-1.586-1.708-2.817-3.63-3.691-5.765c-0.875-2.135-1.331-4.381-1.372-6.74v-9.395
			c0-2.439,0.438-4.736,1.312-6.893c0.874-2.154,2.125-4.087,3.751-5.795c1.667-1.748,3.568-3.09,5.703-4.025
			c2.135-0.936,4.402-1.403,6.802-1.403h0.061c2.358,0,4.605,0.468,6.74,1.403c2.135,0.936,4.057,2.277,5.765,4.025
			c1.626,1.749,2.876,3.721,3.751,5.917c0.874,2.196,1.312,4.515,1.312,6.954H60.699c0-1.098-0.193-2.135-0.58-3.111
			c-0.387-0.976-0.915-1.83-1.586-2.562s-1.455-1.312-2.349-1.739c-0.895-0.426-1.851-0.641-2.867-0.641
			c-1.017,0-1.962,0.215-2.836,0.641c-0.875,0.428-1.647,1.008-2.318,1.739c-0.671,0.731-1.2,1.586-1.586,2.562
			c-0.387,0.977-0.58,2.014-0.58,3.111v8.846c0,1.098,0.193,2.135,0.58,3.11c0.386,0.976,0.915,1.83,1.586,2.562
			c0.671,0.732,1.443,1.312,2.318,1.738c0.874,0.428,1.819,0.641,2.836,0.641c1.179,0,2.247-0.264,3.203-0.793
			c0.955-0.527,1.778-1.24,2.47-2.135h-5.734v-9.455h17.69V61.098z"/>
		<path style="fill:#FFFFFF;" d="M86.135,79.336H75.887V33.952h10.248V79.336z"/>
		<path style="fill:#FFFFFF;" d="M100.775,44.199v7.32h12.932v10.248h-12.932v17.568H90.527V33.952h27.816v10.247H100.775z"/>
		<path style="fill:#FFFFFF;" d="M194.837,79.336h-10.248V63.476l-5.551,15.859h-10.248l-5.674-16.348v16.348h-10.248V33.952H163.3
			l10.614,30.622l10.676-30.622h10.248V79.336z"/>
		<path style="fill:#FFFFFF;" d="M233.022,68.111c-0.854,2.156-2.095,4.088-3.721,5.795c-1.668,1.791-3.568,3.152-5.704,4.088
			c-2.135,0.936-4.402,1.402-6.801,1.402h-0.062c-2.358,0-4.605-0.467-6.74-1.402s-4.057-2.277-5.765-4.026
			c-1.586-1.708-2.816-3.639-3.69-5.795c-0.875-2.155-1.331-4.453-1.372-6.894V50.666c0.202-2.155,0.741-4.188,1.616-6.1
			c0.874-1.912,2.022-3.64,3.446-5.186c1.708-1.748,3.619-3.09,5.734-4.025c2.113-0.936,4.371-1.403,6.771-1.403h0.062
			c2.398,0,4.666,0.468,6.801,1.403c2.136,0.936,4.036,2.277,5.704,4.025c1.464,1.546,2.623,3.273,3.477,5.186
			c0.854,1.912,1.382,3.944,1.586,6.1v1.342v5.612v3.659C234.323,63.68,233.877,65.957,233.022,68.111z"/>
		<path style="fill:#FFFFFF;" d="M53.196,134.148c1.016,0,1.961-0.213,2.836-0.641c0.874-0.426,1.647-1.006,2.318-1.738
			c0.671-0.731,1.199-1.586,1.586-2.562c0.386-0.976,0.579-2.013,0.579-3.11h10.248c0,2.439-0.427,4.758-1.281,6.953
			c-0.854,2.196-2.115,4.169-3.782,5.917c-1.668,1.749-3.568,3.091-5.704,4.026c-2.135,0.936-4.402,1.402-6.801,1.402h-0.061
			c-2.4,0-4.657-0.467-6.771-1.402c-2.115-0.936-4.026-2.277-5.734-4.026c-1.586-1.708-2.816-3.63-3.69-5.765
			s-1.332-4.381-1.373-6.74v-9.395c0.041-2.439,0.488-4.736,1.342-6.893c0.854-2.154,2.094-4.087,3.721-5.795
			c1.708-1.748,3.619-3.09,5.734-4.025c2.114-0.936,4.371-1.403,6.771-1.403h0.061c2.399,0,4.667,0.468,6.801,1.403
			c2.135,0.936,4.036,2.277,5.704,4.025c1.667,1.749,2.928,3.721,3.782,5.917s1.281,4.515,1.281,6.954H60.516
			c0-1.098-0.193-2.135-0.579-3.111c-0.387-0.976-0.915-1.83-1.586-2.562c-0.671-0.731-1.444-1.312-2.318-1.739
			c-0.875-0.426-1.82-0.641-2.836-0.641c-1.017,0-1.973,0.215-2.867,0.641c-0.895,0.428-1.677,1.008-2.348,1.739
			c-0.671,0.731-1.2,1.586-1.586,2.562c-0.387,0.977-0.58,2.014-0.58,3.111v8.846c0,1.098,0.192,2.135,0.58,3.11
			c0.386,0.976,0.915,1.83,1.586,2.562c0.671,0.732,1.453,1.312,2.348,1.738C51.223,133.935,52.179,134.148,53.196,134.148z"/>
		<path style="fill:#FFFFFF;" d="M106.875,98.952v45.384H96.627v-17.568H84.488v17.568H74.24V98.952h10.248v17.567h12.139V98.952
			H106.875z"/>
		<path style="fill:#FFFFFF;" d="M121.942,109.199v7.32h12.932v10.248h-12.932v7.32h17.568v10.248h-27.816V98.952h27.816v10.247
			H121.942z"/>
		<path style="fill:#FFFFFF;" d="M173.853,109.199h-10.31v35.137h-10.248v-35.137h-10.309V98.952h30.867V109.199z"/>
		<path style="fill:#FFFFFF;" d="M207.463,109.199h-10.31v35.137h-10.248v-35.137h-10.309V98.952h30.866V109.199z"/>
		<path style="fill:#FFFFFF;" d="M221.004,109.199v7.32h12.932v10.248h-12.932v7.32h17.568v10.248h-27.816V98.952h27.816v10.247
			H221.004z"/>
	</g>
</g>
</svg>
