<?xml version="1.0" encoding="iso-8859-1"?>
<!-- Generator: Adobe Illustrator 19.1.0, SVG Export Plug-In . SVG Version: 6.00 Build 0)  -->
<!DOCTYPE svg PUBLIC "-//W3C//DTD SVG 1.1//EN" "http://www.w3.org/Graphics/SVG/1.1/DTD/svg11.dtd">
<svg version="1.1" id="Layer_1" xmlns="http://www.w3.org/2000/svg" xmlns:xlink="http://www.w3.org/1999/xlink" x="0px" y="0px"
	 viewBox="0 0 297.857 317.56" style="enable-background:new 0 0 297.857 317.56;" xml:space="preserve">
<g>
	<g>
		<path style="fill:#231F20;" d="M3,314.56V127.64c0-37.421,30.444-67.866,67.866-67.866h63.205v-0.081h69.967
			c41.591,0,77.141-16.252,90.819-38.997v225.998c0,37.422-30.444,67.866-67.866,67.866H3z"/>
		<path style="fill:#FFFFFF;" d="M291.857,30v26.774v24.5v165.42c0,17.248-6.769,33.516-19.06,45.807
			c-12.291,12.291-28.558,19.06-45.807,19.06H6V127.64c0-17.248,6.769-33.516,19.06-45.807c12.291-12.291,28.558-19.06,45.807-19.06
			h60.205h6v-0.081h66.967c26.034,0,50.668-6.221,69.363-17.518C280.863,40.665,287.052,35.553,291.857,30 M297.857,0
			c0,31.181-42.218,56.693-93.819,56.693h-72.967v0.081H70.866C31.89,56.774,0,88.664,0,127.64v189.92h226.991
			c38.976,0,70.866-31.89,70.866-70.866V81.274v-24.5V0L297.857,0z"/>
	</g>
	<g>
		<path style="fill:#FFFFFF;" d="M58.428,92.09c1.96,0.84,3.676,1.995,5.146,3.465s2.625,3.185,3.465,5.145s1.26,4.06,1.26,6.3
			c0,2.24-0.42,4.34-1.26,6.3s-1.995,3.675-3.465,5.145c-1.47,1.47-3.186,2.625-5.146,3.465s-4.06,1.26-6.3,1.26h-0.07h-4.06v19.74
			h-11.76V90.83h15.819h0.07C54.368,90.83,56.468,91.25,58.428,92.09z"/>
		<path style="fill:#FFFFFF;" d="M92.027,142.91l-9.1-19.74h-0.141v19.74h-11.76V90.83h15.82h0.07c2.239,0,4.351,0.42,6.335,1.26
			c1.982,0.84,3.71,1.995,5.18,3.465s2.625,3.185,3.465,5.145s1.26,4.06,1.26,6.3c0,3.174-0.816,6.032-2.449,8.575
			c-1.635,2.544-3.78,4.492-6.44,5.845l9.87,21.49H92.027z"/>
		<path style="fill:#FFFFFF;" d="M119.326,102.59v8.4h14.841v11.76h-14.841v8.4h20.16v11.76h-31.92V90.83h31.92v11.76H119.326z"/>
		<path style="fill:#FFFFFF;" d="M184.566,122.12c-0.047,2.754-0.561,5.367-1.541,7.84c-0.979,2.474-2.404,4.69-4.27,6.65
			c-1.914,2.054-4.096,3.617-6.545,4.69c-2.449,1.074-5.053,1.61-7.805,1.61h-0.07c-2.707,0-5.285-0.536-7.735-1.61
			c-2.45-1.073-4.655-2.636-6.615-4.69c-1.819-1.96-3.231-4.176-4.234-6.65c-1.004-2.473-1.529-5.086-1.575-7.84V90.76h11.76v31.15
			c0,1.26,0.221,2.45,0.665,3.57c0.443,1.12,1.05,2.1,1.82,2.94c0.77,0.84,1.668,1.505,2.694,1.995
			c1.026,0.49,2.123,0.735,3.291,0.735c1.166,0,2.25-0.245,3.254-0.735c1.004-0.49,1.891-1.155,2.66-1.995
			c0.771-0.84,1.377-1.82,1.82-2.94c0.443-1.12,0.666-2.31,0.666-3.57V90.76h11.76V122.12z"/>
		<path style="fill:#FFFFFF;" d="M220.896,126.74c0,0.84-0.06,1.657-0.175,2.45c-0.117,0.794-0.292,1.587-0.525,2.38
			c-0.514,1.634-1.26,3.15-2.24,4.55c-0.979,1.4-2.146,2.602-3.5,3.605c-1.354,1.004-2.847,1.785-4.479,2.345
			c-1.635,0.56-3.36,0.84-5.181,0.84c-2.239,0-4.329-0.42-6.265-1.26c-1.937-0.84-3.64-1.995-5.11-3.465
			c-1.47-1.47-2.625-3.185-3.465-5.145s-1.26-4.06-1.26-6.3h11.76c0,1.214,0.42,2.252,1.26,3.115
			c0.841,0.864,1.866,1.295,3.08,1.295c0.98,0,1.844-0.291,2.591-0.875c0.745-0.583,1.26-1.318,1.54-2.205
			c0.14-0.373,0.21-0.793,0.21-1.26c0-1.213-0.421-2.193-1.261-2.94c-0.84-0.746-1.867-1.12-3.08-1.12
			c-2.239,0-4.329-0.408-6.265-1.225c-1.937-0.816-3.64-1.936-5.11-3.36c-1.47-1.423-2.625-3.091-3.465-5.005
			c-0.84-1.913-1.26-3.99-1.26-6.23c0-0.793,0.058-1.586,0.175-2.38c0.116-0.793,0.291-1.586,0.525-2.38
			c0.513-1.633,1.26-3.15,2.24-4.55c0.979-1.4,2.146-2.601,3.5-3.605c1.353-1.003,2.846-1.785,4.479-2.345
			c1.633-0.56,3.36-0.84,5.18-0.84c2.24,0,4.328,0.42,6.266,1.26c1.936,0.84,3.64,1.995,5.109,3.465
			c1.471,1.47,2.625,3.185,3.466,5.145c0.84,1.96,1.26,4.037,1.26,6.23h-11.76c0-1.213-0.421-2.24-1.261-3.08s-1.867-1.26-3.08-1.26
			c-0.979,0-1.844,0.292-2.59,0.875c-0.747,0.584-1.26,1.319-1.54,2.205c-0.14,0.327-0.21,0.747-0.21,1.26
			c0,1.214,0.42,2.194,1.26,2.94c0.841,0.747,1.866,1.12,3.08,1.12c2.24,0,4.328,0.409,6.266,1.225
			c1.936,0.817,3.64,1.937,5.109,3.36c1.471,1.424,2.625,3.092,3.466,5.005C220.476,122.494,220.896,124.547,220.896,126.74z"/>
		<path style="fill:#FFFFFF;" d="M61.928,196.15v11.76H36.238v-52.08h11.76v40.32H61.928z"/>
		<path style="fill:#FFFFFF;" d="M78.168,207.91h-11.76v-52.08h11.76V207.91z"/>
		<path style="fill:#FFFFFF;" d="M97.838,181.94l22.12,25.97h-11.76l-13.301-14.77v14.77h-11.76v-52.08h11.76v14.91l13.37-14.91
			h11.761L97.838,181.94z"/>
		<path style="fill:#FFFFFF;" d="M48.068,232.59v8.4h14.84v11.76h-14.84v20.16H36.308v-52.08h31.921v11.76H48.068z"/>
		<path style="fill:#FFFFFF;" d="M105.047,257.019c-0.047,2.194-0.502,4.26-1.365,6.195c-0.863,1.938-2.019,3.617-3.465,5.04
			c-1.446,1.424-3.149,2.555-5.109,3.396c-1.96,0.84-4.037,1.26-6.23,1.26c-2.24,0-4.329-0.42-6.265-1.26
			c-1.938-0.841-3.641-1.995-5.11-3.466c-1.47-1.47-2.625-3.185-3.465-5.145s-1.26-4.061-1.26-6.3h11.76
			c0,1.214,0.42,2.252,1.26,3.114c0.84,0.864,1.866,1.296,3.08,1.296c1.213,0,2.251-0.432,3.115-1.296
			c0.863-0.862,1.295-1.9,1.295-3.114v-35.91h11.76V257.019z"/>
		<path style="fill:#FFFFFF;" d="M121.637,272.91h-11.76v-52.08h11.76V272.91z"/>
		<path style="fill:#FFFFFF;" d="M147.607,272.91l-9.101-19.74h-0.14v19.74h-11.76v-52.08h15.819h0.07c2.24,0,4.351,0.42,6.335,1.26
			c1.983,0.84,3.71,1.995,5.18,3.465c1.471,1.47,2.625,3.185,3.466,5.145c0.84,1.96,1.26,4.06,1.26,6.3
			c0,3.174-0.817,6.032-2.45,8.575c-1.634,2.544-3.78,4.492-6.439,5.845l9.869,21.49H147.607z"/>
		<path style="fill:#FFFFFF;" d="M197.937,232.59h-11.83v40.32h-11.76v-40.32h-11.83v-11.76h35.42V232.59z"/>
		<path style="fill:#FFFFFF;" d="M213.476,272.91h-11.76v-52.08h11.76V272.91z"/>
		<path style="fill:#FFFFFF;" d="M258.275,251.979c0,0.234,0,0.468,0,0.7c0,0.234-0.024,0.467-0.07,0.7v19.53h-10.85v-2.66
			c-1.4,0.84-2.882,1.505-4.445,1.995s-3.162,0.734-4.795,0.734h-0.07c-2.754,0-5.354-0.535-7.805-1.609
			c-2.45-1.073-4.632-2.613-6.545-4.62c-1.82-1.96-3.232-4.165-4.235-6.615c-1.004-2.45-1.527-5.027-1.574-7.734v-10.78
			c0-2.8,0.502-5.436,1.505-7.91c1.003-2.473,2.438-4.69,4.305-6.65c1.913-2.006,4.095-3.546,6.545-4.62
			c2.45-1.073,5.051-1.61,7.805-1.61h0.07c2.706,0,5.285,0.537,7.735,1.61c2.45,1.074,4.654,2.614,6.614,4.62
			c1.866,2.007,3.302,4.27,4.306,6.79c1.003,2.52,1.505,5.18,1.505,7.98h-11.76c0-1.26-0.223-2.45-0.665-3.57
			c-0.444-1.12-1.05-2.1-1.82-2.94c-0.77-0.84-1.669-1.505-2.695-1.995c-1.026-0.49-2.124-0.735-3.29-0.735
			c-1.167,0-2.252,0.245-3.255,0.735c-1.004,0.49-1.89,1.155-2.66,1.995c-0.77,0.84-1.377,1.82-1.819,2.94
			c-0.444,1.12-0.665,2.31-0.665,3.57v10.149c0,1.261,0.221,2.45,0.665,3.57c0.442,1.12,1.05,2.101,1.819,2.94
			c0.771,0.84,1.656,1.505,2.66,1.995c1.003,0.489,2.088,0.734,3.255,0.734c1.354,0,2.578-0.303,3.676-0.91
			c1.096-0.605,2.041-1.423,2.835-2.449h-6.58v-10.85h20.3V251.979z"/>
	</g>
</g>
</svg>
