<?xml version="1.0" encoding="iso-8859-1"?>
<!-- Generator: Adobe Illustrator 19.1.0, SVG Export Plug-In . SVG Version: 6.00 Build 0)  -->
<!DOCTYPE svg PUBLIC "-//W3C//DTD SVG 1.1//EN" "http://www.w3.org/Graphics/SVG/1.1/DTD/svg11.dtd">
<svg version="1.1" id="Layer_1" xmlns="http://www.w3.org/2000/svg" xmlns:xlink="http://www.w3.org/1999/xlink" x="0px" y="0px"
	 viewBox="0 0 714.663 451.967" style="enable-background:new 0 0 714.663 451.967;" xml:space="preserve">
<g>
	<g>
		<path style="fill:#FFFFFF;" d="M3,448.968V249.19c0-36.001,14.121-69.948,39.762-95.589s59.588-39.762,95.589-39.762h120.538
			v-0.159h272.613c86.429,0,159.292-36.158,180.161-85v284.936c0,36.001-14.121,69.948-39.763,95.59
			c-25.641,25.641-59.588,39.762-95.589,39.762H3z"/>
		<path d="M708.663,41.021v69.818v47.831v154.946c0,35.199-13.809,68.394-38.883,93.468s-58.269,38.883-93.468,38.883H6V249.19
			c0-35.199,13.809-68.394,38.883-93.468s58.269-38.883,93.468-38.883h117.538h6v-0.159h269.613c49.8,0,96.842-11.854,132.46-33.377
			c17.57-10.618,31.417-23.025,41.156-36.877C706.375,44.638,707.557,42.836,708.663,41.021 M714.663,0
			c0,60.875-82.422,110.681-183.161,110.681H255.889v0.159H138.351C62.258,110.839,0,173.098,0,249.19v202.777h576.312
			c76.093,0,138.351-62.258,138.351-138.351V158.67v-47.831V0L714.663,0z"/>
	</g>
	<g>
		<path style="fill:#231F20;" d="M130.399,222.227c0,5.1-0.953,9.945-2.855,14.535c-1.904,4.59-4.692,8.721-8.364,12.393
			c-3.401,3.332-7.226,5.934-11.476,7.803c-4.25,1.871-8.721,2.943-13.412,3.213h-2.244H76.747v-75.887h15.301
			c5.1,0,9.979,0.936,14.637,2.805c4.656,1.871,8.822,4.607,12.495,8.211c3.672,3.672,6.46,7.803,8.364,12.393
			C129.446,212.282,130.399,217.128,130.399,222.227z"/>
		<path style="fill:#231F20;" d="M153.146,201.419v12.24h21.623v17.137h-21.623v12.24h29.375v17.135h-46.512v-75.887h46.512v17.135
			H153.146z"/>
		<path style="fill:#231F20;" d="M332.255,184.284l-18.461,75.887h-17.443l-9.996-41.207l-9.994,41.207h-17.443l-18.461-75.887
			h17.135l10.1,41.207l9.994-41.207h17.443l9.996,41.207l9.996-41.207H332.255z"/>
		<path style="fill:#231F20;" d="M355.612,201.419v12.24h21.625v17.137h-21.625v12.24h29.377v17.135h-46.512v-75.887h46.512v17.135
			H355.612z"/>
		<path style="fill:#231F20;" d="M438.64,236.61c0,1.223-0.086,2.414-0.254,3.568c-0.172,1.158-0.426,2.312-0.766,3.469
			c-0.748,2.381-1.836,4.59-3.264,6.631c-1.428,2.039-3.129,3.791-5.1,5.252c-1.975,1.463-4.148,2.602-6.529,3.418
			c-2.381,0.814-4.895,1.223-7.547,1.223c-3.264,0-6.309-0.611-9.129-1.836c-2.822-1.223-5.305-2.906-7.447-5.049
			c-2.141-2.143-3.824-4.641-5.049-7.496c-1.223-2.857-1.836-5.916-1.836-9.18h17.137c0,1.768,0.611,3.281,1.836,4.537
			c1.225,1.26,2.719,1.889,4.488,1.889c1.428,0,2.686-0.424,3.773-1.275c1.088-0.85,1.836-1.92,2.244-3.213
			c0.203-0.543,0.307-1.156,0.307-1.836c0-1.768-0.613-3.195-1.836-4.285c-1.225-1.086-2.721-1.631-4.488-1.631
			c-3.264,0-6.309-0.596-9.129-1.785c-2.822-1.189-5.305-2.822-7.447-4.896c-2.141-2.074-3.824-4.504-5.049-7.293
			c-1.223-2.787-1.836-5.814-1.836-9.078c0-1.154,0.084-2.311,0.256-3.469c0.168-1.154,0.424-2.311,0.764-3.467
			c0.748-2.379,1.838-4.59,3.266-6.631c1.428-2.039,3.127-3.789,5.1-5.252c1.971-1.461,4.146-2.602,6.527-3.418
			c2.379-0.816,4.896-1.223,7.549-1.223c3.264,0,6.307,0.611,9.129,1.836c2.82,1.223,5.303,2.906,7.445,5.049
			c2.143,2.141,3.826,4.641,5.049,7.496c1.225,2.855,1.836,5.883,1.836,9.078h-17.135c0-1.768-0.613-3.264-1.836-4.488
			c-1.225-1.223-2.721-1.836-4.488-1.836c-1.428,0-2.688,0.426-3.775,1.275c-1.088,0.852-1.836,1.922-2.242,3.213
			c-0.205,0.477-0.307,1.088-0.307,1.836c0,1.77,0.611,3.197,1.836,4.285s2.719,1.631,4.488,1.631c3.264,0,6.307,0.596,9.129,1.785
			c2.82,1.191,5.303,2.822,7.445,4.896s3.826,4.506,5.049,7.293C438.028,230.423,438.64,233.413,438.64,236.61z"/>
		<path style="fill:#231F20;" d="M500.962,184.284v75.887h-17.34l-21.42-42.432v42.432h-17.137v-75.887h17.441l21.318,42.33v-42.33
			H500.962z"/>
		<path style="fill:#231F20;" d="M147.434,294.284l-26.418,75.887h-17.34l-26.419-75.887h17.137l17.952,51.611l17.952-51.611
			H147.434z"/>
		<path style="fill:#231F20;" d="M190.171,340.796h-14.076l-10.201,29.375h-18.461l26.316-75.887h18.768l26.316,75.887H200.37
			L190.171,340.796z"/>
		<path style="fill:#231F20;" d="M280.03,294.284v75.887h-17.34l-21.42-42.432v42.432h-17.137v-75.887h17.443l21.318,42.33v-42.33
			H280.03z"/>
		<path style="fill:#231F20;" d="M336.333,311.419h-17.238v58.752H301.96v-58.752h-17.238v-17.135h51.611V311.419z"/>
		<path style="fill:#231F20;" d="M439.862,347.016c-0.068,3.197-0.732,6.207-1.988,9.027c-1.26,2.822-2.943,5.271-5.049,7.344
			c-2.109,2.076-4.592,3.725-7.447,4.947c-2.855,1.225-5.883,1.836-9.078,1.836c-3.264,0-6.307-0.611-9.129-1.836
			c-2.822-1.223-5.303-2.906-7.445-5.049s-3.826-4.641-5.049-7.496c-1.225-2.857-1.836-5.916-1.836-9.18h17.135
			c0,1.768,0.613,3.281,1.836,4.537c1.225,1.26,2.721,1.889,4.488,1.889s3.281-0.629,4.539-1.889
			c1.258-1.256,1.887-2.77,1.887-4.537v-52.326h17.137V347.016z"/>
		<path style="fill:#231F20;" d="M503.407,351.403c-1.428,3.605-3.502,6.834-6.221,9.689c-2.789,2.994-5.967,5.271-9.537,6.834
			c-3.57,1.566-7.361,2.346-11.373,2.346h-0.102c-3.945,0-7.701-0.779-11.271-2.346c-3.57-1.562-6.783-3.807-9.639-6.73
			c-2.652-2.857-4.711-6.086-6.172-9.691c-1.463-3.604-2.227-7.445-2.295-11.525v-17.748c0.34-3.604,1.24-7.004,2.703-10.199
			c1.461-3.197,3.383-6.086,5.764-8.67c2.855-2.924,6.051-5.168,9.588-6.732c3.535-1.564,7.309-2.346,11.322-2.346h0.102
			c4.012,0,7.803,0.781,11.373,2.346s6.748,3.809,9.537,6.732c2.447,2.584,4.385,5.473,5.812,8.67
			c1.43,3.195,2.312,6.596,2.652,10.199v2.244v9.385v6.119C505.583,343.993,504.835,347.8,503.407,351.403z"/>
		<path style="fill:#231F20;" d="M551.856,340.796H537.78l-10.199,29.375h-18.463l26.316-75.887h18.768l26.316,75.887h-18.461
			L551.856,340.796z"/>
		<path style="fill:#231F20;" d="M616.319,370.171l-13.26-28.764h-0.205v28.764H585.72v-75.887h23.051h0.104
			c3.264,0,6.34,0.611,9.23,1.836c2.889,1.223,5.406,2.906,7.547,5.049c2.143,2.141,3.826,4.641,5.051,7.496
			c1.223,2.855,1.836,5.916,1.836,9.18c0,4.625-1.191,8.791-3.57,12.496c-2.381,3.707-5.508,6.545-9.385,8.516l14.383,31.314
			H616.319z"/>
	</g>
</g>
</svg>
