<?xml version="1.0" encoding="iso-8859-1"?>
<!-- Generator: Adobe Illustrator 19.1.0, SVG Export Plug-In . SVG Version: 6.00 Build 0)  -->
<!DOCTYPE svg PUBLIC "-//W3C//DTD SVG 1.1//EN" "http://www.w3.org/Graphics/SVG/1.1/DTD/svg11.dtd">
<svg version="1.1" id="Layer_1" xmlns="http://www.w3.org/2000/svg" xmlns:xlink="http://www.w3.org/1999/xlink" x="0px" y="0px"
	 viewBox="0 0 783.238 255.587" style="enable-background:new 0 0 783.238 255.587;" xml:space="preserve">
<g>
	<g>
		<path style="fill:#231F20;" d="M70.867,252.56C33.445,252.56,3,222.116,3,184.694V20.697
			c13.679,22.744,49.228,38.996,90.818,38.996h554.967l3,0.081h60.205c37.422,0,67.866,30.444,67.866,67.866v124.92H70.867z"/>
		<path style="fill:#FFFFFF;" d="M6,30c4.805,5.553,10.994,10.665,18.456,15.174c18.695,11.297,43.328,17.519,69.363,17.519h551.967
			v0.081h6h60.205c17.248,0,33.516,6.769,45.806,19.06s19.06,28.559,19.06,45.807V249.56H70.866
			c-17.248,0-33.516-6.769-45.807-19.06S6,201.942,6,184.694V81.274v-24.5V30 M0,0v56.774v24.5v103.419
			c0,38.977,31.89,70.866,70.866,70.866h711.991V127.64c0-38.977-31.89-70.866-70.866-70.866h-60.205v-0.081H93.819
			C42.218,56.693,0,31.181,0,0L0,0z"/>
	</g>
	<g>
		<path style="fill:#FFFFFF;" d="M81.668,94.448v52.08h-11.9l-14.7-29.119v29.119H43.307v-52.08h11.971l14.63,29.051V94.448H81.668z
			"/>
		<path style="fill:#FFFFFF;" d="M124.297,133.649c-0.98,2.474-2.404,4.689-4.271,6.649c-1.914,2.054-4.095,3.617-6.545,4.69
			c-2.45,1.074-5.052,1.609-7.805,1.609h-0.07c-2.707,0-5.284-0.535-7.735-1.609c-2.449-1.073-4.654-2.613-6.614-4.621
			c-1.82-1.959-3.232-4.176-4.235-6.649c-1.004-2.474-1.527-5.11-1.574-7.91v-12.18c0.232-2.474,0.85-4.806,1.854-7
			c1.003-2.192,2.321-4.177,3.955-5.95c1.96-2.006,4.153-3.546,6.579-4.62c2.427-1.073,5.017-1.61,7.771-1.61h0.07
			c2.753,0,5.354,0.537,7.805,1.61c2.45,1.074,4.631,2.614,6.545,4.62c1.681,1.773,3.011,3.758,3.99,5.95
			c0.979,2.194,1.586,4.526,1.819,7v1.54v6.439v4.2C125.789,128.563,125.277,131.175,124.297,133.649z"/>
		<path style="fill:#FFFFFF;" d="M170.077,125.598c0,0.234,0,0.467,0,0.7s-0.023,0.467-0.07,0.7v19.529h-10.85v-2.66
			c-1.4,0.841-2.883,1.506-4.445,1.996c-1.564,0.49-3.162,0.734-4.795,0.734h-0.07c-2.754,0-5.354-0.535-7.805-1.609
			c-2.449-1.073-4.632-2.613-6.545-4.621c-1.82-1.959-3.232-4.164-4.234-6.614c-1.005-2.45-1.529-5.028-1.576-7.735v-10.779
			c0-2.801,0.502-5.437,1.506-7.91c1.002-2.473,2.438-4.69,4.305-6.65c1.913-2.006,4.096-3.546,6.545-4.62
			c2.45-1.073,5.051-1.61,7.805-1.61h0.07c2.706,0,5.285,0.537,7.734,1.61c2.451,1.074,4.656,2.614,6.615,4.62
			c1.866,2.008,3.301,4.27,4.306,6.79c1.003,2.521,1.505,5.181,1.505,7.979h-11.76c0-1.26-0.223-2.449-0.666-3.569
			s-1.049-2.101-1.819-2.94s-1.669-1.505-2.694-1.994c-1.027-0.49-2.125-0.735-3.291-0.735s-2.252,0.245-3.254,0.735
			c-1.005,0.489-1.891,1.154-2.66,1.994c-0.771,0.84-1.377,1.82-1.82,2.94c-0.444,1.12-0.665,2.31-0.665,3.569v10.15
			c0,1.26,0.221,2.45,0.665,3.57c0.443,1.119,1.05,2.1,1.82,2.939c0.77,0.84,1.655,1.506,2.66,1.996
			c1.002,0.489,2.088,0.734,3.254,0.734c1.354,0,2.578-0.303,3.676-0.91c1.096-0.605,2.041-1.423,2.834-2.449h-6.58v-10.851h20.301
			V125.598z"/>
		<path style="fill:#FFFFFF;" d="M250.577,125.598c0,0.234,0,0.467,0,0.7s-0.025,0.467-0.07,0.7v19.529h-10.85v-2.66
			c-1.4,0.841-2.883,1.506-4.445,1.996c-1.564,0.49-3.162,0.734-4.795,0.734h-0.07c-2.754,0-5.355-0.535-7.805-1.609
			c-2.451-1.073-4.633-2.613-6.545-4.621c-1.82-1.959-3.232-4.164-4.236-6.614s-1.527-5.028-1.574-7.735v-10.779
			c0-2.801,0.502-5.437,1.506-7.91c1.002-2.473,2.438-4.69,4.305-6.65c1.912-2.006,4.094-3.546,6.545-4.62
			c2.449-1.073,5.051-1.61,7.805-1.61h0.07c2.705,0,5.285,0.537,7.734,1.61c2.451,1.074,4.654,2.614,6.615,4.62
			c1.865,2.008,3.301,4.27,4.305,6.79s1.506,5.181,1.506,7.979h-11.76c0-1.26-0.223-2.449-0.666-3.569s-1.049-2.101-1.82-2.94
			c-0.77-0.84-1.668-1.505-2.695-1.994c-1.025-0.49-2.123-0.735-3.289-0.735c-1.168,0-2.252,0.245-3.256,0.735
			c-1.004,0.489-1.889,1.154-2.66,1.994c-0.77,0.84-1.377,1.82-1.818,2.94c-0.445,1.12-0.666,2.31-0.666,3.569v10.15
			c0,1.26,0.221,2.45,0.666,3.57c0.441,1.119,1.049,2.1,1.818,2.939c0.771,0.84,1.656,1.506,2.66,1.996
			c1.004,0.489,2.088,0.734,3.256,0.734c1.354,0,2.578-0.303,3.676-0.91c1.096-0.605,2.041-1.423,2.834-2.449h-6.58v-10.851h20.301
			V125.598z"/>
		<path style="fill:#FFFFFF;" d="M268.006,146.528h-11.76v-52.08h11.76V146.528z"/>
		<path style="fill:#FFFFFF;" d="M311.405,94.448v52.08h-11.898l-14.701-29.119v29.119h-11.76v-52.08h11.971l14.629,29.051V94.448
			H311.405z"/>
		<path style="fill:#FFFFFF;" d="M385.045,106.208h-11.83v40.319h-11.76v-40.319h-11.83V94.448h35.42V106.208z"/>
		<path style="fill:#FFFFFF;" d="M451.963,94.448l-12.67,52.08h-11.969l-6.861-28.279l-6.859,28.279h-11.971l-12.67-52.08h11.762
			l6.93,28.281l6.859-28.281h11.971l6.859,28.281l6.859-28.281H451.963z"/>
		<path style="fill:#FFFFFF;" d="M495.014,133.649c-0.98,2.474-2.404,4.689-4.27,6.649c-1.914,2.054-4.096,3.617-6.545,4.69
			c-2.451,1.074-5.053,1.609-7.805,1.609h-0.07c-2.707,0-5.285-0.535-7.734-1.609c-2.451-1.073-4.656-2.613-6.615-4.621
			c-1.82-1.959-3.232-4.176-4.236-6.649s-1.527-5.11-1.574-7.91v-12.18c0.232-2.474,0.852-4.806,1.855-7
			c1.002-2.192,2.32-4.177,3.955-5.95c1.959-2.006,4.152-3.546,6.58-4.62c2.426-1.073,5.016-1.61,7.77-1.61h0.07
			c2.752,0,5.354,0.537,7.805,1.61c2.449,1.074,4.631,2.614,6.545,4.62c1.68,1.773,3.01,3.758,3.99,5.95
			c0.98,2.194,1.586,4.526,1.82,7v1.54v6.439v4.2C496.508,128.563,495.995,131.175,495.014,133.649z"/>
		<path style="fill:#FFFFFF;" d="M528.264,126.367h-9.66l-7,20.16h-12.67l18.061-52.08h12.879l18.061,52.08h-12.67L528.264,126.367z
			"/>
		<path style="fill:#FFFFFF;" d="M577.194,134.768v11.76h-25.691v-52.08h11.76v40.32H577.194z"/>
		<path style="fill:#FFFFFF;" d="M630.182,94.448l-18.129,52.08h-11.9l-18.131-52.08h11.762l12.318,35.42l12.32-35.42H630.182z"/>
		<path style="fill:#FFFFFF;" d="M643.971,106.208v8.399h14.84v11.76h-14.84v8.4h20.16v11.76h-31.92v-52.08h31.92v11.761H643.971z"
			/>
		<path style="fill:#FFFFFF;" d="M54.997,171.208v8.399h14.841v11.76H54.997v8.4h20.16v11.76h-31.92v-52.08h31.92v11.761H54.997z"/>
		<path style="fill:#FFFFFF;" d="M118.207,159.448v52.08h-11.9l-14.7-29.119v29.119H79.846v-52.08h11.971l14.63,29.051v-29.051
			H118.207z"/>
		<path style="fill:#FFFFFF;" d="M195.836,198.649c-0.98,2.474-2.404,4.689-4.27,6.649c-1.914,2.054-4.096,3.617-6.545,4.69
			c-2.451,1.074-5.053,1.609-7.805,1.609h-0.07c-2.707,0-5.285-0.535-7.736-1.609c-2.449-1.073-4.654-2.613-6.614-4.621
			c-1.82-1.959-3.232-4.176-4.235-6.649c-1.004-2.474-1.527-5.11-1.574-7.91v-12.18c0.232-2.474,0.85-4.806,1.854-7
			c1.003-2.192,2.321-4.177,3.955-5.95c1.96-2.006,4.153-3.546,6.579-4.62c2.428-1.073,5.018-1.61,7.771-1.61h0.07
			c2.752,0,5.354,0.537,7.805,1.61c2.449,1.074,4.631,2.614,6.545,4.62c1.68,1.773,3.01,3.758,3.99,5.95
			c0.98,2.194,1.586,4.526,1.82,7v1.54v6.439v4.2C197.331,193.563,196.817,196.175,195.836,198.649z"/>
		<path style="fill:#FFFFFF;" d="M227.475,199.768v11.76h-25.689v-52.08h11.76v40.32H227.475z"/>
		<path style="fill:#FFFFFF;" d="M315.186,211.528h-11.762v-18.199l-6.369,18.199h-11.76l-6.51-18.76v18.76h-11.76v-52.08h11.969
			l12.18,35.141l12.25-35.141h11.762V211.528z"/>
		<path style="fill:#FFFFFF;" d="M360.684,190.739c-0.047,2.754-0.559,5.367-1.539,7.84c-0.98,2.474-2.404,4.689-4.27,6.65
			c-1.914,2.053-4.096,3.616-6.545,4.689c-2.451,1.074-5.053,1.609-7.807,1.609h-0.068c-2.707,0-5.285-0.535-7.736-1.609
			c-2.449-1.073-4.654-2.637-6.615-4.689c-1.82-1.961-3.23-4.177-4.234-6.65c-1.004-2.473-1.529-5.086-1.574-7.84v-31.36h11.76
			v31.149c0,1.26,0.221,2.451,0.664,3.57c0.443,1.12,1.051,2.1,1.82,2.939c0.77,0.841,1.668,1.506,2.695,1.996
			c1.025,0.49,2.123,0.734,3.289,0.734s2.252-0.244,3.256-0.734c1.002-0.49,1.891-1.155,2.66-1.996
			c0.77-0.84,1.375-1.819,1.82-2.939c0.441-1.119,0.664-2.311,0.664-3.57v-31.149h11.76V190.739z"/>
		<path style="fill:#FFFFFF;" d="M390.504,199.768v11.76h-25.689v-52.08h11.76v40.32H390.504z"/>
		<path style="fill:#FFFFFF;" d="M420.674,199.768v11.76h-25.689v-52.08h11.76v40.32H420.674z"/>
		<path style="fill:#FFFFFF;" d="M436.914,171.208v8.399h14.84v11.76h-14.84v8.4h20.16v11.76h-31.92v-52.08h31.92v11.761H436.914z"
			/>
		<path style="fill:#FFFFFF;" d="M498.514,185.489c0,3.5-0.654,6.824-1.961,9.975s-3.221,5.984-5.74,8.505
			c-2.334,2.287-4.959,4.072-7.875,5.354c-2.916,1.285-5.984,2.02-9.205,2.205h-1.539h-10.5v-52.08h10.5
			c3.5,0,6.848,0.643,10.045,1.926c3.195,1.283,6.055,3.162,8.574,5.635c2.52,2.52,4.434,5.355,5.74,8.505
			S498.514,181.989,498.514,185.489z"/>
		<path style="fill:#FFFFFF;" d="M523.364,211.528l-9.1-19.74h-0.141v19.74h-11.76v-52.08h15.82h0.068
			c2.24,0,4.352,0.42,6.336,1.261c1.982,0.84,3.709,1.995,5.18,3.465s2.625,3.185,3.465,5.146c0.84,1.959,1.26,4.06,1.26,6.299
			c0,3.175-0.816,6.033-2.449,8.576c-1.635,2.543-3.779,4.492-6.439,5.844l9.869,21.49H523.364z"/>
		<path style="fill:#FFFFFF;" d="M577.682,198.649c-0.98,2.474-2.404,4.689-4.27,6.649c-1.914,2.054-4.096,3.617-6.545,4.69
			c-2.451,1.074-5.053,1.609-7.805,1.609h-0.07c-2.707,0-5.285-0.535-7.734-1.609c-2.451-1.073-4.656-2.613-6.615-4.621
			c-1.82-1.959-3.232-4.176-4.236-6.649s-1.527-5.11-1.574-7.91v-12.18c0.232-2.474,0.852-4.806,1.855-7
			c1.002-2.192,2.32-4.177,3.955-5.95c1.959-2.006,4.152-3.546,6.58-4.62c2.426-1.073,5.016-1.61,7.77-1.61h0.07
			c2.752,0,5.354,0.537,7.805,1.61c2.449,1.074,4.631,2.614,6.545,4.62c1.68,1.773,3.01,3.758,3.99,5.95
			c0.98,2.194,1.586,4.526,1.82,7v1.54v6.439v4.2C579.176,193.563,578.663,196.175,577.682,198.649z"/>
		<path style="fill:#FFFFFF;" d="M595.391,171.208v8.399h14.84v11.76h-14.84v8.4h20.16v11.76h-31.92v-52.08h31.92v11.761H595.391z"
			/>
		<path style="fill:#FFFFFF;" d="M658.6,159.448v52.08h-11.898L632,182.408v29.119h-11.76v-52.08h11.971l14.629,29.051v-29.051
			H658.6z"/>
		<path style="fill:#FFFFFF;" d="M677.151,185.558l22.119,25.97h-11.76l-13.301-14.77v14.77h-11.76v-52.08h11.76v14.91l13.371-14.91
			h11.76L677.151,185.558z"/>
		<path style="fill:#FFFFFF;" d="M713.479,171.208v8.399h14.84v11.76h-14.84v8.4h20.16v11.76h-31.92v-52.08h31.92v11.761H713.479z"
			/>
	</g>
</g>
</svg>
