<?xml version="1.0" encoding="iso-8859-1"?>
<!-- Generator: Adobe Illustrator 19.1.0, SVG Export Plug-In . SVG Version: 6.00 Build 0)  -->
<!DOCTYPE svg PUBLIC "-//W3C//DTD SVG 1.1//EN" "http://www.w3.org/Graphics/SVG/1.1/DTD/svg11.dtd">
<svg version="1.1" id="Layer_1" xmlns="http://www.w3.org/2000/svg" xmlns:xlink="http://www.w3.org/1999/xlink" x="0px" y="0px"
	 viewBox="0 0 662.884 255.587" style="enable-background:new 0 0 662.884 255.587;" xml:space="preserve">
<g>
	<g>
		<path style="fill:#EB2F2B;" d="M3,252.56V127.641c0-37.422,30.444-67.866,67.866-67.866h63.205v-0.081h434.967
			c41.591,0,77.141-16.252,90.819-38.997v163.997c0,37.422-30.444,67.866-67.866,67.866H3z"/>
		<path style="fill:#FFFFFF;" d="M656.857,30v26.774v24.5v103.419c0,17.248-6.769,33.516-19.06,45.807
			c-12.291,12.291-28.558,19.06-45.806,19.06H6V127.64c0-17.248,6.769-33.516,19.06-45.806c12.291-12.291,28.558-19.06,45.806-19.06
			h60.205h6v-0.082h431.967c26.034,0,50.668-6.221,69.362-17.518C645.863,40.666,652.052,35.553,656.857,30 M662.857,0
			c0,31.181-42.218,56.693-93.818,56.693H131.071v0.082H70.866C31.89,56.774,0,88.664,0,127.64v127.92h591.991
			c38.976,0,70.866-31.89,70.866-70.866V81.274v-24.5V0L662.857,0z"/>
	</g>
	<g>
		<path style="fill:#FFFFFF;" d="M77.189,107.212l-20.301,28.561h20.301v11.76H43.237v-11.76l20.23-28.561h-20.23v-11.76h33.951
			V107.212z"/>
		<path style="fill:#FFFFFF;" d="M120.867,134.651c-0.979,2.475-2.403,4.69-4.271,6.65c-1.914,2.055-4.094,3.617-6.545,4.689
			c-2.449,1.074-5.051,1.61-7.805,1.61h-0.07c-2.707,0-5.284-0.536-7.734-1.61c-2.45-1.072-4.654-2.612-6.615-4.619
			c-1.82-1.961-3.232-4.176-4.234-6.65c-1.004-2.473-1.528-5.109-1.575-7.91v-12.18c0.233-2.473,0.851-4.807,1.854-7
			s2.321-4.176,3.955-5.95c1.961-2.006,4.153-3.546,6.58-4.62c2.426-1.072,5.016-1.609,7.77-1.609h0.07
			c2.754,0,5.355,0.537,7.805,1.609c2.451,1.074,4.631,2.614,6.545,4.62c1.681,1.774,3.011,3.757,3.99,5.95
			c0.98,2.193,1.586,4.527,1.82,7v1.54v6.44v4.199C122.36,129.565,121.847,132.179,120.867,134.651z"/>
		<path style="fill:#FFFFFF;" d="M195.768,107.212l-20.301,28.561h20.301v11.76h-33.95v-11.76l20.229-28.561h-20.229v-11.76h33.95
			V107.212z"/>
		<path style="fill:#FFFFFF;" d="M239.446,134.651c-0.98,2.475-2.404,4.69-4.271,6.65c-1.914,2.055-4.095,3.617-6.545,4.689
			c-2.45,1.074-5.052,1.61-7.805,1.61h-0.07c-2.707,0-5.285-0.536-7.734-1.61c-2.45-1.072-4.655-2.612-6.615-4.619
			c-1.82-1.961-3.232-4.176-4.235-6.65c-1.004-2.473-1.528-5.109-1.575-7.91v-12.18c0.233-2.473,0.852-4.807,1.855-7
			c1.003-2.193,2.32-4.176,3.955-5.95c1.96-2.006,4.152-3.546,6.58-4.62c2.426-1.072,5.016-1.609,7.77-1.609h0.07
			c2.753,0,5.354,0.537,7.805,1.609c2.45,1.074,4.631,2.614,6.545,4.62c1.681,1.774,3.01,3.757,3.99,5.95s1.586,4.527,1.82,7v1.54
			v6.44v4.199C240.94,129.565,240.426,132.179,239.446,134.651z"/>
		<path style="fill:#FFFFFF;" d="M280.186,107.212h-11.83v40.32h-11.76v-40.32h-11.83v-11.76h35.42V107.212z"/>
		<path style="fill:#FFFFFF;" d="M358.795,126.602c0,0.234,0,0.468,0,0.7c0,0.234-0.024,0.467-0.07,0.7v19.53h-10.85v-2.66
			c-1.4,0.84-2.882,1.505-4.445,1.994c-1.563,0.49-3.162,0.735-4.795,0.735h-0.07c-2.754,0-5.354-0.536-7.805-1.61
			c-2.45-1.072-4.632-2.612-6.545-4.619c-1.82-1.961-3.232-4.166-4.235-6.615c-1.004-2.45-1.527-5.027-1.574-7.734v-10.781
			c0-2.799,0.502-5.436,1.505-7.91c1.003-2.473,2.438-4.689,4.305-6.649c1.913-2.006,4.095-3.546,6.545-4.62
			c2.45-1.072,5.051-1.609,7.805-1.609h0.07c2.706,0,5.285,0.537,7.735,1.609c2.45,1.074,4.654,2.614,6.614,4.62
			c1.866,2.007,3.302,4.271,4.306,6.79c1.003,2.52,1.505,5.18,1.505,7.98h-11.76c0-1.26-0.223-2.45-0.665-3.57
			c-0.444-1.12-1.05-2.1-1.82-2.939c-0.77-0.841-1.669-1.506-2.695-1.996s-2.124-0.734-3.29-0.734c-1.167,0-2.252,0.244-3.255,0.734
			c-1.004,0.49-1.89,1.155-2.66,1.996c-0.77,0.84-1.377,1.819-1.819,2.939c-0.444,1.12-0.665,2.311-0.665,3.57v10.149
			c0,1.261,0.221,2.45,0.665,3.57c0.442,1.12,1.05,2.101,1.819,2.94c0.771,0.84,1.656,1.504,2.66,1.994
			c1.003,0.49,2.088,0.735,3.255,0.735c1.354,0,2.578-0.304,3.676-0.91c1.096-0.606,2.041-1.423,2.835-2.45h-6.58v-10.85h20.3
			V126.602z"/>
		<path style="fill:#FFFFFF;" d="M376.225,107.212v8.4h14.84v11.76h-14.84v8.4h20.16v11.76h-31.92v-52.08h31.92v11.76H376.225z"/>
		<path style="fill:#FFFFFF;" d="M426.694,135.772v11.76h-25.69v-52.08h11.76v40.32H426.694z"/>
		<path style="fill:#FFFFFF;" d="M442.934,147.532h-11.76v-52.08h11.76V147.532z"/>
		<path style="fill:#FFFFFF;" d="M462.604,121.562l22.12,25.971h-11.761l-13.3-14.771v14.771h-11.76v-52.08h11.76v14.91l13.37-14.91
			h11.76L462.604,121.562z"/>
		<path style="fill:#FFFFFF;" d="M533.933,107.212v8.4h14.84v11.76h-14.84v8.4h20.16v11.76h-31.92v-52.08h31.92v11.76H533.933z"/>
		<path style="fill:#FFFFFF;" d="M597.142,95.452v52.08h-11.899l-14.7-29.121v29.121h-11.76v-52.08h11.97l14.63,29.05v-29.05
			H597.142z"/>
		<path style="fill:#FFFFFF;" d="M70.538,197.372h-9.66l-7,20.16h-12.67l18.06-52.08h12.88l18.061,52.08h-12.67L70.538,197.372z"/>
		<path style="fill:#FFFFFF;" d="M113.237,205.842c1.166,0,2.25-0.245,3.254-0.735s1.891-1.154,2.66-1.994
			c0.771-0.84,1.377-1.82,1.82-2.94s0.665-2.31,0.665-3.57h11.761c0,2.8-0.49,5.46-1.471,7.979c-0.98,2.521-2.427,4.785-4.34,6.791
			c-1.914,2.007-4.096,3.547-6.545,4.619c-2.45,1.074-5.053,1.61-7.805,1.61h-0.07c-2.754,0-5.344-0.536-7.77-1.61
			c-2.428-1.072-4.621-2.612-6.58-4.619c-1.82-1.961-3.232-4.166-4.235-6.615c-1.003-2.45-1.528-5.027-1.575-7.734v-10.781
			c0.047-2.799,0.561-5.436,1.54-7.91c0.979-2.473,2.403-4.689,4.271-6.649c1.959-2.006,4.152-3.546,6.58-4.62
			c2.426-1.072,5.016-1.609,7.77-1.609h0.07c2.752,0,5.354,0.537,7.805,1.609c2.449,1.074,4.631,2.614,6.545,4.62
			c1.913,2.007,3.359,4.271,4.34,6.79s1.471,5.18,1.471,7.98h-11.761c0-1.26-0.222-2.45-0.665-3.57s-1.05-2.1-1.82-2.939
			c-0.77-0.841-1.656-1.506-2.66-1.996s-2.088-0.734-3.254-0.734c-1.168,0-2.265,0.244-3.291,0.734s-1.924,1.155-2.694,1.996
			c-0.771,0.84-1.377,1.819-1.82,2.939c-0.444,1.12-0.665,2.311-0.665,3.57v10.149c0,1.261,0.221,2.45,0.665,3.57
			c0.443,1.12,1.05,2.101,1.82,2.94s1.668,1.504,2.694,1.994S112.069,205.842,113.237,205.842z"/>
		<path style="fill:#FFFFFF;" d="M174.836,165.452v52.08h-11.761v-20.16h-13.93v20.16h-11.76v-52.08h11.76v20.16h13.93v-20.16
			H174.836z"/>
		<path style="fill:#FFFFFF;" d="M215.155,177.212h-11.83v40.32h-11.76v-40.32h-11.83v-11.76h35.42V177.212z"/>
		<path style="fill:#FFFFFF;" d="M230.694,177.212v8.4h14.84v11.76h-14.84v8.4h20.16v11.76h-31.92v-52.08h31.92v11.76H230.694z"/>
		<path style="fill:#FFFFFF;" d="M276.474,217.532l-9.1-19.74h-0.141v19.74h-11.76v-52.08h15.82h0.069c2.24,0,4.352,0.42,6.335,1.26
			s3.71,1.994,5.181,3.465c1.47,1.471,2.625,3.186,3.465,5.145c0.84,1.961,1.26,4.061,1.26,6.301c0,3.174-0.817,6.031-2.45,8.574
			c-1.634,2.545-3.779,4.492-6.439,5.846l9.87,21.49H276.474z"/>
		<path style="fill:#FFFFFF;" d="M328.833,191.491c0,3.5-0.654,6.826-1.96,9.976c-1.308,3.149-3.221,5.985-5.74,8.505
			c-2.334,2.287-4.959,4.072-7.875,5.355c-2.917,1.283-5.985,2.019-9.205,2.205h-1.54h-10.5v-52.08h10.5
			c3.5,0,6.848,0.642,10.045,1.925c3.196,1.284,6.055,3.161,8.575,5.635c2.52,2.521,4.433,5.354,5.74,8.505
			C328.179,184.667,328.833,187.991,328.833,191.491z"/>
		<path style="fill:#FFFFFF;" d="M344.443,177.212v8.4h14.84v11.76h-14.84v8.4h20.16v11.76h-31.92v-52.08h31.92v11.76H344.443z"/>
		<path style="fill:#FFFFFF;" d="M409.682,196.741c-0.047,2.754-0.56,5.367-1.54,7.84c-0.979,2.475-2.404,4.691-4.27,6.65
			c-1.914,2.055-4.096,3.617-6.545,4.69c-2.45,1.073-5.053,1.61-7.806,1.61h-0.069c-2.707,0-5.285-0.537-7.735-1.61
			s-4.655-2.636-6.615-4.69c-1.82-1.959-3.231-4.176-4.235-6.65c-1.004-2.473-1.528-5.086-1.574-7.84v-31.359h11.76v31.15
			c0,1.26,0.221,2.449,0.665,3.569c0.442,1.12,1.05,2.101,1.82,2.94c0.77,0.84,1.668,1.505,2.694,1.994
			c1.026,0.49,2.123,0.736,3.29,0.736c1.166,0,2.251-0.246,3.255-0.736c1.003-0.489,1.891-1.154,2.66-1.994
			c0.771-0.84,1.376-1.82,1.82-2.94c0.442-1.12,0.665-2.31,0.665-3.569v-31.15h11.76V196.741z"/>
		<path style="fill:#FFFFFF;" d="M434.812,217.532l-9.1-19.74h-0.141v19.74h-11.76v-52.08h15.82h0.069c2.24,0,4.352,0.42,6.335,1.26
			s3.71,1.994,5.181,3.465c1.47,1.471,2.625,3.186,3.465,5.145c0.84,1.961,1.26,4.061,1.26,6.301c0,3.174-0.817,6.031-2.45,8.574
			c-1.634,2.545-3.779,4.492-6.439,5.846l9.87,21.49H434.812z"/>
		<path style="fill:#FFFFFF;" d="M462.11,177.212v8.4h14.84v11.76h-14.84v8.4h20.16v11.76h-31.92v-52.08h31.92v11.76H462.11z"/>
	</g>
</g>
</svg>
