<?xml version="1.0" encoding="iso-8859-1"?>
<!-- Generator: Adobe Illustrator 19.1.0, SVG Export Plug-In . SVG Version: 6.00 Build 0)  -->
<!DOCTYPE svg PUBLIC "-//W3C//DTD SVG 1.1//EN" "http://www.w3.org/Graphics/SVG/1.1/DTD/svg11.dtd">
<svg version="1.1" id="Layer_1" xmlns="http://www.w3.org/2000/svg" xmlns:xlink="http://www.w3.org/1999/xlink" x="0px" y="0px"
	 viewBox="0 0 477.676 332.587" style="enable-background:new 0 0 477.676 332.587;" xml:space="preserve">
<g>
	<g>
		<path style="fill:#231F20;" d="M3,329.587V127.64c0-37.422,30.444-67.866,67.866-67.866h63.205v-0.081h249.786
			c41.591,0,77.14-16.252,90.818-38.997v241.024c0,37.422-30.444,67.866-67.866,67.866H3z"/>
		<path style="fill:#FFFFFF;" d="M471.676,30v26.774v24.5v180.446c0,17.248-6.769,33.516-19.06,45.807
			c-12.291,12.291-28.559,19.06-45.807,19.06H6V127.64c0-17.248,6.769-33.516,19.06-45.807c12.291-12.291,28.559-19.06,45.807-19.06
			h60.206h6v-0.082h246.786c26.034,0,50.668-6.222,69.362-17.518C460.681,40.665,466.87,35.553,471.676,30 M477.676,0
			c0,31.181-42.218,56.693-93.818,56.693H131.072v0.082H70.866C31.89,56.774,0,88.664,0,127.64v204.946h406.81
			c38.977,0,70.866-31.89,70.866-70.866V81.274v-24.5V0L477.676,0z"/>
	</g>
	<g>
		<path style="fill:#FFFFFF;" d="M71.677,103.617v15.625l-4.93,8.648h-9.486l4.93-8.648h-6.045v-15.625H71.677z"/>
		<path style="fill:#FFFFFF;" d="M97.809,138.306l29.388,34.503h-15.624l-17.67-19.623v19.623H78.279v-69.192h15.624v19.81
			l17.764-19.81h15.623L97.809,138.306z"/>
		<path style="fill:#FFFFFF;" d="M222.056,119.242l-26.971,37.943h26.971v15.624h-45.104v-15.624l26.876-37.943h-26.876v-15.625
			h45.104V119.242z"/>
		<path style="fill:#FFFFFF;" d="M244.19,172.809h-15.625v-69.192h15.625V172.809z"/>
		<path style="fill:#FFFFFF;" d="M266.417,119.242v11.159h19.715v15.624h-19.715v11.16H293.2v15.624h-42.408v-69.192H293.2v15.625
			H266.417z"/>
		<path style="fill:#FFFFFF;" d="M99.111,247.699c-0.062,2.914-0.667,5.658-1.813,8.23c-1.148,2.572-2.683,4.805-4.604,6.695
			c-1.922,1.893-4.186,3.395-6.789,4.511s-5.363,1.674-8.277,1.674c-2.976,0-5.751-0.558-8.323-1.674
			c-2.573-1.116-4.836-2.651-6.789-4.604c-1.952-1.953-3.487-4.231-4.604-6.835c-1.116-2.604-1.674-5.395-1.674-8.371h15.624
			c0,1.613,0.559,2.992,1.674,4.139c1.116,1.148,2.479,1.721,4.092,1.721c1.611,0,2.99-0.572,4.139-1.721
			c1.146-1.146,1.721-2.525,1.721-4.139v-47.709h15.624V247.699z"/>
		<path style="fill:#FFFFFF;" d="M121.152,215.242v11.159h19.716v15.624h-19.716v11.16h26.784v15.624h-42.408v-69.192h42.408v15.625
			H121.152z"/>
		<path style="fill:#FFFFFF;" d="M253.491,241.002c0,0.312,0,0.621,0,0.931c0,0.312-0.033,0.62-0.094,0.931v25.946h-14.414v-3.534
			c-1.861,1.116-3.83,2-5.906,2.65c-2.078,0.651-4.201,0.977-6.371,0.977h-0.092c-3.66,0-7.115-0.712-10.369-2.139
			c-3.256-1.426-6.154-3.472-8.697-6.139c-2.418-2.604-4.293-5.533-5.625-8.788c-1.334-3.255-2.031-6.68-2.094-10.276v-14.322
			c0-3.72,0.668-7.222,2-10.509c1.332-3.286,3.238-6.231,5.719-8.835c2.543-2.665,5.441-4.711,8.697-6.139
			c3.254-1.425,6.709-2.139,10.369-2.139h0.092c3.596,0,7.021,0.714,10.277,2.139c3.254,1.428,6.184,3.474,8.789,6.139
			c2.479,2.666,4.385,5.673,5.719,9.021c1.332,3.348,2,6.881,2,10.602h-15.625c0-1.674-0.295-3.255-0.883-4.743
			c-0.59-1.487-1.395-2.79-2.418-3.905c-1.023-1.117-2.217-2-3.58-2.65c-1.365-0.652-2.822-0.977-4.371-0.977
			c-1.551,0-2.992,0.324-4.324,0.977c-1.334,0.65-2.512,1.533-3.535,2.65c-1.023,1.115-1.83,2.418-2.418,3.905
			c-0.59,1.488-0.883,3.069-0.883,4.743v13.484c0,1.675,0.293,3.256,0.883,4.744c0.588,1.487,1.395,2.789,2.418,3.905
			s2.201,1.999,3.535,2.651c1.332,0.65,2.773,0.977,4.324,0.977c1.797,0,3.424-0.403,4.883-1.21c1.455-0.805,2.711-1.89,3.766-3.255
			h-8.742v-14.415h26.971V241.002z"/>
		<path style="fill:#FFFFFF;" d="M276.647,215.242v11.159h19.715v15.624h-19.715v11.16h26.783v15.624h-42.408v-69.192h42.408v15.625
			H276.647z"/>
		<path style="fill:#FFFFFF;" d="M337.468,268.809l-12.09-26.226h-0.186v26.226h-15.625v-69.192h21.018h0.094
			c2.977,0,5.781,0.559,8.416,1.674c2.635,1.117,4.93,2.65,6.883,4.604s3.488,4.232,4.604,6.836s1.674,5.395,1.674,8.37
			c0,4.217-1.086,8.015-3.256,11.393c-2.17,3.38-5.021,5.968-8.555,7.766l13.113,28.551H337.468z"/>
		<path style="fill:#FFFFFF;" d="M409.169,199.617v69.192H393.36l-19.531-38.688v38.688h-15.623v-69.192h15.902l19.438,38.596
			v-38.596H409.169z"/>
	</g>
</g>
</svg>
