<?xml version="1.0" encoding="iso-8859-1"?>
<!-- Generator: Adobe Illustrator 19.1.0, SVG Export Plug-In . SVG Version: 6.00 Build 0)  -->
<!DOCTYPE svg PUBLIC "-//W3C//DTD SVG 1.1//EN" "http://www.w3.org/Graphics/SVG/1.1/DTD/svg11.dtd">
<svg version="1.1" id="Layer_1" xmlns="http://www.w3.org/2000/svg" xmlns:xlink="http://www.w3.org/1999/xlink" x="0px" y="0px"
	 viewBox="0 0 464.663 561.967" style="enable-background:new 0 0 464.663 561.967;" xml:space="preserve">
<g>
	<g>
		<path style="fill:#EB2F2B;" d="M3,558.968V249.19c0-36.001,14.121-69.948,39.762-95.589s59.588-39.762,95.589-39.762h120.538
			v-0.159h22.613c86.429,0,159.292-36.158,180.161-85v394.936c0,36.001-14.121,69.948-39.763,95.59
			c-25.641,25.641-59.588,39.762-95.589,39.762H3z"/>
		<path style="fill:#FFFFFF;" d="M458.663,41.021v69.818v47.831v264.946c0,35.199-13.809,68.394-38.883,93.468
			s-58.269,38.883-93.468,38.883H6V249.19c0-35.199,13.809-68.394,38.883-93.468s58.269-38.883,93.468-38.883h117.538h6v-0.159
			h19.613c49.8,0,96.842-11.854,132.46-33.377c17.57-10.618,31.417-23.025,41.156-36.877
			C456.375,44.638,457.557,42.836,458.663,41.021 M464.663,0c0,60.875-82.422,110.681-183.161,110.681h-25.613v0.159H138.351
			C62.258,110.839,0,173.098,0,249.19v312.777h326.312c76.093,0,138.351-62.258,138.351-138.351V158.67v-47.831V0L464.663,0z"/>
	</g>
	<g>
		<path style="fill:#FFFFFF;" d="M123.769,237.016c-0.068,3.197-0.731,6.207-1.988,9.027c-1.26,2.822-2.943,5.271-5.05,7.344
			c-2.108,2.076-4.59,3.725-7.446,4.947c-2.855,1.225-5.883,1.836-9.078,1.836c-3.264,0-6.308-0.611-9.129-1.836
			c-2.822-1.223-5.304-2.906-7.445-5.049c-2.143-2.143-3.825-4.641-5.049-7.496c-1.225-2.857-1.836-5.916-1.836-9.18h17.136
			c0,1.768,0.612,3.281,1.836,4.537c1.224,1.26,2.719,1.889,4.487,1.889c1.768,0,3.28-0.629,4.539-1.889
			c1.258-1.256,1.888-2.77,1.888-4.537v-52.326h17.136V237.016z"/>
		<path style="fill:#FFFFFF;" d="M147.943,201.419v12.24h21.625v17.137h-21.625v12.24h29.377v17.135h-46.513v-75.887h46.513v17.135
			H147.943z"/>
		<path style="fill:#FFFFFF;" d="M201.185,201.419v12.24h21.625v17.137h-21.625v12.24h29.377v17.135h-46.512v-75.887h46.512v17.135
			H201.185z"/>
		<path style="fill:#FFFFFF;" d="M287.988,201.419H270.75v58.752h-17.137v-58.752h-17.238v-17.135h51.613V201.419z"/>
		<path style="fill:#FFFFFF;" d="M116.527,340.796h-14.076l-10.199,29.375H73.789l26.316-75.887h18.768l26.316,75.887h-18.462
			L116.527,340.796z"/>
		<path style="fill:#FFFFFF;" d="M250.859,311.419l-29.58,41.617h29.58v17.135h-49.469v-17.135l29.477-41.617h-29.477v-17.135
			h49.469V311.419z"/>
		<path style="fill:#FFFFFF;" d="M275.135,311.419v12.24h21.625v17.137h-21.625v12.24h29.377v17.135H258v-75.887h46.512v17.135
			H275.135z"/>
		<path style="fill:#FFFFFF;" d="M107.348,480.171l-13.26-28.764h-0.204v28.764H76.748v-75.887h23.051h0.103
			c3.265,0,6.341,0.611,9.231,1.836c2.889,1.223,5.406,2.906,7.548,5.049c2.142,2.141,3.825,4.641,5.049,7.496
			s1.836,5.916,1.836,9.18c0,4.625-1.19,8.791-3.569,12.496c-2.382,3.707-5.508,6.545-9.385,8.516l14.383,31.314H107.348z"/>
		<path style="fill:#FFFFFF;" d="M147.127,421.419v12.24h21.623v17.137h-21.623v12.24h29.375v17.135H129.99v-75.887h46.512v17.135
			H147.127z"/>
		<path style="fill:#FFFFFF;" d="M204.652,442.329l32.232,37.842h-17.137l-19.379-21.521v21.521h-17.137v-75.887h17.137v21.725
			l19.482-21.725h17.135L204.652,442.329z"/>
		<path style="fill:#FFFFFF;" d="M261.873,442.329l32.232,37.842h-17.137l-19.379-21.521v21.521h-17.137v-75.887h17.137v21.725
			l19.482-21.725h17.135L261.873,442.329z"/>
		<path style="fill:#FFFFFF;" d="M314.81,421.419v12.24h21.623v17.137H314.81v12.24h29.375v17.135h-46.512v-75.887h46.512v17.135
			H314.81z"/>
		<path style="fill:#FFFFFF;" d="M381.517,480.171l-13.26-28.764h-0.205v28.764h-17.135v-75.887h23.051h0.104
			c3.264,0,6.34,0.611,9.23,1.836c2.889,1.223,5.406,2.906,7.547,5.049c2.143,2.141,3.826,4.641,5.051,7.496
			c1.223,2.855,1.836,5.916,1.836,9.18c0,4.625-1.191,8.791-3.57,12.496c-2.381,3.707-5.508,6.545-9.385,8.516l14.383,31.314
			H381.517z"/>
	</g>
</g>
</svg>
