<?xml version="1.0" encoding="iso-8859-1"?>
<!-- Generator: Adobe Illustrator 19.1.0, SVG Export Plug-In . SVG Version: 6.00 Build 0)  -->
<!DOCTYPE svg PUBLIC "-//W3C//DTD SVG 1.1//EN" "http://www.w3.org/Graphics/SVG/1.1/DTD/svg11.dtd">
<svg version="1.1" id="Layer_1" xmlns="http://www.w3.org/2000/svg" xmlns:xlink="http://www.w3.org/1999/xlink" x="0px" y="0px"
	 viewBox="0 0 297.857 242.587" style="enable-background:new 0 0 297.857 242.587;" xml:space="preserve">
<g>
	<g>
		<path style="fill:#231F20;" d="M70.867,239.586C33.445,239.586,3,209.142,3,171.72V20.696
			c13.679,22.745,49.228,38.997,90.818,38.997h69.967l3,0.081h60.206c37.421,0,67.865,30.444,67.865,67.866v111.946H70.867z"/>
		<path style="fill:#FFFFFF;" d="M6,30c4.805,5.553,10.994,10.665,18.456,15.174c18.695,11.297,43.328,17.518,69.362,17.518h66.967
			v0.081h6h60.205c17.248,0,33.516,6.769,45.807,19.06c12.291,12.291,19.06,28.559,19.06,45.807v108.946H70.866
			c-17.248,0-33.516-6.769-45.807-19.06C12.769,205.236,6,188.969,6,171.72V81.274v-24.5V30 M0,0v56.774v24.5v90.446
			c0,38.976,31.89,70.866,70.866,70.866h226.991V127.64c0-38.976-31.89-70.866-70.866-70.866h-60.205v-0.081H93.819
			C42.219,56.693,0,31.181,0,0L0,0z"/>
	</g>
	<g>
		<path style="fill:#FFFFFF;" d="M70.947,117.763c0,0.204,0,0.407,0,0.61c0,0.204-0.021,0.406-0.061,0.609v17.02h-9.455v-2.318
			c-1.22,0.732-2.512,1.312-3.873,1.738c-1.363,0.428-2.756,0.641-4.179,0.641h-0.062c-2.399,0-4.666-0.467-6.801-1.402
			s-4.037-2.277-5.703-4.026c-1.587-1.708-2.817-3.63-3.691-5.765c-0.875-2.135-1.331-4.382-1.372-6.74v-9.395
			c0-2.439,0.438-4.736,1.312-6.893c0.874-2.155,2.125-4.087,3.752-5.795c1.666-1.748,3.568-3.09,5.703-4.026
			c2.135-0.935,4.401-1.402,6.801-1.402h0.062c2.358,0,4.605,0.468,6.74,1.402c2.136,0.937,4.057,2.278,5.765,4.026
			c1.626,1.749,2.877,3.721,3.752,5.917c0.873,2.196,1.311,4.514,1.311,6.954H60.699c0-1.099-0.193-2.136-0.579-3.111
			c-0.387-0.976-0.915-1.83-1.586-2.562c-0.671-0.732-1.454-1.312-2.349-1.739c-0.895-0.427-1.851-0.641-2.867-0.641
			s-1.962,0.214-2.836,0.641c-0.875,0.428-1.646,1.007-2.318,1.739c-0.671,0.731-1.199,1.586-1.586,2.562s-0.58,2.013-0.58,3.111
			v8.845c0,1.098,0.193,2.135,0.58,3.111c0.387,0.976,0.915,1.83,1.586,2.562c0.672,0.732,1.443,1.312,2.318,1.738
			c0.874,0.428,1.819,0.641,2.836,0.641c1.18,0,2.247-0.264,3.203-0.793c0.955-0.527,1.778-1.24,2.471-2.135h-5.734v-9.455h17.689
			V117.763z"/>
		<path style="fill:#FFFFFF;" d="M86.136,136.002H75.888V90.619h10.248V136.002z"/>
		<path style="fill:#FFFFFF;" d="M100.776,100.866v7.32h12.933v10.248h-12.933v17.568H90.528V90.619h27.815v10.247H100.776z"/>
		<path style="fill:#FFFFFF;" d="M194.837,136.002h-10.248v-15.86l-5.551,15.86H168.79l-5.674-16.349v16.349h-10.248V90.619H163.3
			l10.613,30.621l10.676-30.621h10.248V136.002z"/>
		<path style="fill:#FFFFFF;" d="M233.023,124.778c-0.854,2.156-2.096,4.087-3.721,5.795c-1.668,1.79-3.568,3.152-5.705,4.088
			c-2.135,0.936-4.402,1.402-6.801,1.402h-0.061c-2.359,0-4.605-0.467-6.74-1.402s-4.057-2.277-5.766-4.026
			c-1.586-1.708-2.816-3.639-3.689-5.795c-0.875-2.155-1.332-4.453-1.373-6.894v-10.613c0.203-2.155,0.742-4.188,1.617-6.101
			c0.873-1.911,2.021-3.639,3.445-5.185c1.709-1.748,3.619-3.09,5.734-4.026c2.113-0.935,4.371-1.402,6.771-1.402h0.061
			c2.398,0,4.666,0.468,6.801,1.402c2.137,0.937,4.037,2.278,5.705,4.026c1.463,1.546,2.623,3.273,3.477,5.185
			c0.854,1.912,1.381,3.945,1.586,6.101v1.342v5.612v3.659C234.324,120.346,233.876,122.624,233.023,124.778z"/>
		<path style="fill:#FFFFFF;" d="M53.197,190.815c1.016,0,1.961-0.213,2.836-0.641c0.874-0.427,1.646-1.006,2.318-1.738
			c0.671-0.731,1.199-1.586,1.586-2.562c0.386-0.977,0.579-2.014,0.579-3.111h10.248c0,2.44-0.427,4.758-1.28,6.954
			c-0.854,2.196-2.115,4.169-3.783,5.917c-1.668,1.749-3.568,3.091-5.703,4.026s-4.402,1.402-6.801,1.402h-0.062
			c-2.399,0-4.657-0.467-6.771-1.402c-2.115-0.936-4.026-2.277-5.734-4.026c-1.586-1.708-2.816-3.63-3.69-5.765
			s-1.331-4.382-1.372-6.74v-9.395c0.041-2.439,0.487-4.736,1.342-6.893c0.854-2.155,2.094-4.087,3.721-5.795
			c1.708-1.748,3.619-3.09,5.734-4.026c2.113-0.935,4.371-1.402,6.771-1.402h0.062c2.398,0,4.666,0.468,6.801,1.402
			c2.135,0.937,4.035,2.278,5.703,4.026c1.668,1.749,2.929,3.721,3.783,5.917c0.854,2.196,1.28,4.514,1.28,6.954H60.516
			c0-1.099-0.193-2.136-0.579-3.111c-0.387-0.976-0.915-1.83-1.586-2.562c-0.672-0.732-1.444-1.312-2.318-1.739
			c-0.875-0.427-1.82-0.641-2.836-0.641c-1.018,0-1.974,0.214-2.867,0.641c-0.896,0.428-1.678,1.007-2.349,1.739
			c-0.671,0.731-1.2,1.586-1.586,2.562c-0.388,0.976-0.579,2.013-0.579,3.111v8.845c0,1.098,0.191,2.135,0.579,3.111
			c0.386,0.976,0.915,1.83,1.586,2.562c0.671,0.732,1.453,1.312,2.349,1.738C51.223,190.602,52.179,190.815,53.197,190.815z"/>
		<path style="fill:#FFFFFF;" d="M106.874,155.619v45.384H96.627v-17.568h-12.14v17.568H74.24v-45.384h10.248v17.567h12.14v-17.567
			H106.874z"/>
		<path style="fill:#FFFFFF;" d="M121.943,165.866v7.32h12.932v10.248h-12.932v7.32h17.567v10.248h-27.815v-45.384h27.815v10.247
			H121.943z"/>
		<path style="fill:#FFFFFF;" d="M173.853,165.866h-10.31v35.137h-10.248v-35.137h-10.309v-10.247h30.866V165.866z"/>
		<path style="fill:#FFFFFF;" d="M207.464,165.866h-10.311v35.137h-10.248v-35.137h-10.309v-10.247h30.867V165.866z"/>
		<path style="fill:#FFFFFF;" d="M221.005,165.866v7.32h12.932v10.248h-12.932v7.32h17.568v10.248h-27.816v-45.384h27.816v10.247
			H221.005z"/>
	</g>
</g>
</svg>
