<?xml version="1.0" encoding="iso-8859-1"?>
<!-- Generator: Adobe Illustrator 19.1.0, SVG Export Plug-In . SVG Version: 6.00 Build 0)  -->
<!DOCTYPE svg PUBLIC "-//W3C//DTD SVG 1.1//EN" "http://www.w3.org/Graphics/SVG/1.1/DTD/svg11.dtd">
<svg version="1.1" id="Layer_1" xmlns="http://www.w3.org/2000/svg" xmlns:xlink="http://www.w3.org/1999/xlink" x="0px" y="0px"
	 viewBox="0 0 662.884 255.587" style="enable-background:new 0 0 662.884 255.587;" xml:space="preserve">
<g>
	<g>
		<path style="fill:#231F20;" d="M3,70.893C3,33.471,33.444,3.026,70.866,3.026h588.991v124.92
			c0,37.422-30.444,67.866-67.866,67.866h-63.206v0.081H93.818c-41.591,0-77.14,16.252-90.818,38.997V70.893z"/>
		<path style="fill:#FFFFFF;" d="M656.857,6.027v121.919c0,17.248-6.769,33.516-19.06,45.807
			c-12.291,12.291-28.558,19.06-45.807,19.06h-60.205h-6v0.081H93.819c-26.034,0-50.668,6.222-69.362,17.519
			c-7.462,4.509-13.651,9.622-18.456,15.174v-26.774v-24.5V70.893c0-17.248,6.769-33.516,19.06-45.807
			C37.35,12.796,53.618,6.027,70.866,6.027H656.857 M662.857,0.027H70.866C31.89,0.027,0,31.916,0,70.893v103.419v24.5v56.774
			c0-31.181,42.218-56.693,93.819-56.693h437.967v-0.081h60.205c38.976,0,70.866-31.89,70.866-70.866V0.027L662.857,0.027z"/>
	</g>
	<g>
		<path style="fill:#FFFFFF;" d="M54.859,38.979v11.76l-3.71,6.51h-7.141l3.71-6.51h-4.55v-11.76H54.859z"/>
		<path style="fill:#FFFFFF;" d="M94.618,50.738h-11.83v40.32h-11.76v-40.32h-11.83v-11.76h35.42V50.738z"/>
		<path style="fill:#FFFFFF;" d="M165.598,74.889c0,0.84-0.059,1.656-0.175,2.449c-0.117,0.795-0.292,1.588-0.525,2.381
			c-0.514,1.634-1.26,3.149-2.24,4.55c-0.979,1.399-2.146,2.602-3.5,3.604c-1.354,1.004-2.847,1.785-4.479,2.346
			c-1.634,0.56-3.36,0.84-5.18,0.84c-2.24,0-4.329-0.42-6.266-1.26c-1.937-0.841-3.64-1.995-5.109-3.466
			c-1.471-1.47-2.625-3.185-3.466-5.145c-0.84-1.96-1.26-4.061-1.26-6.3h11.76c0,1.214,0.421,2.252,1.261,3.114
			c0.84,0.864,1.865,1.296,3.08,1.296c0.979,0,1.843-0.291,2.59-0.875c0.746-0.583,1.26-1.318,1.54-2.205
			c0.14-0.373,0.21-0.793,0.21-1.261c0-1.213-0.42-2.192-1.26-2.939c-0.841-0.746-1.867-1.12-3.08-1.12
			c-2.24,0-4.329-0.408-6.266-1.225s-3.64-1.937-5.109-3.36c-1.471-1.423-2.625-3.091-3.466-5.005c-0.84-1.913-1.26-3.99-1.26-6.23
			c0-0.793,0.059-1.586,0.175-2.38c0.116-0.793,0.291-1.586,0.525-2.38c0.513-1.633,1.26-3.15,2.24-4.55
			c0.979-1.4,2.146-2.602,3.5-3.605c1.353-1.003,2.846-1.785,4.479-2.345c1.633-0.56,3.36-0.84,5.181-0.84
			c2.239,0,4.327,0.42,6.265,1.26c1.936,0.84,3.64,1.995,5.11,3.465c1.47,1.471,2.625,3.186,3.465,5.146s1.26,4.037,1.26,6.229
			h-11.76c0-1.213-0.42-2.24-1.26-3.08c-0.841-0.84-1.867-1.26-3.08-1.26c-0.98,0-1.845,0.292-2.591,0.875
			c-0.746,0.584-1.26,1.319-1.539,2.205c-0.141,0.327-0.211,0.747-0.211,1.26c0,1.214,0.421,2.194,1.261,2.94
			c0.84,0.747,1.865,1.12,3.08,1.12c2.239,0,4.327,0.409,6.265,1.225c1.936,0.817,3.64,1.938,5.11,3.36
			c1.47,1.424,2.625,3.092,3.465,5.005C165.178,70.643,165.598,72.695,165.598,74.889z"/>
		<path style="fill:#FFFFFF;" d="M189.397,79.368c1.166,0,2.252-0.245,3.256-0.734c1.002-0.49,1.891-1.155,2.66-1.995
			s1.375-1.82,1.82-2.94c0.441-1.12,0.664-2.31,0.664-3.57h11.76c0,2.801-0.49,5.46-1.469,7.98c-0.98,2.52-2.428,4.784-4.342,6.79
			c-1.914,2.007-4.094,3.547-6.545,4.62c-2.449,1.074-5.051,1.609-7.805,1.609h-0.07c-2.754,0-5.344-0.535-7.77-1.609
			c-2.426-1.073-4.619-2.613-6.58-4.62c-1.82-1.96-3.231-4.165-4.234-6.615s-1.528-5.027-1.575-7.734v-10.78
			c0.047-2.8,0.56-5.437,1.54-7.91c0.98-2.473,2.402-4.69,4.27-6.65c1.961-2.006,4.154-3.546,6.58-4.62
			c2.426-1.072,5.016-1.609,7.77-1.609h0.07c2.754,0,5.355,0.537,7.805,1.609c2.451,1.074,4.631,2.614,6.545,4.62
			c1.914,2.008,3.361,4.271,4.342,6.79c0.979,2.521,1.469,5.181,1.469,7.98h-11.76c0-1.26-0.223-2.45-0.664-3.57
			c-0.445-1.12-1.051-2.1-1.82-2.939c-0.77-0.841-1.658-1.506-2.66-1.995c-1.004-0.49-2.09-0.735-3.256-0.735
			s-2.264,0.245-3.289,0.735c-1.027,0.489-1.926,1.154-2.695,1.995c-0.77,0.84-1.377,1.819-1.82,2.939s-0.664,2.311-0.664,3.57
			v10.149c0,1.261,0.221,2.45,0.664,3.57s1.051,2.101,1.82,2.94s1.668,1.505,2.695,1.995
			C187.133,79.123,188.231,79.368,189.397,79.368z"/>
		<path style="fill:#FFFFFF;" d="M250.996,38.979v52.08h-11.76v-20.16h-13.931v20.16h-11.76v-52.08h11.76v20.16h13.931v-20.16
			H250.996z"/>
		<path style="fill:#FFFFFF;" d="M295.306,78.179c-0.98,2.474-2.404,4.689-4.271,6.649c-1.914,2.055-4.095,3.617-6.545,4.69
			c-2.45,1.074-5.052,1.609-7.805,1.609h-0.07c-2.707,0-5.285-0.535-7.734-1.609c-2.45-1.073-4.655-2.613-6.615-4.62
			c-1.82-1.96-3.232-4.176-4.235-6.65c-1.004-2.473-1.528-5.109-1.575-7.91v-12.18c0.233-2.473,0.852-4.806,1.855-7
			c1.003-2.192,2.32-4.176,3.955-5.95c1.96-2.006,4.152-3.546,6.58-4.62c2.426-1.072,5.016-1.609,7.77-1.609h0.07
			c2.753,0,5.354,0.537,7.805,1.609c2.45,1.074,4.631,2.614,6.545,4.62c1.681,1.774,3.01,3.758,3.99,5.95
			c0.98,2.194,1.586,4.527,1.82,7v1.54v6.44v4.199C296.799,73.093,296.285,75.705,295.306,78.179z"/>
		<path style="fill:#FFFFFF;" d="M328.555,70.898h-9.66l-7,20.16h-12.67l18.061-52.08h12.88l18.06,52.08h-12.67L328.555,70.898z"/>
		<path style="fill:#FFFFFF;" d="M373.984,40.238c1.96,0.84,3.675,1.995,5.145,3.465c1.47,1.471,2.625,3.186,3.465,5.146
			s1.26,4.06,1.26,6.3s-0.42,4.34-1.26,6.3s-1.995,3.675-3.465,5.146c-1.47,1.47-3.185,2.625-5.145,3.465s-4.061,1.26-6.301,1.26
			h-0.069h-4.061v19.74h-11.76v-52.08h15.82h0.069C369.924,38.979,372.025,39.398,373.984,40.238z"/>
		<path style="fill:#FFFFFF;" d="M433.344,50.738v8.4h14.84v11.76h-14.84v8.4h20.16v11.76h-31.92v-52.08h31.92v11.76H433.344z"/>
		<path style="fill:#FFFFFF;" d="M490.323,74.889c0,0.84-0.06,1.656-0.175,2.449c-0.117,0.795-0.292,1.588-0.525,2.381
			c-0.514,1.634-1.26,3.149-2.24,4.55c-0.979,1.399-2.146,2.602-3.5,3.604c-1.354,1.004-2.847,1.785-4.479,2.346
			c-1.635,0.56-3.36,0.84-5.181,0.84c-2.239,0-4.329-0.42-6.265-1.26c-1.937-0.841-3.64-1.995-5.11-3.466
			c-1.47-1.47-2.625-3.185-3.465-5.145s-1.26-4.061-1.26-6.3h11.76c0,1.214,0.42,2.252,1.26,3.114
			c0.841,0.864,1.866,1.296,3.08,1.296c0.98,0,1.844-0.291,2.591-0.875c0.745-0.583,1.26-1.318,1.54-2.205
			c0.14-0.373,0.21-0.793,0.21-1.261c0-1.213-0.421-2.192-1.261-2.939c-0.84-0.746-1.867-1.12-3.08-1.12
			c-2.239,0-4.329-0.408-6.265-1.225c-1.937-0.816-3.64-1.937-5.11-3.36c-1.47-1.423-2.625-3.091-3.465-5.005
			c-0.84-1.913-1.26-3.99-1.26-6.23c0-0.793,0.058-1.586,0.175-2.38c0.116-0.793,0.291-1.586,0.525-2.38
			c0.513-1.633,1.26-3.15,2.24-4.55c0.979-1.4,2.146-2.602,3.5-3.605c1.353-1.003,2.846-1.785,4.479-2.345
			c1.633-0.56,3.36-0.84,5.18-0.84c2.24,0,4.328,0.42,6.266,1.26c1.936,0.84,3.64,1.995,5.109,3.465
			c1.471,1.471,2.625,3.186,3.466,5.146c0.84,1.96,1.26,4.037,1.26,6.229h-11.76c0-1.213-0.421-2.24-1.261-3.08
			s-1.867-1.26-3.08-1.26c-0.979,0-1.844,0.292-2.59,0.875c-0.747,0.584-1.26,1.319-1.54,2.205c-0.14,0.327-0.21,0.747-0.21,1.26
			c0,1.214,0.42,2.194,1.26,2.94c0.841,0.747,1.866,1.12,3.08,1.12c2.24,0,4.328,0.409,6.266,1.225
			c1.936,0.817,3.64,1.938,5.109,3.36c1.471,1.424,2.625,3.092,3.466,5.005C489.903,70.643,490.323,72.695,490.323,74.889z"/>
		<path style="fill:#FFFFFF;" d="M566.483,65.019c0,3.5-0.654,6.825-1.96,9.975c-1.308,3.15-3.221,5.985-5.74,8.505
			c-2.334,2.287-4.959,4.072-7.875,5.355c-2.917,1.284-5.985,2.019-9.205,2.205h-1.54h-10.5v-52.08h10.5
			c3.5,0,6.848,0.642,10.045,1.925c3.196,1.284,6.055,3.162,8.575,5.635c2.52,2.521,4.433,5.355,5.74,8.505
			C565.828,58.193,566.483,61.519,566.483,65.019z"/>
		<path style="fill:#FFFFFF;" d="M582.092,50.738v8.4h14.84v11.76h-14.84v8.4h20.16v11.76h-31.92v-52.08h31.92v11.76H582.092z"/>
		<path style="fill:#FFFFFF;" d="M65.428,105.238c1.96,0.84,3.676,1.995,5.146,3.465c1.47,1.471,2.625,3.186,3.465,5.146
			s1.26,4.06,1.26,6.3s-0.42,4.34-1.26,6.3c-0.84,1.96-1.995,3.675-3.465,5.146c-1.47,1.47-3.186,2.625-5.146,3.465
			s-4.06,1.26-6.3,1.26h-0.07h-4.06v19.74h-11.76v-52.08h15.819h0.07C61.368,103.979,63.468,104.398,65.428,105.238z"/>
		<path style="fill:#FFFFFF;" d="M99.027,156.059l-9.1-19.74h-0.141v19.74h-11.76v-52.08h15.82h0.07c2.239,0,4.351,0.42,6.335,1.26
			c1.982,0.84,3.71,1.995,5.18,3.465c1.47,1.471,2.625,3.186,3.465,5.146s1.26,4.06,1.26,6.3c0,3.174-0.816,6.032-2.449,8.575
			c-1.635,2.544-3.78,4.492-6.44,5.845l9.87,21.49H99.027z"/>
		<path style="fill:#FFFFFF;" d="M126.326,115.738v8.4h14.841v11.76h-14.841v8.4h20.16v11.76h-31.92v-52.08h31.92v11.76H126.326z"/>
		<path style="fill:#FFFFFF;" d="M191.567,135.269c-0.047,2.754-0.561,5.367-1.541,7.84c-0.979,2.474-2.404,4.69-4.27,6.65
			c-1.914,2.054-4.096,3.616-6.545,4.689c-2.449,1.074-5.053,1.61-7.805,1.61h-0.07c-2.707,0-5.285-0.536-7.735-1.61
			c-2.45-1.073-4.655-2.636-6.615-4.689c-1.819-1.96-3.231-4.177-4.234-6.65c-1.004-2.473-1.529-5.086-1.575-7.84v-31.36h11.76
			v31.15c0,1.26,0.221,2.45,0.665,3.569c0.443,1.12,1.05,2.101,1.82,2.94c0.77,0.84,1.668,1.505,2.694,1.995
			s2.123,0.735,3.291,0.735c1.166,0,2.25-0.245,3.254-0.735s1.891-1.155,2.66-1.995c0.771-0.84,1.377-1.82,1.82-2.94
			c0.443-1.119,0.666-2.31,0.666-3.569v-31.15h11.76V135.269z"/>
		<path style="fill:#FFFFFF;" d="M230.485,115.738h-11.83v40.32h-11.76v-40.32h-11.83v-11.76h35.42V115.738z"/>
		<path style="fill:#FFFFFF;" d="M246.025,115.738v8.4h14.84v11.76h-14.84v8.4h20.16v11.76h-31.92v-52.08h31.92v11.76H246.025z"/>
		<path style="fill:#FFFFFF;" d="M344.584,143.179c-0.98,2.474-2.404,4.689-4.271,6.649c-1.914,2.055-4.095,3.617-6.545,4.69
			c-2.45,1.074-5.052,1.609-7.805,1.609h-0.07c-2.707,0-5.285-0.535-7.734-1.609c-2.45-1.073-4.655-2.613-6.615-4.62
			c-1.82-1.96-3.232-4.176-4.235-6.65c-1.004-2.473-1.528-5.109-1.575-7.91v-12.18c0.233-2.473,0.852-4.806,1.855-7
			c1.003-2.192,2.32-4.176,3.955-5.95c1.96-2.006,4.152-3.546,6.58-4.62c2.426-1.072,5.016-1.609,7.77-1.609h0.07
			c2.753,0,5.354,0.537,7.805,1.609c2.45,1.074,4.631,2.614,6.545,4.62c1.681,1.774,3.01,3.758,3.99,5.95
			c0.98,2.194,1.586,4.527,1.82,7v1.54v6.44v4.199C346.077,138.093,345.564,140.705,344.584,143.179z"/>
		<path style="fill:#FFFFFF;" d="M362.363,115.738v8.4h14.84v11.76h-14.84v20.16h-11.76v-52.08h31.92v11.76H362.363z"/>
	</g>
</g>
</svg>
