<?xml version="1.0" encoding="iso-8859-1"?>
<!-- Generator: Adobe Illustrator 19.1.0, SVG Export Plug-In . SVG Version: 6.00 Build 0)  -->
<!DOCTYPE svg PUBLIC "-//W3C//DTD SVG 1.1//EN" "http://www.w3.org/Graphics/SVG/1.1/DTD/svg11.dtd">
<svg version="1.1" id="Layer_1" xmlns="http://www.w3.org/2000/svg" xmlns:xlink="http://www.w3.org/1999/xlink" x="0px" y="0px"
	 viewBox="0 0 297.676 239.587" style="enable-background:new 0 0 297.676 239.587;" xml:space="preserve">
<g>
	<g>
		<path d="M3,70.866C3,33.444,33.444,3,70.866,3h223.81v108.946c0,37.422-30.444,67.866-67.866,67.866h-63.205v0.081H93.818
			c-41.591,0-77.14,16.252-90.818,38.997V70.866z"/>
		<path style="fill:#FFFFFF;" d="M291.676,6v105.946c0,17.248-6.769,33.516-19.06,45.807s-28.559,19.06-45.807,19.06h-60.205h-6
			v0.081H93.819c-26.034,0-50.668,6.221-69.362,17.518c-7.462,4.509-13.651,9.622-18.456,15.174v-26.774v-24.5V70.866
			C6,53.618,12.769,37.35,25.06,25.06C37.35,12.769,53.618,6,70.866,6H291.676 M297.676,0H70.866C31.89,0,0,31.89,0,70.866v87.446
			v24.5v56.774c0-31.181,42.218-56.693,93.819-56.693h72.786v-0.081h60.205c38.976,0,70.866-31.89,70.866-70.866V0L297.676,0z"/>
	</g>
	<g>
		<path style="fill:#FFFFFF;" d="M86.37,88.641c2.976,1.55,5.362,3.767,7.161,6.649c1.797,2.883,2.697,6.091,2.697,9.625
			c0,2.543-0.481,4.93-1.442,7.161c-0.962,2.232-2.264,4.171-3.905,5.812c-1.644,1.644-3.581,2.945-5.812,3.906
			c-2.232,0.962-4.62,1.441-7.161,1.441h-0.465H56.238V54.045h21.204h0.465c2.541,0,4.929,0.481,7.161,1.441
			c2.231,0.963,4.169,2.265,5.812,3.906c1.642,1.644,2.943,3.581,3.905,5.813c0.961,2.232,1.442,4.62,1.442,7.161
			c0,3.534-0.9,6.742-2.697,9.626C91.732,84.875,89.346,87.092,86.37,88.641z"/>
		<path style="fill:#FFFFFF;" d="M117.896,69.576v11.16h19.716V96.36h-19.716v11.16h26.784v15.624h-42.408V53.952h42.408v15.624
			H117.896z"/>
		<path style="fill:#FFFFFF;" d="M178.718,123.144l-12.09-26.227h-0.187v26.227h-15.624V53.952h21.019h0.093
			c2.976,0,5.78,0.559,8.416,1.674c2.635,1.116,4.929,2.65,6.882,4.604s3.488,4.231,4.604,6.836c1.116,2.604,1.674,5.394,1.674,8.37
			c0,4.217-1.085,8.014-3.255,11.393c-2.171,3.38-5.021,5.968-8.556,7.766l13.113,28.551H178.718z"/>
		<path style="fill:#FFFFFF;" d="M214.986,69.576v11.16h19.716V96.36h-19.716v11.16h26.784v15.624h-42.408V53.952h42.408v15.624
			H214.986z"/>
	</g>
</g>
</svg>
