<?xml version="1.0" encoding="iso-8859-1"?>
<!-- Generator: Adobe Illustrator 19.1.0, SVG Export Plug-In . SVG Version: 6.00 Build 0)  -->
<!DOCTYPE svg PUBLIC "-//W3C//DTD SVG 1.1//EN" "http://www.w3.org/Graphics/SVG/1.1/DTD/svg11.dtd">
<svg version="1.1" id="Layer_1" xmlns="http://www.w3.org/2000/svg" xmlns:xlink="http://www.w3.org/1999/xlink" x="0px" y="0px"
	 viewBox="0 0 251.905 242.587" style="enable-background:new 0 0 251.905 242.587;" xml:space="preserve">
<g>
	<g>
		<path style="fill:#FFFFFF;" d="M248.857,221.891c-13.679-22.745-49.228-38.997-90.818-38.997h-23.967l-3-0.081H70.866
			C33.445,182.812,3,152.368,3,114.946V3h177.991c37.422,0,67.866,30.444,67.866,67.866V221.891z"/>
		<path d="M180.991,6c17.248,0,33.516,6.769,45.807,19.06c12.291,12.291,19.06,28.559,19.06,45.807v90.446v24.5v26.774
			c-4.805-5.552-10.994-10.665-18.456-15.174c-18.695-11.296-43.328-17.518-69.362-17.518h-20.967v-0.082h-6H70.866
			c-17.248,0-33.516-6.769-45.807-19.06S6,132.194,6,114.946V6H180.991 M180.991,0H0v114.946c0,38.977,31.89,70.866,70.866,70.866
			h60.205v0.082h26.967c51.6,0,93.819,25.512,93.819,56.693v-56.774v-24.5V70.866C251.857,31.89,219.967,0,180.991,0L180.991,0z"/>
	</g>
	<g>
		<path style="fill:#231F20;" d="M46.364,36.951v10.248l-3.233,5.674h-6.222l3.233-5.674h-3.965V36.951H46.364z"/>
		<path style="fill:#231F20;" d="M63.505,59.705l19.276,22.631H72.533l-11.59-12.871v12.871H50.695V36.951h10.248v12.993
			l11.651-12.993h10.248L63.505,59.705z"/>
		<path style="fill:#231F20;" d="M145,47.199l-17.69,24.889H145v10.248h-29.585V72.088l17.629-24.889h-17.629V36.951H145V47.199z"/>
		<path style="fill:#231F20;" d="M159.518,82.336H149.27V36.951h10.248V82.336z"/>
		<path style="fill:#231F20;" d="M197.337,36.951v45.385h-10.369l-12.811-25.377v25.377H163.91V36.951h10.432l12.748,25.315V36.951
			H197.337z"/>
		<path style="fill:#231F20;" d="M66.555,112.199H56.246v35.137H45.998v-35.137H35.689v-10.248h30.866V112.199z"/>
		<path style="fill:#231F20;" d="M80.097,112.199v7.32h12.932v10.248H80.097v7.32h17.568v10.248H69.849v-45.385h27.816v10.248
			H80.097z"/>
		<path style="fill:#231F20;" d="M132.007,112.199h-10.309v35.137H111.45v-35.137h-10.309v-10.248h30.866V112.199z"/>
		<path style="fill:#231F20;" d="M165.619,112.199h-10.31v35.137h-10.248v-35.137h-10.309v-10.248h30.867V112.199z"/>
		<path style="fill:#231F20;" d="M179.16,112.199v7.32h12.932v10.248H179.16v7.32h17.568v10.248h-27.816v-45.385h27.816v10.248
			H179.16z"/>
	</g>
</g>
</svg>
